<?xml version="1.0" encoding="UTF-8"?>
<svg xmlns="http://www.w3.org/2000/svg"
     width="71.12mm" height="128.5mm"
     viewBox="0 0 71.12 128.5">

  <!-- panel background -->
  <rect width="71.12" height="128.5" fill="#1e1e1e"/>

  <!-- top accent: upside-down trapezoid  \------/
       mirror of bottom shape -->
  <polygon points="
    0,0
    71.12,0
    71.12,0.5
    57.12,0.5
    54.12,2.0
    17.0,2.0
    14.0,0.5
    0,0.5
  " fill="#f26522"/>

  <!-- bottom accent: thin line -->
  <rect x="0" y="127.5" width="71.12" height="1.0" fill="#f26522"/>

  <!-- title: BASE (Bold) + 64 (Light), cap-top y=7, baseline y=11.125 -->
  <g id="title">
    <path fill="#d0d0d0" fill-rule="evenodd" d="M23.980535714285715 11.125H26.11375C27.198035714285712 11.125 27.76375 10.706607142857143 27.76375 9.999464285714286C27.76375 9.476299245357144 27.47353837506506 9.12788529098233 27.01573960849217 8.976933171408517C27.350756300652765 8.800715164873194 27.5575 8.484134869642858 27.5575 8.0725C27.5575 7.4282142857142865 27.033035714285713 7.0 25.995892857142856 7.0H23.980535714285715ZM25.878035714285716 7.718928571428571C26.341607142857143 7.718928571428571 26.596964285714286 7.880000000000001 26.596964285714286 8.202142857142857C26.596964285714286 8.532142857142858 26.341607142857143 8.69125 25.878035714285716 8.69125H24.929285714285715V7.718928571428571ZM24.929285714285715 10.406071428571428V9.386607142857143H26.043035714285715C26.538035714285712 9.386607142857143 26.79732142857143 9.553571428571429 26.79732142857143 9.899285714285714C26.79732142857143 10.252857142857144 26.538035714285712 10.406071428571428 26.043035714285715 10.406071428571428Z"/>
    <path fill="#d0d0d0" fill-rule="evenodd" d="M27.946428571428573 11.125H28.924642857142857L29.292231266839163 10.241071428571429H31.204377583095006L31.570535714285715 11.125H32.57232142857143L30.727857142857143 7.0H29.785ZM29.593653796059744 9.51625 30.250168130057197 7.937550145557948 30.904127942493982 9.51625Z"/>
    <path fill="#d0d0d0" fill-rule="evenodd" d="M34.35785714285715 11.195714285714285C35.53642857142857 11.195714285714285 36.10803571428572 10.612321428571429 36.10803571428572 9.916964285714286C36.10803571428572 9.48482142857143 35.91357142857143 9.211785714285714 35.63071428571429 9.03892857142857C34.92357142857143 8.606785714285714 33.70964285714286 8.69714285714286 33.70964285714286 8.166785714285714C33.70964285714286 8.076428571428572 33.73517857142858 7.996875 33.78625 7.928125C33.88839285714286 7.790625 34.12410714285715 7.695357142857143 34.49339285714286 7.695357142857143C34.862678571428575 7.695357142857143 35.25160714285715 7.799464285714286 35.636607142857144 8.019464285714285L35.931250000000006 7.294642857142857C35.54625 7.051071428571428 35.017857142857146 6.929285714285714 34.49928571428572 6.929285714285714C33.3325 6.929285714285714 32.76089285714286 7.506785714285715 32.76089285714286 8.213928571428571C32.76089285714286 8.873928571428571 33.19401785714286 9.145 33.70669642857143 9.31C34.39026785714286 9.530000000000001 35.159285714285716 9.547678571428571 35.159285714285716 9.987678571428571C35.159285714285716 10.246964285714286 34.92946428571429 10.429642857142857 34.36375 10.429642857142857C33.868750000000006 10.429642857142857 33.35607142857143 10.250892857142857 33.002500000000005 9.999464285714286L32.67839285714286 10.718392857142858C33.04767857142858 11.00125 33.697857142857146 11.195714285714285 34.35785714285715 11.195714285714285Z"/>
    <path fill="#d0d0d0" fill-rule="evenodd" d="M36.76214285714286 11.125H39.956071428571434V10.35892857142857H37.71089285714286V9.404285714285715H39.626071428571436V8.661785714285713H37.71089285714286V7.766071428571428H39.87946428571429V7.0H36.76214285714286Z"/>
    <path fill="#d0d0d0" fill-rule="evenodd" d="M42.207142857142856 11.154464285714285C42.996785714285714 11.154464285714285 43.580178571428576 10.665357142857145 43.580178571428576 9.911071428571429C43.580178571428576 9.168571428571429 43.026250000000005 8.685357142857143 42.20125 8.685357142857143C41.577591721428576 8.685357142857143 41.05935582231395 8.992457117796517 40.88908921922956 9.534127110072545C40.85916422393853 9.34561871007967 40.85178571428572 9.162759602142858 40.85178571428572 9.03892857142857C40.85178571428572 7.836785714285714 41.456785714285715 7.235714285714286 42.38392857142857 7.235714285714286C42.698214285714286 7.235714285714286 42.985 7.290714285714286 43.19714285714286 7.424285714285714L43.32089285714286 7.182678571428571C43.06946428571429 7.025535714285715 42.737500000000004 6.970535714285714 42.38392857142857 6.970535714285714C41.28785714285714 6.970535714285714 40.55125 7.68357142857143 40.55125 9.08607142857143C40.55125 10.370714285714286 41.12285714285714 11.154464285714285 42.207142857142856 11.154464285714285ZM42.19535714285715 10.895178571428572C41.42928571428571 10.895178571428572 41.01678571428572 10.411964285714285 41.01678571428572 9.92875C41.01678571428572 9.37482142857143 41.488214285714285 8.944642857142856 42.160000000000004 8.944642857142856C42.85928571428572 8.944642857142856 43.27964285714286 9.32767857142857 43.27964285714286 9.916964285714286C43.27964285714286 10.506250000000001 42.84357142857143 10.895178571428572 42.19535714285715 10.895178571428572Z"/>
    <path fill="#d0d0d0" fill-rule="evenodd" d="M44.028035714285714 9.981785714285714H46.379285714285714V11.125H46.673928571428576V9.981785714285714H47.54017857142857V9.716607142857143H46.673928571428576V8.708928571428572H46.385178571428575V9.716607142857143H44.40791769436428L46.60321428571429 7.0H46.26732142857143L44.028035714285714 9.76375Z"/>
  </g>

  <!-- PAGE label (above lights) -->
  <text x="35.56" y="11.5"
        text-anchor="middle"
        fill="#666666"
        font-size="2.8"
        font-family="sans-serif"
        letter-spacing="0.5">PAGE</text>

  <!-- MIDI INPUT label -->
  <text x="5.0" y="25.0"
        fill="#666666"
        font-size="2.8"
        font-family="sans-serif">MIDI IN</text>

  <!-- MIDI OUTPUT label -->
  <text x="5.0" y="57.0"
        fill="#666666"
        font-size="2.8"
        font-family="sans-serif">MIDI OUT</text>

  <!-- PAGE output label — white badge below jack, Montserrat Medium paths -->
  <rect x="13.3" y="108.5" width="13.4" height="4.5" rx="1.0" fill="#d0d0d0"/>
  <path fill="#1e1e1e" fill-rule="evenodd" d="M15.20357142857143 112.0H15.560714285714287V111.24285714285715H16.17857142857143C16.835714285714285 111.24285714285715 17.22142857142857 110.91428571428571 17.22142857142857 110.37142857142857C17.22142857142857 109.82857142857142 16.835714285714285 109.5 16.17857142857143 109.5H15.20357142857143ZM16.167857142857144 109.81071428571428C16.625 109.81071428571428 16.864285714285714 110.01428571428572 16.864285714285714 110.37142857142857C16.864285714285714 110.72857142857143 16.625 110.93214285714286 16.167857142857144 110.93214285714286H15.560714285714287V109.81071428571428Z"/>
  <path fill="#1e1e1e" fill-rule="evenodd" d="M17.40357142857143 112.0H17.771428571428572L18.046079199654717 111.375H19.375349371773858L19.650000000000002 112.0H20.025000000000002L18.889285714285716 109.5H18.53571428571429ZM18.171633774893625 111.08928571428571 18.710714285714285 109.86254416874476 19.24979479653495 111.08928571428571Z"/>
  <path fill="#1e1e1e" fill-rule="evenodd" d="M21.525000000000002 112.02857142857142C21.877380952380953 112.02857142857142 22.223809523809525 111.92023809523809 22.47142857142857 111.71071428571429V110.73571428571428H22.12857142857143V111.54841763632638C21.951335800745984 111.66357042604 21.752621142857144 111.71071428571429 21.542857142857144 111.71071428571429C21.114285714285714 111.71071428571429 20.76964285714286 111.48392857142858 20.623214285714287 111.13035714285714C20.524738930659986 110.89257518796992 20.526436781609195 110.59975369458128 20.623214285714287 110.36607142857143C20.76964285714286 110.0125 21.117857142857144 109.78928571428571 21.54642857142857 109.78928571428571C21.827380952380953 109.78928571428571 22.066666666666666 109.87857142857143 22.271428571428572 110.07857142857142L22.492857142857144 109.85714285714286C22.264285714285716 109.6 21.927380952380954 109.47142857142858 21.53214285714286 109.47142857142858C20.94642857142857 109.47142857142858 20.492857142857144 109.775 20.292857142857144 110.23928571428571C20.15952380952381 110.54880952380952 20.15952380952381 110.95119047619048 20.292857142857144 111.26071428571429C20.492857142857144 111.725 20.946428571428573 112.02857142857142 21.525000000000002 112.02857142857142Z"/>
  <path fill="#1e1e1e" fill-rule="evenodd" d="M23.15357142857143 112.0H24.96785714285714V111.68928571428572H23.510714285714286V110.88214285714285H24.764285714285712V110.57857142857142H23.510714285714286V109.81071428571428H24.917857142857144V109.5H23.15357142857143Z"/>

  <!-- TRIG output label — white badge below jack, Montserrat Medium paths -->
  <rect x="45.2" y="108.5" width="11.6" height="4.5" rx="1.0" fill="#d0d0d0"/>
  <path fill="#1e1e1e" fill-rule="evenodd" d="M47.59285714285715 112.0H47.94642857142858V109.81071428571428H48.80357142857143V109.5H46.73571428571429V109.81071428571428H47.59285714285715Z"/>
  <path fill="#1e1e1e" fill-rule="evenodd" d="M49.19285714285715 112.0H49.550000000000004V111.23928571428571H50.16785714285715C50.22263262857143 111.23928571428571 50.27552225861424 111.23702765025801 50.32645972115654 111.23254045758928L50.86428571428572 112.0H51.25357142857143L50.660281780787884 111.16280239650182C51.01328638962625 111.0366785422889 51.21071428571429 110.75980865714286 51.210714285714296 110.37142857142857C51.210714285714296 109.82380952380953 50.8154761904762 109.5 50.16785714285715 109.5H49.19285714285715ZM50.157142857142865 109.81071428571428C50.61428571428572 109.81071428571428 50.853571428571435 110.01428571428572 50.853571428571435 110.37142857142857C50.853571428571435 110.72857142857143 50.61428571428572 110.93571428571428 50.157142857142865 110.93571428571428H49.550000000000004V109.81071428571428Z"/>
  <path fill="#1e1e1e" fill-rule="evenodd" d="M51.789285714285725 112.0H52.14642857142858V109.5H51.789285714285725Z"/>
  <path fill="#1e1e1e" fill-rule="evenodd" d="M54.025000000000006 112.02857142857142C54.37738095238096 112.02857142857142 54.72380952380953 111.92023809523809 54.97142857142858 111.71071428571429V110.73571428571428H54.62857142857143V111.54841763632638C54.45133580074599 111.66357042604 54.25262114285715 111.71071428571429 54.04285714285715 111.71071428571429C53.61428571428572 111.71071428571429 53.26964285714286 111.48392857142858 53.12321428571429 111.13035714285714C53.02473893065999 110.89257518796992 53.026436781609206 110.59975369458128 53.12321428571429 110.36607142857143C53.26964285714286 110.0125 53.61785714285715 109.78928571428571 54.04642857142858 109.78928571428571C54.32738095238096 109.78928571428571 54.56666666666668 109.87857142857143 54.77142857142858 110.07857142857142L54.99285714285715 109.85714285714286C54.76428571428572 109.6 54.42738095238096 109.47142857142858 54.032142857142865 109.47142857142858C53.44642857142858 109.47142857142858 52.99285714285715 109.775 52.79285714285715 110.23928571428571C52.65952380952382 110.54880952380952 52.65952380952382 110.95119047619048 52.79285714285715 111.26071428571429C52.99285714285715 111.725 53.44642857142858 112.02857142857142 54.025000000000006 112.02857142857142Z"/>

  <!-- domino logo — 75% scale, white, centered horizontally above bottom bar -->
  <g transform="translate(30.87,121.88) scale(0.75)">
    <rect x="0" y="0" width="12.5" height="5.5"
          rx="1.18" ry="1.2"
          fill="none" stroke="#d0d0d0" stroke-width="0.5"/>
    <rect x="6.125" y="0.5" width="0.25" height="4.5"
          fill="#d0d0d0"/>
    <circle cx="2.07"  cy="1.46" r="0.625" fill="#d0d0d0"/>
    <circle cx="4.19"  cy="4.11" r="0.625" fill="#d0d0d0"/>
    <circle cx="8.20"  cy="1.46" r="0.625" fill="#d0d0d0"/>
    <circle cx="10.32" cy="4.11" r="0.625" fill="#d0d0d0"/>
  </g>

</svg>
