<?xml version="1.0" encoding="UTF-8"?>
<svg xmlns="http://www.w3.org/2000/svg"
     width="71.12mm" height="128.5mm"
     viewBox="0 0 71.12 128.5">

  <!-- panel background -->
  <rect width="71.12" height="128.5" fill="#1e1e1e"/>

  <!-- top accent trapezoid -->
  <polygon points="
    0,0
    71.12,0
    71.12,0.5
    57.12,0.5
    54.12,2.0
    17.0,2.0
    14.0,0.5
    0,0.5
  " fill="#f26522"/>

  <!-- bottom accent: thin line -->
  <rect x="0" y="127.5" width="71.12" height="1.0" fill="#f26522"/>

  <!-- title: BASE (Bold) + 64 (Light), cap-top y=7, baseline y=11.125 -->
  <g id="title">
    <path fill="#d0d0d0" fill-rule="evenodd" d="M23.980535714285715 11.125H26.11375C27.198035714285712 11.125 27.76375 10.706607142857143 27.76375 9.999464285714286C27.76375 9.476299245357144 27.47353837506506 9.12788529098233 27.01573960849217 8.976933171408517C27.350756300652765 8.800715164873194 27.5575 8.484134869642858 27.5575 8.0725C27.5575 7.4282142857142865 27.033035714285713 7.0 25.995892857142856 7.0H23.980535714285715ZM25.878035714285716 7.718928571428571C26.341607142857143 7.718928571428571 26.596964285714286 7.880000000000001 26.596964285714286 8.202142857142857C26.596964285714286 8.532142857142858 26.341607142857143 8.69125 25.878035714285716 8.69125H24.929285714285715V7.718928571428571ZM24.929285714285715 10.406071428571428V9.386607142857143H26.043035714285715C26.538035714285712 9.386607142857143 26.79732142857143 9.553571428571429 26.79732142857143 9.899285714285714C26.79732142857143 10.252857142857144 26.538035714285712 10.406071428571428 26.043035714285715 10.406071428571428Z"/>
    <path fill="#d0d0d0" fill-rule="evenodd" d="M27.946428571428573 11.125H28.924642857142857L29.292231266839163 10.241071428571429H31.204377583095006L31.570535714285715 11.125H32.57232142857143L30.727857142857143 7.0H29.785ZM29.593653796059744 9.51625 30.250168130057197 7.937550145557948 30.904127942493982 9.51625Z"/>
    <path fill="#d0d0d0" fill-rule="evenodd" d="M34.35785714285715 11.195714285714285C35.53642857142857 11.195714285714285 36.10803571428572 10.612321428571429 36.10803571428572 9.916964285714286C36.10803571428572 9.48482142857143 35.91357142857143 9.211785714285714 35.63071428571429 9.03892857142857C34.92357142857143 8.606785714285714 33.70964285714286 8.69714285714286 33.70964285714286 8.166785714285714C33.70964285714286 8.076428571428572 33.73517857142858 7.996875 33.78625 7.928125C33.88839285714286 7.790625 34.12410714285715 7.695357142857143 34.49339285714286 7.695357142857143C34.862678571428575 7.695357142857143 35.25160714285715 7.799464285714286 35.636607142857144 8.019464285714285L35.931250000000006 7.294642857142857C35.54625 7.051071428571428 35.017857142857146 6.929285714285714 34.49928571428572 6.929285714285714C33.3325 6.929285714285714 32.76089285714286 7.506785714285715 32.76089285714286 8.213928571428571C32.76089285714286 8.873928571428571 33.19401785714286 9.145 33.70669642857143 9.31C34.39026785714286 9.530000000000001 35.159285714285716 9.547678571428571 35.159285714285716 9.987678571428571C35.159285714285716 10.246964285714286 34.92946428571429 10.429642857142857 34.36375 10.429642857142857C33.868750000000006 10.429642857142857 33.35607142857143 10.250892857142857 33.002500000000005 9.999464285714286L32.67839285714286 10.718392857142858C33.04767857142858 11.00125 33.697857142857146 11.195714285714285 34.35785714285715 11.195714285714285Z"/>
    <path fill="#d0d0d0" fill-rule="evenodd" d="M36.76214285714286 11.125H39.956071428571434V10.35892857142857H37.71089285714286V9.404285714285715H39.626071428571436V8.661785714285713H37.71089285714286V7.766071428571428H39.87946428571429V7.0H36.76214285714286Z"/>
    <path fill="#d0d0d0" fill-rule="evenodd" d="M42.207142857142856 11.154464285714285C42.996785714285714 11.154464285714285 43.580178571428576 10.665357142857145 43.580178571428576 9.911071428571429C43.580178571428576 9.168571428571429 43.026250000000005 8.685357142857143 42.20125 8.685357142857143C41.577591721428576 8.685357142857143 41.05935582231395 8.992457117796517 40.88908921922956 9.534127110072545C40.85916422393853 9.34561871007967 40.85178571428572 9.162759602142858 40.85178571428572 9.03892857142857C40.85178571428572 7.836785714285714 41.456785714285715 7.235714285714286 42.38392857142857 7.235714285714286C42.698214285714286 7.235714285714286 42.985 7.290714285714286 43.19714285714286 7.424285714285714L43.32089285714286 7.182678571428571C43.06946428571429 7.025535714285715 42.737500000000004 6.970535714285714 42.38392857142857 6.970535714285714C41.28785714285714 6.970535714285714 40.55125 7.68357142857143 40.55125 9.08607142857143C40.55125 10.370714285714286 41.12285714285714 11.154464285714285 42.207142857142856 11.154464285714285ZM42.19535714285715 10.895178571428572C41.42928571428571 10.895178571428572 41.01678571428572 10.411964285714285 41.01678571428572 9.92875C41.01678571428572 9.37482142857143 41.488214285714285 8.944642857142856 42.160000000000004 8.944642857142856C42.85928571428572 8.944642857142856 43.27964285714286 9.32767857142857 43.27964285714286 9.916964285714286C43.27964285714286 10.506250000000001 42.84357142857143 10.895178571428572 42.19535714285715 10.895178571428572Z"/>
    <path fill="#d0d0d0" fill-rule="evenodd" d="M44.028035714285714 9.981785714285714H46.379285714285714V11.125H46.673928571428576V9.981785714285714H47.54017857142857V9.716607142857143H46.673928571428576V8.708928571428572H46.385178571428575V9.716607142857143H44.40791769436428L46.60321428571429 7.0H46.26732142857143L44.028035714285714 9.76375Z"/>
  </g>

  <!-- CLK input label — white text, translate to center at x=14mm -->
  <g transform="translate(8.5, 0)">
    <path fill="#d0d0d0" fill-rule="evenodd" d="M3.74 104.03428571428572C4.09047619047619 104.03428571428572 4.375238095238095 103.9095238095238 4.565714285714286 103.67714285714285L4.268571428571429 103.40285714285714C4.131428571428572 103.56285714285714 3.9638095238095232 103.64 3.765714285714286 103.64C3.392380952380952 103.64 3.1257142857142854 103.38095238095238 3.125714285714286 103.0C3.1257142857142854 102.61904761904762 3.392380952380951 102.36 3.765714285714286 102.36C3.9638095238095232 102.36 4.131428571428572 102.43809523809524 4.268571428571429 102.59428571428572L4.565714285714286 102.32C4.375238095238095 102.08761904761904 4.08952380952381 101.96571428571428 3.742857142857143 101.96571428571428C3.118095238095237 101.96571428571428 2.6571428571428575 102.39809523809524 2.6571428571428575 103.0C2.6571428571428575 103.60190476190476 3.1228571428571428 104.03428571428572 3.74 104.03428571428572Z"/>
    <path fill="#d0d0d0" fill-rule="evenodd" d="M4.851428571428571 104.0H6.317142857142857V103.62285714285714H5.314285714285714V102.0H4.851428571428571Z"/>
    <path fill="#d0d0d0" fill-rule="evenodd" d="M6.577142857142857 104.0H7.037142857142857V103.49513785226004L7.30515130179269 103.21537464686803L7.945714285714286 104.0H8.485714285714286L7.609132298060826 102.89107097080776L8.437142857142856 102.0H7.922857142857143L7.037142857142857 102.93330490112305V102.0H6.577142857142857Z"/>
  </g>

  <!-- RST input label — white text, translate to center at x=28mm -->
  <g transform="translate(22.5, 0)">
    <path fill="#d0d0d0" fill-rule="evenodd" d="M2.892857142857143 104.0H3.355714285714286V103.44285714285714H3.7585714285714285C3.765855622857143 103.44285714285714 3.7731019861373944 103.44280722694715 3.780310865129743 103.44268792288644L4.164285714285715 104.0H4.664285714285715L4.21711181640625 103.35829282488142C4.477789332586925 103.24558558371258 4.627142857142857 103.02491961142857 4.627142857142857 102.72571428571429C4.627142857142857 102.27238095238096 4.303333333333333 102.0 3.7471428571428573 102.0H2.892857142857143ZM3.732857142857143 102.37714285714286C4.018571428571429 102.37714285714286 4.158571428571428 102.5047619047619 4.158571428571428 102.72571428571429C4.158571428571428 102.94285714285715 4.018571428571429 103.07428571428571 3.732857142857143 103.07428571428571H3.355714285714286V102.37714285714286Z"/>
    <path fill="#d0d0d0" fill-rule="evenodd" d="M5.6499999999999995 104.03428571428572C6.221428571428571 104.03428571428572 6.498571428571428 103.75142857142858 6.498571428571428 103.41428571428571C6.498571428571428 103.20476190476191 6.404285714285714 103.07238095238095 6.267142857142857 102.98857142857143C5.924285714285713 102.77904761904762 5.335714285714285 102.82285714285715 5.335714285714285 102.56571428571428C5.335714285714285 102.52190476190476 5.348095238095238 102.48333333333333 5.372857142857143 102.45C5.422380952380952 102.38333333333334 5.536666666666666 102.33714285714285 5.715714285714285 102.33714285714285C5.894761904761904 102.33714285714285 6.083333333333332 102.38761904761905 6.27 102.49428571428571L6.412857142857143 102.14285714285714C6.226190476190475 102.0247619047619 5.969999999999999 101.96571428571428 5.718571428571428 101.96571428571428C5.152857142857142 101.96571428571428 4.8757142857142854 102.24571428571429 4.8757142857142854 102.58857142857143C4.8757142857142854 102.90857142857143 5.085714285714285 103.04 5.334285714285714 103.12C5.6657142857142855 103.22666666666667 6.038571428571428 103.2352380952381 6.038571428571428 103.44857142857143C6.038571428571428 103.57428571428572 5.927142857142856 103.66285714285715 5.652857142857142 103.66285714285715C5.412857142857143 103.66285714285715 5.164285714285714 103.57619047619048 4.992857142857143 103.45428571428572L4.835714285714285 103.80285714285715C5.0147619047619045 103.94 5.329999999999999 104.03428571428572 5.6499999999999995 104.03428571428572Z"/>
    <path fill="#d0d0d0" fill-rule="evenodd" d="M7.2299999999999995 104.0H7.692857142857143V102.37714285714286H8.332857142857142V102.0H6.59V102.37714285714286H7.2299999999999995Z"/>
  </g>

  <!-- PAGE output badge — centered at x=43mm, badge x=37.5 -->
  <rect x="37.5" y="101.25" width="11" height="3.5" rx="1.0" fill="#d0d0d0"/>
  <g transform="translate(37.5, 0)">
    <path fill="#1e1e1e" fill-rule="evenodd" d="M1.537142857142857 104.0H1.9999999999999998V103.44857142857143H2.4028571428571426C2.9399999999999986 103.44857142857143 3.2714285714285714 103.17142857142858 3.2714285714285714 102.72571428571429C3.2714285714285714 102.27428571428571 2.9399999999999986 102.0 2.4028571428571426 102.0H1.537142857142857ZM2.3771428571428572 102.37714285714286C2.662857142857143 102.37714285714286 2.8028571428571425 102.5047619047619 2.8028571428571425 102.72571428571429C2.8028571428571425 102.94285714285715 2.6628571428571424 103.07142857142857 2.3771428571428572 103.07142857142857H1.9999999999999998V102.37714285714286Z"/>
    <path fill="#1e1e1e" fill-rule="evenodd" d="M3.3657142857142857 104.0H3.84L4.018224683489119 103.57142857142857H4.945325927734375L5.122857142857143 104.0H5.6085714285714285L4.714285714285714 102.0H4.257142857142857ZM4.164368940080915 103.22 4.482678920200893 102.45456976754325 4.799750344412668 103.22Z"/>
    <path fill="#1e1e1e" fill-rule="evenodd" d="M6.782857142857143 104.03428571428572C7.068571428571428 104.03428571428572 7.374285714285714 103.94380952380952 7.591428571428572 103.78V102.96857142857142H7.168571428571429V103.55509676252093C7.052979886008483 103.61531263835249 6.932979886008484 103.64 6.808571428571429 103.64C6.4276190476190465 103.64 6.16 103.37333333333333 6.16 103.0C6.16 102.61904761904762 6.425714285714285 102.36 6.814285714285714 102.36C7.016190476190476 102.36 7.1866666666666665 102.43333333333334 7.331428571428571 102.58571428571429L7.628571428571428 102.31142857142856C7.434285714285714 102.08666666666667 7.145714285714285 101.96571428571428 6.791428571428572 101.96571428571428C6.1514285714285695 101.96571428571428 5.691428571428571 102.39809523809524 5.691428571428571 103.0C5.691428571428571 103.60190476190476 6.15047619047619 104.03428571428572 6.782857142857143 104.03428571428572Z"/>
    <path fill="#1e1e1e" fill-rule="evenodd" d="M8.02 104.0H9.56857142857143V103.62857142857143H8.48V103.16571428571429H9.40857142857143V102.80571428571429H8.48V102.37142857142857H9.531428571428572V102.0H8.02Z"/>
  </g>

  <!-- TRIG output badge — centered at x=57mm, badge x=51.5 -->
  <rect x="51.5" y="101.25" width="11" height="3.5" rx="1.0" fill="#d0d0d0"/>
  <g transform="translate(51.5, 0)">
    <path fill="#1e1e1e" fill-rule="evenodd" d="M2.6485714285714286 104.0H3.111428571428571V102.37714285714286H3.751428571428571V102.0H2.0085714285714285V102.37714285714286H2.6485714285714286Z"/>
    <path fill="#1e1e1e" fill-rule="evenodd" d="M3.9999999999999996 104.0H4.462857142857143V103.44285714285714H4.865714285714285C4.87299848 103.44285714285714 4.880244843280251 103.44280722694715 4.8874537222726 103.44268792288644L5.271428571428571 104.0H5.7714285714285705L5.324254673549107 103.35829282488142C5.5849321897297814 103.24558558371258 5.734285714285714 103.02491961142857 5.734285714285714 102.72571428571429C5.734285714285714 102.27238095238096 5.41047619047619 102.0 4.854285714285714 102.0H3.9999999999999996ZM4.84 102.37714285714286C5.1257142857142854 102.37714285714286 5.265714285714285 102.5047619047619 5.265714285714285 102.72571428571429C5.265714285714285 102.94285714285715 5.125714285714285 103.07428571428571 4.84 103.07428571428571H4.462857142857143V102.37714285714286Z"/>
    <path fill="#1e1e1e" fill-rule="evenodd" d="M6.1000000000000005 104.0H6.562857142857143V102.0H6.1000000000000005Z"/>
    <path fill="#1e1e1e" fill-rule="evenodd" d="M8.002857142857142 104.03428571428572C8.288571428571428 104.03428571428572 8.594285714285714 103.94380952380952 8.811428571428571 103.78V102.96857142857142H8.388571428571428V103.55509676252093C8.272979886008484 103.61531263835249 8.152979886008483 103.64 8.028571428571428 103.64C7.647619047619046 103.64 7.379999999999999 103.37333333333333 7.38 103.0C7.379999999999999 102.61904761904762 7.645714285714284 102.36 8.034285714285714 102.36C8.236190476190476 102.36 8.406666666666666 102.43333333333334 8.551428571428572 102.58571428571429L8.848571428571429 102.31142857142856C8.654285714285715 102.08666666666667 8.365714285714285 101.96571428571428 8.01142857142857 101.96571428571428C7.371428571428569 101.96571428571428 6.911428571428571 102.39809523809524 6.911428571428571 103.0C6.911428571428571 103.60190476190476 7.3704761904761895 104.03428571428572 8.002857142857142 104.03428571428572Z"/>
  </g>

  <!-- domino logo centered horizontally above bottom bar -->
  <g transform="translate(30.87,116.0) scale(0.75)">
    <rect x="0" y="0" width="12.5" height="5.5"
          rx="1.18" ry="1.2"
          fill="none" stroke="#d0d0d0" stroke-width="0.5"/>
    <rect x="6.125" y="0.5" width="0.25" height="4.5"
          fill="#d0d0d0"/>
    <circle cx="2.07"  cy="1.46" r="0.625" fill="#d0d0d0"/>
    <circle cx="4.19"  cy="4.11" r="0.625" fill="#d0d0d0"/>
    <circle cx="8.20"  cy="1.46" r="0.625" fill="#d0d0d0"/>
    <circle cx="10.32" cy="4.11" r="0.625" fill="#d0d0d0"/>
  </g>

</svg>
