<?xml version="1.0" encoding="UTF-8"?>
<svg xmlns="http://www.w3.org/2000/svg"
     width="40.64mm" height="128.5mm"
     viewBox="0 0 40.64 128.5">

  <rect width="40.64" height="128.5" fill="#1e1e1e"/>

  <!-- top accent: slants start just inside screw inner edges (10.16 / 30.48 mm) -->
  <polygon points="
    0,0 40.64,0 40.64,0.5
    30.48,0.5 28.0,2.0 12.64,2.0 10.16,0.5
    0,0.5
  " fill="#f26522"/>
  <rect x="0" y="127.5" width="40.64" height="1.0" fill="#f26522"/>

  <!-- title: BTTN (Bold) + 64 (Light), cap-top y=7, baseline y=11.125 -->
  <g id="title">
    <path fill="#d0d0d0" fill-rule="evenodd" d="M8.831875 11.125H10.965089285714285C12.049374999999998 11.125 12.615089285714285 10.706607142857143 12.615089285714285 9.999464285714286C12.615089285714285 9.476299245357144 12.324877660779345 9.12788529098233 11.867078894206456 8.976933171408517C12.20209558636705 8.800715164873194 12.408839285714286 8.484134869642858 12.408839285714286 8.0725C12.408839285714286 7.4282142857142865 11.884374999999999 7.0 10.847232142857143 7.0H8.831875ZM10.729375 7.718928571428571C11.192946428571428 7.718928571428571 11.448303571428571 7.880000000000001 11.448303571428571 8.202142857142857C11.448303571428571 8.532142857142858 11.192946428571428 8.69125 10.729375 8.69125H9.780624999999999V7.718928571428571ZM9.780624999999999 10.406071428571428V9.386607142857143H10.894375C11.389374999999998 9.386607142857143 11.648660714285715 9.553571428571429 11.648660714285715 9.899285714285714C11.648660714285715 10.252857142857144 11.389374999999998 10.406071428571428 10.894375 10.406071428571428Z"/>
    <path fill="#d0d0d0" fill-rule="evenodd" d="M14.194374999999999 11.125H15.149017857142857V7.777857142857142H16.46901785714286V7.0H12.874374999999999V7.777857142857142H14.194374999999999Z"/>
    <path fill="#d0d0d0" fill-rule="evenodd" d="M17.836160714285715 11.125H18.79080357142857V7.777857142857142H20.11080357142857V7.0H16.516160714285714V7.777857142857142H17.836160714285715Z"/>
    <path fill="#d0d0d0" fill-rule="evenodd" d="M20.623482142857142 11.125H21.566339285714285V8.621304332188197L23.622946428571428 11.125H24.40669642857143V7.0H23.463839285714286V9.50256656919207L21.413124999999997 7.0H20.623482142857142Z"/>
    <path fill="#d0d0d0" fill-rule="evenodd" d="M26.87580357142857 11.154464285714285C27.665446428571425 11.154464285714285 28.248839285714283 10.665357142857145 28.248839285714283 9.911071428571429C28.248839285714283 9.168571428571429 27.69491071428571 8.685357142857143 26.869910714285712 8.685357142857143C26.246252435714283 8.685357142857143 25.728016536599654 8.992457117796517 25.557749933515275 9.534127110072545C25.527824938224242 9.34561871007967 25.520446428571425 9.162759602142858 25.520446428571425 9.03892857142857C25.520446428571425 7.836785714285714 26.125446428571426 7.235714285714286 27.052589285714284 7.235714285714286C27.366874999999997 7.235714285714286 27.653660714285714 7.290714285714286 27.865803571428568 7.424285714285714L27.98955357142857 7.182678571428571C27.738124999999997 7.025535714285715 27.40616071428571 6.970535714285714 27.052589285714284 6.970535714285714C25.956517857142856 6.970535714285714 25.219910714285714 7.68357142857143 25.219910714285714 9.08607142857143C25.219910714285714 10.370714285714286 25.791517857142853 11.154464285714285 26.87580357142857 11.154464285714285ZM26.864017857142855 10.895178571428572C26.097946428571426 10.895178571428572 25.685446428571428 10.411964285714285 25.685446428571428 9.92875C25.685446428571428 9.37482142857143 26.156874999999996 8.944642857142856 26.82866071428571 8.944642857142856C27.527946428571425 8.944642857142856 27.948303571428568 9.32767857142857 27.948303571428568 9.916964285714286C27.948303571428568 10.506250000000001 27.51223214285714 10.895178571428572 26.864017857142855 10.895178571428572Z"/>
    <path fill="#d0d0d0" fill-rule="evenodd" d="M28.696696428571425 9.981785714285714H31.047946428571425V11.125H31.342589285714283V9.981785714285714H32.208839285714284V9.716607142857143H31.342589285714283V8.708928571428572H31.053839285714282V9.716607142857143H29.076578408649986L31.271874999999998 7.0H30.935982142857142L28.696696428571425 9.76375Z"/>
  </g>

  <!-- MOMENT. column header, centered at switch x=12, cap-top y=24, baseline y=26 -->
  <g>
    <path fill="#d0d0d0" fill-rule="evenodd" d="M5.091428571428572 26.0H5.3657142857142865V24.55064747401646L6.088571428571429 25.757142857142856H6.220000000000001L6.943057752336776 24.54156749180385L6.945714285714287 26.0H7.220000000000001L7.217142857142857 24.0H6.982857142857143L6.1595970589774 25.40485347202846L5.325714285714286 24.0H5.091428571428572Z"/>
    <path fill="#d0d0d0" fill-rule="evenodd" d="M8.722857142857144 26.02285714285714C9.332380952380952 26.02285714285714 9.782857142857143 25.594285714285714 9.782857142857143 25.0C9.782857142857143 24.405714285714286 9.332380952380953 23.97714285714286 8.722857142857144 23.97714285714286C8.105714285714285 23.97714285714286 7.6571428571428575 24.413333333333338 7.6571428571428575 25.0C7.6571428571428575 25.586666666666666 8.113333333333333 26.02285714285714 8.722857142857144 26.02285714285714ZM8.722857142857144 25.768571428571427C8.273333333333333 25.768571428571427 7.942857142857143 25.441904761904762 7.942857142857143 25.0C7.942857142857143 24.55809523809524 8.273333333333332 24.231428571428573 8.722857142857144 24.231428571428573C9.164761904761905 24.231428571428573 9.497142857142858 24.558095238095238 9.497142857142858 25.0C9.497142857142858 25.441904761904762 9.164761904761903 25.768571428571427 8.722857142857144 25.768571428571427Z"/>
    <path fill="#d0d0d0" fill-rule="evenodd" d="M10.22 26.0H10.494285714285715V24.55064747401646L11.217142857142857 25.757142857142856H11.348571428571429L12.071629180908204 24.54156749180385L12.074285714285715 26.0H12.348571428571429L12.345714285714285 24.0H12.111428571428572L11.288168487548829 25.40485347202846L10.454285714285714 24.0H10.22Z"/>
    <path fill="#d0d0d0" fill-rule="evenodd" d="M12.94857142857143 26.0H14.4V25.751428571428573H13.234285714285715V25.105714285714285H14.237142857142858V24.86285714285714H13.234285714285715V24.248571428571427H14.360000000000001V24.0H12.94857142857143Z"/>
    <path fill="#d0d0d0" fill-rule="evenodd" d="M14.862857142857145 26.0H15.14857142857143V24.50971921648298L16.34857142857143 26.0H16.582857142857144V24.0H16.29714285714286V25.49028078351702L15.097142857142858 24.0H14.862857142857145Z"/>
    <path fill="#d0d0d0" fill-rule="evenodd" d="M17.580000000000002 26.0H17.862857142857145V24.248571428571427H18.54857142857143V24.0H16.894285714285715V24.248571428571427H17.580000000000002Z"/>
    <path fill="#d0d0d0" fill-rule="evenodd" d="M18.88571428571429 26.017142857142858C18.98857142857143 26.017142857142858 19.074285714285715 25.934285714285714 19.074285714285715 25.82C19.074285714285715 25.705714285714286 18.98857142857143 25.625714285714285 18.88571428571429 25.625714285714285C18.77904761904762 25.625714285714285 18.691428571428574 25.705714285714286 18.691428571428574 25.82C18.691428571428574 25.934285714285714 18.77904761904762 26.017142857142858 18.88571428571429 26.017142857142858Z"/>
  </g>

  <!-- ── Group 1: Rows 1–2 (controls y=32) ─────────────────────────────── -->
  <!-- "1-2" badge centered at jack x=28, rect y=37.5 -->
  <rect x="24.13" y="37.5" width="7.74" height="4.5" rx="1.0" fill="#d0d0d0"/>
  <g>
    <path fill="#1e1e1e" fill-rule="evenodd" d="M26.223214285714285 41.0H26.576785714285716V38.5H25.65892857142857V38.81071428571428H26.223214285714285Z"/>
    <path fill="#1e1e1e" fill-rule="evenodd" d="M27.155357142857145 40.167857142857144H28.11607142857143V39.871428571428574H27.155357142857145Z"/>
    <path fill="#1e1e1e" fill-rule="evenodd" d="M28.451785714285716 41.0H30.248214285714287V40.68928571428572H28.96761662619455L29.730357142857144 39.95357142857143C30.06607142857143 39.625 30.141071428571433 39.410714285714285 30.141071428571433 39.167857142857144C30.141071428571433 38.739285714285714 29.805357142857144 38.471428571428575 29.283928571428575 38.471428571428575C28.89821428571429 38.471428571428575 28.56011904761905 38.607142857142854 28.36964285714286 38.85L28.612500000000004 39.06071428571428C28.76964285714286 38.875 28.98511904761905 38.78928571428571 29.251785714285717 38.78928571428571C29.599404761904765 38.78928571428571 29.783928571428575 38.94642857142857 29.783928571428575 39.20357142857143C29.783928571428575 39.36071428571429 29.74107142857143 39.517857142857146 29.46964285714286 39.775L28.451785714285716 40.75714285714286Z"/>
  </g>
  <!-- TOGGLE text for group 1 -->
  <g>
    <path fill="#d0d0d0" fill-rule="evenodd" d="M6.647142857142858 40.5H6.93V38.74857142857143H7.615714285714286V38.5H5.961428571428572V38.74857142857143H6.647142857142858Z"/>
    <path fill="#d0d0d0" fill-rule="evenodd" d="M8.83 40.52285714285714C9.43952380952381 40.52285714285714 9.89 40.09428571428572 9.89 39.5C9.89 38.90571428571429 9.43952380952381 38.47714285714286 8.83 38.47714285714286C8.21285714285714 38.47714285714286 7.764285714285714 38.913333333333334 7.764285714285714 39.5C7.764285714285714 40.086666666666666 8.22047619047619 40.52285714285714 8.83 40.52285714285714ZM8.83 40.26857142857143C8.38047619047619 40.26857142857143 8.05 39.94190476190476 8.05 39.5C8.05 39.05809523809524 8.38047619047619 38.73142857142857 8.83 38.73142857142857C9.271904761904763 38.73142857142857 9.604285714285714 39.05809523809524 9.604285714285714 39.5C9.604285714285714 39.941904761904766 9.27190476190476 40.26857142857143 8.83 40.26857142857143Z"/>
    <path fill="#d0d0d0" fill-rule="evenodd" d="M11.23 40.52285714285714C11.511904761904763 40.52285714285714 11.789047619047619 40.436190476190475 11.987142857142857 40.26857142857143V39.488571428571426H11.712857142857143V40.138734109061105C11.571068640596785 40.230856340832 11.412096914285714 40.26857142857143 11.244285714285715 40.26857142857143C10.901428571428571 40.26857142857143 10.625714285714286 40.08714285714286 10.508571428571429 39.80428571428571C10.429791144527988 39.61406015037594 10.431149425287357 39.37980295566503 10.508571428571429 39.19285714285714C10.625714285714286 38.910000000000004 10.904285714285715 38.73142857142857 11.247142857142858 38.73142857142857C11.471904761904762 38.73142857142857 11.663333333333334 38.80285714285714 11.827142857142858 38.962857142857146L12.004285714285714 38.785714285714285C11.821428571428571 38.58 11.551904761904762 38.47714285714286 11.235714285714286 38.47714285714286C10.767142857142856 38.47714285714286 10.404285714285715 38.72 10.244285714285715 39.09142857142857C10.137619047619047 39.33904761904762 10.137619047619047 39.66095238095238 10.244285714285715 39.90857142857143C10.404285714285715 40.28 10.767142857142858 40.52285714285714 11.23 40.52285714285714Z"/>
    <path fill="#d0d0d0" fill-rule="evenodd" d="M13.435714285714285 40.52285714285714C13.717619047619046 40.52285714285714 13.994761904761903 40.436190476190475 14.192857142857143 40.26857142857143V39.488571428571426H13.918571428571427V40.138734109061105C13.776782926311071 40.230856340832 13.617811199999998 40.26857142857143 13.45 40.26857142857143C13.107142857142856 40.26857142857143 12.831428571428571 40.08714285714286 12.714285714285714 39.80428571428571C12.635505430242272 39.61406015037594 12.636863711001642 39.37980295566503 12.714285714285714 39.19285714285714C12.831428571428571 38.910000000000004 13.11 38.73142857142857 13.452857142857143 38.73142857142857C13.677619047619046 38.73142857142857 13.869047619047619 38.80285714285714 14.032857142857143 38.962857142857146L14.209999999999999 38.785714285714285C14.027142857142856 38.58 13.757619047619047 38.47714285714286 13.44142857142857 38.47714285714286C12.97285714285714 38.47714285714286 12.61 38.72 12.45 39.09142857142857C12.343333333333332 39.33904761904762 12.343333333333332 39.66095238095238 12.45 39.90857142857143C12.61 40.28 12.972857142857142 40.52285714285714 13.435714285714285 40.52285714285714Z"/>
    <path fill="#d0d0d0" fill-rule="evenodd" d="M14.73857142857143 40.5H16.107142857142858V40.25142857142857H15.024285714285714V38.5H14.73857142857143Z"/>
    <path fill="#d0d0d0" fill-rule="evenodd" d="M16.435714285714287 40.5H17.88714285714286V40.25142857142857H16.72142857142857V39.605714285714285H17.724285714285713V39.362857142857145H16.72142857142857V38.74857142857143H17.847142857142856V38.5H16.435714285714287Z"/>
  </g>

  <!-- ── Group 2: Rows 3–4 (controls y=56) ─────────────────────────────── -->
  <g>
    <path fill="#d0d0d0" fill-rule="evenodd" d="M5.091428571428572 50.0H5.3657142857142865V48.550647474016465L6.088571428571429 49.75714285714286H6.220000000000001L6.943057752336776 48.54156749180385L6.945714285714287 50.0H7.220000000000001L7.217142857142857 48.0H6.982857142857143L6.1595970589774 49.40485347202846L5.325714285714286 48.0H5.091428571428572Z"/>
    <path fill="#d0d0d0" fill-rule="evenodd" d="M8.722857142857144 50.02285714285714C9.332380952380952 50.02285714285714 9.782857142857143 49.59428571428572 9.782857142857143 49.0C9.782857142857143 48.40571428571429 9.332380952380953 47.97714285714286 8.722857142857144 47.97714285714286C8.105714285714285 47.97714285714286 7.6571428571428575 48.413333333333334 7.6571428571428575 49.0C7.6571428571428575 49.586666666666666 8.113333333333333 50.02285714285714 8.722857142857144 50.02285714285714ZM8.722857142857144 49.76857142857143C8.273333333333333 49.76857142857143 7.942857142857143 49.44190476190476 7.942857142857143 49.0C7.942857142857143 48.55809523809524 8.273333333333332 48.23142857142857 8.722857142857144 48.23142857142857C9.164761904761905 48.23142857142857 9.497142857142858 48.55809523809524 9.497142857142858 49.0C9.497142857142858 49.441904761904766 9.164761904761903 49.76857142857143 8.722857142857144 49.76857142857143Z"/>
    <path fill="#d0d0d0" fill-rule="evenodd" d="M10.22 50.0H10.494285714285715V48.550647474016465L11.217142857142857 49.75714285714286H11.348571428571429L12.071629180908204 48.54156749180385L12.074285714285715 50.0H12.348571428571429L12.345714285714285 48.0H12.111428571428572L11.288168487548829 49.40485347202846L10.454285714285714 48.0H10.22Z"/>
    <path fill="#d0d0d0" fill-rule="evenodd" d="M12.94857142857143 50.0H14.4V49.75142857142857H13.234285714285715V49.105714285714285H14.237142857142858V48.862857142857145H13.234285714285715V48.24857142857143H14.360000000000001V48.0H12.94857142857143Z"/>
    <path fill="#d0d0d0" fill-rule="evenodd" d="M14.862857142857145 50.0H15.14857142857143V48.50971921648298L16.34857142857143 50.0H16.582857142857144V48.0H16.29714285714286V49.49028078351702L15.097142857142858 48.0H14.862857142857145Z"/>
    <path fill="#d0d0d0" fill-rule="evenodd" d="M17.580000000000002 50.0H17.862857142857145V48.24857142857143H18.54857142857143V48.0H16.894285714285715V48.24857142857143H17.580000000000002Z"/>
    <path fill="#d0d0d0" fill-rule="evenodd" d="M18.88571428571429 50.01714285714286C18.98857142857143 50.01714285714286 19.074285714285715 49.934285714285714 19.074285714285715 49.82C19.074285714285715 49.705714285714286 18.98857142857143 49.62571428571429 18.88571428571429 49.62571428571429C18.77904761904762 49.62571428571429 18.691428571428574 49.705714285714286 18.691428571428574 49.82C18.691428571428574 49.934285714285714 18.77904761904762 50.01714285714286 18.88571428571429 50.01714285714286Z"/>
  </g>
  <rect x="23.6" y="61.5" width="8.8" height="4.5" rx="1.0" fill="#d0d0d0"/>
  <g>
    <path fill="#1e1e1e" fill-rule="evenodd" d="M26.03571428571429 65.02857142857142C26.67857142857143 65.02857142857142 26.982142857142858 64.68571428571428 26.982142857142858 64.26428571428572C26.982142857142858 63.88199424425649 26.730481293087916 63.59680054303587 26.22715816497803 63.549722344534736L26.88214285714286 62.74285714285714V62.5H25.232142857142858V62.81071428571428H26.433928571428574L25.807142857142857 63.582142857142856V63.832142857142856H26.00714285714286C26.435714285714287 63.832142857142856 26.625 64.00595238095238 26.625 64.26785714285714C26.625 64.53928571428571 26.40714285714286 64.71071428571429 26.03571428571429 64.71071428571429C25.73095238095238 64.71071428571429 25.448809523809526 64.6 25.28214285714286 64.44285714285714L25.117857142857144 64.725C25.327380952380953 64.91071428571429 25.683333333333334 65.02857142857142 26.03571428571429 65.02857142857142Z"/>
    <path fill="#1e1e1e" fill-rule="evenodd" d="M27.346428571428575 64.16785714285714H28.30714285714286V63.871428571428574H27.346428571428575Z"/>
    <path fill="#1e1e1e" fill-rule="evenodd" d="M28.646428571428576 64.38571428571429H30.03571428571429V65.0H30.38214285714286V64.38571428571429H30.85714285714286V64.07857142857142H30.38214285714286V63.535714285714285H30.046428571428574V64.07857142857142H29.08714910234724L30.31071428571429 62.5H29.925000000000004L28.646428571428576 64.13571428571429Z"/>
  </g>
  <g>
    <path fill="#d0d0d0" fill-rule="evenodd" d="M6.647142857142858 64.5H6.93V62.74857142857143H7.615714285714286V62.5H5.961428571428572V62.74857142857143H6.647142857142858Z"/>
    <path fill="#d0d0d0" fill-rule="evenodd" d="M8.83 64.52285714285715C9.43952380952381 64.52285714285715 9.89 64.09428571428572 9.89 63.5C9.89 62.90571428571429 9.43952380952381 62.47714285714286 8.83 62.47714285714286C8.21285714285714 62.47714285714286 7.764285714285714 62.913333333333334 7.764285714285714 63.5C7.764285714285714 64.08666666666667 8.22047619047619 64.52285714285715 8.83 64.52285714285715ZM8.83 64.26857142857143C8.38047619047619 64.26857142857143 8.05 63.94190476190476 8.05 63.5C8.05 63.05809523809524 8.38047619047619 62.73142857142857 8.83 62.73142857142857C9.271904761904763 62.73142857142857 9.604285714285714 63.05809523809524 9.604285714285714 63.5C9.604285714285714 63.941904761904766 9.27190476190476 64.26857142857143 8.83 64.26857142857143Z"/>
    <path fill="#d0d0d0" fill-rule="evenodd" d="M11.23 64.52285714285715C11.511904761904763 64.52285714285715 11.789047619047619 64.43619047619048 11.987142857142857 64.26857142857143V63.488571428571426H11.712857142857143V64.1387341090611C11.571068640596785 64.230856340832 11.412096914285714 64.26857142857143 11.244285714285715 64.26857142857143C10.901428571428571 64.26857142857143 10.625714285714286 64.08714285714285 10.508571428571429 63.80428571428571C10.429791144527988 63.61406015037594 10.431149425287357 63.37980295566503 10.508571428571429 63.19285714285714C10.625714285714286 62.910000000000004 10.904285714285715 62.73142857142857 11.247142857142858 62.73142857142857C11.471904761904762 62.73142857142857 11.663333333333334 62.80285714285714 11.827142857142858 62.962857142857146L12.004285714285714 62.785714285714285C11.821428571428571 62.58 11.551904761904762 62.47714285714286 11.235714285714286 62.47714285714286C10.767142857142856 62.47714285714286 10.404285714285715 62.72 10.244285714285715 63.09142857142857C10.137619047619047 63.33904761904762 10.137619047619047 63.66095238095238 10.244285714285715 63.90857142857143C10.404285714285715 64.28 10.767142857142858 64.52285714285715 11.23 64.52285714285715Z"/>
    <path fill="#d0d0d0" fill-rule="evenodd" d="M13.435714285714285 64.52285714285715C13.717619047619046 64.52285714285715 13.994761904761903 64.43619047619048 14.192857142857143 64.26857142857143V63.488571428571426H13.918571428571427V64.1387341090611C13.776782926311071 64.230856340832 13.617811199999998 64.26857142857143 13.45 64.26857142857143C13.107142857142856 64.26857142857143 12.831428571428571 64.08714285714285 12.714285714285714 63.80428571428571C12.635505430242272 63.61406015037594 12.636863711001642 63.37980295566503 12.714285714285714 63.19285714285714C12.831428571428571 62.910000000000004 13.11 62.73142857142857 13.452857142857143 62.73142857142857C13.677619047619046 62.73142857142857 13.869047619047619 62.80285714285714 14.032857142857143 62.962857142857146L14.209999999999999 62.785714285714285C14.027142857142856 62.58 13.757619047619047 62.47714285714286 13.44142857142857 62.47714285714286C12.97285714285714 62.47714285714286 12.61 62.72 12.45 63.09142857142857C12.343333333333332 63.33904761904762 12.343333333333332 63.66095238095238 12.45 63.90857142857143C12.61 64.28 12.972857142857142 64.52285714285715 13.435714285714285 64.52285714285715Z"/>
    <path fill="#d0d0d0" fill-rule="evenodd" d="M14.73857142857143 64.5H16.107142857142858V64.25142857142858H15.024285714285714V62.5H14.73857142857143Z"/>
    <path fill="#d0d0d0" fill-rule="evenodd" d="M16.435714285714287 64.5H17.88714285714286V64.25142857142858H16.72142857142857V63.605714285714285H17.724285714285713V63.362857142857145H16.72142857142857V62.74857142857143H17.847142857142856V62.5H16.435714285714287Z"/>
  </g>

  <!-- ── Group 3: Rows 5–6 (controls y=80) ─────────────────────────────── -->
  <g>
    <path fill="#d0d0d0" fill-rule="evenodd" d="M5.091428571428572 74.0H5.3657142857142865V72.55064747401646L6.088571428571429 73.75714285714285H6.220000000000001L6.943057752336776 72.54156749180385L6.945714285714287 74.0H7.220000000000001L7.217142857142857 72.0H6.982857142857143L6.1595970589774 73.40485347202846L5.325714285714286 72.0H5.091428571428572Z"/>
    <path fill="#d0d0d0" fill-rule="evenodd" d="M8.722857142857144 74.02285714285715C9.332380952380952 74.02285714285715 9.782857142857143 73.59428571428572 9.782857142857143 73.0C9.782857142857143 72.40571428571428 9.332380952380953 71.97714285714285 8.722857142857144 71.97714285714285C8.105714285714285 71.97714285714285 7.6571428571428575 72.41333333333334 7.6571428571428575 73.0C7.6571428571428575 73.58666666666667 8.113333333333333 74.02285714285715 8.722857142857144 74.02285714285715ZM8.722857142857144 73.76857142857143C8.273333333333333 73.76857142857143 7.942857142857143 73.44190476190477 7.942857142857143 73.0C7.942857142857143 72.55809523809523 8.273333333333332 72.23142857142857 8.722857142857144 72.23142857142857C9.164761904761905 72.23142857142857 9.497142857142858 72.55809523809523 9.497142857142858 73.0C9.497142857142858 73.44190476190477 9.164761904761903 73.76857142857143 8.722857142857144 73.76857142857143Z"/>
    <path fill="#d0d0d0" fill-rule="evenodd" d="M10.22 74.0H10.494285714285715V72.55064747401646L11.217142857142857 73.75714285714285H11.348571428571429L12.071629180908204 72.54156749180385L12.074285714285715 74.0H12.348571428571429L12.345714285714285 72.0H12.111428571428572L11.288168487548829 73.40485347202846L10.454285714285714 72.0H10.22Z"/>
    <path fill="#d0d0d0" fill-rule="evenodd" d="M12.94857142857143 74.0H14.4V73.75142857142858H13.234285714285715V73.10571428571428H14.237142857142858V72.86285714285714H13.234285714285715V72.24857142857142H14.360000000000001V72.0H12.94857142857143Z"/>
    <path fill="#d0d0d0" fill-rule="evenodd" d="M14.862857142857145 74.0H15.14857142857143V72.50971921648298L16.34857142857143 74.0H16.582857142857144V72.0H16.29714285714286V73.49028078351702L15.097142857142858 72.0H14.862857142857145Z"/>
    <path fill="#d0d0d0" fill-rule="evenodd" d="M17.580000000000002 74.0H17.862857142857145V72.24857142857142H18.54857142857143V72.0H16.894285714285715V72.24857142857142H17.580000000000002Z"/>
    <path fill="#d0d0d0" fill-rule="evenodd" d="M18.88571428571429 74.01714285714286C18.98857142857143 74.01714285714286 19.074285714285715 73.93428571428572 19.074285714285715 73.82C19.074285714285715 73.70571428571428 18.98857142857143 73.62571428571428 18.88571428571429 73.62571428571428C18.77904761904762 73.62571428571428 18.691428571428574 73.70571428571428 18.691428571428574 73.82C18.691428571428574 73.93428571428572 18.77904761904762 74.01714285714286 18.88571428571429 74.01714285714286Z"/>
  </g>
  <rect x="23.69" y="85.5" width="8.62" height="4.5" rx="1.0" fill="#d0d0d0"/>
  <g>
    <path fill="#1e1e1e" fill-rule="evenodd" d="M26.16785714285714 89.02857142857142C26.810714285714283 89.02857142857142 27.114285714285714 88.67857142857143 27.114285714285714 88.25C27.114285714285714 87.80714285714286 26.825 87.49642857142857 26.075 87.49642857142857H25.795773615155902L25.864582306998116 86.81071428571428H26.974999999999998V86.5H25.564285714285713L25.432142857142857 87.80714285714286H26.0C26.57857142857143 87.80714285714286 26.757142857142856 87.98571428571428 26.757142857142856 88.26428571428572C26.757142857142856 88.53571428571429 26.545238095238094 88.71071428571429 26.164285714285715 88.71071428571429C25.864285714285714 88.71071428571429 25.58095238095238 88.6 25.414285714285715 88.44285714285714L25.25 88.725C25.45952380952381 88.91071428571429 25.81547619047619 89.02857142857142 26.16785714285714 89.02857142857142Z"/>
    <path fill="#1e1e1e" fill-rule="evenodd" d="M27.442857142857143 88.16785714285714H28.40357142857143V87.87142857142857H27.442857142857143Z"/>
    <path fill="#1e1e1e" fill-rule="evenodd" d="M29.82857142857143 89.02857142857142C30.32857142857143 89.02857142857142 30.714285714285715 88.71785714285714 30.714285714285715 88.23928571428571C30.714285714285715 87.775 30.357142857142858 87.48214285714286 29.857142857142858 87.48214285714286C29.548959214285713 87.48214285714286 29.283378354886427 87.59575027969714 29.13747043609619 87.81528587341309L29.13699624197824 87.80289930616107C29.136000940970973 87.7734371878096 29.135714285714286 87.74596377142858 29.135714285714286 87.72142857142858C29.135714285714286 87.09761904761905 29.458333333333332 86.77857142857142 29.96785714285714 86.77857142857142C30.148809523809526 86.77857142857142 30.317857142857143 86.80595238095238 30.446428571428573 86.89642857142857L30.58214285714286 86.61785714285715C30.425 86.51785714285714 30.198809523809523 86.47142857142858 29.960714285714285 86.47142857142858C29.267857142857142 86.47142857142858 28.77857142857143 86.93214285714286 28.77857142857143 87.78214285714286C28.77857142857143 88.58214285714286 29.164285714285715 89.02857142857142 29.82857142857143 89.02857142857142ZM29.814285714285713 88.73928571428571C29.428571428571427 88.73928571428571 29.22142857142857 88.51428571428572 29.22142857142857 88.25714285714285C29.22142857142857 87.97857142857143 29.45357142857143 87.77142857142857 29.79642857142857 87.77142857142857C30.148809523809526 87.77142857142857 30.367857142857144 87.95833333333333 30.367857142857144 88.25357142857143C30.367857142857144 88.54642857142858 30.142857142857142 88.73928571428571 29.814285714285713 88.73928571428571Z"/>
  </g>
  <g>
    <path fill="#d0d0d0" fill-rule="evenodd" d="M6.647142857142858 88.5H6.93V86.74857142857142H7.615714285714286V86.5H5.961428571428572V86.74857142857142H6.647142857142858Z"/>
    <path fill="#d0d0d0" fill-rule="evenodd" d="M8.83 88.52285714285715C9.43952380952381 88.52285714285715 9.89 88.09428571428572 9.89 87.5C9.89 86.90571428571428 9.43952380952381 86.47714285714285 8.83 86.47714285714285C8.21285714285714 86.47714285714285 7.764285714285714 86.91333333333334 7.764285714285714 87.5C7.764285714285714 88.08666666666667 8.22047619047619 88.52285714285715 8.83 88.52285714285715ZM8.83 88.26857142857143C8.38047619047619 88.26857142857143 8.05 87.94190476190477 8.05 87.5C8.05 87.05809523809523 8.38047619047619 86.73142857142857 8.83 86.73142857142857C9.271904761904763 86.73142857142857 9.604285714285714 87.05809523809523 9.604285714285714 87.5C9.604285714285714 87.94190476190477 9.27190476190476 88.26857142857143 8.83 88.26857142857143Z"/>
    <path fill="#d0d0d0" fill-rule="evenodd" d="M11.23 88.52285714285715C11.511904761904763 88.52285714285715 11.789047619047619 88.43619047619048 11.987142857142857 88.26857142857143V87.48857142857143H11.712857142857143V88.1387341090611C11.571068640596785 88.230856340832 11.412096914285714 88.26857142857143 11.244285714285715 88.26857142857143C10.901428571428571 88.26857142857143 10.625714285714286 88.08714285714285 10.508571428571429 87.80428571428571C10.429791144527988 87.61406015037593 10.431149425287357 87.37980295566503 10.508571428571429 87.19285714285714C10.625714285714286 86.91 10.904285714285715 86.73142857142857 11.247142857142858 86.73142857142857C11.471904761904762 86.73142857142857 11.663333333333334 86.80285714285715 11.827142857142858 86.96285714285715L12.004285714285714 86.78571428571429C11.821428571428571 86.58 11.551904761904762 86.47714285714285 11.235714285714286 86.47714285714285C10.767142857142856 86.47714285714285 10.404285714285715 86.72 10.244285714285715 87.09142857142857C10.137619047619047 87.33904761904762 10.137619047619047 87.66095238095238 10.244285714285715 87.90857142857143C10.404285714285715 88.28 10.767142857142858 88.52285714285715 11.23 88.52285714285715Z"/>
    <path fill="#d0d0d0" fill-rule="evenodd" d="M13.435714285714285 88.52285714285715C13.717619047619046 88.52285714285715 13.994761904761903 88.43619047619048 14.192857142857143 88.26857142857143V87.48857142857143H13.918571428571427V88.1387341090611C13.776782926311071 88.230856340832 13.617811199999998 88.26857142857143 13.45 88.26857142857143C13.107142857142856 88.26857142857143 12.831428571428571 88.08714285714285 12.714285714285714 87.80428571428571C12.635505430242272 87.61406015037593 12.636863711001642 87.37980295566503 12.714285714285714 87.19285714285714C12.831428571428571 86.91 13.11 86.73142857142857 13.452857142857143 86.73142857142857C13.677619047619046 86.73142857142857 13.869047619047619 86.80285714285715 14.032857142857143 86.96285714285715L14.209999999999999 86.78571428571429C14.027142857142856 86.58 13.757619047619047 86.47714285714285 13.44142857142857 86.47714285714285C12.97285714285714 86.47714285714285 12.61 86.72 12.45 87.09142857142857C12.343333333333332 87.33904761904762 12.343333333333332 87.66095238095238 12.45 87.90857142857143C12.61 88.28 12.972857142857142 88.52285714285715 13.435714285714285 88.52285714285715Z"/>
    <path fill="#d0d0d0" fill-rule="evenodd" d="M14.73857142857143 88.5H16.107142857142858V88.25142857142858H15.024285714285714V86.5H14.73857142857143Z"/>
    <path fill="#d0d0d0" fill-rule="evenodd" d="M16.435714285714287 88.5H17.88714285714286V88.25142857142858H16.72142857142857V87.60571428571428H17.724285714285713V87.36285714285714H16.72142857142857V86.74857142857142H17.847142857142856V86.5H16.435714285714287Z"/>
  </g>

  <!-- ── Group 4: Rows 7–8 (controls y=104) ────────────────────────────── -->
  <g>
    <path fill="#d0d0d0" fill-rule="evenodd" d="M5.091428571428572 98.0H5.3657142857142865V96.55064747401646L6.088571428571429 97.75714285714285H6.220000000000001L6.943057752336776 96.54156749180385L6.945714285714287 98.0H7.220000000000001L7.217142857142857 96.0H6.982857142857143L6.1595970589774 97.40485347202846L5.325714285714286 96.0H5.091428571428572Z"/>
    <path fill="#d0d0d0" fill-rule="evenodd" d="M8.722857142857144 98.02285714285715C9.332380952380952 98.02285714285715 9.782857142857143 97.59428571428572 9.782857142857143 97.0C9.782857142857143 96.40571428571428 9.332380952380953 95.97714285714285 8.722857142857144 95.97714285714285C8.105714285714285 95.97714285714285 7.6571428571428575 96.41333333333334 7.6571428571428575 97.0C7.6571428571428575 97.58666666666667 8.113333333333333 98.02285714285715 8.722857142857144 98.02285714285715ZM8.722857142857144 97.76857142857143C8.273333333333333 97.76857142857143 7.942857142857143 97.44190476190477 7.942857142857143 97.0C7.942857142857143 96.55809523809523 8.273333333333332 96.23142857142857 8.722857142857144 96.23142857142857C9.164761904761905 96.23142857142857 9.497142857142858 96.55809523809523 9.497142857142858 97.0C9.497142857142858 97.44190476190477 9.164761904761903 97.76857142857143 8.722857142857144 97.76857142857143Z"/>
    <path fill="#d0d0d0" fill-rule="evenodd" d="M10.22 98.0H10.494285714285715V96.55064747401646L11.217142857142857 97.75714285714285H11.348571428571429L12.071629180908204 96.54156749180385L12.074285714285715 98.0H12.348571428571429L12.345714285714285 96.0H12.111428571428572L11.288168487548829 97.40485347202846L10.454285714285714 96.0H10.22Z"/>
    <path fill="#d0d0d0" fill-rule="evenodd" d="M12.94857142857143 98.0H14.4V97.75142857142858H13.234285714285715V97.10571428571428H14.237142857142858V96.86285714285714H13.234285714285715V96.24857142857142H14.360000000000001V96.0H12.94857142857143Z"/>
    <path fill="#d0d0d0" fill-rule="evenodd" d="M14.862857142857145 98.0H15.14857142857143V96.50971921648298L16.34857142857143 98.0H16.582857142857144V96.0H16.29714285714286V97.49028078351702L15.097142857142858 96.0H14.862857142857145Z"/>
    <path fill="#d0d0d0" fill-rule="evenodd" d="M17.580000000000002 98.0H17.862857142857145V96.24857142857142H18.54857142857143V96.0H16.894285714285715V96.24857142857142H17.580000000000002Z"/>
    <path fill="#d0d0d0" fill-rule="evenodd" d="M18.88571428571429 98.01714285714286C18.98857142857143 98.01714285714286 19.074285714285715 97.93428571428572 19.074285714285715 97.82C19.074285714285715 97.70571428571428 18.98857142857143 97.62571428571428 18.88571428571429 97.62571428571428C18.77904761904762 97.62571428571428 18.691428571428574 97.70571428571428 18.691428571428574 97.82C18.691428571428574 97.93428571428572 18.77904761904762 98.01714285714286 18.88571428571429 98.01714285714286Z"/>
  </g>
  <rect x="23.598" y="109.5" width="8.804" height="4.5" rx="1.0" fill="#d0d0d0"/>
  <g>
    <path fill="#1e1e1e" fill-rule="evenodd" d="M25.701785714285712 113.0H26.080357142857142L27.09107142857143 110.74285714285715V110.5H25.205357142857142V111.25714285714285H25.548214285714284V110.81071428571428H26.68995873587472Z"/>
    <path fill="#1e1e1e" fill-rule="evenodd" d="M27.4375 112.16785714285714H28.398214285714285V111.87142857142857H27.4375Z"/>
    <path fill="#1e1e1e" fill-rule="evenodd" d="M29.748214285714287 113.02857142857142C30.35535714285714 113.02857142857142 30.744642857142857 112.74285714285715 30.744642857142857 112.29285714285714C30.744642857142857 112.00722856428571 30.58656213472806 111.79833820047875 30.300583594185966 111.68834836142403C30.52944267221875 111.58100131161608 30.65535714285714 111.39497 30.65535714285714 111.15C30.65535714285714 110.72857142857143 30.291071428571428 110.47142857142858 29.748214285714287 110.47142857142858C29.2125 110.47142857142858 28.848214285714285 110.72857142857143 28.848214285714285 111.15C28.848214285714285 111.394192 28.970668201417144 111.57981908379429 29.19607456752232 111.68732348850796C28.913310467799217 111.79595570159562 28.758928571428573 112.00313601428572 28.758928571428573 112.29285714285714C28.758928571428573 112.74285714285715 29.14107142857143 113.02857142857142 29.748214285714287 113.02857142857142ZM29.748214285714287 111.56428571428572C29.40535714285714 111.56428571428572 29.201785714285716 111.41190476190476 29.201785714285716 111.16428571428571C29.201785714285716 110.91190476190476 29.41488095238095 110.76071428571429 29.748214285714287 110.76071428571429C30.08154761904762 110.76071428571429 30.305357142857144 110.91190476190476 30.305357142857144 111.16428571428571C30.305357142857144 111.41190476190476 30.09583333333333 111.56428571428572 29.748214285714287 111.56428571428572ZM29.748214285714287 112.73928571428571C29.35297619047619 112.73928571428571 29.11607142857143 112.56309523809524 29.11607142857143 112.28214285714286C29.11607142857143 112.00595238095238 29.35297619047619 111.83571428571429 29.748214285714287 111.83571428571429C30.148214285714285 111.83571428571429 30.3875 112.00595238095238 30.3875 112.28214285714286C30.3875 112.56309523809524 30.148214285714285 112.73928571428571 29.748214285714287 112.73928571428571Z"/>
  </g>
  <g>
    <path fill="#d0d0d0" fill-rule="evenodd" d="M6.647142857142858 112.5H6.93V110.74857142857142H7.615714285714286V110.5H5.961428571428572V110.74857142857142H6.647142857142858Z"/>
    <path fill="#d0d0d0" fill-rule="evenodd" d="M8.83 112.52285714285715C9.43952380952381 112.52285714285715 9.89 112.09428571428572 9.89 111.5C9.89 110.90571428571428 9.43952380952381 110.47714285714285 8.83 110.47714285714285C8.21285714285714 110.47714285714285 7.764285714285714 110.91333333333334 7.764285714285714 111.5C7.764285714285714 112.08666666666667 8.22047619047619 112.52285714285715 8.83 112.52285714285715ZM8.83 112.26857142857143C8.38047619047619 112.26857142857143 8.05 111.94190476190477 8.05 111.5C8.05 111.05809523809523 8.38047619047619 110.73142857142857 8.83 110.73142857142857C9.271904761904763 110.73142857142857 9.604285714285714 111.05809523809523 9.604285714285714 111.5C9.604285714285714 111.94190476190477 9.27190476190476 112.26857142857143 8.83 112.26857142857143Z"/>
    <path fill="#d0d0d0" fill-rule="evenodd" d="M11.23 112.52285714285715C11.511904761904763 112.52285714285715 11.789047619047619 112.43619047619048 11.987142857142857 112.26857142857143V111.48857142857143H11.712857142857143V112.1387341090611C11.571068640596785 112.230856340832 11.412096914285714 112.26857142857143 11.244285714285715 112.26857142857143C10.901428571428571 112.26857142857143 10.625714285714286 112.08714285714285 10.508571428571429 111.80428571428571C10.429791144527988 111.61406015037593 10.431149425287357 111.37980295566503 10.508571428571429 111.19285714285714C10.625714285714286 110.91 10.904285714285715 110.73142857142857 11.247142857142858 110.73142857142857C11.471904761904762 110.73142857142857 11.663333333333334 110.80285714285715 11.827142857142858 110.96285714285715L12.004285714285714 110.78571428571429C11.821428571428571 110.58 11.551904761904762 110.47714285714285 11.235714285714286 110.47714285714285C10.767142857142856 110.47714285714285 10.404285714285715 110.72 10.244285714285715 111.09142857142857C10.137619047619047 111.33904761904762 10.137619047619047 111.66095238095238 10.244285714285715 111.90857142857143C10.404285714285715 112.28 10.767142857142858 112.52285714285715 11.23 112.52285714285715Z"/>
    <path fill="#d0d0d0" fill-rule="evenodd" d="M13.435714285714285 112.52285714285715C13.717619047619046 112.52285714285715 13.994761904761903 112.43619047619048 14.192857142857143 112.26857142857143V111.48857142857143H13.918571428571427V112.1387341090611C13.776782926311071 112.230856340832 13.617811199999998 112.26857142857143 13.45 112.26857142857143C13.107142857142856 112.26857142857143 12.831428571428571 112.08714285714285 12.714285714285714 111.80428571428571C12.635505430242272 111.61406015037593 12.636863711001642 111.37980295566503 12.714285714285714 111.19285714285714C12.831428571428571 110.91 13.11 110.73142857142857 13.452857142857143 110.73142857142857C13.677619047619046 110.73142857142857 13.869047619047619 110.80285714285715 14.032857142857143 110.96285714285715L14.209999999999999 110.78571428571429C14.027142857142856 110.58 13.757619047619047 110.47714285714285 13.44142857142857 110.47714285714285C12.97285714285714 110.47714285714285 12.61 110.72 12.45 111.09142857142857C12.343333333333332 111.33904761904762 12.343333333333332 111.66095238095238 12.45 111.90857142857143C12.61 112.28 12.972857142857142 112.52285714285715 13.435714285714285 112.52285714285715Z"/>
    <path fill="#d0d0d0" fill-rule="evenodd" d="M14.73857142857143 112.5H16.107142857142858V112.25142857142858H15.024285714285714V110.5H14.73857142857143Z"/>
    <path fill="#d0d0d0" fill-rule="evenodd" d="M16.435714285714287 112.5H17.88714285714286V112.25142857142858H16.72142857142857V111.60571428571428H17.724285714285713V111.36285714285714H16.72142857142857V110.74857142857142H17.847142857142856V110.5H16.435714285714287Z"/>
  </g>

  <!-- domino logo centered, above bottom bar -->
  <g transform="translate(15.63,119.0) scale(0.75)">
    <rect x="0" y="0" width="12.5" height="5.5"
          rx="1.18" ry="1.2"
          fill="none" stroke="#d0d0d0" stroke-width="0.5"/>
    <rect x="6.125" y="0.5" width="0.25" height="4.5"
          fill="#d0d0d0"/>
    <circle cx="2.07"  cy="1.46" r="0.625" fill="#d0d0d0"/>
    <circle cx="4.19"  cy="4.11" r="0.625" fill="#d0d0d0"/>
    <circle cx="8.20"  cy="1.46" r="0.625" fill="#d0d0d0"/>
    <circle cx="10.32" cy="4.11" r="0.625" fill="#d0d0d0"/>
  </g>

</svg>
