<?xml version="1.0" encoding="UTF-8"?>
<svg xmlns="http://www.w3.org/2000/svg"
     width="50.8mm" height="128.5mm"
     viewBox="0 0 50.8 128.5">

  <rect width="50.8" height="128.5" fill="#1e1e1e"/>

  <!-- top accent trapezoid (companion blue) -->
  <polygon points="
    0,0 50.8,0 50.8,0.5
    40.64,0.5 38.16,2.0 12.64,2.0 10.16,0.5
    0,0.5
  " fill="#22aff2"/>
  <rect x="0" y="127.5" width="50.8" height="1.0" fill="#22aff2"/>

  <!-- title: 64 (Light) + DRUMS (Bold), cap-top y=7, baseline y=11.125 -->
<g id="title">
  <path fill="#d0d0d0" fill-rule="evenodd" d="M12.064464285714283 11.154464285714285C12.854107142857139 11.154464285714285 13.437499999999996 10.665357142857145 13.437499999999996 9.911071428571429C13.437499999999996 9.168571428571429 12.883571428571425 8.685357142857143 12.058571428571426 8.685357142857143C11.434913149999996 8.685357142857143 10.916677250885368 8.992457117796517 10.746410647800987 9.534127110072545C10.716485652509956 9.34561871007967 10.70910714285714 9.162759602142858 10.70910714285714 9.03892857142857C10.70910714285714 7.836785714285714 11.31410714285714 7.235714285714286 12.241249999999997 7.235714285714286C12.55553571428571 7.235714285714286 12.842321428571426 7.290714285714286 13.054464285714284 7.424285714285714L13.178214285714283 7.182678571428571C12.92678571428571 7.025535714285715 12.594821428571425 6.970535714285714 12.241249999999997 6.970535714285714C11.145178571428568 6.970535714285714 10.408571428571426 7.68357142857143 10.408571428571426 9.08607142857143C10.408571428571426 10.370714285714286 10.980178571428567 11.154464285714285 12.064464285714283 11.154464285714285ZM12.052678571428569 10.895178571428572C11.28660714285714 10.895178571428572 10.87410714285714 10.411964285714285 10.87410714285714 9.92875C10.87410714285714 9.37482142857143 11.34553571428571 8.944642857142856 12.017321428571426 8.944642857142856C12.71660714285714 8.944642857142856 13.136964285714283 9.32767857142857 13.136964285714283 9.916964285714286C13.136964285714283 10.506250000000001 12.700892857142852 10.895178571428572 12.052678571428569 10.895178571428572Z"/>
  <path fill="#d0d0d0" fill-rule="evenodd" d="M13.88535714285714 9.981785714285714H16.23660714285714V11.125H16.531249999999996V9.981785714285714H17.397499999999997V9.716607142857143H16.531249999999996V8.708928571428572H16.242499999999996V9.716607142857143H14.2652391229357L16.46053571428571 7.0H16.124642857142852L13.88535714285714 9.76375Z"/>
  <path fill="#d0d0d0" fill-rule="evenodd" d="M17.974999999999998 11.125H19.84892857142857C21.192499999999995 11.125 22.123571428571424 10.311785714285715 22.123571428571424 9.0625C22.123571428571424 8.642142857142858 22.027321428571426 8.27875 21.834821428571427 7.972321428571428C21.449821428571425 7.359464285714285 20.744642857142853 7.0 19.84892857142857 7.0H17.974999999999998ZM18.929642857142856 10.34125V7.7837499999999995H19.80178571428571C20.62678571428571 7.7837499999999995 21.157142857142855 8.272857142857145 21.157142857142855 9.0625C21.157142857142855 9.840357142857144 20.62678571428571 10.34125 19.80178571428571 10.34125Z"/>
  <path fill="#d0d0d0" fill-rule="evenodd" d="M22.842499999999998 11.125H23.797142857142855V9.975892857142856H24.628035714285712C24.643059364999996 9.975892857142856 24.658004989265514 9.975789905578512 24.672873302187234 9.975543840953282L25.464821428571426 11.125H26.496071428571426L25.57377526419503 9.801478951317923C26.111422641317674 9.569020266407202 26.419464285714284 9.113896698571429 26.419464285714284 8.496785714285714C26.419464285714284 7.561785714285715 25.75160714285714 7.0 24.604464285714283 7.0H22.842499999999998ZM24.574999999999996 7.777857142857142C25.16428571428571 7.777857142857142 25.45303571428571 8.041071428571428 25.45303571428571 8.496785714285714C25.45303571428571 8.944642857142858 25.16428571428571 9.215714285714286 24.574999999999996 9.215714285714286H23.797142857142855V7.777857142857142Z"/>
  <path fill="#d0d0d0" fill-rule="evenodd" d="M29.006428571428568 11.195714285714285C30.177142857142854 11.195714285714285 30.874464285714282 10.52 30.874464285714282 9.31V7.0H29.93160714285714V9.274642857142856C29.93160714285714 10.060357142857145 29.593749999999996 10.3825 29.012321428571425 10.3825C28.430892857142855 10.3825 28.093035714285712 10.060357142857143 28.093035714285712 9.274642857142856V7.0H27.138392857142854V9.31C27.138392857142854 10.52 27.835714285714282 11.195714285714285 29.006428571428568 11.195714285714285Z"/>
  <path fill="#d0d0d0" fill-rule="evenodd" d="M31.817321428571425 11.125H32.71303571428571V8.702493284770421L33.92107142857142 10.688928571428571H34.35124999999999L35.56576982634408 8.649158054079328L35.57107142857142 11.125H36.46678571428571L36.455 7.0H35.67124999999999L34.15206943239484 9.561348799296788L32.606964285714284 7.0H31.817321428571425Z"/>
  <path fill="#d0d0d0" fill-rule="evenodd" d="M38.800357142857145 11.195714285714285C39.97892857142857 11.195714285714285 40.550535714285715 10.612321428571429 40.550535714285715 9.916964285714286C40.550535714285715 9.48482142857143 40.356071428571425 9.211785714285714 40.073214285714286 9.03892857142857C39.36607142857142 8.606785714285714 38.152142857142856 8.69714285714286 38.152142857142856 8.166785714285714C38.152142857142856 8.076428571428572 38.17767857142857 7.996875 38.22875 7.928125C38.33089285714286 7.790625 38.566607142857144 7.695357142857143 38.93589285714285 7.695357142857143C39.30517857142857 7.695357142857143 39.69410714285714 7.799464285714286 40.07910714285714 8.019464285714285L40.37375 7.294642857142857C39.988749999999996 7.051071428571428 39.46035714285714 6.929285714285714 38.941785714285714 6.929285714285714C37.775 6.929285714285714 37.20339285714286 7.506785714285715 37.20339285714286 8.213928571428571C37.20339285714286 8.873928571428571 37.636517857142856 9.145 38.14919642857143 9.31C38.832767857142855 9.530000000000001 39.60178571428571 9.547678571428571 39.60178571428571 9.987678571428571C39.60178571428571 10.246964285714286 39.371964285714284 10.429642857142857 38.80625 10.429642857142857C38.31125 10.429642857142857 37.79857142857143 10.250892857142857 37.445 9.999464285714286L37.120892857142856 10.718392857142858C37.49017857142857 11.00125 38.14035714285714 11.195714285714285 38.800357142857145 11.195714285714285Z"/>
</g>
  <!-- 1-2 input label - jack at y=30 -->
  <path fill="#d0d0d0" fill-rule="evenodd" d="M13.705714285714286 37.0H14.168571428571429V35.0H13.305714285714286V35.371428571428574H13.705714285714286Z"/>
  <path fill="#d0d0d0" fill-rule="evenodd" d="M14.554285714285715 36.37428571428571H15.362857142857143V36.01714285714286H14.554285714285715Z"/>
  <path fill="#d0d0d0" fill-rule="evenodd" d="M15.602857142857143 37.0H17.114285714285714V36.62285714285714H16.253243059430805L16.714285714285715 36.18857142857143C16.994285714285713 35.925714285714285 17.048571428571428 35.75142857142857 17.048571428571428 35.55714285714286C17.048571428571428 35.191428571428574 16.751428571428573 34.965714285714284 16.305714285714288 34.965714285714284C15.947619047619048 34.965714285714284 15.663809523809524 35.10857142857143 15.511428571428572 35.33714285714286L15.848571428571429 35.55428571428571C15.947619047619048 35.417142857142856 16.095238095238095 35.354285714285716 16.262857142857143 35.354285714285716C16.472380952380952 35.354285714285716 16.582857142857144 35.44285714285714 16.582857142857144 35.60285714285714C16.582857142857144 35.69428571428571 16.557142857142857 35.80571428571429 16.374285714285715 35.971428571428575L15.602857142857143 36.7Z"/>
  <!-- 3-4 input label - jack at y=44 -->
  <path fill="#d0d0d0" fill-rule="evenodd" d="M13.618571428571428 51.034285714285716C14.19 51.034285714285716 14.447142857142858 50.72571428571429 14.447142857142858 50.38857142857143C14.447142857142858 50.09358998857143 14.26302870349344 49.872392123254905 13.905362178257533 49.813029981340684L14.355714285714285 49.3V49.0H12.955714285714286V49.371428571428574H13.806638663155692L13.395714285714286 49.83714285714286V50.142857142857146H13.607142857142858C13.87 50.142857142857146 13.981428571428571 50.23619047619048 13.981428571428571 50.38857142857143C13.981428571428571 50.54857142857143 13.83952380952381 50.645714285714284 13.607142857142858 50.645714285714284C13.401428571428571 50.645714285714284 13.188095238095238 50.576190476190476 13.035714285714286 50.465714285714284L12.855714285714285 50.82C13.046190476190477 50.957142857142856 13.34047619047619 51.034285714285716 13.618571428571428 51.034285714285716Z"/>
  <path fill="#d0d0d0" fill-rule="evenodd" d="M14.69857142857143 50.37428571428571H15.507142857142858V50.01714285714286H14.69857142857143Z"/>
  <path fill="#d0d0d0" fill-rule="evenodd" d="M15.741428571428573 50.58H16.81857142857143V51.0H17.27V50.58H17.595714285714287V50.20285714285714H17.27V49.82857142857143H16.832857142857144V50.20285714285714H16.29494851248605L17.17 49.0H16.684285714285714L15.741428571428573 50.26857142857143Z"/>
  <!-- 5-6 input label - jack at y=58 -->
  <path fill="#d0d0d0" fill-rule="evenodd" d="M13.72 65.03428571428572C14.291428571428572 65.03428571428572 14.551428571428572 64.72571428571429 14.551428571428572 64.37142857142857C14.551428571428572 64.01714285714286 14.32 63.75142857142857 13.725714285714286 63.75142857142857H13.56166752406529L13.595475333077568 63.371428571428574H14.428571428571429V63.0H13.208571428571428L13.105714285714287 64.12571428571428H13.617142857142857C13.982857142857142 64.12571428571428 14.082857142857144 64.23142857142857 14.082857142857144 64.38571428571429C14.082857142857144 64.5495238095238 13.94095238095238 64.64571428571429 13.708571428571428 64.64571428571429C13.502857142857144 64.64571428571429 13.292380952380952 64.57619047619048 13.14 64.46571428571428L12.957142857142857 64.82C13.151428571428571 64.95714285714286 13.441904761904762 65.03428571428572 13.72 65.03428571428572Z"/>
  <path fill="#d0d0d0" fill-rule="evenodd" d="M14.777142857142856 64.37428571428572H15.585714285714285V64.01714285714286H14.777142857142856Z"/>
  <path fill="#d0d0d0" fill-rule="evenodd" d="M16.737142857142857 65.03428571428572C16.88 65.03428571428572 17.008095238095237 65.00714285714285 17.12142857142857 64.95285714285714C17.348095238095237 64.84428571428572 17.494285714285713 64.63904761904762 17.494285714285713 64.36857142857143C17.494285714285713 64.24285714285715 17.463333333333335 64.13333333333334 17.40142857142857 64.04C17.277619047619048 63.85333333333333 17.064761904761905 63.745714285714286 16.805714285714284 63.745714285714286C16.598455428571427 63.745714285714286 16.43028674424496 63.80735648130936 16.31211441040039 63.9263359941755L16.3128866141183 63.908365849086216C16.332289519782048 63.53465125920887 16.54410790095238 63.34285714285714 16.874285714285715 63.34285714285714C17.01142857142857 63.34285714285714 17.138095238095236 63.36666666666667 17.248571428571427 63.44285714285714L17.42 63.10285714285714C17.279047619047617 63.011428571428574 17.076190476190476 62.965714285714284 16.86285714285714 62.965714285714284C16.262857142857143 62.965714285714284 15.842857142857143 63.35142857142857 15.842857142857143 64.04285714285714C15.842857142857143 64.68857142857144 16.18857142857143 65.03428571428572 16.737142857142857 65.03428571428572ZM16.71142857142857 64.68857142857142C16.48857142857143 64.68857142857144 16.36 64.56285714285714 16.36 64.39142857142858C16.36 64.21428571428571 16.5 64.09142857142857 16.705714285714286 64.09142857142857C16.911428571428573 64.09142857142857 17.045714285714286 64.20857142857143 17.045714285714286 64.39142857142858C17.045714285714286 64.56857142857143 16.905714285714286 64.68857142857144 16.71142857142857 64.68857142857142Z"/>
  <!-- 7-8 input label - jack at y=72 -->
  <path fill="#d0d0d0" fill-rule="evenodd" d="M13.29142857142857 79.0H13.794285714285714L14.537142857142857 77.3V77.0H12.934285714285714V77.70285714285714H13.345714285714285V77.37714285714286H14.008741607666014Z"/>
  <path fill="#d0d0d0" fill-rule="evenodd" d="M14.780000000000001 78.37428571428572H15.588571428571429V78.01714285714286H14.780000000000001Z"/>
  <path fill="#d0d0d0" fill-rule="evenodd" d="M16.674285714285716 79.03428571428572C17.18285714285714 79.03428571428572 17.52 78.79142857142857 17.52 78.42C17.52 78.20451088571428 17.408444753251416 78.04383771164123 17.214347272600445 77.9469228036063C17.363507420589524 77.8546629478746 17.44857142857143 77.71498268 17.44857142857143 77.53714285714285C17.44857142857143 77.18285714285715 17.13714285714286 76.96571428571428 16.674285714285716 76.96571428571428C16.222857142857144 76.96571428571428 15.905714285714286 77.18285714285715 15.905714285714286 77.53714285714285C15.905714285714286 77.71493312 15.990730889411292 77.8545850933482 16.138976309640068 77.94684751238142C15.945900191933497 78.04375241647963 15.834285714285715 78.20445368571428 15.834285714285715 78.42C15.834285714285715 78.79142857142857 16.17142857142857 79.03428571428572 16.674285714285716 79.03428571428572ZM16.674285714285716 77.80285714285715C16.483809523809523 77.80285714285715 16.365714285714287 77.70952380952382 16.365714285714287 77.55714285714286C16.365714285714287 77.39714285714285 16.49142857142857 77.30571428571429 16.674285714285716 77.30571428571429C16.86095238095238 77.30571428571429 16.98857142857143 77.39714285714285 16.98857142857143 77.55714285714286C16.98857142857143 77.70952380952382 16.86857142857143 77.80285714285715 16.674285714285716 77.80285714285715ZM16.674285714285716 78.69428571428571C16.445714285714285 78.69428571428571 16.302857142857142 78.5847619047619 16.302857142857142 78.40571428571428C16.302857142857142 78.22666666666667 16.445714285714285 78.12 16.674285714285716 78.12C16.906666666666666 78.12 17.051428571428573 78.22666666666667 17.051428571428573 78.40571428571428C17.051428571428573 78.5847619047619 16.906666666666666 78.69428571428571 16.674285714285716 78.69428571428571Z"/>
  <!-- L output badge - jack at y=94 -->
  <rect x="21.5" y="92.25" width="11" height="3.5" rx="1.0" fill="#d0d0d0"/>
  <g transform="translate(21.5, 0)">
  <path fill="#1e1e1e" fill-rule="evenodd" d="M4.8742857142857146 95.0H6.34V94.62285714285714H5.337142857142857V93.0H4.8742857142857146Z"/>
  </g>
  <!-- R output badge - jack at y=106 -->
  <rect x="21.5" y="104.25" width="11" height="3.5" rx="1.0" fill="#d0d0d0"/>
  <g transform="translate(21.5, 0)">
  <path fill="#1e1e1e" fill-rule="evenodd" d="M4.687142857142858 107.0H5.15V106.44285714285714H5.5528571428571425C5.560141337142857 106.44285714285714 5.567387700423109 106.44280722694715 5.5745965794154575 106.44268792288644L5.958571428571429 107.0H6.458571428571428L6.011397530691965 106.35829282488142C6.272075046872639 106.24558558371258 6.421428571428572 106.02491961142857 6.421428571428572 105.72571428571429C6.421428571428572 105.27238095238096 6.097619047619048 105.0 5.541428571428572 105.0H4.687142857142858ZM5.527142857142858 105.37714285714286C5.812857142857143 105.37714285714286 5.952857142857143 105.5047619047619 5.952857142857143 105.72571428571429C5.952857142857143 105.94285714285715 5.812857142857142 106.07428571428571 5.527142857142858 106.07428571428571H5.15V105.37714285714286Z"/>
  </g>

  <!-- domino logo centered above bottom bar -->
  <g transform="translate(20.71,118.0) scale(0.75)">
    <rect x="0" y="0" width="12.5" height="5.5"
          rx="1.18" ry="1.2"
          fill="none" stroke="#d0d0d0" stroke-width="0.5"/>
    <rect x="6.125" y="0.5" width="0.25" height="4.5"
          fill="#d0d0d0"/>
    <circle cx="2.07"  cy="1.46" r="0.625" fill="#d0d0d0"/>
    <circle cx="4.19"  cy="4.11" r="0.625" fill="#d0d0d0"/>
    <circle cx="8.20"  cy="1.46" r="0.625" fill="#d0d0d0"/>
    <circle cx="10.32" cy="4.11" r="0.625" fill="#d0d0d0"/>
  </g>

</svg>
