<?xml version="1.0" encoding="UTF-8"?>
<svg xmlns="http://www.w3.org/2000/svg"
     width="50.8mm" height="128.5mm"
     viewBox="0 0 50.8 128.5">

  <rect width="50.8" height="128.5" fill="#1e1e1e"/>

  <!-- top accent trapezoid -->
  <polygon points="
    0,0 50.8,0 50.8,0.5
    40.64,0.5 38.16,2.0 12.64,2.0 10.16,0.5
    0,0.5
  " fill="#f26522"/>
  <rect x="0" y="127.5" width="50.8" height="1.0" fill="#f26522"/>

  <!-- title: EUCLID (Bold) + 64 (Light), cap-top y=7, baseline y=11.125 -->
  <g id="title">
  <path fill="#d0d0d0" fill-rule="evenodd" d="M10.576517857142855 11.125H13.770446428571425V10.35892857142857H11.525267857142854V9.404285714285715H13.440446428571427V8.661785714285713H11.525267857142854V7.766071428571428H13.693839285714283V7.0H10.576517857142855Z"/>
  <path fill="#d0d0d0" fill-rule="evenodd" d="M16.36330357142857 11.195714285714285C17.534017857142857 11.195714285714285 18.231339285714284 10.52 18.231339285714284 9.31V7.0H17.28848214285714V9.274642857142856C17.28848214285714 10.060357142857145 16.950624999999995 10.3825 16.369196428571428 10.3825C15.787767857142855 10.3825 15.449910714285712 10.060357142857143 15.449910714285712 9.274642857142856V7.0H14.495267857142855V9.31C14.495267857142855 10.52 15.192589285714284 11.195714285714285 16.36330357142857 11.195714285714285Z"/>
  <path fill="#d0d0d0" fill-rule="evenodd" d="M21.14830357142857 11.195714285714285C21.87116071428571 11.195714285714285 22.45848214285714 10.938392857142857 22.851339285714285 10.459107142857142L22.23848214285714 9.893392857142857C21.955624999999998 10.223392857142859 21.60991071428571 10.3825 21.201339285714283 10.3825C20.431339285714284 10.3825 19.881339285714283 9.848214285714286 19.881339285714283 9.0625C19.881339285714283 8.276785714285719 20.43133928571428 7.7425 21.201339285714283 7.7425C21.60991071428571 7.7425 21.955624999999998 7.903571428571429 22.23848214285714 8.225714285714286L22.851339285714285 7.66C22.45848214285714 7.180714285714286 21.869196428571428 6.929285714285714 21.154196428571428 6.929285714285714C19.865624999999994 6.929285714285714 18.914910714285714 7.821071428571431 18.914910714285714 9.0625C18.914910714285714 10.303928571428571 19.875446428571426 11.195714285714285 21.14830357142857 11.195714285714285Z"/>
  <path fill="#d0d0d0" fill-rule="evenodd" d="M23.440624999999997 11.125H26.463660714285712V10.347142857142858H24.395267857142855V7.0H23.440624999999997Z"/>
  <path fill="#d0d0d0" fill-rule="evenodd" d="M26.99991071428571 11.125H27.95455357142857V7.0H26.99991071428571Z"/>
  <path fill="#d0d0d0" fill-rule="evenodd" d="M28.932767857142853 11.125H30.806696428571424C32.15026785714285 11.125 33.08133928571428 10.311785714285715 33.08133928571428 9.0625C33.08133928571428 8.642142857142858 32.98508928571428 8.27875 32.79258928571428 7.972321428571428C32.40758928571428 7.359464285714285 31.70241071428571 7.0 30.806696428571424 7.0H28.932767857142853ZM29.88741071428571 10.34125V7.7837499999999995H30.759553571428565C31.584553571428565 7.7837499999999995 32.114910714285706 8.272857142857145 32.114910714285706 9.0625C32.114910714285706 9.840357142857144 31.584553571428565 10.34125 30.759553571428565 10.34125Z"/>
  <path fill="#d0d0d0" fill-rule="evenodd" d="M35.29116071428571 11.154464285714285C36.08080357142857 11.154464285714285 36.66419642857143 10.665357142857145 36.66419642857143 9.911071428571429C36.66419642857143 9.168571428571429 36.11026785714286 8.685357142857143 35.285267857142856 8.685357142857143C34.66160957857143 8.685357142857143 34.1433736794568 8.992457117796517 33.973107076372415 9.534127110072545C33.94318208108138 9.34561871007967 33.93580357142857 9.162759602142858 33.93580357142857 9.03892857142857C33.93580357142857 7.836785714285714 34.54080357142857 7.235714285714286 35.46794642857142 7.235714285714286C35.78223214285714 7.235714285714286 36.06901785714285 7.290714285714286 36.28116071428571 7.424285714285714L36.40491071428571 7.182678571428571C36.15348214285714 7.025535714285715 35.82151785714286 6.970535714285714 35.46794642857142 6.970535714285714C34.371874999999996 6.970535714285714 33.63526785714286 7.68357142857143 33.63526785714286 9.08607142857143C33.63526785714286 10.370714285714286 34.206875 11.154464285714285 35.29116071428571 11.154464285714285ZM35.279375 10.895178571428572C34.513303571428565 10.895178571428572 34.10080357142857 10.411964285714285 34.10080357142857 9.92875C34.10080357142857 9.37482142857143 34.57223214285714 8.944642857142856 35.24401785714286 8.944642857142856C35.94330357142857 8.944642857142856 36.363660714285714 9.32767857142857 36.363660714285714 9.916964285714286C36.363660714285714 10.506250000000001 35.927589285714284 10.895178571428572 35.279375 10.895178571428572Z"/>
  <path fill="#d0d0d0" fill-rule="evenodd" d="M37.11205357142857 9.981785714285714H39.46330357142857V11.125H39.75794642857143V9.981785714285714H40.62419642857142V9.716607142857143H39.75794642857143V8.708928571428572H39.46919642857143V9.716607142857143H37.49193555150713L39.68723214285714 7.0H39.35133928571428L37.11205357142857 9.76375Z"/>
  </g>

  <!-- T1 — jack at y=24 -->
  <rect x="29.5" y="22.25" width="11" height="3.5" rx="1.0" fill="#d0d0d0"/>
  <g transform="translate(29.5, 0)">
    <path fill="#1e1e1e" fill-rule="evenodd" d="M4.708571428571428 25.0H5.171428571428571V23.377142857142857H5.811428571428571V23.0H4.0685714285714285V23.377142857142857H4.708571428571428Z"/>
    <path fill="#1e1e1e" fill-rule="evenodd" d="M6.242857142857143 25.0H6.7057142857142855V23.0H5.8428571428571425V23.37142857142857H6.242857142857143Z"/>
  </g>

  <!-- T2 — jack at y=34 -->
  <rect x="29.5" y="32.25" width="11" height="3.5" rx="1.0" fill="#d0d0d0"/>
  <g transform="translate(29.5, 0)">
    <path fill="#1e1e1e" fill-rule="evenodd" d="M4.425714285714285 35.0H4.888571428571428V33.37714285714286H5.5285714285714285V33.0H3.7857142857142856V33.37714285714286H4.425714285714285Z"/>
    <path fill="#1e1e1e" fill-rule="evenodd" d="M5.634285714285714 35.0H7.145714285714286V34.62285714285714H6.284671630859375L6.7457142857142856 34.18857142857143C7.025714285714285 33.925714285714285 7.08 33.75142857142857 7.08 33.55714285714286C7.08 33.191428571428574 6.782857142857143 32.965714285714284 6.337142857142857 32.965714285714284C5.979047619047619 32.965714285714284 5.695238095238095 33.10857142857143 5.542857142857143 33.33714285714286L5.88 33.55428571428571C5.979047619047619 33.417142857142856 6.126666666666667 33.354285714285716 6.2942857142857145 33.354285714285716C6.503809523809523 33.354285714285716 6.614285714285714 33.44285714285714 6.614285714285714 33.60285714285714C6.614285714285714 33.69428571428571 6.588571428571428 33.80571428571429 6.405714285714286 33.971428571428575L5.634285714285714 34.7Z"/>
  </g>

  <!-- T3 — jack at y=44 -->
  <rect x="29.5" y="42.25" width="11" height="3.5" rx="1.0" fill="#d0d0d0"/>
  <g transform="translate(29.5, 0)">
    <path fill="#1e1e1e" fill-rule="evenodd" d="M4.422857142857143 45.0H4.885714285714286V43.37714285714286H5.525714285714286V43.0H3.782857142857143V43.37714285714286H4.422857142857143Z"/>
    <path fill="#1e1e1e" fill-rule="evenodd" d="M6.297142857142857 45.034285714285716C6.868571428571428 45.034285714285716 7.125714285714286 44.72571428571429 7.125714285714286 44.38857142857143C7.125714285714286 44.09358998857143 6.941600132064869 43.872392123254905 6.583933606828962 43.813029981340684L7.034285714285715 43.3V43.0H5.634285714285714V43.371428571428574H6.4852100917271205L6.074285714285715 43.83714285714286V44.142857142857146H6.285714285714286C6.548571428571429 44.142857142857146 6.66 44.23619047619048 6.66 44.38857142857143C6.66 44.54857142857143 6.518095238095238 44.645714285714284 6.285714285714286 44.645714285714284C6.08 44.645714285714284 5.866666666666667 44.576190476190476 5.714285714285714 44.465714285714284L5.534285714285715 44.82C5.724761904761905 44.957142857142856 6.019047619047619 45.034285714285716 6.297142857142857 45.034285714285716Z"/>
  </g>

  <!-- T4 — jack at y=54 -->
  <rect x="29.5" y="52.25" width="11" height="3.5" rx="1.0" fill="#d0d0d0"/>
  <g transform="translate(29.5, 0)">
    <path fill="#1e1e1e" fill-rule="evenodd" d="M4.284285714285714 55.0H4.747142857142856V53.37714285714286H5.387142857142857V53.0H3.644285714285714V53.37714285714286H4.284285714285714Z"/>
    <path fill="#1e1e1e" fill-rule="evenodd" d="M5.4871428571428575 54.58H6.564285714285714V55.0H7.015714285714286V54.58H7.341428571428572V54.20285714285714H7.015714285714286V53.82857142857143H6.578571428571428V54.20285714285714H6.0406627982003345L6.9157142857142855 53.0H6.43L5.4871428571428575 54.26857142857143Z"/>
  </g>

  <!-- T5 — jack at y=64 -->
  <rect x="29.5" y="62.25" width="11" height="3.5" rx="1.0" fill="#d0d0d0"/>
  <g transform="translate(29.5, 0)">
    <path fill="#1e1e1e" fill-rule="evenodd" d="M4.418571428571428 65.0H4.881428571428572V63.37714285714286H5.521428571428571V63.0H3.7785714285714285V63.37714285714286H4.418571428571428Z"/>
    <path fill="#1e1e1e" fill-rule="evenodd" d="M6.324285714285715 65.03428571428572C6.895714285714285 65.03428571428572 7.155714285714286 64.72571428571429 7.155714285714286 64.37142857142857C7.155714285714286 64.01714285714286 6.9242857142857135 63.75142857142857 6.33 63.75142857142857H6.165953238351005L6.199761047363281 63.371428571428574H7.032857142857143V63.0H5.812857142857143L5.71 64.12571428571428H6.2214285714285715C6.587142857142856 64.12571428571428 6.687142857142858 64.23142857142857 6.687142857142858 64.38571428571429C6.687142857142858 64.5495238095238 6.545238095238095 64.64571428571429 6.312857142857143 64.64571428571429C6.107142857142858 64.64571428571429 5.8966666666666665 64.57619047619048 5.744285714285715 64.46571428571428L5.561428571428571 64.82C5.755714285714285 64.95714285714286 6.046190476190477 65.03428571428572 6.324285714285715 65.03428571428572Z"/>
  </g>

  <!-- T6 — jack at y=74 -->
  <rect x="29.5" y="72.25" width="11" height="3.5" rx="1.0" fill="#d0d0d0"/>
  <g transform="translate(29.5, 0)">
    <path fill="#1e1e1e" fill-rule="evenodd" d="M4.3585714285714285 75.0H4.821428571428571V73.37714285714286H5.461428571428572V73.0H3.718571428571429V73.37714285714286H4.3585714285714285Z"/>
    <path fill="#1e1e1e" fill-rule="evenodd" d="M6.4785714285714295 75.03428571428572C6.621428571428572 75.03428571428572 6.74952380952381 75.00714285714285 6.862857142857143 74.95285714285714C7.08952380952381 74.84428571428572 7.235714285714286 74.63904761904762 7.235714285714286 74.36857142857143C7.235714285714286 74.24285714285715 7.204761904761905 74.13333333333334 7.142857142857143 74.04C7.019047619047619 73.85333333333334 6.806190476190476 73.74571428571429 6.547142857142857 73.74571428571429C6.339884 73.74571428571429 6.171715315673532 73.80735648130936 6.053542981828962 73.9263359941755L6.0543151855468755 73.90836584908622C6.073718091210621 73.53465125920887 6.285536472380953 73.34285714285714 6.6157142857142865 73.34285714285714C6.752857142857143 73.34285714285714 6.87952380952381 73.36666666666666 6.99 73.44285714285714L7.161428571428572 73.10285714285715C7.020476190476191 73.01142857142857 6.817619047619048 72.96571428571428 6.604285714285715 72.96571428571428C6.0042857142857144 72.96571428571428 5.5842857142857145 73.35142857142857 5.5842857142857145 74.04285714285714C5.5842857142857145 74.68857142857144 5.930000000000001 75.03428571428572 6.4785714285714295 75.03428571428572ZM6.452857142857143 74.68857142857142C6.23 74.68857142857144 6.101428571428572 74.56285714285714 6.101428571428572 74.39142857142858C6.101428571428572 74.21428571428571 6.241428571428571 74.09142857142857 6.4471428571428575 74.09142857142857C6.652857142857143 74.09142857142857 6.787142857142857 74.20857142857143 6.787142857142857 74.39142857142858C6.787142857142857 74.56857142857143 6.647142857142857 74.68857142857144 6.452857142857143 74.68857142857142Z"/>
  </g>

  <!-- T7 — jack at y=84 -->
  <rect x="29.5" y="82.25" width="11" height="3.5" rx="1.0" fill="#d0d0d0"/>
  <g transform="translate(29.5, 0)">
    <path fill="#1e1e1e" fill-rule="evenodd" d="M4.382857142857143 85.0H4.845714285714285V83.37714285714286H5.485714285714286V83.0H3.742857142857143V83.37714285714286H4.382857142857143Z"/>
    <path fill="#1e1e1e" fill-rule="evenodd" d="M5.928571428571429 85.0H6.4314285714285715L7.174285714285714 83.3V83.0H5.571428571428571V83.70285714285714H5.982857142857143V83.37714285714286H6.645884464808873Z"/>
  </g>

  <!-- T8 — jack at y=94 -->
  <rect x="29.5" y="92.25" width="11" height="3.5" rx="1.0" fill="#d0d0d0"/>
  <g transform="translate(29.5, 0)">
    <path fill="#1e1e1e" fill-rule="evenodd" d="M4.325714285714286 95.0H4.788571428571428V93.37714285714286H5.428571428571429V93.0H3.685714285714286V93.37714285714286H4.325714285714286Z"/>
    <path fill="#1e1e1e" fill-rule="evenodd" d="M6.380000000000001 95.03428571428572C6.888571428571427 95.03428571428572 7.225714285714286 94.79142857142857 7.225714285714286 94.42C7.225714285714286 94.20451088571428 7.114159038965703 94.04383771164123 6.920061558314733 93.9469228036063C7.069221706303809 93.8546629478746 7.154285714285715 93.71498268 7.154285714285715 93.53714285714285C7.154285714285715 93.18285714285715 6.842857142857143 92.96571428571428 6.380000000000001 92.96571428571428C5.928571428571428 92.96571428571428 5.611428571428572 93.18285714285715 5.611428571428572 93.53714285714285C5.611428571428572 93.71493312 5.696445175125578 93.8545850933482 5.844690595354353 93.94684751238142C5.651614477647783 94.04375241647963 5.54 94.20445368571428 5.54 94.42C5.54 94.79142857142857 5.877142857142857 95.03428571428572 6.380000000000001 95.03428571428572ZM6.380000000000001 93.80285714285715C6.189523809523809 93.80285714285715 6.071428571428571 93.70952380952382 6.071428571428572 93.55714285714286C6.071428571428571 93.39714285714285 6.1971428571428575 93.30571428571429 6.380000000000001 93.30571428571429C6.566666666666666 93.30571428571429 6.694285714285714 93.39714285714285 6.694285714285715 93.55714285714286C6.694285714285714 93.70952380952382 6.574285714285715 93.80285714285715 6.380000000000001 93.80285714285715ZM6.380000000000001 94.69428571428571C6.151428571428571 94.69428571428571 6.008571428571429 94.5847619047619 6.008571428571429 94.40571428571428C6.008571428571429 94.22666666666667 6.151428571428571 94.12 6.380000000000001 94.12C6.612380952380953 94.12 6.757142857142858 94.22666666666667 6.757142857142858 94.40571428571428C6.757142857142858 94.5847619047619 6.612380952380953 94.69428571428571 6.380000000000001 94.69428571428571Z"/>
  </g>

  <!-- separator between mono triggers and poly output -->
  <rect x="5.0" y="101.0" width="40.8" height="0.2" fill="#d0d0d0" opacity="0.35"/>

  <!-- POLY — jack at y=108 -->
  <rect x="29.5" y="106.25" width="11" height="3.5" rx="1.0" fill="#d0d0d0"/>
  <g transform="translate(29.5, 0)">
    <path fill="#1e1e1e" fill-rule="evenodd" d="M1.657142857142857 109.0H2.12V108.44857142857143H2.5228571428571427C3.0599999999999987 108.44857142857143 3.3914285714285715 108.17142857142858 3.3914285714285715 107.72571428571429C3.3914285714285715 107.27428571428571 3.0599999999999987 107.0 2.5228571428571427 107.0H1.657142857142857ZM2.4971428571428573 107.37714285714286C2.782857142857143 107.37714285714286 2.9228571428571426 107.5047619047619 2.9228571428571426 107.72571428571429C2.9228571428571426 107.94285714285715 2.7828571428571425 108.07142857142857 2.4971428571428573 108.07142857142857H2.12V107.37714285714286Z"/>
    <path fill="#1e1e1e" fill-rule="evenodd" d="M4.720000000000001 109.03428571428572C5.188571428571428 109.03428571428572 5.562857142857142 108.79285714285714 5.728571428571429 108.41285714285715C5.8397557997558 108.15789987789988 5.8383484026521995 107.83508740204942 5.728571428571429 107.58714285714285C5.562857142857142 107.21285714285715 5.19142857142857 106.96571428571428 4.717142857142857 106.96571428571428C4.092380952380951 106.96571428571428 3.6228571428571428 107.40571428571428 3.6228571428571428 108.0C3.6228571428571428 108.59428571428572 4.0876190476190475 109.03428571428572 4.720000000000001 109.03428571428572ZM4.717142857142857 108.64C4.6276190476190475 108.64 4.544761904761905 108.62476190476191 4.468571428571429 108.59428571428572C4.24 108.50285714285714 4.091428571428572 108.28 4.091428571428572 108.0C4.091428571428571 107.61904761904762 4.359047619047617 107.36 4.717142857142857 107.36C5.0752380952380935 107.36 5.342857142857143 107.61904761904762 5.342857142857143 108.0C5.342857142857143 108.38095238095238 5.0752380952380935 108.64 4.717142857142857 108.64Z"/>
    <path fill="#1e1e1e" fill-rule="evenodd" d="M6.160000000000001 109.0H7.625714285714286V108.62285714285714H6.622857142857144V107.0H6.160000000000001Z"/>
    <path fill="#1e1e1e" fill-rule="evenodd" d="M8.382857142857144 109.0H8.845714285714287V108.29187384469168L9.622857142857143 107.0H9.168571428571429L8.63315614972796 107.88784053257534L8.100000000000001 107.0H7.608571428571429L8.382857142857144 108.28712430681502Z"/>
  </g>

  <!-- domino logo centered above bottom bar -->
  <g transform="translate(20.71,118.0) scale(0.75)">
    <rect x="0" y="0" width="12.5" height="5.5"
          rx="1.18" ry="1.2"
          fill="none" stroke="#d0d0d0" stroke-width="0.5"/>
    <rect x="6.125" y="0.5" width="0.25" height="4.5"
          fill="#d0d0d0"/>
    <circle cx="2.07"  cy="1.46" r="0.625" fill="#d0d0d0"/>
    <circle cx="4.19"  cy="4.11" r="0.625" fill="#d0d0d0"/>
    <circle cx="8.20"  cy="1.46" r="0.625" fill="#d0d0d0"/>
    <circle cx="10.32" cy="4.11" r="0.625" fill="#d0d0d0"/>
  </g>

</svg>
