<?xml version="1.0" encoding="UTF-8"?>
<svg xmlns="http://www.w3.org/2000/svg"
     width="50.8mm" height="128.5mm"
     viewBox="0 0 50.8 128.5">

  <rect width="50.8" height="128.5" fill="#1e1e1e"/>

  <!-- top accent: slants start just inside screw inner edges (10.16 / 40.64 mm) -->
  <polygon points="
    0,0 50.8,0 50.8,0.5
    40.64,0.5 38.16,2.0 12.64,2.0 10.16,0.5
    0,0.5
  " fill="#f26522"/>
  <rect x="0" y="127.5" width="50.8" height="1.0" fill="#f26522"/>

  <!-- title: FLOOD (Bold) + 64 (Light), cap-top y=7, baseline y=11.125, cap-height=4.125 -->
  <g id="title">
    <path fill="#d0d0d0" fill-rule="evenodd" d="M11.118660714285713 11.125H12.07330357142857V9.622321428571428H13.982589285714283V8.85625H12.07330357142857V7.766071428571428H14.235982142857141V7.0H11.118660714285713Z"/>
    <path fill="#d0d0d0" fill-rule="evenodd" d="M14.884196428571428 11.125H17.907232142857143V10.347142857142858H15.838839285714284V7.0H14.884196428571428Z"/>
    <path fill="#d0d0d0" fill-rule="evenodd" d="M20.44705357142857 11.195714285714285C21.413482142857138 11.195714285714285 22.185446428571424 10.697767857142859 22.52723214285714 9.914017857142857C22.75654990842491 9.388168498168499 22.753647151898733 8.722367766726943 22.52723214285714 8.210982142857143C22.185446428571428 7.439017857142857 21.419374999999995 6.929285714285714 20.441160714285715 6.929285714285714C19.15258928571428 6.929285714285714 18.18419642857143 7.836785714285716 18.18419642857143 9.0625C18.18419642857143 10.288214285714286 19.142767857142857 11.195714285714285 20.44705357142857 11.195714285714285ZM20.441160714285715 10.3825C20.256517857142857 10.3825 20.085625 10.351071428571428 19.928482142857142 10.288214285714286C19.45705357142857 10.099642857142857 19.150624999999998 9.64 19.150624999999998 9.0625C19.150624999999998 8.276785714285719 19.702589285714282 7.7425 20.441160714285715 7.7425C21.179732142857137 7.7425 21.73169642857143 8.276785714285715 21.73169642857143 9.0625C21.73169642857143 9.848214285714288 21.179732142857137 10.3825 20.441160714285715 10.3825Z"/>
    <path fill="#d0d0d0" fill-rule="evenodd" d="M25.420625 11.195714285714285C26.387053571428567 11.195714285714285 27.159017857142857 10.697767857142859 27.50080357142857 9.914017857142857C27.730121336996334 9.388168498168499 27.72721858047016 8.722367766726943 27.50080357142857 8.210982142857143C27.159017857142857 7.439017857142857 26.392946428571424 6.929285714285714 25.41473214285714 6.929285714285714C24.12616071428571 6.929285714285714 23.157767857142858 7.836785714285716 23.157767857142858 9.0625C23.157767857142858 10.288214285714286 24.116339285714282 11.195714285714285 25.420625 11.195714285714285ZM25.41473214285714 10.3825C25.230089285714286 10.3825 25.05919642857143 10.351071428571428 24.90205357142857 10.288214285714286C24.430625 10.099642857142857 24.124196428571427 9.64 24.124196428571427 9.0625C24.124196428571427 8.276785714285719 24.67616071428571 7.7425 25.41473214285714 7.7425C26.153303571428566 7.7425 26.705267857142857 8.276785714285715 26.705267857142857 9.0625C26.705267857142857 9.848214285714288 26.153303571428566 10.3825 25.41473214285714 10.3825Z"/>
    <path fill="#d0d0d0" fill-rule="evenodd" d="M28.390625 11.125H30.26455357142857C31.608124999999998 11.125 32.53919642857143 10.311785714285715 32.53919642857143 9.0625C32.53919642857143 8.642142857142858 32.44294642857143 8.27875 32.25044642857143 7.972321428571428C31.865446428571428 7.359464285714285 31.160267857142856 7.0 30.26455357142857 7.0H28.390625ZM29.345267857142858 10.34125V7.7837499999999995H30.217410714285712C31.04241071428571 7.7837499999999995 31.572767857142857 8.272857142857145 31.572767857142857 9.0625C31.572767857142857 9.840357142857144 31.04241071428571 10.34125 30.217410714285712 10.34125Z"/>
    <path fill="#d0d0d0" fill-rule="evenodd" d="M34.74901785714285 11.154464285714285C35.53866071428571 11.154464285714285 36.12205357142857 10.665357142857145 36.12205357142857 9.911071428571429C36.12205357142857 9.168571428571429 35.568124999999995 8.685357142857143 34.743125 8.685357142857143C34.119466721428566 8.685357142857143 33.601230822313944 8.992457117796517 33.43096421922956 9.534127110072545C33.401039223938525 9.34561871007967 33.393660714285716 9.162759602142858 33.393660714285716 9.03892857142857C33.393660714285716 7.836785714285714 33.99866071428571 7.235714285714286 34.925803571428574 7.235714285714286C35.240089285714284 7.235714285714286 35.526875 7.290714285714286 35.739017857142855 7.424285714285714L35.862767857142856 7.182678571428571C35.61133928571429 7.025535714285715 35.279375 6.970535714285714 34.925803571428574 6.970535714285714C33.82973214285714 6.970535714285714 33.093125 7.68357142857143 33.093125 9.08607142857143C33.093125 10.370714285714286 33.66473214285714 11.154464285714285 34.74901785714285 11.154464285714285ZM34.737232142857145 10.895178571428572C33.97116071428571 10.895178571428572 33.558660714285715 10.411964285714285 33.558660714285715 9.92875C33.558660714285715 9.37482142857143 34.03008928571428 8.944642857142856 34.701875 8.944642857142856C35.401160714285716 8.944642857142856 35.82151785714286 9.32767857142857 35.82151785714286 9.916964285714286C35.82151785714286 10.506250000000001 35.38544642857143 10.895178571428572 34.737232142857145 10.895178571428572Z"/>
    <path fill="#d0d0d0" fill-rule="evenodd" d="M36.56991071428571 9.981785714285714H38.92116071428571V11.125H39.21580357142857V9.981785714285714H40.08205357142857V9.716607142857143H39.21580357142857V8.708928571428572H38.92705357142857V9.716607142857143H36.94979269436428L39.145089285714285 7.0H38.809196428571425L36.56991071428571 9.76375Z"/>
  </g>

  <!-- FADER 1 output — center y=30, badge y=28.25 -->
  <rect x="29.5" y="28.25" width="11" height="3.5" rx="1.0" fill="#d0d0d0"/>
  <g transform="translate(29.5, 0)">
    <path fill="#1e1e1e" fill-rule="evenodd" d="M5.359999999999999 31.0H5.822857142857142V29.0H4.959999999999999V29.37142857142857H5.359999999999999Z"/>
  </g>

  <!-- FADER 2 output — center y=46, badge y=44.25 -->
  <rect x="29.5" y="44.25" width="11" height="3.5" rx="1.0" fill="#d0d0d0"/>
  <g transform="translate(29.5, 0)">
    <path fill="#1e1e1e" fill-rule="evenodd" d="M4.751428571428572 47.0H6.262857142857143V46.62285714285714H5.401814488002232L5.862857142857143 46.18857142857143C6.142857142857142 45.925714285714285 6.1971428571428575 45.75142857142857 6.1971428571428575 45.55714285714286C6.1971428571428575 45.191428571428574 5.9 44.965714285714284 5.454285714285715 44.965714285714284C5.096190476190476 44.965714285714284 4.812380952380953 45.10857142857143 4.66 45.33714285714286L4.997142857142857 45.55428571428571C5.096190476190476 45.417142857142856 5.243809523809524 45.354285714285716 5.411428571428572 45.354285714285716C5.620952380952381 45.354285714285716 5.731428571428571 45.44285714285714 5.731428571428571 45.60285714285714C5.731428571428571 45.69428571428571 5.7057142857142855 45.80571428571429 5.522857142857143 45.971428571428575L4.751428571428572 46.7Z"/>
  </g>

  <!-- FADER 3 output — center y=62, badge y=60.25 -->
  <rect x="29.5" y="60.25" width="11" height="3.5" rx="1.0" fill="#d0d0d0"/>
  <g transform="translate(29.5, 0)">
    <path fill="#1e1e1e" fill-rule="evenodd" d="M5.414285714285714 63.034285714285716C5.985714285714284 63.034285714285716 6.242857142857142 62.72571428571429 6.242857142857142 62.38857142857143C6.242857142857142 62.09358998857143 6.058742989207725 61.872392123254905 5.701076463971819 61.813029981340684L6.151428571428571 61.3V61.0H4.751428571428571V61.371428571428574H5.602352948869977L5.191428571428571 61.83714285714286V62.142857142857146H5.402857142857142C5.6657142857142855 62.142857142857146 5.777142857142857 62.23619047619048 5.777142857142857 62.38857142857143C5.777142857142857 62.54857142857143 5.635238095238094 62.645714285714284 5.402857142857142 62.645714285714284C5.197142857142857 62.645714285714284 4.983809523809524 62.576190476190476 4.831428571428571 62.465714285714284L4.651428571428571 62.82C4.841904761904762 62.957142857142856 5.1361904761904755 63.034285714285716 5.414285714285714 63.034285714285716Z"/>
  </g>

  <!-- FADER 4 output — center y=78, badge y=76.25 -->
  <rect x="29.5" y="76.25" width="11" height="3.5" rx="1.0" fill="#d0d0d0"/>
  <g transform="translate(29.5, 0)">
    <path fill="#1e1e1e" fill-rule="evenodd" d="M4.604285714285715 78.58H5.6814285714285715V79.0H6.1328571428571435V78.58H6.458571428571429V78.20285714285714H6.1328571428571435V77.82857142857142H5.695714285714286V78.20285714285714H5.157805655343192L6.032857142857143 77.0H5.547142857142857L4.604285714285715 78.26857142857143Z"/>
  </g>

  <!-- separator between FADER 4 and the shared outputs -->
  <line x1="4" y1="89" x2="46.8" y2="89" stroke="#f26522" stroke-width="0.4"/>

  <!-- TRIG output badge — center y=97, badge y=95.25 -->
  <rect x="29.5" y="95.25" width="11" height="3.5" rx="1.0" fill="#d0d0d0"/>
  <g transform="translate(29.5, 0)">
    <path fill="#1e1e1e" fill-rule="evenodd" d="M2.6485714285714286 98.0H3.111428571428571V96.37714285714286H3.751428571428571V96.0H2.0085714285714285V96.37714285714286H2.6485714285714286Z"/>
    <path fill="#1e1e1e" fill-rule="evenodd" d="M3.9999999999999996 98.0H4.462857142857143V97.44285714285714H4.865714285714285C4.87299848 97.44285714285714 4.880244843280251 97.44280722694715 4.8874537222726 97.44268792288644L5.271428571428571 98.0H5.7714285714285705L5.324254673549107 97.35829282488142C5.5849321897297814 97.24558558371258 5.734285714285714 97.02491961142857 5.734285714285714 96.72571428571429C5.734285714285714 96.27238095238096 5.41047619047619 96.0 4.854285714285714 96.0H3.9999999999999996ZM4.84 96.37714285714286C5.1257142857142854 96.37714285714286 5.265714285714285 96.5047619047619 5.265714285714285 96.72571428571429C5.265714285714285 96.94285714285715 5.125714285714285 97.07428571428571 4.84 97.07428571428571H4.462857142857143V96.37714285714286Z"/>
    <path fill="#1e1e1e" fill-rule="evenodd" d="M6.1000000000000005 98.0H6.562857142857143V96.0H6.1000000000000005Z"/>
    <path fill="#1e1e1e" fill-rule="evenodd" d="M8.002857142857142 98.03428571428572C8.288571428571428 98.03428571428572 8.594285714285714 97.94380952380952 8.811428571428571 97.78V96.96857142857142H8.388571428571428V97.55509676252093C8.272979886008484 97.61531263835249 8.152979886008483 97.64 8.028571428571428 97.64C7.647619047619046 97.64 7.379999999999999 97.37333333333333 7.38 97.0C7.379999999999999 96.61904761904762 7.645714285714284 96.36 8.034285714285714 96.36C8.236190476190476 96.36 8.406666666666666 96.43333333333334 8.551428571428572 96.58571428571429L8.848571428571429 96.31142857142856C8.654285714285715 96.08666666666667 8.365714285714285 95.96571428571428 8.01142857142857 95.96571428571428C7.371428571428569 95.96571428571428 6.911428571428571 96.39809523809524 6.911428571428571 97.0C6.911428571428571 97.60190476190476 7.3704761904761895 98.03428571428572 8.002857142857142 98.03428571428572Z"/>
  </g>

  <!-- separator between TRIG and POLY (CV) -->
  <line x1="4" y1="103" x2="46.8" y2="103" stroke="#f26522" stroke-width="0.4"/>

  <!-- POLY output badge — center y=109, badge y=107.25 -->
  <rect x="29.5" y="107.25" width="11" height="3.5" rx="1.0" fill="#d0d0d0"/>
  <g transform="translate(29.5, 0)">
    <path fill="#1e1e1e" fill-rule="evenodd" d="M1.657142857142857 110.0H2.12V109.44857142857143H2.5228571428571427C3.0599999999999987 109.44857142857143 3.3914285714285715 109.17142857142858 3.3914285714285715 108.72571428571429C3.3914285714285715 108.27428571428571 3.0599999999999987 108.0 2.5228571428571427 108.0H1.657142857142857ZM2.4971428571428573 108.37714285714286C2.782857142857143 108.37714285714286 2.9228571428571426 108.5047619047619 2.9228571428571426 108.72571428571429C2.9228571428571426 108.94285714285715 2.7828571428571425 109.07142857142857 2.4971428571428573 109.07142857142857H2.12V108.37714285714286Z"/>
    <path fill="#1e1e1e" fill-rule="evenodd" d="M4.720000000000001 110.03428571428572C5.188571428571428 110.03428571428572 5.562857142857142 109.79285714285714 5.728571428571429 109.41285714285715C5.8397557997558 109.15789987789988 5.8383484026521995 108.83508740204942 5.728571428571429 108.58714285714285C5.562857142857142 108.21285714285715 5.19142857142857 107.96571428571428 4.717142857142857 107.96571428571428C4.092380952380951 107.96571428571428 3.6228571428571428 108.40571428571428 3.6228571428571428 109.0C3.6228571428571428 109.59428571428572 4.0876190476190475 110.03428571428572 4.720000000000001 110.03428571428572ZM4.717142857142857 109.64C4.6276190476190475 109.64 4.544761904761905 109.62476190476191 4.468571428571429 109.59428571428572C4.24 109.50285714285714 4.091428571428572 109.28 4.091428571428572 109.0C4.091428571428571 108.61904761904762 4.359047619047617 108.36 4.717142857142857 108.36C5.0752380952380935 108.36 5.342857142857143 108.61904761904762 5.342857142857143 109.0C5.342857142857143 109.38095238095238 5.0752380952380935 109.64 4.717142857142857 109.64Z"/>
    <path fill="#1e1e1e" fill-rule="evenodd" d="M6.160000000000001 110.0H7.625714285714286V109.62285714285714H6.622857142857144V108.0H6.160000000000001Z"/>
    <path fill="#1e1e1e" fill-rule="evenodd" d="M8.382857142857144 110.0H8.845714285714287V109.29187384469168L9.622857142857143 108.0H9.168571428571429L8.63315614972796 108.88784053257534L8.100000000000001 108.0H7.608571428571429L8.382857142857144 109.28712430681502Z"/>
  </g>

  <!-- domino logo centered above bottom bar -->
  <g transform="translate(20.71,118.0) scale(0.75)">
    <rect x="0" y="0" width="12.5" height="5.5"
          rx="1.18" ry="1.2"
          fill="none" stroke="#d0d0d0" stroke-width="0.5"/>
    <rect x="6.125" y="0.5" width="0.25" height="4.5"
          fill="#d0d0d0"/>
    <circle cx="2.07"  cy="1.46" r="0.625" fill="#d0d0d0"/>
    <circle cx="4.19"  cy="4.11" r="0.625" fill="#d0d0d0"/>
    <circle cx="8.20"  cy="1.46" r="0.625" fill="#d0d0d0"/>
    <circle cx="10.32" cy="4.11" r="0.625" fill="#d0d0d0"/>
  </g>

</svg>
