<?xml version="1.0" encoding="UTF-8"?>
<svg xmlns="http://www.w3.org/2000/svg"
     width="50.8mm" height="128.5mm"
     viewBox="0 0 50.8 128.5">

  <rect width="50.8" height="128.5" fill="#1e1e1e"/>

  <!-- top accent trapezoid -->
  <polygon points="
    0,0 50.8,0 50.8,0.5
    40.64,0.5 38.16,2.0 12.64,2.0 10.16,0.5
    0,0.5
  " fill="#f26522"/>
  <rect x="0" y="127.5" width="50.8" height="1.0" fill="#f26522"/>

  <!-- title: Gome (Bold) + 64 (Light), cap-top y=7, baseline y=11.125 -->
  <g id="title">
    <path fill="#d0d0d0" fill-rule="evenodd" d="M15.028571428571427 11.195714285714285C15.61785714285714 11.195714285714285 16.248392857142854 11.009107142857143 16.69625 10.67125V8.99767857142857H15.824107142857141V10.20738707269941C15.585699586321066 10.33158231660201 15.338199586321068 10.3825 15.081607142857141 10.3825C14.295892857142853 10.3825 13.743928571428569 9.8325 13.743928571428569 9.0625C13.743928571428569 8.276785714285719 14.291964285714283 7.7425 15.093392857142856 7.7425C15.509821428571428 7.7425 15.861428571428569 7.893750000000001 16.159999999999997 8.208035714285714L16.77285714285714 7.642321428571428C16.372142857142855 7.178750000000001 15.776964285714282 6.929285714285714 15.046249999999999 6.929285714285714C13.726249999999995 6.929285714285714 12.777499999999998 7.821071428571431 12.777499999999998 9.0625C12.777499999999998 10.303928571428571 13.724285714285712 11.195714285714285 15.028571428571427 11.195714285714285Z"/>
    <path fill="#d0d0d0" fill-rule="evenodd" d="M19.023928571428566 11.172142857142857C19.35785714285714 11.172142857142857 19.656428571428567 11.101428571428572 19.919642857142854 10.96C20.446071428571425 10.677142857142858 20.762321428571425 10.168392857142859 20.762321428571425 9.539821428571429C20.762321428571425 9.217678571428571 20.687678571428567 8.934821428571428 20.538392857142853 8.69125C20.239821428571425 8.204107142857143 19.69178571428571 7.9075 19.023928571428566 7.9075C18.01035714285714 7.9075 17.279642857142854 8.585178571428573 17.279642857142854 9.539821428571429C17.279642857142854 10.482678571428572 18.01035714285714 11.172142857142857 19.023928571428566 11.172142857142857ZM19.023928571428566 10.417857142857143C18.56428571428571 10.417857142857143 18.210714285714282 10.081964285714285 18.210714285714282 9.539821428571429C18.210714285714282 8.985892857142858 18.56428571428571 8.661785714285715 19.023928571428566 8.661785714285713C19.483571428571423 8.661785714285715 19.831249999999997 8.985892857142858 19.831249999999997 9.539821428571429C19.831249999999997 10.081964285714287 19.483571428571423 10.417857142857143 19.023928571428566 10.417857142857143Z"/>
    <path fill="#d0d0d0" fill-rule="evenodd" d="M21.375178571428567 11.125H22.294464285714284V9.533928571428572C22.294464285714284 8.968214285714286 22.589107142857138 8.703035714285715 22.989821428571425 8.703035714285715C23.374821428571426 8.703035714285715 23.590892857142855 8.940714285714286 23.590892857142855 9.451428571428572V11.125H24.51017857142857V9.533928571428572C24.51017857142857 8.968214285714286 24.804821428571422 8.703035714285715 25.205535714285713 8.703035714285715C25.59053571428571 8.703035714285715 25.812499999999996 8.940714285714286 25.812499999999996 9.451428571428572V11.125H26.731785714285714V9.31C26.731785714285714 8.34357142857143 26.189642857142854 7.9075 25.43535714285714 7.9075C24.958264427857138 7.9075 24.54835514222729 8.101721186724617 24.29232332229614 8.426623119626726C24.074028946479423 8.076992481057962 23.69306158 7.907499999999999 23.24910714285714 7.9075C22.839789898571425 7.9075 22.490438456960277 8.04945985939285 22.253214285714282 8.321941686357771V7.954642857142857H21.375178571428567Z"/>
    <path fill="#d0d0d0" fill-rule="evenodd" d="M29.13017857142857 11.172142857142857C29.703749999999996 11.172142857142857 30.147678571428568 10.989464285714286 30.438392857142855 10.659464285714286L29.94928571428571 10.129107142857142C29.737142857142853 10.333392857142858 29.491607142857138 10.435535714285715 29.153749999999995 10.435535714285715C28.674184948571426 10.435535714285715 28.338601031337145 10.189920838307216 28.2475142451695 9.799107142857142H30.644642857142856C30.652499999999996 9.720535714285715 30.662321428571424 9.622321428571428 30.662321428571424 9.551607142857144C30.662321428571424 8.52625 29.943392857142854 7.9075 29.012321428571425 7.9075C28.045892857142853 7.9075 27.321071428571425 8.585178571428573 27.321071428571425 9.539821428571429C27.321071428571425 10.482678571428572 28.045892857142853 11.172142857142857 29.13017857142857 11.172142857142857ZM28.239002889905652 9.244106975282941C28.310222416802787 8.847528545537568 28.60861121428571 8.602857142857143 29.018214285714283 8.602857142857143C29.43671274285714 8.602857142857143 29.734470084580174 8.858271040860615 29.796056502205982 9.262857142857143H28.23596748760768Z"/>
    <path fill="#d0d0d0" fill-rule="evenodd" d="M32.83089285714285 11.154464285714285C33.62053571428571 11.154464285714285 34.20392857142857 10.665357142857145 34.20392857142857 9.911071428571429C34.20392857142857 9.168571428571429 33.64999999999999 8.685357142857143 32.824999999999996 8.685357142857143C32.20134172142856 8.685357142857143 31.683105822313937 8.992457117796517 31.51283921922956 9.534127110072545C31.482914223938526 9.34561871007967 31.47553571428571 9.162759602142858 31.47553571428571 9.03892857142857C31.47553571428571 7.836785714285714 32.08053571428571 7.235714285714286 33.00767857142857 7.235714285714286C33.32196428571428 7.235714285714286 33.60874999999999 7.290714285714286 33.82089285714285 7.424285714285714L33.94464285714285 7.182678571428571C33.693214285714284 7.025535714285715 33.36125 6.970535714285714 33.00767857142857 6.970535714285714C31.911607142857136 6.970535714285714 31.174999999999997 7.68357142857143 31.174999999999997 9.08607142857143C31.174999999999997 10.370714285714286 31.746607142857137 11.154464285714285 32.83089285714285 11.154464285714285ZM32.81910714285714 10.895178571428572C32.053035714285706 10.895178571428572 31.64053571428571 10.411964285714285 31.64053571428571 9.92875C31.64053571428571 9.37482142857143 32.11196428571428 8.944642857142856 32.78375 8.944642857142856C33.48303571428571 8.944642857142856 33.903392857142855 9.32767857142857 33.903392857142855 9.916964285714286C33.903392857142855 10.506250000000001 33.467321428571424 10.895178571428572 32.81910714285714 10.895178571428572Z"/>
    <path fill="#d0d0d0" fill-rule="evenodd" d="M34.65178571428571 9.981785714285714H37.00303571428571V11.125H37.29767857142857V9.981785714285714H38.16392857142856V9.716607142857143H37.29767857142857V8.708928571428572H37.00892857142857V9.716607142857143H35.03166769436427L37.22696428571428 7.0H36.89107142857142L34.65178571428571 9.76375Z"/>
  </g>

  <!-- output badge 1-2 — jack at y=32 -->
  <rect x="29.5" y="30.25" width="11" height="3.5" rx="1.0" fill="#d0d0d0"/>
  <g transform="translate(29.5, 0)">
    <path fill="#1e1e1e" fill-rule="evenodd" d="M3.9657142857142857 33.0H4.428571428571429V31.0H3.565714285714286V31.37142857142857H3.9657142857142857Z"/>
    <path fill="#1e1e1e" fill-rule="evenodd" d="M4.814285714285714 32.37428571428571H5.622857142857143V32.01714285714286H4.814285714285714Z"/>
    <path fill="#1e1e1e" fill-rule="evenodd" d="M5.862857142857143 33.0H7.3742857142857146V32.62285714285714H6.5132430594308035L6.974285714285714 32.18857142857143C7.254285714285714 31.925714285714285 7.308571428571429 31.751428571428573 7.308571428571429 31.557142857142857C7.308571428571429 31.191428571428574 7.011428571428572 30.965714285714284 6.565714285714286 30.965714285714284C6.207619047619048 30.965714285714284 5.923809523809524 31.10857142857143 5.771428571428571 31.337142857142858L6.1085714285714285 31.554285714285715C6.207619047619048 31.417142857142856 6.355238095238095 31.354285714285716 6.522857142857143 31.354285714285716C6.732380952380952 31.354285714285716 6.842857142857143 31.442857142857143 6.842857142857143 31.602857142857143C6.842857142857143 31.694285714285716 6.817142857142857 31.805714285714288 6.634285714285714 31.97142857142857L5.862857142857143 32.7Z"/>
  </g>

  <!-- output badge 3-4 — jack at y=56 -->
  <rect x="29.5" y="54.25" width="11" height="3.5" rx="1.0" fill="#d0d0d0"/>
  <g transform="translate(29.5, 0)">
    <path fill="#1e1e1e" fill-rule="evenodd" d="M3.878571428571428 57.034285714285716C4.449999999999999 57.034285714285716 4.707142857142857 56.72571428571429 4.707142857142857 56.38857142857143C4.707142857142857 56.09358998857143 4.5230287034934396 55.872392123254905 4.165362178257533 55.813029981340684L4.615714285714286 55.3V55.0H3.2157142857142853V55.371428571428574H4.0666386631556914L3.6557142857142857 55.83714285714286V56.142857142857146H3.867142857142857C4.13 56.142857142857146 4.241428571428571 56.23619047619048 4.241428571428571 56.38857142857143C4.241428571428571 56.54857142857143 4.099523809523809 56.645714285714284 3.867142857142857 56.645714285714284C3.661428571428571 56.645714285714284 3.4480952380952377 56.576190476190476 3.2957142857142854 56.465714285714284L3.1157142857142857 56.82C3.306190476190476 56.957142857142856 3.60047619047619 57.034285714285716 3.878571428571428 57.034285714285716Z"/>
    <path fill="#1e1e1e" fill-rule="evenodd" d="M4.958571428571428 56.37428571428571H5.767142857142857V56.01714285714286H4.958571428571428Z"/>
    <path fill="#1e1e1e" fill-rule="evenodd" d="M6.001428571428571 56.58H7.078571428571427V57.0H7.529999999999999V56.58H7.855714285714285V56.20285714285714H7.529999999999999V55.82857142857143H7.092857142857142V56.20285714285714H6.554948512486048L7.429999999999999 55.0H6.944285714285713L6.001428571428571 56.26857142857143Z"/>
  </g>

  <!-- output badge 5-6 — jack at y=80 -->
  <rect x="29.5" y="78.25" width="11" height="3.5" rx="1.0" fill="#d0d0d0"/>
  <g transform="translate(29.5, 0)">
    <path fill="#1e1e1e" fill-rule="evenodd" d="M3.98 81.03428571428572C4.551428571428571 81.03428571428572 4.811428571428571 80.72571428571429 4.811428571428571 80.37142857142857C4.811428571428571 80.01714285714286 4.579999999999999 79.75142857142858 3.9857142857142858 79.75142857142858H3.8216675240652904L3.855475333077567 79.37142857142857H4.688571428571429V79.0H3.468571428571429L3.3657142857142857 80.12571428571428H3.8771428571428572C4.242857142857142 80.12571428571428 4.342857142857143 80.23142857142857 4.342857142857143 80.38571428571429C4.342857142857143 80.5495238095238 4.200952380952381 80.64571428571429 3.968571428571429 80.64571428571429C3.762857142857143 80.64571428571429 3.552380952380952 80.57619047619048 3.4 80.46571428571428L3.217142857142857 80.82C3.4114285714285715 80.95714285714286 3.701904761904762 81.03428571428572 3.98 81.03428571428572Z"/>
    <path fill="#1e1e1e" fill-rule="evenodd" d="M5.037142857142857 80.37428571428572H5.845714285714286V80.01714285714286H5.037142857142857Z"/>
    <path fill="#1e1e1e" fill-rule="evenodd" d="M6.997142857142856 81.03428571428572C7.14 81.03428571428572 7.2680952380952375 81.00714285714285 7.381428571428571 80.95285714285714C7.608095238095237 80.84428571428572 7.7542857142857144 80.63904761904762 7.7542857142857144 80.36857142857143C7.7542857142857144 80.24285714285715 7.723333333333333 80.13333333333334 7.661428571428571 80.04C7.537619047619047 79.85333333333334 7.324761904761905 79.74571428571429 7.065714285714286 79.74571428571429C6.858455428571427 79.74571428571429 6.690286744244959 79.80735648130936 6.57211441040039 79.9263359941755L6.572886614118303 79.90836584908622C6.5922895197820495 79.53465125920887 6.80410790095238 79.34285714285714 7.1342857142857135 79.34285714285714C7.2714285714285705 79.34285714285714 7.398095238095237 79.36666666666666 7.508571428571428 79.44285714285714L7.68 79.10285714285715C7.5390476190476186 79.01142857142857 7.336190476190476 78.96571428571428 7.122857142857143 78.96571428571428C6.522857142857141 78.96571428571428 6.102857142857142 79.35142857142857 6.102857142857142 80.04285714285714C6.102857142857142 80.68857142857144 6.448571428571428 81.03428571428572 6.997142857142856 81.03428571428572ZM6.9714285714285715 80.68857142857142C6.748571428571428 80.68857142857144 6.619999999999999 80.56285714285714 6.619999999999999 80.39142857142858C6.619999999999999 80.21428571428571 6.76 80.09142857142857 6.965714285714285 80.09142857142857C7.171428571428571 80.09142857142857 7.305714285714285 80.20857142857143 7.305714285714285 80.39142857142858C7.305714285714285 80.56857142857143 7.165714285714285 80.68857142857144 6.9714285714285715 80.68857142857142Z"/>
  </g>

  <!-- output badge 7-8 — jack at y=104 -->
  <rect x="29.5" y="102.25" width="11" height="3.5" rx="1.0" fill="#d0d0d0"/>
  <g transform="translate(29.5, 0)">
    <path fill="#1e1e1e" fill-rule="evenodd" d="M3.5514285714285716 105.0H4.054285714285714L4.797142857142857 103.3V103.0H3.1942857142857144V103.70285714285714H3.605714285714286V103.37714285714286H4.268741607666016Z"/>
    <path fill="#1e1e1e" fill-rule="evenodd" d="M5.04 104.37428571428572H5.848571428571429V104.01714285714286H5.04Z"/>
    <path fill="#1e1e1e" fill-rule="evenodd" d="M6.934285714285714 105.03428571428572C7.442857142857141 105.03428571428572 7.78 104.79142857142857 7.78 104.42C7.78 104.20451088571428 7.668444753251418 104.04383771164123 7.474347272600447 103.9469228036063C7.623507420589523 103.8546629478746 7.708571428571429 103.71498268 7.708571428571429 103.53714285714285C7.708571428571429 103.18285714285715 7.397142857142858 102.96571428571428 6.934285714285714 102.96571428571428C6.482857142857142 102.96571428571428 6.165714285714286 103.18285714285715 6.165714285714286 103.53714285714285C6.165714285714286 103.71493312 6.250730889411292 103.8545850933482 6.398976309640068 103.94684751238142C6.205900191933497 104.04375241647963 6.094285714285714 104.20445368571428 6.094285714285714 104.42C6.094285714285714 104.79142857142857 6.4314285714285715 105.03428571428572 6.934285714285714 105.03428571428572ZM6.934285714285714 103.80285714285715C6.743809523809524 103.80285714285715 6.625714285714286 103.70952380952382 6.625714285714286 103.55714285714286C6.625714285714286 103.39714285714285 6.751428571428572 103.30571428571429 6.934285714285714 103.30571428571429C7.120952380952382 103.30571428571429 7.248571428571429 103.39714285714285 7.248571428571429 103.55714285714286C7.248571428571429 103.70952380952382 7.128571428571428 103.80285714285715 6.934285714285714 103.80285714285715ZM6.934285714285714 104.69428571428571C6.705714285714286 104.69428571428571 6.562857142857143 104.5847619047619 6.562857142857143 104.40571428571428C6.562857142857143 104.22666666666667 6.705714285714286 104.12 6.934285714285714 104.12C7.166666666666667 104.12 7.311428571428571 104.22666666666667 7.311428571428571 104.40571428571428C7.311428571428571 104.5847619047619 7.166666666666667 104.69428571428571 6.934285714285714 104.69428571428571Z"/>
  </g>

  <!-- domino logo centered above bottom bar -->
  <g transform="translate(20.71,118.0) scale(0.75)">
    <rect x="0" y="0" width="12.5" height="5.5"
          rx="1.18" ry="1.2"
          fill="none" stroke="#d0d0d0" stroke-width="0.5"/>
    <rect x="6.125" y="0.5" width="0.25" height="4.5"
          fill="#d0d0d0"/>
    <circle cx="2.07"  cy="1.46" r="0.625" fill="#d0d0d0"/>
    <circle cx="4.19"  cy="4.11" r="0.625" fill="#d0d0d0"/>
    <circle cx="8.20"  cy="1.46" r="0.625" fill="#d0d0d0"/>
    <circle cx="10.32" cy="4.11" r="0.625" fill="#d0d0d0"/>
  </g>

</svg>
