<?xml version="1.0" encoding="UTF-8"?>
<svg xmlns="http://www.w3.org/2000/svg"
     width="50.8mm" height="128.5mm"
     viewBox="0 0 50.8 128.5">

  <rect width="50.8" height="128.5" fill="#1e1e1e"/>

  <!-- top accent trapezoid -->
  <polygon points="
    0,0 50.8,0 50.8,0.5
    40.64,0.5 38.16,2.0 12.64,2.0 10.16,0.5
    0,0.5
  " fill="#f26522"/>
  <rect x="0" y="127.5" width="50.8" height="1.0" fill="#f26522"/>

  <!-- title: GOME (Bold) + 64 (Light), cap-top y=7, baseline y=11.125 -->
  <g id="title">
  <path fill="#d0d0d0" fill-rule="evenodd" d="M14.63080357142857 11.195714285714285C15.220089285714284 11.195714285714285 15.850624999999999 11.009107142857143 16.298482142857143 10.67125V8.99767857142857H15.426339285714285V10.20738707269941C15.18793172917821 10.33158231660201 14.940431729178211 10.3825 14.683839285714285 10.3825C13.898124999999997 10.3825 13.346160714285713 9.8325 13.346160714285713 9.0625C13.346160714285713 8.276785714285719 13.894196428571426 7.7425 14.695625 7.7425C15.112053571428572 7.7425 15.463660714285712 7.893750000000001 15.762232142857142 8.208035714285714L16.375089285714285 7.642321428571428C15.974374999999998 7.178750000000001 15.379196428571426 6.929285714285714 14.648482142857143 6.929285714285714C13.328482142857139 6.929285714285714 12.379732142857142 7.821071428571431 12.379732142857142 9.0625C12.379732142857142 10.303928571428571 13.326517857142855 11.195714285714285 14.63080357142857 11.195714285714285Z"/>
  <path fill="#d0d0d0" fill-rule="evenodd" d="M19.185982142857142 11.195714285714285C20.15241071428571 11.195714285714285 20.924374999999998 10.697767857142859 21.266160714285714 9.914017857142857C21.49547847985348 9.388168498168499 21.492575723327306 8.722367766726943 21.266160714285714 8.210982142857143C20.924375 7.439017857142857 20.15830357142857 6.929285714285714 19.18008928571429 6.929285714285714C17.891517857142855 6.929285714285714 16.923125000000002 7.836785714285716 16.923125000000002 9.0625C16.923125000000002 10.288214285714286 17.88169642857143 11.195714285714285 19.185982142857142 11.195714285714285ZM19.18008928571429 10.3825C18.99544642857143 10.3825 18.824553571428574 10.351071428571428 18.667410714285715 10.288214285714286C18.195982142857144 10.099642857142857 17.88955357142857 9.64 17.88955357142857 9.0625C17.88955357142857 8.276785714285719 18.441517857142856 7.7425 19.18008928571429 7.7425C19.91866071428571 7.7425 20.470625000000002 8.276785714285715 20.470625000000002 9.0625C20.470625000000002 9.848214285714288 19.91866071428571 10.3825 19.18008928571429 10.3825Z"/>
  <path fill="#d0d0d0" fill-rule="evenodd" d="M22.155982142857145 11.125H23.05169642857143V8.702493284770421L24.259732142857143 10.688928571428571H24.689910714285716L25.904430540629797 8.649158054079328L25.909732142857145 11.125H26.80544642857143L26.793660714285714 7.0H26.009910714285716L24.490730146680562 9.561348799296788L22.945625 7.0H22.155982142857145Z"/>
  <path fill="#d0d0d0" fill-rule="evenodd" d="M27.783660714285716 11.125H30.977589285714288V10.35892857142857H28.732410714285717V9.404285714285715H30.647589285714286V8.661785714285713H28.732410714285717V7.766071428571428H30.900982142857146V7.0H27.783660714285716Z"/>
  <path fill="#d0d0d0" fill-rule="evenodd" d="M33.228660714285716 11.154464285714285C34.01830357142857 11.154464285714285 34.60169642857143 10.665357142857145 34.60169642857143 9.911071428571429C34.60169642857143 9.168571428571429 34.04776785714286 8.685357142857143 33.222767857142856 8.685357142857143C32.59910957857143 8.685357142857143 32.0808736794568 8.992457117796517 31.910607076372422 9.534127110072545C31.88068208108139 9.34561871007967 31.873303571428572 9.162759602142858 31.873303571428572 9.03892857142857C31.873303571428572 7.836785714285714 32.478303571428576 7.235714285714286 33.40544642857143 7.235714285714286C33.71973214285714 7.235714285714286 34.00651785714286 7.290714285714286 34.21866071428572 7.424285714285714L34.34241071428572 7.182678571428571C34.09098214285714 7.025535714285715 33.75901785714286 6.970535714285714 33.40544642857143 6.970535714285714C32.309375 6.970535714285714 31.57276785714286 7.68357142857143 31.57276785714286 9.08607142857143C31.57276785714286 10.370714285714286 32.144375000000004 11.154464285714285 33.228660714285716 11.154464285714285ZM33.216875 10.895178571428572C32.45080357142857 10.895178571428572 32.03830357142857 10.411964285714285 32.03830357142857 9.92875C32.03830357142857 9.37482142857143 32.509732142857146 8.944642857142856 33.18151785714286 8.944642857142856C33.88080357142857 8.944642857142856 34.301160714285714 9.32767857142857 34.301160714285714 9.916964285714286C34.301160714285714 10.506250000000001 33.865089285714284 10.895178571428572 33.216875 10.895178571428572Z"/>
  <path fill="#d0d0d0" fill-rule="evenodd" d="M35.049553571428575 9.981785714285714H37.400803571428575V11.125H37.69544642857144V9.981785714285714H38.56169642857143V9.716607142857143H37.69544642857144V8.708928571428572H37.406696428571436V9.716607142857143H35.42943555150714L37.62473214285715 7.0H37.28883928571429L35.049553571428575 9.76375Z"/>
  </g>

  <!-- output badge 1-2 — jack at y=32 -->
  <rect x="29.5" y="30.25" width="11" height="3.5" rx="1.0" fill="#d0d0d0"/>
  <g transform="translate(29.5, 0)">
    <path fill="#1e1e1e" fill-rule="evenodd" d="M3.9657142857142857 33.0H4.428571428571429V31.0H3.565714285714286V31.37142857142857H3.9657142857142857Z"/>
    <path fill="#1e1e1e" fill-rule="evenodd" d="M4.814285714285714 32.37428571428571H5.622857142857143V32.01714285714286H4.814285714285714Z"/>
    <path fill="#1e1e1e" fill-rule="evenodd" d="M5.862857142857143 33.0H7.3742857142857146V32.62285714285714H6.5132430594308035L6.974285714285714 32.18857142857143C7.254285714285714 31.925714285714285 7.308571428571429 31.751428571428573 7.308571428571429 31.557142857142857C7.308571428571429 31.191428571428574 7.011428571428572 30.965714285714284 6.565714285714286 30.965714285714284C6.207619047619048 30.965714285714284 5.923809523809524 31.10857142857143 5.771428571428571 31.337142857142858L6.1085714285714285 31.554285714285715C6.207619047619048 31.417142857142856 6.355238095238095 31.354285714285716 6.522857142857143 31.354285714285716C6.732380952380952 31.354285714285716 6.842857142857143 31.442857142857143 6.842857142857143 31.602857142857143C6.842857142857143 31.694285714285716 6.817142857142857 31.805714285714288 6.634285714285714 31.97142857142857L5.862857142857143 32.7Z"/>
  </g>

  <!-- output badge 3-4 — jack at y=56 -->
  <rect x="29.5" y="54.25" width="11" height="3.5" rx="1.0" fill="#d0d0d0"/>
  <g transform="translate(29.5, 0)">
    <path fill="#1e1e1e" fill-rule="evenodd" d="M3.878571428571428 57.034285714285716C4.449999999999999 57.034285714285716 4.707142857142857 56.72571428571429 4.707142857142857 56.38857142857143C4.707142857142857 56.09358998857143 4.5230287034934396 55.872392123254905 4.165362178257533 55.813029981340684L4.615714285714286 55.3V55.0H3.2157142857142853V55.371428571428574H4.0666386631556914L3.6557142857142857 55.83714285714286V56.142857142857146H3.867142857142857C4.13 56.142857142857146 4.241428571428571 56.23619047619048 4.241428571428571 56.38857142857143C4.241428571428571 56.54857142857143 4.099523809523809 56.645714285714284 3.867142857142857 56.645714285714284C3.661428571428571 56.645714285714284 3.4480952380952377 56.576190476190476 3.2957142857142854 56.465714285714284L3.1157142857142857 56.82C3.306190476190476 56.957142857142856 3.60047619047619 57.034285714285716 3.878571428571428 57.034285714285716Z"/>
    <path fill="#1e1e1e" fill-rule="evenodd" d="M4.958571428571428 56.37428571428571H5.767142857142857V56.01714285714286H4.958571428571428Z"/>
    <path fill="#1e1e1e" fill-rule="evenodd" d="M6.001428571428571 56.58H7.078571428571427V57.0H7.529999999999999V56.58H7.855714285714285V56.20285714285714H7.529999999999999V55.82857142857143H7.092857142857142V56.20285714285714H6.554948512486048L7.429999999999999 55.0H6.944285714285713L6.001428571428571 56.26857142857143Z"/>
  </g>

  <!-- output badge 5-6 — jack at y=80 -->
  <rect x="29.5" y="78.25" width="11" height="3.5" rx="1.0" fill="#d0d0d0"/>
  <g transform="translate(29.5, 0)">
    <path fill="#1e1e1e" fill-rule="evenodd" d="M3.98 81.03428571428572C4.551428571428571 81.03428571428572 4.811428571428571 80.72571428571429 4.811428571428571 80.37142857142857C4.811428571428571 80.01714285714286 4.579999999999999 79.75142857142858 3.9857142857142858 79.75142857142858H3.8216675240652904L3.855475333077567 79.37142857142857H4.688571428571429V79.0H3.468571428571429L3.3657142857142857 80.12571428571428H3.8771428571428572C4.242857142857142 80.12571428571428 4.342857142857143 80.23142857142857 4.342857142857143 80.38571428571429C4.342857142857143 80.5495238095238 4.200952380952381 80.64571428571429 3.968571428571429 80.64571428571429C3.762857142857143 80.64571428571429 3.552380952380952 80.57619047619048 3.4 80.46571428571428L3.217142857142857 80.82C3.4114285714285715 80.95714285714286 3.701904761904762 81.03428571428572 3.98 81.03428571428572Z"/>
    <path fill="#1e1e1e" fill-rule="evenodd" d="M5.037142857142857 80.37428571428572H5.845714285714286V80.01714285714286H5.037142857142857Z"/>
    <path fill="#1e1e1e" fill-rule="evenodd" d="M6.997142857142856 81.03428571428572C7.14 81.03428571428572 7.2680952380952375 81.00714285714285 7.381428571428571 80.95285714285714C7.608095238095237 80.84428571428572 7.7542857142857144 80.63904761904762 7.7542857142857144 80.36857142857143C7.7542857142857144 80.24285714285715 7.723333333333333 80.13333333333334 7.661428571428571 80.04C7.537619047619047 79.85333333333334 7.324761904761905 79.74571428571429 7.065714285714286 79.74571428571429C6.858455428571427 79.74571428571429 6.690286744244959 79.80735648130936 6.57211441040039 79.9263359941755L6.572886614118303 79.90836584908622C6.5922895197820495 79.53465125920887 6.80410790095238 79.34285714285714 7.1342857142857135 79.34285714285714C7.2714285714285705 79.34285714285714 7.398095238095237 79.36666666666666 7.508571428571428 79.44285714285714L7.68 79.10285714285715C7.5390476190476186 79.01142857142857 7.336190476190476 78.96571428571428 7.122857142857143 78.96571428571428C6.522857142857141 78.96571428571428 6.102857142857142 79.35142857142857 6.102857142857142 80.04285714285714C6.102857142857142 80.68857142857144 6.448571428571428 81.03428571428572 6.997142857142856 81.03428571428572ZM6.9714285714285715 80.68857142857142C6.748571428571428 80.68857142857144 6.619999999999999 80.56285714285714 6.619999999999999 80.39142857142858C6.619999999999999 80.21428571428571 6.76 80.09142857142857 6.965714285714285 80.09142857142857C7.171428571428571 80.09142857142857 7.305714285714285 80.20857142857143 7.305714285714285 80.39142857142858C7.305714285714285 80.56857142857143 7.165714285714285 80.68857142857144 6.9714285714285715 80.68857142857142Z"/>
  </g>

  <!-- output badge 7-8 — jack at y=104 -->
  <rect x="29.5" y="102.25" width="11" height="3.5" rx="1.0" fill="#d0d0d0"/>
  <g transform="translate(29.5, 0)">
    <path fill="#1e1e1e" fill-rule="evenodd" d="M3.5514285714285716 105.0H4.054285714285714L4.797142857142857 103.3V103.0H3.1942857142857144V103.70285714285714H3.605714285714286V103.37714285714286H4.268741607666016Z"/>
    <path fill="#1e1e1e" fill-rule="evenodd" d="M5.04 104.37428571428572H5.848571428571429V104.01714285714286H5.04Z"/>
    <path fill="#1e1e1e" fill-rule="evenodd" d="M6.934285714285714 105.03428571428572C7.442857142857141 105.03428571428572 7.78 104.79142857142857 7.78 104.42C7.78 104.20451088571428 7.668444753251418 104.04383771164123 7.474347272600447 103.9469228036063C7.623507420589523 103.8546629478746 7.708571428571429 103.71498268 7.708571428571429 103.53714285714285C7.708571428571429 103.18285714285715 7.397142857142858 102.96571428571428 6.934285714285714 102.96571428571428C6.482857142857142 102.96571428571428 6.165714285714286 103.18285714285715 6.165714285714286 103.53714285714285C6.165714285714286 103.71493312 6.250730889411292 103.8545850933482 6.398976309640068 103.94684751238142C6.205900191933497 104.04375241647963 6.094285714285714 104.20445368571428 6.094285714285714 104.42C6.094285714285714 104.79142857142857 6.4314285714285715 105.03428571428572 6.934285714285714 105.03428571428572ZM6.934285714285714 103.80285714285715C6.743809523809524 103.80285714285715 6.625714285714286 103.70952380952382 6.625714285714286 103.55714285714286C6.625714285714286 103.39714285714285 6.751428571428572 103.30571428571429 6.934285714285714 103.30571428571429C7.120952380952382 103.30571428571429 7.248571428571429 103.39714285714285 7.248571428571429 103.55714285714286C7.248571428571429 103.70952380952382 7.128571428571428 103.80285714285715 6.934285714285714 103.80285714285715ZM6.934285714285714 104.69428571428571C6.705714285714286 104.69428571428571 6.562857142857143 104.5847619047619 6.562857142857143 104.40571428571428C6.562857142857143 104.22666666666667 6.705714285714286 104.12 6.934285714285714 104.12C7.166666666666667 104.12 7.311428571428571 104.22666666666667 7.311428571428571 104.40571428571428C7.311428571428571 104.5847619047619 7.166666666666667 104.69428571428571 6.934285714285714 104.69428571428571Z"/>
  </g>

  <!-- domino logo centered above bottom bar -->
  <g transform="translate(20.71,118.0) scale(0.75)">
    <rect x="0" y="0" width="12.5" height="5.5"
          rx="1.18" ry="1.2"
          fill="none" stroke="#d0d0d0" stroke-width="0.5"/>
    <rect x="6.125" y="0.5" width="0.25" height="4.5"
          fill="#d0d0d0"/>
    <circle cx="2.07"  cy="1.46" r="0.625" fill="#d0d0d0"/>
    <circle cx="4.19"  cy="4.11" r="0.625" fill="#d0d0d0"/>
    <circle cx="8.20"  cy="1.46" r="0.625" fill="#d0d0d0"/>
    <circle cx="10.32" cy="4.11" r="0.625" fill="#d0d0d0"/>
  </g>

</svg>
