<?xml version="1.0" encoding="UTF-8"?>
<svg xmlns="http://www.w3.org/2000/svg"
     width="50.8mm" height="128.5mm"
     viewBox="0 0 50.8 128.5">

  <rect width="50.8" height="128.5" fill="#1e1e1e"/>

  <!-- top accent trapezoid (companion blue) -->
  <polygon points="
    0,0 50.8,0 50.8,0.5
    40.64,0.5 38.16,2.0 12.64,2.0 10.16,0.5
    0,0.5
  " fill="#22aff2"/>
  <rect x="0" y="127.5" width="50.8" height="1.0" fill="#22aff2"/>

  <!-- title: 64 (Light) + GRAINS (Bold), cap-top y=7, baseline y=11.125 -->
<g id="title">
  <path fill="#d0d0d0" fill-rule="evenodd" d="M11.758035714285713 11.154464285714285C12.547678571428566 11.154464285714285 13.131071428571428 10.665357142857145 13.131071428571428 9.911071428571429C13.131071428571428 9.168571428571429 12.577142857142855 8.685357142857143 11.752142857142855 8.685357142857143C11.128484578571426 8.685357142857143 10.610248679456797 8.992457117796517 10.439982076372416 9.534127110072545C10.410057081081385 9.34561871007967 10.40267857142857 9.162759602142858 10.40267857142857 9.03892857142857C10.40267857142857 7.836785714285714 11.007678571428569 7.235714285714286 11.934821428571427 7.235714285714286C12.24910714285714 7.235714285714286 12.535892857142855 7.290714285714286 12.748035714285713 7.424285714285714L12.871785714285712 7.182678571428571C12.62035714285714 7.025535714285715 12.288392857142854 6.970535714285714 11.934821428571427 6.970535714285714C10.838749999999997 6.970535714285714 10.102142857142855 7.68357142857143 10.102142857142855 9.08607142857143C10.102142857142855 10.370714285714286 10.673749999999997 11.154464285714285 11.758035714285713 11.154464285714285ZM11.746249999999998 10.895178571428572C10.980178571428569 10.895178571428572 10.56767857142857 10.411964285714285 10.56767857142857 9.92875C10.56767857142857 9.37482142857143 11.03910714285714 8.944642857142856 11.710892857142856 8.944642857142856C12.410178571428569 8.944642857142856 12.830535714285713 9.32767857142857 12.830535714285713 9.916964285714286C12.830535714285713 10.506250000000001 12.394464285714282 10.895178571428572 11.746249999999998 10.895178571428572Z"/>
  <path fill="#d0d0d0" fill-rule="evenodd" d="M13.578928571428571 9.981785714285714H15.93017857142857V11.125H16.224821428571428V9.981785714285714H17.09107142857143V9.716607142857143H16.224821428571428V8.708928571428572H15.936071428571427V9.716607142857143H13.958810551507131L16.154107142857143 7.0H15.818214285714285L13.578928571428571 9.76375Z"/>
  <path fill="#d0d0d0" fill-rule="evenodd" d="M19.660357142857144 11.195714285714285C20.249642857142856 11.195714285714285 20.88017857142857 11.009107142857143 21.328035714285715 10.67125V8.99767857142857H20.455892857142857V10.20738707269941C20.217485300606782 10.33158231660201 19.969985300606783 10.3825 19.713392857142857 10.3825C18.92767857142857 10.3825 18.375714285714285 9.8325 18.375714285714285 9.0625C18.375714285714285 8.276785714285719 18.92375 7.7425 19.72517857142857 7.7425C20.141607142857143 7.7425 20.493214285714284 7.893750000000001 20.791785714285716 8.208035714285714L21.404642857142857 7.642321428571428C21.00392857142857 7.178750000000001 20.408749999999998 6.929285714285714 19.678035714285713 6.929285714285714C18.35803571428571 6.929285714285714 17.409285714285716 7.821071428571431 17.409285714285716 9.0625C17.409285714285716 10.303928571428571 18.356071428571425 11.195714285714285 19.660357142857144 11.195714285714285Z"/>
  <path fill="#d0d0d0" fill-rule="evenodd" d="M22.211964285714288 11.125H23.166607142857146V9.975892857142856H23.997500000000002C24.012523650714286 9.975892857142856 24.027469274979808 9.975789905578512 24.042337587901525 9.975543840953282L24.834285714285716 11.125H25.865535714285716L24.943239549909322 9.801478951317923C25.480886927031964 9.569020266407202 25.788928571428574 9.113896698571429 25.788928571428574 8.496785714285714C25.788928571428574 7.561785714285715 25.12107142857143 7.0 23.973928571428573 7.0H22.211964285714288ZM23.944464285714286 7.777857142857142C24.53375 7.777857142857142 24.8225 8.041071428571428 24.8225 8.496785714285714C24.8225 8.944642857142858 24.53375 9.215714285714286 23.944464285714286 9.215714285714286H23.166607142857146V7.777857142857142Z"/>
  <path fill="#d0d0d0" fill-rule="evenodd" d="M26.001071428571432 11.125H26.979285714285716L27.346874123982023 10.241071428571429H29.259020440237865L29.625178571428574 11.125H30.626964285714287L28.782500000000002 7.0H27.83964285714286ZM27.648296653202603 9.51625 28.304810987200057 7.937550145557948 28.95877079963684 9.51625Z"/>
  <path fill="#d0d0d0" fill-rule="evenodd" d="M31.05714285714286 11.125H32.011785714285715V7.0H31.05714285714286Z"/>
  <path fill="#d0d0d0" fill-rule="evenodd" d="M32.99 11.125H33.932857142857145V8.621304332188197L35.989464285714284 11.125H36.77321428571429V7.0H35.830357142857146V9.50256656919207L33.77964285714286 7.0H32.99Z"/>
  <path fill="#d0d0d0" fill-rule="evenodd" d="M39.10678571428572 11.195714285714285C40.285357142857144 11.195714285714285 40.85696428571429 10.612321428571429 40.85696428571429 9.916964285714286C40.85696428571429 9.48482142857143 40.6625 9.211785714285714 40.37964285714286 9.03892857142857C39.6725 8.606785714285714 38.45857142857143 8.69714285714286 38.45857142857143 8.166785714285714C38.45857142857143 8.076428571428572 38.48410714285715 7.996875 38.535178571428574 7.928125C38.63732142857143 7.790625 38.87303571428572 7.695357142857143 39.24232142857143 7.695357142857143C39.611607142857146 7.695357142857143 40.00053571428572 7.799464285714286 40.385535714285716 8.019464285714285L40.68017857142858 7.294642857142857C40.29517857142857 7.051071428571428 39.76678571428572 6.929285714285714 39.24821428571429 6.929285714285714C38.081428571428575 6.929285714285714 37.509821428571435 7.506785714285715 37.509821428571435 8.213928571428571C37.509821428571435 8.873928571428571 37.94294642857143 9.145 38.455625000000005 9.31C39.13919642857143 9.530000000000001 39.90821428571429 9.547678571428571 39.90821428571429 9.987678571428571C39.90821428571429 10.246964285714286 39.67839285714286 10.429642857142857 39.112678571428575 10.429642857142857C38.61767857142858 10.429642857142857 38.105000000000004 10.250892857142857 37.751428571428576 9.999464285714286L37.42732142857143 10.718392857142858C37.79660714285715 11.00125 38.44678571428572 11.195714285714285 39.10678571428572 11.195714285714285Z"/>
</g>
  <!-- 1-2 input label - jack at y=30 -->
  <path fill="#d0d0d0" fill-rule="evenodd" d="M13.705714285714286 37.0H14.168571428571429V35.0H13.305714285714286V35.371428571428574H13.705714285714286Z"/>
  <path fill="#d0d0d0" fill-rule="evenodd" d="M14.554285714285715 36.37428571428571H15.362857142857143V36.01714285714286H14.554285714285715Z"/>
  <path fill="#d0d0d0" fill-rule="evenodd" d="M15.602857142857143 37.0H17.114285714285714V36.62285714285714H16.253243059430805L16.714285714285715 36.18857142857143C16.994285714285713 35.925714285714285 17.048571428571428 35.75142857142857 17.048571428571428 35.55714285714286C17.048571428571428 35.191428571428574 16.751428571428573 34.965714285714284 16.305714285714288 34.965714285714284C15.947619047619048 34.965714285714284 15.663809523809524 35.10857142857143 15.511428571428572 35.33714285714286L15.848571428571429 35.55428571428571C15.947619047619048 35.417142857142856 16.095238095238095 35.354285714285716 16.262857142857143 35.354285714285716C16.472380952380952 35.354285714285716 16.582857142857144 35.44285714285714 16.582857142857144 35.60285714285714C16.582857142857144 35.69428571428571 16.557142857142857 35.80571428571429 16.374285714285715 35.971428571428575L15.602857142857143 36.7Z"/>
  <!-- 3-4 input label - jack at y=44 -->
  <path fill="#d0d0d0" fill-rule="evenodd" d="M13.618571428571428 51.034285714285716C14.19 51.034285714285716 14.447142857142858 50.72571428571429 14.447142857142858 50.38857142857143C14.447142857142858 50.09358998857143 14.26302870349344 49.872392123254905 13.905362178257533 49.813029981340684L14.355714285714285 49.3V49.0H12.955714285714286V49.371428571428574H13.806638663155692L13.395714285714286 49.83714285714286V50.142857142857146H13.607142857142858C13.87 50.142857142857146 13.981428571428571 50.23619047619048 13.981428571428571 50.38857142857143C13.981428571428571 50.54857142857143 13.83952380952381 50.645714285714284 13.607142857142858 50.645714285714284C13.401428571428571 50.645714285714284 13.188095238095238 50.576190476190476 13.035714285714286 50.465714285714284L12.855714285714285 50.82C13.046190476190477 50.957142857142856 13.34047619047619 51.034285714285716 13.618571428571428 51.034285714285716Z"/>
  <path fill="#d0d0d0" fill-rule="evenodd" d="M14.69857142857143 50.37428571428571H15.507142857142858V50.01714285714286H14.69857142857143Z"/>
  <path fill="#d0d0d0" fill-rule="evenodd" d="M15.741428571428573 50.58H16.81857142857143V51.0H17.27V50.58H17.595714285714287V50.20285714285714H17.27V49.82857142857143H16.832857142857144V50.20285714285714H16.29494851248605L17.17 49.0H16.684285714285714L15.741428571428573 50.26857142857143Z"/>
  <!-- 5-6 input label - jack at y=58 -->
  <path fill="#d0d0d0" fill-rule="evenodd" d="M13.72 65.03428571428572C14.291428571428572 65.03428571428572 14.551428571428572 64.72571428571429 14.551428571428572 64.37142857142857C14.551428571428572 64.01714285714286 14.32 63.75142857142857 13.725714285714286 63.75142857142857H13.56166752406529L13.595475333077568 63.371428571428574H14.428571428571429V63.0H13.208571428571428L13.105714285714287 64.12571428571428H13.617142857142857C13.982857142857142 64.12571428571428 14.082857142857144 64.23142857142857 14.082857142857144 64.38571428571429C14.082857142857144 64.5495238095238 13.94095238095238 64.64571428571429 13.708571428571428 64.64571428571429C13.502857142857144 64.64571428571429 13.292380952380952 64.57619047619048 13.14 64.46571428571428L12.957142857142857 64.82C13.151428571428571 64.95714285714286 13.441904761904762 65.03428571428572 13.72 65.03428571428572Z"/>
  <path fill="#d0d0d0" fill-rule="evenodd" d="M14.777142857142856 64.37428571428572H15.585714285714285V64.01714285714286H14.777142857142856Z"/>
  <path fill="#d0d0d0" fill-rule="evenodd" d="M16.737142857142857 65.03428571428572C16.88 65.03428571428572 17.008095238095237 65.00714285714285 17.12142857142857 64.95285714285714C17.348095238095237 64.84428571428572 17.494285714285713 64.63904761904762 17.494285714285713 64.36857142857143C17.494285714285713 64.24285714285715 17.463333333333335 64.13333333333334 17.40142857142857 64.04C17.277619047619048 63.85333333333333 17.064761904761905 63.745714285714286 16.805714285714284 63.745714285714286C16.598455428571427 63.745714285714286 16.43028674424496 63.80735648130936 16.31211441040039 63.9263359941755L16.3128866141183 63.908365849086216C16.332289519782048 63.53465125920887 16.54410790095238 63.34285714285714 16.874285714285715 63.34285714285714C17.01142857142857 63.34285714285714 17.138095238095236 63.36666666666667 17.248571428571427 63.44285714285714L17.42 63.10285714285714C17.279047619047617 63.011428571428574 17.076190476190476 62.965714285714284 16.86285714285714 62.965714285714284C16.262857142857143 62.965714285714284 15.842857142857143 63.35142857142857 15.842857142857143 64.04285714285714C15.842857142857143 64.68857142857144 16.18857142857143 65.03428571428572 16.737142857142857 65.03428571428572ZM16.71142857142857 64.68857142857142C16.48857142857143 64.68857142857144 16.36 64.56285714285714 16.36 64.39142857142858C16.36 64.21428571428571 16.5 64.09142857142857 16.705714285714286 64.09142857142857C16.911428571428573 64.09142857142857 17.045714285714286 64.20857142857143 17.045714285714286 64.39142857142858C17.045714285714286 64.56857142857143 16.905714285714286 64.68857142857144 16.71142857142857 64.68857142857142Z"/>
  <!-- 7-8 input label - jack at y=72 -->
  <path fill="#d0d0d0" fill-rule="evenodd" d="M13.29142857142857 79.0H13.794285714285714L14.537142857142857 77.3V77.0H12.934285714285714V77.70285714285714H13.345714285714285V77.37714285714286H14.008741607666014Z"/>
  <path fill="#d0d0d0" fill-rule="evenodd" d="M14.780000000000001 78.37428571428572H15.588571428571429V78.01714285714286H14.780000000000001Z"/>
  <path fill="#d0d0d0" fill-rule="evenodd" d="M16.674285714285716 79.03428571428572C17.18285714285714 79.03428571428572 17.52 78.79142857142857 17.52 78.42C17.52 78.20451088571428 17.408444753251416 78.04383771164123 17.214347272600445 77.9469228036063C17.363507420589524 77.8546629478746 17.44857142857143 77.71498268 17.44857142857143 77.53714285714285C17.44857142857143 77.18285714285715 17.13714285714286 76.96571428571428 16.674285714285716 76.96571428571428C16.222857142857144 76.96571428571428 15.905714285714286 77.18285714285715 15.905714285714286 77.53714285714285C15.905714285714286 77.71493312 15.990730889411292 77.8545850933482 16.138976309640068 77.94684751238142C15.945900191933497 78.04375241647963 15.834285714285715 78.20445368571428 15.834285714285715 78.42C15.834285714285715 78.79142857142857 16.17142857142857 79.03428571428572 16.674285714285716 79.03428571428572ZM16.674285714285716 77.80285714285715C16.483809523809523 77.80285714285715 16.365714285714287 77.70952380952382 16.365714285714287 77.55714285714286C16.365714285714287 77.39714285714285 16.49142857142857 77.30571428571429 16.674285714285716 77.30571428571429C16.86095238095238 77.30571428571429 16.98857142857143 77.39714285714285 16.98857142857143 77.55714285714286C16.98857142857143 77.70952380952382 16.86857142857143 77.80285714285715 16.674285714285716 77.80285714285715ZM16.674285714285716 78.69428571428571C16.445714285714285 78.69428571428571 16.302857142857142 78.5847619047619 16.302857142857142 78.40571428571428C16.302857142857142 78.22666666666667 16.445714285714285 78.12 16.674285714285716 78.12C16.906666666666666 78.12 17.051428571428573 78.22666666666667 17.051428571428573 78.40571428571428C17.051428571428573 78.5847619047619 16.906666666666666 78.69428571428571 16.674285714285716 78.69428571428571Z"/>
  <!-- L output badge - jack at y=94 -->
  <rect x="21.5" y="92.25" width="11" height="3.5" rx="1.0" fill="#d0d0d0"/>
  <g transform="translate(21.5, 0)">
  <path fill="#1e1e1e" fill-rule="evenodd" d="M4.8742857142857146 95.0H6.34V94.62285714285714H5.337142857142857V93.0H4.8742857142857146Z"/>
  </g>
  <!-- R output badge - jack at y=106 -->
  <rect x="21.5" y="104.25" width="11" height="3.5" rx="1.0" fill="#d0d0d0"/>
  <g transform="translate(21.5, 0)">
  <path fill="#1e1e1e" fill-rule="evenodd" d="M4.687142857142858 107.0H5.15V106.44285714285714H5.5528571428571425C5.560141337142857 106.44285714285714 5.567387700423109 106.44280722694715 5.5745965794154575 106.44268792288644L5.958571428571429 107.0H6.458571428571428L6.011397530691965 106.35829282488142C6.272075046872639 106.24558558371258 6.421428571428572 106.02491961142857 6.421428571428572 105.72571428571429C6.421428571428572 105.27238095238096 6.097619047619048 105.0 5.541428571428572 105.0H4.687142857142858ZM5.527142857142858 105.37714285714286C5.812857142857143 105.37714285714286 5.952857142857143 105.5047619047619 5.952857142857143 105.72571428571429C5.952857142857143 105.94285714285715 5.812857142857142 106.07428571428571 5.527142857142858 106.07428571428571H5.15V105.37714285714286Z"/>
  </g>

  <!-- domino logo centered above bottom bar -->
  <g transform="translate(20.71,118.0) scale(0.75)">
    <rect x="0" y="0" width="12.5" height="5.5"
          rx="1.18" ry="1.2"
          fill="none" stroke="#d0d0d0" stroke-width="0.5"/>
    <rect x="6.125" y="0.5" width="0.25" height="4.5"
          fill="#d0d0d0"/>
    <circle cx="2.07"  cy="1.46" r="0.625" fill="#d0d0d0"/>
    <circle cx="4.19"  cy="4.11" r="0.625" fill="#d0d0d0"/>
    <circle cx="8.20"  cy="1.46" r="0.625" fill="#d0d0d0"/>
    <circle cx="10.32" cy="4.11" r="0.625" fill="#d0d0d0"/>
  </g>

</svg>
