<?xml version="1.0" encoding="UTF-8"?>
<svg xmlns="http://www.w3.org/2000/svg"
     width="81.28mm" height="128.5mm"
     viewBox="0 0 81.28 128.5">

  <rect width="81.28" height="128.5" fill="#1e1e1e"/>

  <!-- top accent: slants start just inside screw inner edges (10.16 / 71.12 mm) -->
  <polygon points="
    0,0 81.28,0 81.28,0.5
    71.12,0.5 68.64,2.0 12.64,2.0 10.16,0.5
    0,0.5
  " fill="#f26522"/>
  <rect x="0" y="127.5" width="81.28" height="1.0" fill="#f26522"/>

  <!-- title: GRID (Bold) + 64 (Light), cap-top y=7, baseline y=11.125, cap-height=4.125 -->
  <g id="title">
    <path fill="#d0d0d0" fill-rule="evenodd" d="M31.582678571428573 11.195714285714285C32.17196428571428 11.195714285714285 32.8025 11.009107142857143 33.25035714285714 10.67125V8.99767857142857H32.378214285714286V10.20738707269941C32.13980672917821 10.33158231660201 31.892306729178213 10.3825 31.635714285714286 10.3825C30.849999999999998 10.3825 30.298035714285714 9.8325 30.298035714285714 9.0625C30.298035714285714 8.276785714285719 30.846071428571427 7.7425 31.6475 7.7425C32.06392857142857 7.7425 32.41553571428572 7.893750000000001 32.714107142857145 8.208035714285714L33.32696428571428 7.642321428571428C32.92625 7.178750000000001 32.33107142857143 6.929285714285714 31.600357142857142 6.929285714285714C30.280357142857138 6.929285714285714 29.331607142857145 7.821071428571431 29.331607142857145 9.0625C29.331607142857145 10.303928571428571 30.278392857142855 11.195714285714285 31.582678571428573 11.195714285714285Z"/>
    <path fill="#d0d0d0" fill-rule="evenodd" d="M34.13428571428572 11.125H35.088928571428575V9.975892857142856H35.91982142857143C35.934845079285715 9.975892857142856 35.94979070355124 9.975789905578512 35.96465901647296 9.975543840953282L36.75660714285714 11.125H37.78785714285715L36.86556097848075 9.801478951317923C37.40320835560339 9.569020266407202 37.71125 9.113896698571429 37.71125 8.496785714285714C37.71125 7.561785714285715 37.04339285714286 7.0 35.89625 7.0H34.13428571428572ZM35.86678571428572 7.777857142857142C36.456071428571434 7.777857142857142 36.74482142857143 8.041071428571428 36.74482142857143 8.496785714285714C36.74482142857143 8.944642857142858 36.45607142857143 9.215714285714286 35.86678571428572 9.215714285714286H35.088928571428575V7.777857142857142Z"/>
    <path fill="#d0d0d0" fill-rule="evenodd" d="M38.465535714285714 11.125H39.42017857142857V7.0H38.465535714285714Z"/>
    <path fill="#d0d0d0" fill-rule="evenodd" d="M40.39839285714286 11.125H42.27232142857143C43.61589285714286 11.125 44.54696428571429 10.311785714285715 44.54696428571429 9.0625C44.54696428571429 8.642142857142858 44.450714285714284 8.27875 44.25821428571429 7.972321428571428C43.87321428571428 7.359464285714285 43.168035714285715 7.0 42.27232142857143 7.0H40.39839285714286ZM41.35303571428572 10.34125V7.7837499999999995H42.22517857142857C43.050178571428575 7.7837499999999995 43.580535714285716 8.272857142857145 43.580535714285716 9.0625C43.580535714285716 9.840357142857144 43.05017857142857 10.34125 42.22517857142857 10.34125Z"/>
    <path fill="#d0d0d0" fill-rule="evenodd" d="M46.75678571428571 11.154464285714285C47.54642857142857 11.154464285714285 48.12982142857143 10.665357142857145 48.12982142857143 9.911071428571429C48.12982142857143 9.168571428571429 47.57589285714286 8.685357142857143 46.75089285714286 8.685357142857143C46.12723457857143 8.685357142857143 45.6089986794568 8.992457117796517 45.43873207637242 9.534127110072545C45.408807081081385 9.34561871007967 45.401428571428575 9.162759602142858 45.401428571428575 9.03892857142857C45.401428571428575 7.836785714285714 46.00642857142857 7.235714285714286 46.933571428571426 7.235714285714286C47.24785714285714 7.235714285714286 47.534642857142856 7.290714285714286 47.746785714285714 7.424285714285714L47.870535714285715 7.182678571428571C47.619107142857146 7.025535714285715 47.28714285714286 6.970535714285714 46.933571428571426 6.970535714285714C45.8375 6.970535714285714 45.10089285714286 7.68357142857143 45.10089285714286 9.08607142857143C45.10089285714286 10.370714285714286 45.6725 11.154464285714285 46.75678571428571 11.154464285714285ZM46.745000000000005 10.895178571428572C45.97892857142857 10.895178571428572 45.566428571428574 10.411964285714285 45.566428571428574 9.92875C45.566428571428574 9.37482142857143 46.03785714285714 8.944642857142856 46.70964285714286 8.944642857142856C47.408928571428575 8.944642857142856 47.82928571428572 9.32767857142857 47.82928571428572 9.916964285714286C47.82928571428572 10.506250000000001 47.393214285714286 10.895178571428572 46.745000000000005 10.895178571428572Z"/>
    <path fill="#d0d0d0" fill-rule="evenodd" d="M48.57767857142857 9.981785714285714H50.92892857142857V11.125H51.22357142857143V9.981785714285714H52.089821428571426V9.716607142857143H51.22357142857143V8.708928571428572H50.93482142857143V9.716607142857143H48.957560551507136L51.152857142857144 7.0H50.816964285714285L48.57767857142857 9.76375Z"/>
  </g>

  <!-- TOGGLE label left of switch (switch at x=40.64, y=108); centered at x=20, baseline y=109 -->
  <!-- paths from Buttons64 group-1 TOGGLE: center x≈12, baseline y=40.5 → translate(8, 68.5) -->
  <g transform="translate(8,68.5)">
    <path fill="#d0d0d0" fill-rule="evenodd" d="M6.647142857142858 40.5H6.93V38.74857142857143H7.615714285714286V38.5H5.961428571428572V38.74857142857143H6.647142857142858Z"/>
    <path fill="#d0d0d0" fill-rule="evenodd" d="M8.83 40.52285714285714C9.43952380952381 40.52285714285714 9.89 40.09428571428572 9.89 39.5C9.89 38.90571428571429 9.43952380952381 38.47714285714286 8.83 38.47714285714286C8.21285714285714 38.47714285714286 7.764285714285714 38.913333333333334 7.764285714285714 39.5C7.764285714285714 40.086666666666666 8.22047619047619 40.52285714285714 8.83 40.52285714285714ZM8.83 40.26857142857143C8.38047619047619 40.26857142857143 8.05 39.94190476190476 8.05 39.5C8.05 39.05809523809524 8.38047619047619 38.73142857142857 8.83 38.73142857142857C9.271904761904763 38.73142857142857 9.604285714285714 39.05809523809524 9.604285714285714 39.5C9.604285714285714 39.941904761904766 9.27190476190476 40.26857142857143 8.83 40.26857142857143Z"/>
    <path fill="#d0d0d0" fill-rule="evenodd" d="M11.23 40.52285714285714C11.511904761904763 40.52285714285714 11.789047619047619 40.436190476190475 11.987142857142857 40.26857142857143V39.488571428571426H11.712857142857143V40.138734109061105C11.571068640596785 40.230856340832 11.412096914285714 40.26857142857143 11.244285714285715 40.26857142857143C10.901428571428571 40.26857142857143 10.625714285714286 40.08714285714286 10.508571428571429 39.80428571428571C10.429791144527988 39.61406015037594 10.431149425287357 39.37980295566503 10.508571428571429 39.19285714285714C10.625714285714286 38.910000000000004 10.904285714285715 38.73142857142857 11.247142857142858 38.73142857142857C11.471904761904762 38.73142857142857 11.663333333333334 38.80285714285714 11.827142857142858 38.962857142857146L12.004285714285714 38.785714285714285C11.821428571428571 38.58 11.551904761904762 38.47714285714286 11.235714285714286 38.47714285714286C10.767142857142856 38.47714285714286 10.404285714285715 38.72 10.244285714285715 39.09142857142857C10.137619047619047 39.33904761904762 10.137619047619047 39.66095238095238 10.244285714285715 39.90857142857143C10.404285714285715 40.28 10.767142857142858 40.52285714285714 11.23 40.52285714285714Z"/>
    <path fill="#d0d0d0" fill-rule="evenodd" d="M13.435714285714285 40.52285714285714C13.717619047619046 40.52285714285714 13.994761904761903 40.436190476190475 14.192857142857143 40.26857142857143V39.488571428571426H13.918571428571427V40.138734109061105C13.776782926311071 40.230856340832 13.617811199999998 40.26857142857143 13.45 40.26857142857143C13.107142857142856 40.26857142857143 12.831428571428571 40.08714285714286 12.714285714285714 39.80428571428571C12.635505430242272 39.61406015037594 12.636863711001642 39.37980295566503 12.714285714285714 39.19285714285714C12.831428571428571 38.910000000000004 13.11 38.73142857142857 13.452857142857143 38.73142857142857C13.677619047619046 38.73142857142857 13.869047619047619 38.80285714285714 14.032857142857143 38.962857142857146L14.209999999999999 38.785714285714285C14.027142857142856 38.58 13.757619047619047 38.47714285714286 13.44142857142857 38.47714285714286C12.97285714285714 38.47714285714286 12.61 38.72 12.45 39.09142857142857C12.343333333333332 39.33904761904762 12.343333333333332 39.66095238095238 12.45 39.90857142857143C12.61 40.28 12.972857142857142 40.52285714285714 13.435714285714285 40.52285714285714Z"/>
    <path fill="#d0d0d0" fill-rule="evenodd" d="M14.73857142857143 40.5H16.107142857142858V40.25142857142857H15.024285714285714V38.5H14.73857142857143Z"/>
    <path fill="#d0d0d0" fill-rule="evenodd" d="M16.435714285714287 40.5H17.88714285714286V40.25142857142857H16.72142857142857V39.605714285714285H17.724285714285713V39.362857142857145H16.72142857142857V38.74857142857143H17.847142857142856V38.5H16.435714285714287Z"/>
  </g>

  <!-- MOMENT. label right of switch; centered at x=62, baseline y=109 -->
  <!-- paths from Buttons64 MOMENT.: center x≈12, baseline y=26 → translate(50, 83) -->
  <g transform="translate(50,83)">
    <path fill="#d0d0d0" fill-rule="evenodd" d="M5.091428571428572 26.0H5.3657142857142865V24.55064747401646L6.088571428571429 25.757142857142856H6.220000000000001L6.943057752336776 24.54156749180385L6.945714285714287 26.0H7.220000000000001L7.217142857142857 24.0H6.982857142857143L6.1595970589774 25.40485347202846L5.325714285714286 24.0H5.091428571428572Z"/>
    <path fill="#d0d0d0" fill-rule="evenodd" d="M8.722857142857144 26.02285714285714C9.332380952380952 26.02285714285714 9.782857142857143 25.594285714285714 9.782857142857143 25.0C9.782857142857143 24.405714285714286 9.332380952380953 23.97714285714286 8.722857142857144 23.97714285714286C8.105714285714285 23.97714285714286 7.6571428571428575 24.413333333333338 7.6571428571428575 25.0C7.6571428571428575 25.586666666666666 8.113333333333333 26.02285714285714 8.722857142857144 26.02285714285714ZM8.722857142857144 25.768571428571427C8.273333333333333 25.768571428571427 7.942857142857143 25.441904761904762 7.942857142857143 25.0C7.942857142857143 24.55809523809524 8.273333333333332 24.231428571428573 8.722857142857144 24.231428571428573C9.164761904761905 24.231428571428573 9.497142857142858 24.558095238095238 9.497142857142858 25.0C9.497142857142858 25.441904761904762 9.164761904761903 25.768571428571427 8.722857142857144 25.768571428571427Z"/>
    <path fill="#d0d0d0" fill-rule="evenodd" d="M10.22 26.0H10.494285714285715V24.55064747401646L11.217142857142857 25.757142857142856H11.348571428571429L12.071629180908204 24.54156749180385L12.074285714285715 26.0H12.348571428571429L12.345714285714285 24.0H12.111428571428572L11.288168487548829 25.40485347202846L10.454285714285714 24.0H10.22Z"/>
    <path fill="#d0d0d0" fill-rule="evenodd" d="M12.94857142857143 26.0H14.4V25.751428571428573H13.234285714285715V25.105714285714285H14.237142857142858V24.86285714285714H13.234285714285715V24.248571428571427H14.360000000000001V24.0H12.94857142857143Z"/>
    <path fill="#d0d0d0" fill-rule="evenodd" d="M14.862857142857145 26.0H15.14857142857143V24.50971921648298L16.34857142857143 26.0H16.582857142857144V24.0H16.29714285714286V25.49028078351702L15.097142857142858 24.0H14.862857142857145Z"/>
    <path fill="#d0d0d0" fill-rule="evenodd" d="M17.580000000000002 26.0H17.862857142857145V24.248571428571427H18.54857142857143V24.0H16.894285714285715V24.248571428571427H17.580000000000002Z"/>
    <path fill="#d0d0d0" fill-rule="evenodd" d="M18.88571428571429 26.017142857142858C18.98857142857143 26.017142857142858 19.074285714285715 25.934285714285714 19.074285714285715 25.82C19.074285714285715 25.705714285714286 18.98857142857143 25.625714285714285 18.88571428571429 25.625714285714285C18.77904761904762 25.625714285714285 18.691428571428574 25.705714285714286 18.691428571428574 25.82C18.691428571428574 25.934285714285714 18.77904761904762 26.017142857142858 18.88571428571429 26.017142857142858Z"/>
  </g>

  <!-- domino logo centered above bottom bar -->
  <g transform="translate(35.95,119.0) scale(0.75)">
    <rect x="0" y="0" width="12.5" height="5.5"
          rx="1.18" ry="1.2"
          fill="none" stroke="#d0d0d0" stroke-width="0.5"/>
    <rect x="6.125" y="0.5" width="0.25" height="4.5"
          fill="#d0d0d0"/>
    <circle cx="2.07"  cy="1.46" r="0.625" fill="#d0d0d0"/>
    <circle cx="4.19"  cy="4.11" r="0.625" fill="#d0d0d0"/>
    <circle cx="8.20"  cy="1.46" r="0.625" fill="#d0d0d0"/>
    <circle cx="10.32" cy="4.11" r="0.625" fill="#d0d0d0"/>
  </g>

</svg>
