<?xml version="1.0" encoding="UTF-8"?>
<svg xmlns="http://www.w3.org/2000/svg"
     width="81.28mm" height="128.5mm"
     viewBox="0 0 81.28 128.5">

  <rect width="81.28" height="128.5" fill="#1e1e1e"/>

  <!-- top accent: slants start just inside screw inner edges (10.16 / 71.12 mm) -->
  <polygon points="
    0,0 81.28,0 81.28,0.5
    71.12,0.5 68.64,2.0 12.64,2.0 10.16,0.5
    0,0.5
  " fill="#f26522"/>
  <rect x="0" y="127.5" width="81.28" height="1.0" fill="#f26522"/>

  <!-- title: GRID (Bold) + 64 (Light), cap-top y=7, baseline y=11.125 -->
  <g id="title">
    <path fill="#d0d0d0" fill-rule="evenodd" d="M35.15071428571429 11.167857142857143C35.50785714285715 11.167857142857143 35.89 11.054761904761905 36.16142857142857 10.85V9.835714285714285H35.63285714285715V10.568870953151158C35.488367714653464 10.644140797940613 35.338367714653465 10.675 35.182857142857145 10.675C34.70666666666667 10.675 34.37214285714286 10.341666666666667 34.37214285714286 9.875C34.37214285714286 9.398809523809526 34.70428571428572 9.075 35.190000000000005 9.075C35.44238095238096 9.075 35.65547619047619 9.166666666666668 35.83642857142858 9.357142857142858L36.207857142857144 9.014285714285714C35.965 8.733333333333334 35.604285714285716 8.582142857142857 35.16142857142857 8.582142857142857C34.361428571428576 8.582142857142857 33.78642857142857 9.12261904761905 33.78642857142857 9.875C33.78642857142857 10.627380952380953 34.360238095238095 11.167857142857143 35.15071428571429 11.167857142857143Z"/>
    <path fill="#d0d0d0" fill-rule="evenodd" d="M36.69714285714286 11.125H37.27571428571429V10.428571428571429H37.77928571428571C37.78839095714286 10.428571428571429 37.79744891124317 10.428509033683946 37.80646000998361 10.42835990360805L38.28642857142857 11.125H38.91142857142857L38.352461199079244 10.322866031101771C38.67830809430509 10.181981979640728 38.865 9.906149514285715 38.865 9.532142857142857C38.865 8.965476190476192 38.4602380952381 8.625 37.765 8.625H36.69714285714286ZM37.747142857142855 9.096428571428572C38.104285714285716 9.096428571428572 38.27928571428571 9.255952380952381 38.27928571428571 9.532142857142857C38.27928571428571 9.803571428571429 38.104285714285716 9.967857142857143 37.747142857142855 9.967857142857143H37.27571428571429V9.096428571428572Z"/>
    <path fill="#d0d0d0" fill-rule="evenodd" d="M39.32214285714286 11.125H39.90071428571429V8.625H39.32214285714286Z"/>
    <path fill="#d0d0d0" fill-rule="evenodd" d="M40.49357142857143 11.125H41.629285714285714C42.44357142857143 11.125 43.00785714285714 10.632142857142858 43.00785714285714 9.875C43.00785714285714 9.620238095238095 42.94952380952381 9.4 42.832857142857144 9.214285714285715C42.59952380952381 8.842857142857143 42.17214285714286 8.625 41.629285714285714 8.625H40.49357142857143ZM41.07214285714286 10.65V9.1H41.60071428571429C42.10071428571428 9.1 42.42214285714286 9.396428571428572 42.42214285714286 9.875C42.42214285714286 10.346428571428572 42.10071428571428 10.65 41.60071428571429 10.65Z"/>
    <path fill="#d0d0d0" fill-rule="evenodd" d="M44.34714285714286 11.142857142857142C44.825714285714284 11.142857142857142 45.17928571428572 10.846428571428573 45.17928571428572 10.389285714285714C45.17928571428572 9.939285714285715 44.84357142857143 9.646428571428572 44.34357142857143 9.646428571428572C43.96559671428572 9.646428571428572 43.651514351185945 9.832549768361526 43.548322470528745 10.160834612165178C43.530186109746296 10.046587097017982 43.52571428571429 9.935763395238096 43.52571428571429 9.860714285714286C43.52571428571429 9.132142857142856 43.892380952380954 8.767857142857142 44.45428571428572 8.767857142857142C44.64476190476191 8.767857142857142 44.81857142857143 8.801190476190477 44.94714285714286 8.882142857142856L45.02214285714286 8.735714285714286C44.86976190476191 8.64047619047619 44.66857142857143 8.607142857142858 44.45428571428572 8.607142857142858C43.790000000000006 8.607142857142858 43.34357142857143 9.039285714285715 43.34357142857143 9.889285714285714C43.34357142857143 10.667857142857143 43.690000000000005 11.142857142857142 44.34714285714286 11.142857142857142ZM44.34 10.985714285714286C43.87571428571429 10.985714285714286 43.62571428571429 10.692857142857143 43.62571428571429 10.4C43.62571428571429 10.064285714285715 43.91142857142857 9.803571428571429 44.31857142857143 9.803571428571429C44.742380952380955 9.803571428571429 44.99714285714286 10.035714285714285 44.99714285714286 10.392857142857142C44.99714285714286 10.75 44.73285714285714 10.985714285714286 44.34 10.985714285714286Z"/>
    <path fill="#d0d0d0" fill-rule="evenodd" d="M45.45071428571429 10.432142857142857H46.87571428571429V11.125H47.05428571428572V10.432142857142857H47.57928571428572V10.271428571428572H47.05428571428572V9.660714285714286H46.879285714285714V10.271428571428572H45.6809457887922L47.011428571428574 8.625H46.807857142857145L45.45071428571429 10.3Z"/>
  </g>

  <!-- MOMENT. label above mode switch (switch at x=70.39, y=19; baseline y=13) -->
  <!-- paths from Buttons64.svg centered at x=12, baseline y=26; translate(58.39,-13) -->
  <g transform="translate(58.39,-13)">
    <path fill="#d0d0d0" fill-rule="evenodd" d="M5.091428571428572 26.0H5.3657142857142865V24.55064747401646L6.088571428571429 25.757142857142856H6.220000000000001L6.943057752336776 24.54156749180385L6.945714285714287 26.0H7.220000000000001L7.217142857142857 24.0H6.982857142857143L6.1595970589774 25.40485347202846L5.325714285714286 24.0H5.091428571428572Z"/>
    <path fill="#d0d0d0" fill-rule="evenodd" d="M8.722857142857144 26.02285714285714C9.332380952380952 26.02285714285714 9.782857142857143 25.594285714285714 9.782857142857143 25.0C9.782857142857143 24.405714285714286 9.332380952380953 23.97714285714286 8.722857142857144 23.97714285714286C8.105714285714285 23.97714285714286 7.6571428571428575 24.413333333333338 7.6571428571428575 25.0C7.6571428571428575 25.586666666666666 8.113333333333333 26.02285714285714 8.722857142857144 26.02285714285714ZM8.722857142857144 25.768571428571427C8.273333333333333 25.768571428571427 7.942857142857143 25.441904761904762 7.942857142857143 25.0C7.942857142857143 24.55809523809524 8.273333333333332 24.231428571428573 8.722857142857144 24.231428571428573C9.164761904761905 24.231428571428573 9.497142857142858 24.558095238095238 9.497142857142858 25.0C9.497142857142858 25.441904761904762 9.164761904761903 25.768571428571427 8.722857142857144 25.768571428571427Z"/>
    <path fill="#d0d0d0" fill-rule="evenodd" d="M10.22 26.0H10.494285714285715V24.55064747401646L11.217142857142857 25.757142857142856H11.348571428571429L12.071629180908204 24.54156749180385L12.074285714285715 26.0H12.348571428571429L12.345714285714285 24.0H12.111428571428572L11.288168487548829 25.40485347202846L10.454285714285714 24.0H10.22Z"/>
    <path fill="#d0d0d0" fill-rule="evenodd" d="M12.94857142857143 26.0H14.4V25.751428571428573H13.234285714285715V25.105714285714285H14.237142857142858V24.86285714285714H13.234285714285715V24.248571428571427H14.360000000000001V24.0H12.94857142857143Z"/>
    <path fill="#d0d0d0" fill-rule="evenodd" d="M14.862857142857145 26.0H15.14857142857143V24.50971921648298L16.34857142857143 26.0H16.582857142857144V24.0H16.29714285714286V25.49028078351702L15.097142857142858 24.0H14.862857142857145Z"/>
    <path fill="#d0d0d0" fill-rule="evenodd" d="M17.580000000000002 26.0H17.862857142857145V24.248571428571427H18.54857142857143V24.0H16.894285714285715V24.248571428571427H17.580000000000002Z"/>
    <path fill="#d0d0d0" fill-rule="evenodd" d="M18.88571428571429 26.017142857142858C18.98857142857143 26.017142857142858 19.074285714285715 25.934285714285714 19.074285714285715 25.82C19.074285714285715 25.705714285714286 18.98857142857143 25.625714285714285 18.88571428571429 25.625714285714285C18.77904761904762 25.625714285714285 18.691428571428574 25.705714285714286 18.691428571428574 25.82C18.691428571428574 25.934285714285714 18.77904761904762 26.017142857142858 18.88571428571429 26.017142857142858Z"/>
  </g>

  <!-- TOGGLE label below mode switch (baseline y=27.5) -->
  <!-- paths from Buttons64.svg group 1 centered at x=12, baseline y=40.5; translate(58.39,-13) -->
  <g transform="translate(58.39,-13)">
    <path fill="#d0d0d0" fill-rule="evenodd" d="M6.647142857142858 40.5H6.93V38.74857142857143H7.615714285714286V38.5H5.961428571428572V38.74857142857143H6.647142857142858Z"/>
    <path fill="#d0d0d0" fill-rule="evenodd" d="M8.83 40.52285714285714C9.43952380952381 40.52285714285714 9.89 40.09428571428572 9.89 39.5C9.89 38.90571428571429 9.43952380952381 38.47714285714286 8.83 38.47714285714286C8.21285714285714 38.47714285714286 7.764285714285714 38.913333333333334 7.764285714285714 39.5C7.764285714285714 40.086666666666666 8.22047619047619 40.52285714285714 8.83 40.52285714285714ZM8.83 40.26857142857143C8.38047619047619 40.26857142857143 8.05 39.94190476190476 8.05 39.5C8.05 39.05809523809524 8.38047619047619 38.73142857142857 8.83 38.73142857142857C9.271904761904763 38.73142857142857 9.604285714285714 39.05809523809524 9.604285714285714 39.5C9.604285714285714 39.941904761904766 9.27190476190476 40.26857142857143 8.83 40.26857142857143Z"/>
    <path fill="#d0d0d0" fill-rule="evenodd" d="M11.23 40.52285714285714C11.511904761904763 40.52285714285714 11.789047619047619 40.436190476190475 11.987142857142857 40.26857142857143V39.488571428571426H11.712857142857143V40.138734109061105C11.571068640596785 40.230856340832 11.412096914285714 40.26857142857143 11.244285714285715 40.26857142857143C10.901428571428571 40.26857142857143 10.625714285714286 40.08714285714286 10.508571428571429 39.80428571428571C10.429791144527988 39.61406015037594 10.431149425287357 39.37980295566503 10.508571428571429 39.19285714285714C10.625714285714286 38.910000000000004 10.904285714285715 38.73142857142857 11.247142857142858 38.73142857142857C11.471904761904762 38.73142857142857 11.663333333333334 38.80285714285714 11.827142857142858 38.962857142857146L12.004285714285714 38.785714285714285C11.821428571428571 38.58 11.551904761904762 38.47714285714286 11.235714285714286 38.47714285714286C10.767142857142856 38.47714285714286 10.404285714285715 38.72 10.244285714285715 39.09142857142857C10.137619047619047 39.33904761904762 10.137619047619047 39.66095238095238 10.244285714285715 39.90857142857143C10.404285714285715 40.28 10.767142857142858 40.52285714285714 11.23 40.52285714285714Z"/>
    <path fill="#d0d0d0" fill-rule="evenodd" d="M13.435714285714285 40.52285714285714C13.717619047619046 40.52285714285714 13.994761904761903 40.436190476190475 14.192857142857143 40.26857142857143V39.488571428571426H13.918571428571427V40.138734109061105C13.776782926311071 40.230856340832 13.617811199999998 40.26857142857143 13.45 40.26857142857143C13.107142857142856 40.26857142857143 12.831428571428571 40.08714285714286 12.714285714285714 39.80428571428571C12.635505430242272 39.61406015037594 12.636863711001642 39.37980295566503 12.714285714285714 39.19285714285714C12.831428571428571 38.910000000000004 13.11 38.73142857142857 13.452857142857143 38.73142857142857C13.677619047619046 38.73142857142857 13.869047619047619 38.80285714285714 14.032857142857143 38.962857142857146L14.209999999999999 38.785714285714285C14.027142857142856 38.58 13.757619047619047 38.47714285714286 13.44142857142857 38.47714285714286C12.97285714285714 38.47714285714286 12.61 38.72 12.45 39.09142857142857C12.343333333333332 39.33904761904762 12.343333333333332 39.66095238095238 12.45 39.90857142857143C12.61 40.28 12.972857142857142 40.52285714285714 13.435714285714285 40.52285714285714Z"/>
    <path fill="#d0d0d0" fill-rule="evenodd" d="M14.73857142857143 40.5H16.107142857142858V40.25142857142857H15.024285714285714V38.5H14.73857142857143Z"/>
    <path fill="#d0d0d0" fill-rule="evenodd" d="M16.435714285714287 40.5H17.88714285714286V40.25142857142857H16.72142857142857V39.605714285714285H17.724285714285713V39.362857142857145H16.72142857142857V38.74857142857143H17.847142857142856V38.5H16.435714285714287Z"/>
  </g>

  <!-- domino logo centered above bottom bar -->
  <g transform="translate(35.95,119.0) scale(0.75)">
    <rect x="0" y="0" width="12.5" height="5.5"
          rx="1.18" ry="1.2"
          fill="none" stroke="#d0d0d0" stroke-width="0.5"/>
    <rect x="6.125" y="0.5" width="0.25" height="4.5"
          fill="#d0d0d0"/>
    <circle cx="2.07"  cy="1.46" r="0.625" fill="#d0d0d0"/>
    <circle cx="4.19"  cy="4.11" r="0.625" fill="#d0d0d0"/>
    <circle cx="8.20"  cy="1.46" r="0.625" fill="#d0d0d0"/>
    <circle cx="10.32" cy="4.11" r="0.625" fill="#d0d0d0"/>
  </g>

</svg>
