<?xml version="1.0" encoding="UTF-8"?>
<svg xmlns="http://www.w3.org/2000/svg"
     width="50.8mm" height="128.5mm"
     viewBox="0 0 50.8 128.5">

  <rect width="50.8" height="128.5" fill="#1e1e1e"/>

  <!-- top accent trapezoid -->
  <polygon points="
    0,0 50.8,0 50.8,0.5
    40.64,0.5 38.16,2.0 12.64,2.0 10.16,0.5
    0,0.5
  " fill="#f26522"/>
  <rect x="0" y="127.5" width="50.8" height="1.0" fill="#f26522"/>

  <!-- title: INRT (Bold) + 64 (Light), cap-top y=7, baseline y=11.125 -->
  <g id="title">
  <path fill="#d0d0d0" fill-rule="evenodd" d="M14.854732142857141 11.125H15.809374999999998V7.0H14.854732142857141Z"/>
  <path fill="#d0d0d0" fill-rule="evenodd" d="M16.787589285714283 11.125H17.730446428571426V8.621304332188197L19.78705357142857 11.125H20.57080357142857V7.0H19.627946428571427V9.50256656919207L17.577232142857138 7.0H16.787589285714283Z"/>
  <path fill="#d0d0d0" fill-rule="evenodd" d="M21.549017857142854 11.125H22.50366071428571V9.975892857142856H23.334553571428568C23.34957722214285 9.975892857142856 23.36452284640837 9.975789905578512 23.37939115933009 9.975543840953282L24.171339285714282 11.125H25.202589285714282L24.280293121337888 9.801478951317923C24.81794049846053 9.569020266407202 25.12598214285714 9.113896698571429 25.12598214285714 8.496785714285714C25.12598214285714 7.561785714285715 24.458124999999995 7.0 23.31098214285714 7.0H21.549017857142854ZM23.281517857142852 7.777857142857142C23.870803571428567 7.777857142857142 24.159553571428567 8.041071428571428 24.159553571428567 8.496785714285714C24.159553571428567 8.944642857142858 23.870803571428567 9.215714285714286 23.281517857142852 9.215714285714286H22.50366071428571V7.777857142857142Z"/>
  <path fill="#d0d0d0" fill-rule="evenodd" d="M26.73473214285714 11.125H27.689375V7.777857142857142H29.009375V7.0H25.41473214285714V7.777857142857142H26.73473214285714Z"/>
  <path fill="#d0d0d0" fill-rule="evenodd" d="M31.012946428571425 11.154464285714285C31.80258928571428 11.154464285714285 32.38598214285714 10.665357142857145 32.38598214285714 9.911071428571429C32.38598214285714 9.168571428571429 31.832053571428567 8.685357142857143 31.007053571428568 8.685357142857143C30.383395292857138 8.685357142857143 29.86515939374251 8.992457117796517 29.69489279065813 9.534127110072545C29.664967795367097 9.34561871007967 29.65758928571428 9.162759602142858 29.65758928571428 9.03892857142857C29.65758928571428 7.836785714285714 30.26258928571428 7.235714285714286 31.18973214285714 7.235714285714286C31.504017857142852 7.235714285714286 31.79080357142857 7.290714285714286 32.00294642857143 7.424285714285714L32.12669642857142 7.182678571428571C31.875267857142852 7.025535714285715 31.543303571428567 6.970535714285714 31.18973214285714 6.970535714285714C30.09366071428571 6.970535714285714 29.35705357142857 7.68357142857143 29.35705357142857 9.08607142857143C29.35705357142857 10.370714285714286 29.92866071428571 11.154464285714285 31.012946428571425 11.154464285714285ZM31.00116071428571 10.895178571428572C30.23508928571428 10.895178571428572 29.822589285714283 10.411964285714285 29.822589285714283 9.92875C29.822589285714283 9.37482142857143 30.29401785714285 8.944642857142856 30.965803571428566 8.944642857142856C31.66508928571428 8.944642857142856 32.08544642857142 9.32767857142857 32.08544642857142 9.916964285714286C32.08544642857142 10.506250000000001 31.649374999999996 10.895178571428572 31.00116071428571 10.895178571428572Z"/>
  <path fill="#d0d0d0" fill-rule="evenodd" d="M32.833839285714284 9.981785714285714H35.185089285714284V11.125H35.479732142857145V9.981785714285714H36.34598214285714V9.716607142857143H35.479732142857145V8.708928571428572H35.190982142857145V9.716607142857143H33.21372126579285L35.40901785714286 7.0H35.073125L32.833839285714284 9.76375Z"/>
  </g>

  <!-- output badge POS — jack at y=80 -->
  <rect x="29.5" y="78.25" width="11" height="3.5" rx="1.0" fill="#d0d0d0"/>
  <g transform="translate(29.5, 0)">
  <path fill="#1e1e1e" fill-rule="evenodd" d="M2.5742857142857143 81.0H3.0371428571428574V80.44857142857143H3.44C3.977142857142856 80.44857142857143 4.308571428571429 80.17142857142858 4.308571428571429 79.72571428571429C4.308571428571429 79.27428571428571 3.977142857142856 79.0 3.44 79.0H2.5742857142857143ZM3.4142857142857146 79.37714285714286C3.7 79.37714285714286 3.84 79.5047619047619 3.84 79.72571428571429C3.84 79.94285714285715 3.6999999999999997 80.07142857142857 3.4142857142857146 80.07142857142857H3.0371428571428574V79.37714285714286Z"/>
  <path fill="#1e1e1e" fill-rule="evenodd" d="M5.637142857142857 81.03428571428572C6.105714285714285 81.03428571428572 6.4799999999999995 80.79285714285714 6.645714285714286 80.41285714285715C6.756898656898657 80.15789987789988 6.755491259795058 79.83508740204942 6.645714285714286 79.58714285714285C6.48 79.21285714285715 6.108571428571428 78.96571428571428 5.634285714285714 78.96571428571428C5.009523809523809 78.96571428571428 4.54 79.40571428571428 4.54 80.0C4.54 80.59428571428572 5.004761904761905 81.03428571428572 5.637142857142857 81.03428571428572ZM5.634285714285714 80.64C5.544761904761905 80.64 5.461904761904762 80.62476190476191 5.385714285714286 80.59428571428572C5.1571428571428575 80.50285714285714 5.008571428571429 80.28 5.008571428571429 80.0C5.008571428571429 79.61904761904762 5.276190476190475 79.36 5.634285714285714 79.36C5.992380952380951 79.36 6.26 79.61904761904762 6.26 80.0C6.26 80.38095238095238 5.99238095238095 80.64 5.634285714285714 80.64Z"/>
  <path fill="#1e1e1e" fill-rule="evenodd" d="M7.734285714285714 81.03428571428572C8.305714285714284 81.03428571428572 8.582857142857144 80.75142857142858 8.582857142857144 80.41428571428571C8.582857142857144 80.20476190476191 8.48857142857143 80.07238095238095 8.35142857142857 79.98857142857143C8.008571428571427 79.77904761904762 7.42 79.82285714285715 7.42 79.56571428571428C7.42 79.52190476190476 7.432380952380952 79.48333333333333 7.457142857142857 79.45C7.506666666666667 79.38333333333334 7.620952380952381 79.33714285714285 7.8 79.33714285714285C7.979047619047619 79.33714285714285 8.167619047619047 79.38761904761905 8.354285714285714 79.49428571428571L8.497142857142856 79.14285714285714C8.31047619047619 79.0247619047619 8.054285714285713 78.96571428571428 7.8028571428571425 78.96571428571428C7.237142857142857 78.96571428571428 6.96 79.24571428571429 6.96 79.58857142857143C6.96 79.90857142857143 7.17 80.04 7.418571428571428 80.12C7.75 80.22666666666667 8.122857142857143 80.2352380952381 8.122857142857143 80.44857142857143C8.122857142857143 80.57428571428572 8.01142857142857 80.66285714285715 7.737142857142857 80.66285714285715C7.497142857142857 80.66285714285715 7.248571428571428 80.57619047619048 7.077142857142857 80.45428571428572L6.92 80.80285714285715C7.099047619047619 80.94 7.414285714285714 81.03428571428572 7.734285714285714 81.03428571428572Z"/>
  </g>
  <!-- output badge VEL — jack at y=92 -->
  <rect x="29.5" y="90.25" width="11" height="3.5" rx="1.0" fill="#d0d0d0"/>
  <g transform="translate(29.5, 0)">
  <path fill="#1e1e1e" fill-rule="evenodd" d="M3.45 93.0H3.9071428571428575L4.772857142857143 91.0H4.312857142857143L3.6953920418875557 92.42846400669643L3.087142857142857 91.0H2.587142857142857Z"/>
  <path fill="#1e1e1e" fill-rule="evenodd" d="M4.981428571428572 93.0H6.53V92.62857142857143H5.441428571428572V92.16571428571429H6.37V91.80571428571429H5.441428571428572V91.37142857142857H6.492857142857144V91.0H4.981428571428572Z"/>
  <path fill="#1e1e1e" fill-rule="evenodd" d="M6.8985714285714295 93.0H8.364285714285714V92.62285714285714H7.361428571428572V91.0H6.8985714285714295Z"/>
  </g>
  <!-- output badge WRAP — jack at y=104 -->
  <rect x="29.5" y="102.25" width="11" height="3.5" rx="1.0" fill="#d0d0d0"/>
  <g transform="translate(29.5, 0)">
  <path fill="#1e1e1e" fill-rule="evenodd" d="M1.3657142857142857 105.0H1.8628571428571428L2.3162276131766184 103.64487067086355L2.757142857142857 105.0H3.2542857142857144L3.9085714285714284 103.0H3.4657142857142857L2.9997171238490514 104.41626591273716L2.5428571428571427 103.0H2.1142857142857143L1.642653568812779 104.40582661220006L1.1914285714285713 103.0H0.7114285714285714Z"/>
  <path fill="#1e1e1e" fill-rule="evenodd" d="M4.208571428571429 105.0H4.671428571428572V104.44285714285714H5.074285714285715C5.081569908571429 104.44285714285714 5.08881627185168 104.44280722694715 5.096025150844029 104.44268792288644L5.48 105.0H5.98L5.532826102120536 104.35829282488142C5.7935036183012105 104.24558558371258 5.942857142857143 104.02491961142857 5.942857142857143 103.72571428571429C5.942857142857143 103.27238095238096 5.619047619047619 103.0 5.062857142857143 103.0H4.208571428571429ZM5.048571428571429 103.37714285714286C5.3342857142857145 103.37714285714286 5.474285714285714 103.5047619047619 5.474285714285714 103.72571428571429C5.474285714285714 103.94285714285715 5.3342857142857145 104.07428571428571 5.048571428571429 104.07428571428571H4.671428571428572V103.37714285714286Z"/>
  <path fill="#1e1e1e" fill-rule="evenodd" d="M6.045714285714285 105.0H6.52L6.698224683489118 104.57142857142857H7.625325927734375L7.8028571428571425 105.0H8.288571428571428L7.394285714285714 103.0H6.937142857142857ZM6.844368940080915 104.22 7.162678920200893 103.45456976754325 7.479750344412667 104.22Z"/>
  <path fill="#1e1e1e" fill-rule="evenodd" d="M8.497142857142856 105.0H8.959999999999999V104.44857142857143H9.362857142857143C9.899999999999999 104.44857142857143 10.231428571428571 104.17142857142858 10.231428571428571 103.72571428571429C10.231428571428571 103.27428571428571 9.899999999999999 103.0 9.362857142857143 103.0H8.497142857142856ZM9.337142857142856 103.37714285714286C9.622857142857143 103.37714285714286 9.762857142857143 103.5047619047619 9.762857142857143 103.72571428571429C9.762857142857143 103.94285714285715 9.622857142857143 104.07142857142857 9.337142857142856 104.07142857142857H8.959999999999999V103.37714285714286Z"/>
  </g>

  <!-- domino logo centered above bottom bar -->
  <g transform="translate(20.71,118.0) scale(0.75)">
    <rect x="0" y="0" width="12.5" height="5.5"
          rx="1.18" ry="1.2"
          fill="none" stroke="#d0d0d0" stroke-width="0.5"/>
    <rect x="6.125" y="0.5" width="0.25" height="4.5"
          fill="#d0d0d0"/>
    <circle cx="2.07"  cy="1.46" r="0.625" fill="#d0d0d0"/>
    <circle cx="4.19"  cy="4.11" r="0.625" fill="#d0d0d0"/>
    <circle cx="8.20"  cy="1.46" r="0.625" fill="#d0d0d0"/>
    <circle cx="10.32" cy="4.11" r="0.625" fill="#d0d0d0"/>
  </g>

</svg>
