<?xml version="1.0" encoding="UTF-8"?>
<svg xmlns="http://www.w3.org/2000/svg"
     width="50.8mm" height="128.5mm"
     viewBox="0 0 50.8 128.5">

  <rect width="50.8" height="128.5" fill="#1e1e1e"/>

  <!-- top accent trapezoid -->
  <polygon points="
    0,0 50.8,0 50.8,0.5
    40.64,0.5 38.16,2.0 12.64,2.0 10.16,0.5
    0,0.5
  " fill="#f26522"/>
  <rect x="0" y="127.5" width="50.8" height="1.0" fill="#f26522"/>

  <!-- title: KEYS (Bold) + 64 (Light), cap-top y=7, baseline y=11.125 -->
  <g id="title">
  <path fill="#d0d0d0" fill-rule="evenodd" d="M14.159374999999999 11.125H15.108124999999998V10.083721820286343L15.660892417090277 9.5067102091653L16.98205357142857 11.125H18.09580357142857L16.287853221893307 8.837833877290997L17.995624999999997 7.0H16.934910714285714L15.108124999999998 8.924941358566285V7.0H14.159374999999999Z"/>
  <path fill="#d0d0d0" fill-rule="evenodd" d="M18.520089285714285 11.125H21.714017857142856V10.35892857142857H19.468839285714285V9.404285714285715H21.384017857142855V8.661785714285713H19.468839285714285V7.766071428571428H21.637410714285714V7.0H18.520089285714285Z"/>
  <path fill="#d0d0d0" fill-rule="evenodd" d="M23.49955357142857 11.125H24.45419642857143V9.6644898046766L26.057053571428572 7.0H25.120089285714286L24.015795273099627 8.831171098436627L22.916160714285713 7.0H21.902589285714285L23.49955357142857 9.65469388280596Z"/>
  <path fill="#d0d0d0" fill-rule="evenodd" d="M27.813125 11.195714285714285C28.991696428571426 11.195714285714285 29.563303571428573 10.612321428571429 29.563303571428573 9.916964285714286C29.563303571428573 9.48482142857143 29.368839285714287 9.211785714285714 29.085982142857144 9.03892857142857C28.37883928571428 8.606785714285714 27.164910714285714 8.69714285714286 27.164910714285714 8.166785714285714C27.164910714285714 8.076428571428572 27.19044642857143 7.996875 27.241517857142856 7.928125C27.343660714285715 7.790625 27.579375 7.695357142857143 27.948660714285715 7.695357142857143C28.317946428571428 7.695357142857143 28.706875 7.799464285714286 29.091875 8.019464285714285L29.38651785714286 7.294642857142857C29.001517857142858 7.051071428571428 28.473125 6.929285714285714 27.954553571428573 6.929285714285714C26.787767857142857 6.929285714285714 26.216160714285714 7.506785714285715 26.216160714285714 8.213928571428571C26.216160714285714 8.873928571428571 26.649285714285714 9.145 27.161964285714287 9.31C27.845535714285717 9.530000000000001 28.614553571428573 9.547678571428571 28.614553571428573 9.987678571428571C28.614553571428573 10.246964285714286 28.384732142857143 10.429642857142857 27.819017857142857 10.429642857142857C27.32401785714286 10.429642857142857 26.811339285714286 10.250892857142857 26.45776785714286 9.999464285714286L26.133660714285714 10.718392857142858C26.50294642857143 11.00125 27.153125 11.195714285714285 27.813125 11.195714285714285Z"/>
  <path fill="#d0d0d0" fill-rule="evenodd" d="M31.708303571428573 11.154464285714285C32.497946428571424 11.154464285714285 33.081339285714286 10.665357142857145 33.081339285714286 9.911071428571429C33.081339285714286 9.168571428571429 32.527410714285715 8.685357142857143 31.702410714285715 8.685357142857143C31.078752435714286 8.685357142857143 30.560516536599657 8.992457117796517 30.39024993351528 9.534127110072545C30.360324938224245 9.34561871007967 30.35294642857143 9.162759602142858 30.35294642857143 9.03892857142857C30.35294642857143 7.836785714285714 30.95794642857143 7.235714285714286 31.885089285714287 7.235714285714286C32.199375 7.235714285714286 32.48616071428572 7.290714285714286 32.698303571428575 7.424285714285714L32.82205357142857 7.182678571428571C32.570625 7.025535714285715 32.238660714285714 6.970535714285714 31.885089285714287 6.970535714285714C30.78901785714286 6.970535714285714 30.052410714285717 7.68357142857143 30.052410714285717 9.08607142857143C30.052410714285717 10.370714285714286 30.624017857142857 11.154464285714285 31.708303571428573 11.154464285714285ZM31.696517857142858 10.895178571428572C30.93044642857143 10.895178571428572 30.51794642857143 10.411964285714285 30.51794642857143 9.92875C30.51794642857143 9.37482142857143 30.989375 8.944642857142856 31.661160714285714 8.944642857142856C32.36044642857143 8.944642857142856 32.78080357142857 9.32767857142857 32.78080357142857 9.916964285714286C32.78080357142857 10.506250000000001 32.34473214285714 10.895178571428572 31.696517857142858 10.895178571428572Z"/>
  <path fill="#d0d0d0" fill-rule="evenodd" d="M33.52919642857143 9.981785714285714H35.88044642857143V11.125H36.17508928571429V9.981785714285714H37.04133928571429V9.716607142857143H36.17508928571429V8.708928571428572H35.88633928571429V9.716607142857143H33.90907840865L36.104375000000005 7.0H35.768482142857145L33.52919642857143 9.76375Z"/>
  </g>

  <!-- output badge PITCH — jack at y=80 -->
  <rect x="29.5" y="78.25" width="11" height="3.5" rx="1.0" fill="#d0d0d0"/>
  <g transform="translate(29.5, 0)">
  <path fill="#1e1e1e" fill-rule="evenodd" d="M1.1514285714285708 81.0H1.6142857142857137V80.44857142857143H2.0171428571428565C2.5542857142857125 80.44857142857143 2.8857142857142852 80.17142857142858 2.8857142857142852 79.72571428571429C2.8857142857142852 79.27428571428571 2.5542857142857125 79.0 2.0171428571428565 79.0H1.1514285714285708ZM1.9914285714285709 79.37714285714286C2.2771428571428567 79.37714285714286 2.4171428571428564 79.5047619047619 2.4171428571428564 79.72571428571429C2.4171428571428564 79.94285714285715 2.2771428571428562 80.07142857142857 1.9914285714285709 80.07142857142857H1.6142857142857137V79.37714285714286Z"/>
  <path fill="#1e1e1e" fill-rule="evenodd" d="M3.2428571428571424 81.0H3.7057142857142855V79.0H3.2428571428571424Z"/>
  <path fill="#1e1e1e" fill-rule="evenodd" d="M4.594285714285714 81.0H5.057142857142857V79.37714285714286H5.697142857142857V79.0H3.954285714285714V79.37714285714286H4.594285714285714Z"/>
  <path fill="#1e1e1e" fill-rule="evenodd" d="M6.902857142857142 81.03428571428572C7.253333333333333 81.03428571428572 7.538095238095238 80.9095238095238 7.728571428571428 80.67714285714285L7.431428571428571 80.40285714285714C7.294285714285714 80.56285714285714 7.126666666666666 80.64 6.928571428571428 80.64C6.555238095238094 80.64 6.288571428571428 80.38095238095238 6.288571428571428 80.0C6.288571428571428 79.61904761904762 6.555238095238093 79.36 6.928571428571428 79.36C7.126666666666666 79.36 7.294285714285714 79.43809523809524 7.431428571428571 79.59428571428572L7.728571428571428 79.32C7.538095238095238 79.08761904761904 7.2523809523809515 78.96571428571428 6.905714285714286 78.96571428571428C6.28095238095238 78.96571428571428 5.819999999999999 79.39809523809524 5.819999999999999 80.0C5.819999999999999 80.60190476190476 6.285714285714285 81.03428571428572 6.902857142857142 81.03428571428572Z"/>
  <path fill="#1e1e1e" fill-rule="evenodd" d="M8.014285714285714 81.0H8.477142857142857V80.18H9.385714285714286V81.0H9.848571428571429V79.0H9.385714285714286V79.78857142857143H8.477142857142857V79.0H8.014285714285714Z"/>
  </g>
  <!-- output badge GATE — jack at y=92 -->
  <rect x="29.5" y="90.25" width="11" height="3.5" rx="1.0" fill="#d0d0d0"/>
  <g transform="translate(29.5, 0)">
  <path fill="#1e1e1e" fill-rule="evenodd" d="M2.6657142857142855 93.03428571428572C2.9514285714285706 93.03428571428572 3.2571428571428567 92.94380952380952 3.474285714285714 92.78V91.96857142857142H3.051428571428571V92.55509676252093C2.935837028865626 92.61531263835249 2.8158370288656265 92.64 2.6914285714285713 92.64C2.310476190476189 92.64 2.0428571428571423 92.37333333333333 2.0428571428571427 92.0C2.0428571428571423 91.61904761904762 2.3085714285714274 91.36 2.6971428571428566 91.36C2.899047619047619 91.36 3.069523809523809 91.43333333333334 3.214285714285714 91.58571428571429L3.511428571428571 91.31142857142856C3.3171428571428567 91.08666666666667 3.0285714285714276 90.96571428571428 2.6742857142857144 90.96571428571428C2.0342857142857125 90.96571428571428 1.574285714285714 91.39809523809524 1.574285714285714 92.0C1.574285714285714 92.60190476190476 2.0333333333333323 93.03428571428572 2.6657142857142855 93.03428571428572Z"/>
  <path fill="#1e1e1e" fill-rule="evenodd" d="M3.6399999999999997 93.0H4.114285714285714L4.292510397774833 92.57142857142857H5.219611642020089L5.397142857142857 93.0H5.882857142857143L4.988571428571428 91.0H4.531428571428571ZM4.438654654366629 92.22 4.756964634486607 91.45456976754325 5.074036058698382 92.22Z"/>
  <path fill="#1e1e1e" fill-rule="evenodd" d="M6.505714285714285 93.0H6.968571428571428V91.37714285714286H7.6085714285714285V91.0H5.865714285714286V91.37714285714286H6.505714285714285Z"/>
  <path fill="#1e1e1e" fill-rule="evenodd" d="M7.857142857142858 93.0H9.405714285714286V92.62857142857143H8.317142857142857V92.16571428571429H9.245714285714286V91.80571428571429H8.317142857142857V91.37142857142857H9.368571428571428V91.0H7.857142857142858Z"/>
  </g>
  <!-- output badge RTRG — jack at y=104 -->
  <rect x="29.5" y="102.25" width="11" height="3.5" rx="1.0" fill="#d0d0d0"/>
  <g transform="translate(29.5, 0)">
  <path fill="#1e1e1e" fill-rule="evenodd" d="M1.6528571428571426 105.0H2.1157142857142857V104.44285714285714H2.5185714285714282C2.5258556228571427 104.44285714285714 2.5331019861373942 104.44280722694715 2.540310865129743 104.44268792288644L2.9242857142857144 105.0H3.424285714285714L2.97711181640625 104.35829282488142C3.2377893325869245 104.24558558371258 3.387142857142857 104.02491961142857 3.387142857142857 103.72571428571429C3.387142857142857 103.27238095238096 3.063333333333333 103.0 2.507142857142857 103.0H1.6528571428571426ZM2.492857142857143 103.37714285714286C2.7785714285714285 103.37714285714286 2.918571428571428 103.5047619047619 2.918571428571428 103.72571428571429C2.918571428571428 103.94285714285715 2.778571428571428 104.07428571428571 2.492857142857143 104.07428571428571H2.1157142857142857V103.37714285714286Z"/>
  <path fill="#1e1e1e" fill-rule="evenodd" d="M4.167142857142857 105.0H4.63V103.37714285714286H5.27V103.0H3.527142857142857V103.37714285714286H4.167142857142857Z"/>
  <path fill="#1e1e1e" fill-rule="evenodd" d="M5.518571428571429 105.0H5.981428571428571V104.44285714285714H6.3842857142857135C6.391569908571428 104.44285714285714 6.39881627185168 104.44280722694715 6.4060251508440285 104.44268792288644L6.79 105.0H7.289999999999999L6.842826102120536 104.35829282488142C7.10350361830121 104.24558558371258 7.252857142857143 104.02491961142857 7.252857142857143 103.72571428571429C7.252857142857143 103.27238095238096 6.929047619047619 103.0 6.372857142857143 103.0H5.518571428571429ZM6.3585714285714285 103.37714285714286C6.644285714285714 103.37714285714286 6.784285714285714 103.5047619047619 6.784285714285714 103.72571428571429C6.784285714285714 103.94285714285715 6.644285714285713 104.07428571428571 6.3585714285714285 104.07428571428571H5.981428571428571V103.37714285714286Z"/>
  <path fill="#1e1e1e" fill-rule="evenodd" d="M8.584285714285715 105.03428571428572C8.87 105.03428571428572 9.175714285714285 104.94380952380952 9.392857142857142 104.78V103.96857142857142H8.97V104.55509676252093C8.854408457437055 104.61531263835249 8.734408457437056 104.64 8.61 104.64C8.229047619047618 104.64 7.961428571428572 104.37333333333333 7.961428571428572 104.0C7.961428571428572 103.61904761904762 8.227142857142857 103.36 8.615714285714287 103.36C8.817619047619047 103.36 8.988095238095237 103.43333333333334 9.132857142857143 103.58571428571429L9.43 103.31142857142856C9.235714285714286 103.08666666666667 8.947142857142858 102.96571428571428 8.592857142857143 102.96571428571428C7.952857142857141 102.96571428571428 7.492857142857143 103.39809523809524 7.492857142857143 104.0C7.492857142857143 104.60190476190476 7.951904761904761 105.03428571428572 8.584285714285715 105.03428571428572Z"/>
  </g>

  <!-- domino logo centered above bottom bar -->
  <g transform="translate(20.71,118.0) scale(0.75)">
    <rect x="0" y="0" width="12.5" height="5.5"
          rx="1.18" ry="1.2"
          fill="none" stroke="#d0d0d0" stroke-width="0.5"/>
    <rect x="6.125" y="0.5" width="0.25" height="4.5"
          fill="#d0d0d0"/>
    <circle cx="2.07"  cy="1.46" r="0.625" fill="#d0d0d0"/>
    <circle cx="4.19"  cy="4.11" r="0.625" fill="#d0d0d0"/>
    <circle cx="8.20"  cy="1.46" r="0.625" fill="#d0d0d0"/>
    <circle cx="10.32" cy="4.11" r="0.625" fill="#d0d0d0"/>
  </g>

</svg>
