<?xml version="1.0" encoding="UTF-8"?>
<svg xmlns="http://www.w3.org/2000/svg"
     width="50.8mm" height="128.5mm"
     viewBox="0 0 50.8 128.5">

  <rect width="50.8" height="128.5" fill="#1e1e1e"/>

  <!-- top accent trapezoid -->
  <polygon points="
    0,0 50.8,0 50.8,0.5
    40.64,0.5 38.16,2.0 12.64,2.0 10.16,0.5
    0,0.5
  " fill="#f26522"/>
  <rect x="0" y="127.5" width="50.8" height="1.0" fill="#f26522"/>

  <!-- title: LIFE (Bold) + 64 (Light), cap-top y=7, baseline y=11.125 -->
  <g id="title">
  <path fill="#d0d0d0" fill-rule="evenodd" d="M15.582499999999998 11.125H18.60553571428571V10.347142857142858H16.537142857142854V7.0H15.582499999999998Z"/>
  <path fill="#d0d0d0" fill-rule="evenodd" d="M19.141785714285714 11.125H20.09642857142857V7.0H19.141785714285714Z"/>
  <path fill="#d0d0d0" fill-rule="evenodd" d="M21.074642857142855 11.125H22.029285714285713V9.622321428571428H23.938571428571425V8.85625H22.029285714285713V7.766071428571428H24.191964285714285V7.0H21.074642857142855Z"/>
  <path fill="#d0d0d0" fill-rule="evenodd" d="M24.84017857142857 11.125H28.034107142857142V10.35892857142857H25.78892857142857V9.404285714285715H27.70410714285714V8.661785714285713H25.78892857142857V7.766071428571428H27.9575V7.0H24.84017857142857Z"/>
  <path fill="#d0d0d0" fill-rule="evenodd" d="M30.28517857142857 11.154464285714285C31.074821428571425 11.154464285714285 31.658214285714283 10.665357142857145 31.658214285714283 9.911071428571429C31.658214285714283 9.168571428571429 31.104285714285712 8.685357142857143 30.279285714285713 8.685357142857143C29.655627435714283 8.685357142857143 29.137391536599655 8.992457117796517 28.967124933515276 9.534127110072545C28.937199938224243 9.34561871007967 28.929821428571426 9.162759602142858 28.929821428571426 9.03892857142857C28.929821428571426 7.836785714285714 29.534821428571426 7.235714285714286 30.461964285714284 7.235714285714286C30.776249999999997 7.235714285714286 31.06303571428571 7.290714285714286 31.27517857142857 7.424285714285714L31.39892857142857 7.182678571428571C31.147499999999997 7.025535714285715 30.815535714285712 6.970535714285714 30.461964285714284 6.970535714285714C29.365892857142853 6.970535714285714 28.629285714285714 7.68357142857143 28.629285714285714 9.08607142857143C28.629285714285714 10.370714285714286 29.200892857142854 11.154464285714285 30.28517857142857 11.154464285714285ZM30.273392857142856 10.895178571428572C29.507321428571426 10.895178571428572 29.09482142857143 10.411964285714285 29.09482142857143 9.92875C29.09482142857143 9.37482142857143 29.566249999999997 8.944642857142856 30.23803571428571 8.944642857142856C30.937321428571426 8.944642857142856 31.357678571428572 9.32767857142857 31.357678571428572 9.916964285714286C31.357678571428572 10.506250000000001 30.92160714285714 10.895178571428572 30.273392857142856 10.895178571428572Z"/>
  <path fill="#d0d0d0" fill-rule="evenodd" d="M32.106071428571425 9.981785714285714H34.457321428571426V11.125H34.75196428571429V9.981785714285714H35.61821428571428V9.716607142857143H34.75196428571429V8.708928571428572H34.46321428571429V9.716607142857143H32.48595340864999L34.68125 7.0H34.34535714285714L32.106071428571425 9.76375Z"/>
  </g>

  <!-- output badge 1-2 — jack at y=28 -->
  <rect x="29.5" y="26.25" width="11" height="3.5" rx="1.0" fill="#d0d0d0"/>
  <g transform="translate(29.5, 0)">
  <path fill="#1e1e1e" fill-rule="evenodd" d="M3.9657142857142857 29.0H4.428571428571429V27.0H3.565714285714286V27.37142857142857H3.9657142857142857Z"/>
  <path fill="#1e1e1e" fill-rule="evenodd" d="M4.814285714285714 28.374285714285715H5.622857142857143V28.017142857142858H4.814285714285714Z"/>
  <path fill="#1e1e1e" fill-rule="evenodd" d="M5.862857142857143 29.0H7.3742857142857146V28.622857142857143H6.5132430594308035L6.974285714285714 28.18857142857143C7.254285714285714 27.925714285714285 7.308571428571429 27.751428571428573 7.308571428571429 27.557142857142857C7.308571428571429 27.191428571428574 7.011428571428572 26.965714285714284 6.565714285714286 26.965714285714284C6.207619047619048 26.965714285714284 5.923809523809524 27.10857142857143 5.771428571428571 27.337142857142858L6.1085714285714285 27.554285714285715C6.207619047619048 27.417142857142856 6.355238095238095 27.354285714285716 6.522857142857143 27.354285714285716C6.732380952380952 27.354285714285716 6.842857142857143 27.442857142857143 6.842857142857143 27.602857142857143C6.842857142857143 27.694285714285716 6.817142857142857 27.805714285714288 6.634285714285714 27.97142857142857L5.862857142857143 28.7Z"/>
  </g>
  <!-- output badge 3-4 — jack at y=40 -->
  <rect x="29.5" y="38.25" width="11" height="3.5" rx="1.0" fill="#d0d0d0"/>
  <g transform="translate(29.5, 0)">
  <path fill="#1e1e1e" fill-rule="evenodd" d="M3.878571428571428 41.034285714285716C4.449999999999999 41.034285714285716 4.707142857142857 40.72571428571429 4.707142857142857 40.38857142857143C4.707142857142857 40.09358998857143 4.5230287034934396 39.872392123254905 4.165362178257533 39.813029981340684L4.615714285714286 39.3V39.0H3.2157142857142853V39.371428571428574H4.0666386631556914L3.6557142857142857 39.83714285714286V40.142857142857146H3.867142857142857C4.13 40.142857142857146 4.241428571428571 40.23619047619048 4.241428571428571 40.38857142857143C4.241428571428571 40.54857142857143 4.099523809523809 40.645714285714284 3.867142857142857 40.645714285714284C3.661428571428571 40.645714285714284 3.4480952380952377 40.576190476190476 3.2957142857142854 40.465714285714284L3.1157142857142857 40.82C3.306190476190476 40.957142857142856 3.60047619047619 41.034285714285716 3.878571428571428 41.034285714285716Z"/>
  <path fill="#1e1e1e" fill-rule="evenodd" d="M4.958571428571428 40.37428571428571H5.767142857142857V40.01714285714286H4.958571428571428Z"/>
  <path fill="#1e1e1e" fill-rule="evenodd" d="M6.001428571428571 40.58H7.078571428571427V41.0H7.529999999999999V40.58H7.855714285714285V40.20285714285714H7.529999999999999V39.82857142857143H7.092857142857142V40.20285714285714H6.554948512486048L7.429999999999999 39.0H6.944285714285713L6.001428571428571 40.26857142857143Z"/>
  </g>
  <!-- output badge 5-6 — jack at y=52 -->
  <rect x="29.5" y="50.25" width="11" height="3.5" rx="1.0" fill="#d0d0d0"/>
  <g transform="translate(29.5, 0)">
  <path fill="#1e1e1e" fill-rule="evenodd" d="M3.98 53.034285714285716C4.551428571428571 53.034285714285716 4.811428571428571 52.72571428571429 4.811428571428571 52.371428571428574C4.811428571428571 52.01714285714286 4.579999999999999 51.75142857142857 3.9857142857142858 51.75142857142857H3.8216675240652904L3.855475333077567 51.371428571428574H4.688571428571429V51.0H3.468571428571429L3.3657142857142857 52.12571428571429H3.8771428571428572C4.242857142857142 52.12571428571429 4.342857142857143 52.23142857142857 4.342857142857143 52.385714285714286C4.342857142857143 52.54952380952381 4.200952380952381 52.645714285714284 3.968571428571429 52.645714285714284C3.762857142857143 52.645714285714284 3.552380952380952 52.576190476190476 3.4 52.465714285714284L3.217142857142857 52.82C3.4114285714285715 52.957142857142856 3.701904761904762 53.034285714285716 3.98 53.034285714285716Z"/>
  <path fill="#1e1e1e" fill-rule="evenodd" d="M5.037142857142857 52.37428571428571H5.845714285714286V52.01714285714286H5.037142857142857Z"/>
  <path fill="#1e1e1e" fill-rule="evenodd" d="M6.997142857142856 53.034285714285716C7.14 53.034285714285716 7.2680952380952375 53.00714285714286 7.381428571428571 52.95285714285714C7.608095238095237 52.84428571428572 7.7542857142857144 52.639047619047616 7.7542857142857144 52.36857142857143C7.7542857142857144 52.24285714285714 7.723333333333333 52.13333333333333 7.661428571428571 52.04C7.537619047619047 51.85333333333333 7.324761904761905 51.745714285714286 7.065714285714286 51.745714285714286C6.858455428571427 51.745714285714286 6.690286744244959 51.80735648130936 6.57211441040039 51.9263359941755L6.572886614118303 51.908365849086216C6.5922895197820495 51.53465125920887 6.80410790095238 51.34285714285714 7.1342857142857135 51.34285714285714C7.2714285714285705 51.34285714285714 7.398095238095237 51.36666666666667 7.508571428571428 51.44285714285714L7.68 51.10285714285714C7.5390476190476186 51.011428571428574 7.336190476190476 50.965714285714284 7.122857142857143 50.965714285714284C6.522857142857141 50.965714285714284 6.102857142857142 51.35142857142857 6.102857142857142 52.042857142857144C6.102857142857142 52.68857142857143 6.448571428571428 53.034285714285716 6.997142857142856 53.034285714285716ZM6.9714285714285715 52.68857142857143C6.748571428571428 52.68857142857143 6.619999999999999 52.56285714285714 6.619999999999999 52.39142857142857C6.619999999999999 52.214285714285715 6.76 52.09142857142857 6.965714285714285 52.09142857142857C7.171428571428571 52.09142857142857 7.305714285714285 52.20857142857143 7.305714285714285 52.39142857142857C7.305714285714285 52.56857142857143 7.165714285714285 52.68857142857143 6.9714285714285715 52.68857142857143Z"/>
  </g>
  <!-- output badge 7-8 — jack at y=64 -->
  <rect x="29.5" y="62.25" width="11" height="3.5" rx="1.0" fill="#d0d0d0"/>
  <g transform="translate(29.5, 0)">
  <path fill="#1e1e1e" fill-rule="evenodd" d="M3.5514285714285716 65.0H4.054285714285714L4.797142857142857 63.3V63.0H3.1942857142857144V63.70285714285714H3.605714285714286V63.37714285714286H4.268741607666016Z"/>
  <path fill="#1e1e1e" fill-rule="evenodd" d="M5.04 64.37428571428572H5.848571428571429V64.01714285714286H5.04Z"/>
  <path fill="#1e1e1e" fill-rule="evenodd" d="M6.934285714285714 65.03428571428572C7.442857142857141 65.03428571428572 7.78 64.79142857142857 7.78 64.42C7.78 64.20451088571428 7.668444753251418 64.04383771164123 7.474347272600447 63.946922803606306C7.623507420589523 63.85466294787461 7.708571428571429 63.71498268 7.708571428571429 63.537142857142854C7.708571428571429 63.182857142857145 7.397142857142858 62.965714285714284 6.934285714285714 62.965714285714284C6.482857142857142 62.965714285714284 6.165714285714286 63.182857142857145 6.165714285714286 63.537142857142854C6.165714285714286 63.71493312 6.250730889411292 63.854585093348206 6.398976309640068 63.94684751238142C6.205900191933497 64.04375241647963 6.094285714285714 64.20445368571428 6.094285714285714 64.42C6.094285714285714 64.79142857142857 6.4314285714285715 65.03428571428572 6.934285714285714 65.03428571428572ZM6.934285714285714 63.80285714285714C6.743809523809524 63.80285714285714 6.625714285714286 63.70952380952381 6.625714285714286 63.55714285714286C6.625714285714286 63.39714285714286 6.751428571428572 63.30571428571429 6.934285714285714 63.30571428571429C7.120952380952382 63.30571428571429 7.248571428571429 63.39714285714286 7.248571428571429 63.55714285714286C7.248571428571429 63.70952380952381 7.128571428571428 63.80285714285714 6.934285714285714 63.80285714285714ZM6.934285714285714 64.69428571428571C6.705714285714286 64.69428571428571 6.562857142857143 64.5847619047619 6.562857142857143 64.40571428571428C6.562857142857143 64.22666666666667 6.705714285714286 64.12 6.934285714285714 64.12C7.166666666666667 64.12 7.311428571428571 64.22666666666667 7.311428571428571 64.40571428571428C7.311428571428571 64.5847619047619 7.166666666666667 64.69428571428571 6.934285714285714 64.69428571428571Z"/>
  </g>
  <!-- output badge ROWS — jack at y=80 -->
  <rect x="29.5" y="78.25" width="11" height="3.5" rx="1.0" fill="#d0d0d0"/>
  <g transform="translate(29.5, 0)">
  <path fill="#1e1e1e" fill-rule="evenodd" d="M0.9085714285714279 81.0H1.3714285714285708V80.44285714285714H1.7742857142857136C1.7815699085714278 80.44285714285714 1.7888162718516794 80.44280722694715 1.7960251508440284 80.44268792288644L2.1799999999999997 81.0H2.6799999999999993L2.2328261021205353 80.35829282488142C2.49350361830121 80.24558558371258 2.6428571428571423 80.02491961142857 2.6428571428571423 79.72571428571429C2.6428571428571423 79.27238095238096 2.3190476190476184 79.0 1.7628571428571422 79.0H0.9085714285714279ZM1.748571428571428 79.37714285714286C2.034285714285714 79.37714285714286 2.1742857142857135 79.5047619047619 2.1742857142857135 79.72571428571429C2.1742857142857135 79.94285714285715 2.0342857142857134 80.07428571428571 1.748571428571428 80.07428571428571H1.3714285714285708V79.37714285714286Z"/>
  <path fill="#1e1e1e" fill-rule="evenodd" d="M3.9799999999999995 81.03428571428572C4.448571428571427 81.03428571428572 4.822857142857142 80.79285714285714 4.9885714285714275 80.41285714285715C5.099755799755799 80.15789987789988 5.098348402652199 79.83508740204942 4.9885714285714275 79.58714285714285C4.822857142857142 79.21285714285715 4.451428571428569 78.96571428571428 3.977142857142857 78.96571428571428C3.3523809523809502 78.96571428571428 2.8828571428571426 79.40571428571428 2.8828571428571426 80.0C2.8828571428571426 80.59428571428572 3.347619047619047 81.03428571428572 3.9799999999999995 81.03428571428572ZM3.977142857142857 80.64C3.8876190476190473 80.64 3.804761904761904 80.62476190476191 3.728571428571428 80.59428571428572C3.499999999999999 80.50285714285714 3.3514285714285705 80.28 3.351428571428571 80.0C3.3514285714285705 79.61904761904762 3.619047619047617 79.36 3.977142857142857 79.36C4.335238095238093 79.36 4.602857142857142 79.61904761904762 4.602857142857142 80.0C4.602857142857142 80.38095238095238 4.3352380952380924 80.64 3.977142857142857 80.64Z"/>
  <path fill="#1e1e1e" fill-rule="evenodd" d="M5.8999999999999995 81.0H6.397142857142857L6.850513327462332 79.64487067086355L7.291428571428571 81.0H7.788571428571428L8.442857142857143 79.0H8.0L7.534002838134765 80.41626591273716L7.0771428571428565 79.0H6.648571428571428L6.176939283098493 80.40582661220006L5.725714285714285 79.0H5.2457142857142856Z"/>
  <path fill="#1e1e1e" fill-rule="evenodd" d="M9.4 81.03428571428572C9.97142857142857 81.03428571428572 10.248571428571427 80.75142857142858 10.248571428571427 80.41428571428571C10.248571428571427 80.20476190476191 10.154285714285713 80.07238095238095 10.017142857142856 79.98857142857143C9.674285714285713 79.77904761904762 9.085714285714285 79.82285714285715 9.085714285714285 79.56571428571428C9.085714285714285 79.52190476190476 9.098095238095238 79.48333333333333 9.122857142857143 79.45C9.172380952380951 79.38333333333334 9.286666666666665 79.33714285714285 9.465714285714284 79.33714285714285C9.644761904761904 79.33714285714285 9.833333333333332 79.38761904761905 10.02 79.49428571428571L10.162857142857142 79.14285714285714C9.976190476190474 79.0247619047619 9.719999999999999 78.96571428571428 9.468571428571428 78.96571428571428C8.902857142857142 78.96571428571428 8.625714285714285 79.24571428571429 8.625714285714285 79.58857142857143C8.625714285714285 79.90857142857143 8.835714285714285 80.04 9.084285714285715 80.12C9.415714285714285 80.22666666666667 9.788571428571428 80.2352380952381 9.788571428571428 80.44857142857143C9.788571428571428 80.57428571428572 9.677142857142856 80.66285714285715 9.402857142857142 80.66285714285715C9.162857142857142 80.66285714285715 8.914285714285715 80.57619047619048 8.742857142857142 80.45428571428572L8.585714285714285 80.80285714285715C8.764761904761905 80.94 9.08 81.03428571428572 9.4 81.03428571428572Z"/>
  </g>
  <!-- output badge COLS — jack at y=92 -->
  <rect x="29.5" y="90.25" width="11" height="3.5" rx="1.0" fill="#d0d0d0"/>
  <g transform="translate(29.5, 0)">
  <path fill="#1e1e1e" fill-rule="evenodd" d="M2.68 93.03428571428572C3.0304761904761905 93.03428571428572 3.315238095238095 92.9095238095238 3.505714285714286 92.67714285714285L3.2085714285714286 92.40285714285714C3.071428571428571 92.56285714285714 2.9038095238095236 92.64 2.7057142857142855 92.64C2.332380952380952 92.64 2.0657142857142854 92.38095238095238 2.065714285714286 92.0C2.0657142857142854 91.61904761904762 2.3323809523809507 91.36 2.7057142857142855 91.36C2.9038095238095236 91.36 3.071428571428571 91.43809523809524 3.2085714285714286 91.59428571428572L3.505714285714286 91.32C3.315238095238095 91.08761904761904 3.029523809523809 90.96571428571428 2.682857142857143 90.96571428571428C2.058095238095237 90.96571428571428 1.5971428571428572 91.39809523809524 1.5971428571428572 92.0C1.5971428571428572 92.60190476190476 2.0628571428571427 93.03428571428572 2.68 93.03428571428572Z"/>
  <path fill="#1e1e1e" fill-rule="evenodd" d="M4.762857142857143 93.03428571428572C5.23142857142857 93.03428571428572 5.605714285714285 92.79285714285714 5.771428571428571 92.41285714285715C5.882612942612942 92.15789987789988 5.881205545509342 91.83508740204942 5.771428571428571 91.58714285714285C5.605714285714285 91.21285714285715 5.234285714285713 90.96571428571428 4.76 90.96571428571428C4.135238095238094 90.96571428571428 3.6657142857142855 91.40571428571428 3.6657142857142855 92.0C3.6657142857142855 92.59428571428572 4.13047619047619 93.03428571428572 4.762857142857143 93.03428571428572ZM4.76 92.64C4.67047619047619 92.64 4.5876190476190475 92.62476190476191 4.511428571428572 92.59428571428572C4.282857142857143 92.50285714285714 4.134285714285714 92.28 4.134285714285714 92.0C4.1342857142857135 91.61904761904762 4.40190476190476 91.36 4.76 91.36C5.118095238095236 91.36 5.385714285714286 91.61904761904762 5.385714285714286 92.0C5.385714285714286 92.38095238095238 5.118095238095236 92.64 4.76 92.64Z"/>
  <path fill="#1e1e1e" fill-rule="evenodd" d="M6.202857142857144 93.0H7.668571428571429V92.62285714285714H6.665714285714286V91.0H6.202857142857144Z"/>
  <path fill="#1e1e1e" fill-rule="evenodd" d="M8.585714285714287 93.03428571428572C9.157142857142857 93.03428571428572 9.434285714285714 92.75142857142858 9.434285714285714 92.41428571428571C9.434285714285714 92.20476190476191 9.34 92.07238095238095 9.202857142857143 91.98857142857143C8.86 91.77904761904762 8.271428571428572 91.82285714285715 8.271428571428572 91.56571428571428C8.271428571428572 91.52190476190476 8.283809523809525 91.48333333333333 8.30857142857143 91.45C8.358095238095238 91.38333333333334 8.472380952380952 91.33714285714285 8.651428571428571 91.33714285714285C8.83047619047619 91.33714285714285 9.019047619047619 91.38761904761905 9.205714285714286 91.49428571428571L9.348571428571429 91.14285714285714C9.161904761904761 91.0247619047619 8.905714285714286 90.96571428571428 8.654285714285715 90.96571428571428C8.088571428571429 90.96571428571428 7.811428571428572 91.24571428571429 7.811428571428572 91.58857142857143C7.811428571428572 91.90857142857143 8.021428571428572 92.04 8.270000000000001 92.12C8.601428571428572 92.22666666666667 8.974285714285715 92.2352380952381 8.974285714285715 92.44857142857143C8.974285714285715 92.57428571428572 8.862857142857143 92.66285714285715 8.588571428571429 92.66285714285715C8.348571428571429 92.66285714285715 8.100000000000001 92.57619047619048 7.92857142857143 92.45428571428572L7.771428571428572 92.80285714285715C7.950476190476191 92.94 8.265714285714287 93.03428571428572 8.585714285714287 93.03428571428572Z"/>
  </g>
  <!-- output badge DENS — jack at y=104 -->
  <rect x="29.5" y="102.25" width="11" height="3.5" rx="1.0" fill="#d0d0d0"/>
  <g transform="translate(29.5, 0)">
  <path fill="#1e1e1e" fill-rule="evenodd" d="M1.5328571428571425 105.0H2.4414285714285713C3.092857142857142 105.0 3.544285714285714 104.60571428571428 3.544285714285714 104.0C3.544285714285714 103.79619047619047 3.497619047619047 103.62 3.404285714285714 103.47142857142858C3.217619047619047 103.17428571428572 2.8757142857142854 103.0 2.4414285714285713 103.0H1.5328571428571425ZM1.9957142857142853 104.62V103.38H2.418571428571428C2.8185714285714276 103.38 3.0757142857142856 103.61714285714285 3.0757142857142856 104.0C3.0757142857142856 104.37714285714286 2.8185714285714267 104.62 2.418571428571428 104.62Z"/>
  <path fill="#1e1e1e" fill-rule="evenodd" d="M3.8928571428571423 105.0H5.441428571428571V104.62857142857143H4.352857142857142V104.16571428571429H5.281428571428571V103.80571428571429H4.352857142857142V103.37142857142857H5.404285714285714V103.0H3.8928571428571423Z"/>
  <path fill="#1e1e1e" fill-rule="evenodd" d="M5.81 105.0H6.267142857142856V103.78608694893973L7.264285714285713 105.0H7.644285714285713V103.0H7.187142857142856V104.21336560930524L6.192857142857142 103.0H5.81Z"/>
  <path fill="#1e1e1e" fill-rule="evenodd" d="M8.775714285714285 105.03428571428572C9.347142857142856 105.03428571428572 9.624285714285714 104.75142857142858 9.624285714285714 104.41428571428571C9.624285714285714 104.20476190476191 9.53 104.07238095238095 9.392857142857142 103.98857142857143C9.049999999999997 103.77904761904762 8.46142857142857 103.82285714285715 8.46142857142857 103.56571428571428C8.46142857142857 103.52190476190476 8.473809523809523 103.48333333333333 8.498571428571427 103.45C8.548095238095238 103.38333333333334 8.662380952380952 103.33714285714285 8.84142857142857 103.33714285714285C9.02047619047619 103.33714285714285 9.209047619047618 103.38761904761905 9.395714285714284 103.49428571428571L9.538571428571428 103.14285714285714C9.35190476190476 103.0247619047619 9.095714285714285 102.96571428571428 8.844285714285714 102.96571428571428C8.278571428571427 102.96571428571428 8.001428571428571 103.24571428571429 8.001428571428571 103.58857142857143C8.001428571428571 103.90857142857143 8.211428571428572 104.04 8.459999999999999 104.12C8.791428571428572 104.22666666666667 9.164285714285715 104.2352380952381 9.164285714285715 104.44857142857143C9.164285714285715 104.57428571428572 9.05285714285714 104.66285714285715 8.778571428571428 104.66285714285715C8.538571428571428 104.66285714285715 8.29 104.57619047619048 8.118571428571428 104.45428571428572L7.961428571428571 104.80285714285715C8.140476190476189 104.94 8.455714285714285 105.03428571428572 8.775714285714285 105.03428571428572Z"/>
  </g>

  <!-- domino logo centered above bottom bar -->
  <g transform="translate(20.71,118.0) scale(0.75)">
    <rect x="0" y="0" width="12.5" height="5.5"
          rx="1.18" ry="1.2"
          fill="none" stroke="#d0d0d0" stroke-width="0.5"/>
    <rect x="6.125" y="0.5" width="0.25" height="4.5"
          fill="#d0d0d0"/>
    <circle cx="2.07"  cy="1.46" r="0.625" fill="#d0d0d0"/>
    <circle cx="4.19"  cy="4.11" r="0.625" fill="#d0d0d0"/>
    <circle cx="8.20"  cy="1.46" r="0.625" fill="#d0d0d0"/>
    <circle cx="10.32" cy="4.11" r="0.625" fill="#d0d0d0"/>
  </g>

</svg>
