<?xml version="1.0" encoding="UTF-8"?>
<svg xmlns="http://www.w3.org/2000/svg"
     width="50.8mm" height="128.5mm"
     viewBox="0 0 50.8 128.5">

  <rect width="50.8" height="128.5" fill="#1e1e1e"/>

  <!-- top accent trapezoid -->
  <polygon points="
    0,0 50.8,0 50.8,0.5
    40.64,0.5 38.16,2.0 12.64,2.0 10.16,0.5
    0,0.5
  " fill="#f26522"/>
  <rect x="0" y="127.5" width="50.8" height="1.0" fill="#f26522"/>

  <!-- title: MDW (Bold) + 64 (Light), cap-top y=7, baseline y=11.125 -->
  <g id="title">
  <path fill="#d0d0d0" fill-rule="evenodd" d="M13.514107142857142 11.125H14.409821428571426V8.702493284770421L15.617857142857142 10.688928571428571H16.048035714285714L17.262555540629794 8.649158054079328L17.267857142857142 11.125H18.163571428571426L18.151785714285715 7.0H17.368035714285714L15.848855146680558 9.561348799296788L14.303749999999999 7.0H13.514107142857142Z"/>
  <path fill="#d0d0d0" fill-rule="evenodd" d="M19.141785714285714 11.125H21.015714285714285C22.35928571428571 11.125 23.29035714285714 10.311785714285715 23.29035714285714 9.0625C23.29035714285714 8.642142857142858 23.194107142857142 8.27875 23.001607142857143 7.972321428571428C22.61660714285714 7.359464285714285 21.91142857142857 7.0 21.015714285714285 7.0H19.141785714285714ZM20.09642857142857 10.34125V7.7837499999999995H20.968571428571426C21.793571428571425 7.7837499999999995 22.32392857142857 8.272857142857145 22.32392857142857 9.0625C22.32392857142857 9.840357142857144 21.793571428571425 10.34125 20.968571428571426 10.34125Z"/>
  <path fill="#d0d0d0" fill-rule="evenodd" d="M24.999285714285712 11.125H26.024642857142855L26.959719452176774 8.330045758656093L27.869107142857143 11.125H28.894464285714285L30.24392857142857 7.0H29.330535714285713L28.369416567938668 9.921048445020404L27.427142857142854 7.0H26.543214285714285L25.570472985676354 9.899517387662614L24.639821428571427 7.0H23.64982142857143Z"/>
  <path fill="#d0d0d0" fill-rule="evenodd" d="M32.35357142857143 11.154464285714285C33.14321428571428 11.154464285714285 33.72660714285714 10.665357142857145 33.72660714285714 9.911071428571429C33.72660714285714 9.168571428571429 33.17267857142857 8.685357142857143 32.347678571428574 8.685357142857143C31.72402029285714 8.685357142857143 31.205784393742512 8.992457117796517 31.035517790658133 9.534127110072545C31.0055927953671 9.34561871007967 30.998214285714283 9.162759602142858 30.998214285714283 9.03892857142857C30.998214285714283 7.836785714285714 31.603214285714284 7.235714285714286 32.53035714285714 7.235714285714286C32.84464285714286 7.235714285714286 33.13142857142857 7.290714285714286 33.34357142857143 7.424285714285714L33.467321428571424 7.182678571428571C33.215892857142855 7.025535714285715 32.88392857142857 6.970535714285714 32.53035714285714 6.970535714285714C31.434285714285714 6.970535714285714 30.697678571428572 7.68357142857143 30.697678571428572 9.08607142857143C30.697678571428572 10.370714285714286 31.26928571428571 11.154464285714285 32.35357142857143 11.154464285714285ZM32.34178571428571 10.895178571428572C31.575714285714284 10.895178571428572 31.163214285714286 10.411964285714285 31.163214285714286 9.92875C31.163214285714286 9.37482142857143 31.634642857142854 8.944642857142856 32.30642857142857 8.944642857142856C33.005714285714284 8.944642857142856 33.426071428571426 9.32767857142857 33.426071428571426 9.916964285714286C33.426071428571426 10.506250000000001 32.989999999999995 10.895178571428572 32.34178571428571 10.895178571428572Z"/>
  <path fill="#d0d0d0" fill-rule="evenodd" d="M34.174464285714286 9.981785714285714H36.52571428571429V11.125H36.82035714285715V9.981785714285714H37.68660714285714V9.716607142857143H36.82035714285715V8.708928571428572H36.53160714285715V9.716607142857143H34.55434626579285L36.74964285714286 7.0H36.41375L34.174464285714286 9.76375Z"/>
  </g>

  <!-- T1 — jack at y=24 -->
  <rect x="29.5" y="22.25" width="11" height="3.5" rx="1.0" fill="#d0d0d0"/>
  <g transform="translate(29.5, 0)">
    <path fill="#1e1e1e" fill-rule="evenodd" d="M4.708571428571428 25.0H5.171428571428571V23.377142857142857H5.811428571428571V23.0H4.0685714285714285V23.377142857142857H4.708571428571428Z"/>
    <path fill="#1e1e1e" fill-rule="evenodd" d="M6.242857142857143 25.0H6.7057142857142855V23.0H5.8428571428571425V23.37142857142857H6.242857142857143Z"/>
  </g>

  <!-- T2 — jack at y=34 -->
  <rect x="29.5" y="32.25" width="11" height="3.5" rx="1.0" fill="#d0d0d0"/>
  <g transform="translate(29.5, 0)">
    <path fill="#1e1e1e" fill-rule="evenodd" d="M4.425714285714285 35.0H4.888571428571428V33.37714285714286H5.5285714285714285V33.0H3.7857142857142856V33.37714285714286H4.425714285714285Z"/>
    <path fill="#1e1e1e" fill-rule="evenodd" d="M5.634285714285714 35.0H7.145714285714286V34.62285714285714H6.284671630859375L6.7457142857142856 34.18857142857143C7.025714285714285 33.925714285714285 7.08 33.75142857142857 7.08 33.55714285714286C7.08 33.191428571428574 6.782857142857143 32.965714285714284 6.337142857142857 32.965714285714284C5.979047619047619 32.965714285714284 5.695238095238095 33.10857142857143 5.542857142857143 33.33714285714286L5.88 33.55428571428571C5.979047619047619 33.417142857142856 6.126666666666667 33.354285714285716 6.2942857142857145 33.354285714285716C6.503809523809523 33.354285714285716 6.614285714285714 33.44285714285714 6.614285714285714 33.60285714285714C6.614285714285714 33.69428571428571 6.588571428571428 33.80571428571429 6.405714285714286 33.971428571428575L5.634285714285714 34.7Z"/>
  </g>

  <!-- T3 — jack at y=44 -->
  <rect x="29.5" y="42.25" width="11" height="3.5" rx="1.0" fill="#d0d0d0"/>
  <g transform="translate(29.5, 0)">
    <path fill="#1e1e1e" fill-rule="evenodd" d="M4.422857142857143 45.0H4.885714285714286V43.37714285714286H5.525714285714286V43.0H3.782857142857143V43.37714285714286H4.422857142857143Z"/>
    <path fill="#1e1e1e" fill-rule="evenodd" d="M6.297142857142857 45.034285714285716C6.868571428571428 45.034285714285716 7.125714285714286 44.72571428571429 7.125714285714286 44.38857142857143C7.125714285714286 44.09358998857143 6.941600132064869 43.872392123254905 6.583933606828962 43.813029981340684L7.034285714285715 43.3V43.0H5.634285714285714V43.371428571428574H6.4852100917271205L6.074285714285715 43.83714285714286V44.142857142857146H6.285714285714286C6.548571428571429 44.142857142857146 6.66 44.23619047619048 6.66 44.38857142857143C6.66 44.54857142857143 6.518095238095238 44.645714285714284 6.285714285714286 44.645714285714284C6.08 44.645714285714284 5.866666666666667 44.576190476190476 5.714285714285714 44.465714285714284L5.534285714285715 44.82C5.724761904761905 44.957142857142856 6.019047619047619 45.034285714285716 6.297142857142857 45.034285714285716Z"/>
  </g>

  <!-- T4 — jack at y=54 -->
  <rect x="29.5" y="52.25" width="11" height="3.5" rx="1.0" fill="#d0d0d0"/>
  <g transform="translate(29.5, 0)">
    <path fill="#1e1e1e" fill-rule="evenodd" d="M4.284285714285714 55.0H4.747142857142856V53.37714285714286H5.387142857142857V53.0H3.644285714285714V53.37714285714286H4.284285714285714Z"/>
    <path fill="#1e1e1e" fill-rule="evenodd" d="M5.4871428571428575 54.58H6.564285714285714V55.0H7.015714285714286V54.58H7.341428571428572V54.20285714285714H7.015714285714286V53.82857142857143H6.578571428571428V54.20285714285714H6.0406627982003345L6.9157142857142855 53.0H6.43L5.4871428571428575 54.26857142857143Z"/>
  </g>

  <!-- T5 — jack at y=64 -->
  <rect x="29.5" y="62.25" width="11" height="3.5" rx="1.0" fill="#d0d0d0"/>
  <g transform="translate(29.5, 0)">
    <path fill="#1e1e1e" fill-rule="evenodd" d="M4.418571428571428 65.0H4.881428571428572V63.37714285714286H5.521428571428571V63.0H3.7785714285714285V63.37714285714286H4.418571428571428Z"/>
    <path fill="#1e1e1e" fill-rule="evenodd" d="M6.324285714285715 65.03428571428572C6.895714285714285 65.03428571428572 7.155714285714286 64.72571428571429 7.155714285714286 64.37142857142857C7.155714285714286 64.01714285714286 6.9242857142857135 63.75142857142857 6.33 63.75142857142857H6.165953238351005L6.199761047363281 63.371428571428574H7.032857142857143V63.0H5.812857142857143L5.71 64.12571428571428H6.2214285714285715C6.587142857142856 64.12571428571428 6.687142857142858 64.23142857142857 6.687142857142858 64.38571428571429C6.687142857142858 64.5495238095238 6.545238095238095 64.64571428571429 6.312857142857143 64.64571428571429C6.107142857142858 64.64571428571429 5.8966666666666665 64.57619047619048 5.744285714285715 64.46571428571428L5.561428571428571 64.82C5.755714285714285 64.95714285714286 6.046190476190477 65.03428571428572 6.324285714285715 65.03428571428572Z"/>
  </g>

  <!-- T6 — jack at y=74 -->
  <rect x="29.5" y="72.25" width="11" height="3.5" rx="1.0" fill="#d0d0d0"/>
  <g transform="translate(29.5, 0)">
    <path fill="#1e1e1e" fill-rule="evenodd" d="M4.3585714285714285 75.0H4.821428571428571V73.37714285714286H5.461428571428572V73.0H3.718571428571429V73.37714285714286H4.3585714285714285Z"/>
    <path fill="#1e1e1e" fill-rule="evenodd" d="M6.4785714285714295 75.03428571428572C6.621428571428572 75.03428571428572 6.74952380952381 75.00714285714285 6.862857142857143 74.95285714285714C7.08952380952381 74.84428571428572 7.235714285714286 74.63904761904762 7.235714285714286 74.36857142857143C7.235714285714286 74.24285714285715 7.204761904761905 74.13333333333334 7.142857142857143 74.04C7.019047619047619 73.85333333333334 6.806190476190476 73.74571428571429 6.547142857142857 73.74571428571429C6.339884 73.74571428571429 6.171715315673532 73.80735648130936 6.053542981828962 73.9263359941755L6.0543151855468755 73.90836584908622C6.073718091210621 73.53465125920887 6.285536472380953 73.34285714285714 6.6157142857142865 73.34285714285714C6.752857142857143 73.34285714285714 6.87952380952381 73.36666666666666 6.99 73.44285714285714L7.161428571428572 73.10285714285715C7.020476190476191 73.01142857142857 6.817619047619048 72.96571428571428 6.604285714285715 72.96571428571428C6.0042857142857144 72.96571428571428 5.5842857142857145 73.35142857142857 5.5842857142857145 74.04285714285714C5.5842857142857145 74.68857142857144 5.930000000000001 75.03428571428572 6.4785714285714295 75.03428571428572ZM6.452857142857143 74.68857142857142C6.23 74.68857142857144 6.101428571428572 74.56285714285714 6.101428571428572 74.39142857142858C6.101428571428572 74.21428571428571 6.241428571428571 74.09142857142857 6.4471428571428575 74.09142857142857C6.652857142857143 74.09142857142857 6.787142857142857 74.20857142857143 6.787142857142857 74.39142857142858C6.787142857142857 74.56857142857143 6.647142857142857 74.68857142857144 6.452857142857143 74.68857142857142Z"/>
  </g>

  <!-- T7 — jack at y=84 -->
  <rect x="29.5" y="82.25" width="11" height="3.5" rx="1.0" fill="#d0d0d0"/>
  <g transform="translate(29.5, 0)">
    <path fill="#1e1e1e" fill-rule="evenodd" d="M4.382857142857143 85.0H4.845714285714285V83.37714285714286H5.485714285714286V83.0H3.742857142857143V83.37714285714286H4.382857142857143Z"/>
    <path fill="#1e1e1e" fill-rule="evenodd" d="M5.928571428571429 85.0H6.4314285714285715L7.174285714285714 83.3V83.0H5.571428571428571V83.70285714285714H5.982857142857143V83.37714285714286H6.645884464808873Z"/>
  </g>

  <!-- T8 — jack at y=94 -->
  <rect x="29.5" y="92.25" width="11" height="3.5" rx="1.0" fill="#d0d0d0"/>
  <g transform="translate(29.5, 0)">
    <path fill="#1e1e1e" fill-rule="evenodd" d="M4.325714285714286 95.0H4.788571428571428V93.37714285714286H5.428571428571429V93.0H3.685714285714286V93.37714285714286H4.325714285714286Z"/>
    <path fill="#1e1e1e" fill-rule="evenodd" d="M6.380000000000001 95.03428571428572C6.888571428571427 95.03428571428572 7.225714285714286 94.79142857142857 7.225714285714286 94.42C7.225714285714286 94.20451088571428 7.114159038965703 94.04383771164123 6.920061558314733 93.9469228036063C7.069221706303809 93.8546629478746 7.154285714285715 93.71498268 7.154285714285715 93.53714285714285C7.154285714285715 93.18285714285715 6.842857142857143 92.96571428571428 6.380000000000001 92.96571428571428C5.928571428571428 92.96571428571428 5.611428571428572 93.18285714285715 5.611428571428572 93.53714285714285C5.611428571428572 93.71493312 5.696445175125578 93.8545850933482 5.844690595354353 93.94684751238142C5.651614477647783 94.04375241647963 5.54 94.20445368571428 5.54 94.42C5.54 94.79142857142857 5.877142857142857 95.03428571428572 6.380000000000001 95.03428571428572ZM6.380000000000001 93.80285714285715C6.189523809523809 93.80285714285715 6.071428571428571 93.70952380952382 6.071428571428572 93.55714285714286C6.071428571428571 93.39714285714285 6.1971428571428575 93.30571428571429 6.380000000000001 93.30571428571429C6.566666666666666 93.30571428571429 6.694285714285714 93.39714285714285 6.694285714285715 93.55714285714286C6.694285714285714 93.70952380952382 6.574285714285715 93.80285714285715 6.380000000000001 93.80285714285715ZM6.380000000000001 94.69428571428571C6.151428571428571 94.69428571428571 6.008571428571429 94.5847619047619 6.008571428571429 94.40571428571428C6.008571428571429 94.22666666666667 6.151428571428571 94.12 6.380000000000001 94.12C6.612380952380953 94.12 6.757142857142858 94.22666666666667 6.757142857142858 94.40571428571428C6.757142857142858 94.5847619047619 6.612380952380953 94.69428571428571 6.380000000000001 94.69428571428571Z"/>
  </g>

  <!-- separator between mono triggers and poly output -->
  <rect x="5.0" y="101.0" width="40.8" height="0.2" fill="#d0d0d0" opacity="0.35"/>

  <!-- POLY — jack at y=108 -->
  <rect x="29.5" y="106.25" width="11" height="3.5" rx="1.0" fill="#d0d0d0"/>
  <g transform="translate(29.5, 0)">
    <path fill="#1e1e1e" fill-rule="evenodd" d="M1.657142857142857 109.0H2.12V108.44857142857143H2.5228571428571427C3.0599999999999987 108.44857142857143 3.3914285714285715 108.17142857142858 3.3914285714285715 107.72571428571429C3.3914285714285715 107.27428571428571 3.0599999999999987 107.0 2.5228571428571427 107.0H1.657142857142857ZM2.4971428571428573 107.37714285714286C2.782857142857143 107.37714285714286 2.9228571428571426 107.5047619047619 2.9228571428571426 107.72571428571429C2.9228571428571426 107.94285714285715 2.7828571428571425 108.07142857142857 2.4971428571428573 108.07142857142857H2.12V107.37714285714286Z"/>
    <path fill="#1e1e1e" fill-rule="evenodd" d="M4.720000000000001 109.03428571428572C5.188571428571428 109.03428571428572 5.562857142857142 108.79285714285714 5.728571428571429 108.41285714285715C5.8397557997558 108.15789987789988 5.8383484026521995 107.83508740204942 5.728571428571429 107.58714285714285C5.562857142857142 107.21285714285715 5.19142857142857 106.96571428571428 4.717142857142857 106.96571428571428C4.092380952380951 106.96571428571428 3.6228571428571428 107.40571428571428 3.6228571428571428 108.0C3.6228571428571428 108.59428571428572 4.0876190476190475 109.03428571428572 4.720000000000001 109.03428571428572ZM4.717142857142857 108.64C4.6276190476190475 108.64 4.544761904761905 108.62476190476191 4.468571428571429 108.59428571428572C4.24 108.50285714285714 4.091428571428572 108.28 4.091428571428572 108.0C4.091428571428571 107.61904761904762 4.359047619047617 107.36 4.717142857142857 107.36C5.0752380952380935 107.36 5.342857142857143 107.61904761904762 5.342857142857143 108.0C5.342857142857143 108.38095238095238 5.0752380952380935 108.64 4.717142857142857 108.64Z"/>
    <path fill="#1e1e1e" fill-rule="evenodd" d="M6.160000000000001 109.0H7.625714285714286V108.62285714285714H6.622857142857144V107.0H6.160000000000001Z"/>
    <path fill="#1e1e1e" fill-rule="evenodd" d="M8.382857142857144 109.0H8.845714285714287V108.29187384469168L9.622857142857143 107.0H9.168571428571429L8.63315614972796 107.88784053257534L8.100000000000001 107.0H7.608571428571429L8.382857142857144 108.28712430681502Z"/>
  </g>

  <!-- domino logo centered above bottom bar -->
  <g transform="translate(20.71,118.0) scale(0.75)">
    <rect x="0" y="0" width="12.5" height="5.5"
          rx="1.18" ry="1.2"
          fill="none" stroke="#d0d0d0" stroke-width="0.5"/>
    <rect x="6.125" y="0.5" width="0.25" height="4.5"
          fill="#d0d0d0"/>
    <circle cx="2.07"  cy="1.46" r="0.625" fill="#d0d0d0"/>
    <circle cx="4.19"  cy="4.11" r="0.625" fill="#d0d0d0"/>
    <circle cx="8.20"  cy="1.46" r="0.625" fill="#d0d0d0"/>
    <circle cx="10.32" cy="4.11" r="0.625" fill="#d0d0d0"/>
  </g>

</svg>
