<?xml version="1.0" encoding="UTF-8"?>
<svg xmlns="http://www.w3.org/2000/svg"
     width="50.8mm" height="128.5mm"
     viewBox="0 0 50.8 128.5">

  <rect width="50.8" height="128.5" fill="#1e1e1e"/>

  <!-- top accent trapezoid (companion blue) -->
  <polygon points="
    0,0 50.8,0 50.8,0.5
    40.64,0.5 38.16,2.0 12.64,2.0 10.16,0.5
    0,0.5
  " fill="#22aff2"/>
  <rect x="0" y="127.5" width="50.8" height="1.0" fill="#22aff2"/>

  <!-- title: 64 (Light) + MICRO (Bold), cap-top y=7, baseline y=11.125 -->
<g id="title">
  <path fill="#d0d0d0" fill-rule="evenodd" d="M13.113392857142856 11.154464285714285C13.90303571428571 11.154464285714285 14.486428571428569 10.665357142857145 14.486428571428569 9.911071428571429C14.486428571428569 9.168571428571429 13.932499999999997 8.685357142857143 13.107499999999998 8.685357142857143C12.483841721428568 8.685357142857143 11.96560582231394 8.992457117796517 11.79533921922956 9.534127110072545C11.765414223938528 9.34561871007967 11.758035714285713 9.162759602142858 11.758035714285713 9.03892857142857C11.758035714285713 7.836785714285714 12.363035714285711 7.235714285714286 13.29017857142857 7.235714285714286C13.604464285714283 7.235714285714286 13.891249999999998 7.290714285714286 14.103392857142856 7.424285714285714L14.227142857142855 7.182678571428571C13.975714285714282 7.025535714285715 13.643749999999997 6.970535714285714 13.29017857142857 6.970535714285714C12.19410714285714 6.970535714285714 11.457499999999998 7.68357142857143 11.457499999999998 9.08607142857143C11.457499999999998 10.370714285714286 12.02910714285714 11.154464285714285 13.113392857142856 11.154464285714285ZM13.10160714285714 10.895178571428572C12.335535714285712 10.895178571428572 11.923035714285712 10.411964285714285 11.923035714285712 9.92875C11.923035714285712 9.37482142857143 12.394464285714282 8.944642857142856 13.066249999999998 8.944642857142856C13.765535714285711 8.944642857142856 14.185892857142855 9.32767857142857 14.185892857142855 9.916964285714286C14.185892857142855 10.506250000000001 13.749821428571424 10.895178571428572 13.10160714285714 10.895178571428572Z"/>
  <path fill="#d0d0d0" fill-rule="evenodd" d="M14.934285714285712 9.981785714285714H17.28553571428571V11.125H17.58017857142857V9.981785714285714H18.44642857142857V9.716607142857143H17.58017857142857V8.708928571428572H17.29142857142857V9.716607142857143H15.314167694364272L17.509464285714284 7.0H17.173571428571428L14.934285714285712 9.76375Z"/>
  <path fill="#d0d0d0" fill-rule="evenodd" d="M19.02392857142857 11.125H19.919642857142854V8.702493284770421L21.127678571428568 10.688928571428571H21.55785714285714L22.772376969201222 8.649158054079328L22.77767857142857 11.125H23.673392857142854L23.661607142857143 7.0H22.877857142857142L21.358676575251987 9.561348799296788L19.813571428571425 7.0H19.02392857142857Z"/>
  <path fill="#d0d0d0" fill-rule="evenodd" d="M24.65160714285714 11.125H25.60625V7.0H24.65160714285714Z"/>
  <path fill="#d0d0d0" fill-rule="evenodd" d="M28.558571428571426 11.195714285714285C29.281428571428567 11.195714285714285 29.868749999999995 10.938392857142857 30.26160714285714 10.459107142857142L29.648749999999996 9.893392857142857C29.365892857142853 10.223392857142859 29.020178571428566 10.3825 28.61160714285714 10.3825C27.84160714285714 10.3825 27.29160714285714 9.848214285714286 27.29160714285714 9.0625C27.29160714285714 8.276785714285719 27.841607142857136 7.7425 28.61160714285714 7.7425C29.020178571428566 7.7425 29.365892857142853 7.903571428571429 29.648749999999996 8.225714285714286L30.26160714285714 7.66C29.868749999999995 7.180714285714286 29.279464285714283 6.929285714285714 28.564464285714283 6.929285714285714C27.27589285714285 6.929285714285714 26.32517857142857 7.821071428571431 26.32517857142857 9.0625C26.32517857142857 10.303928571428571 27.28571428571428 11.195714285714285 28.558571428571426 11.195714285714285Z"/>
  <path fill="#d0d0d0" fill-rule="evenodd" d="M30.850892857142853 11.125H31.80553571428571V9.975892857142856H32.63642857142857C32.65145222214285 9.975892857142856 32.66639784640837 9.975789905578512 32.68126615933009 9.975543840953282L33.47321428571428 11.125H34.50446428571428L33.58216812133789 9.801478951317923C34.119815498460525 9.569020266407202 34.427857142857135 9.113896698571429 34.427857142857135 8.496785714285714C34.427857142857135 7.561785714285715 33.76 7.0 32.61285714285714 7.0H30.850892857142853ZM32.583392857142854 7.777857142857142C33.17267857142857 7.777857142857142 33.46142857142857 8.041071428571428 33.46142857142857 8.496785714285714C33.46142857142857 8.944642857142858 33.17267857142856 9.215714285714286 32.583392857142854 9.215714285714286H31.80553571428571V7.777857142857142Z"/>
  <path fill="#d0d0d0" fill-rule="evenodd" d="M37.18571428571428 11.195714285714285C38.152142857142856 11.195714285714285 38.92410714285714 10.697767857142859 39.26589285714286 9.914017857142857C39.49521062271062 9.388168498168499 39.49230786618445 8.722367766726943 39.26589285714286 8.210982142857143C38.92410714285714 7.439017857142857 38.15803571428571 6.929285714285714 37.17982142857143 6.929285714285714C35.89125 6.929285714285714 34.92285714285714 7.836785714285716 34.92285714285714 9.0625C34.92285714285714 10.288214285714286 35.88142857142857 11.195714285714285 37.18571428571428 11.195714285714285ZM37.17982142857143 10.3825C36.99517857142857 10.3825 36.824285714285715 10.351071428571428 36.667142857142856 10.288214285714286C36.19571428571428 10.099642857142857 35.88928571428571 9.64 35.88928571428571 9.0625C35.88928571428571 8.276785714285719 36.44125 7.7425 37.17982142857143 7.7425C37.918392857142855 7.7425 38.47035714285714 8.276785714285715 38.47035714285714 9.0625C38.47035714285714 9.848214285714288 37.918392857142855 10.3825 37.17982142857143 10.3825Z"/>
</g>
  <!-- 1-2 input label - jack at y=30 -->
  <path fill="#d0d0d0" fill-rule="evenodd" d="M13.705714285714286 37.0H14.168571428571429V35.0H13.305714285714286V35.371428571428574H13.705714285714286Z"/>
  <path fill="#d0d0d0" fill-rule="evenodd" d="M14.554285714285715 36.37428571428571H15.362857142857143V36.01714285714286H14.554285714285715Z"/>
  <path fill="#d0d0d0" fill-rule="evenodd" d="M15.602857142857143 37.0H17.114285714285714V36.62285714285714H16.253243059430805L16.714285714285715 36.18857142857143C16.994285714285713 35.925714285714285 17.048571428571428 35.75142857142857 17.048571428571428 35.55714285714286C17.048571428571428 35.191428571428574 16.751428571428573 34.965714285714284 16.305714285714288 34.965714285714284C15.947619047619048 34.965714285714284 15.663809523809524 35.10857142857143 15.511428571428572 35.33714285714286L15.848571428571429 35.55428571428571C15.947619047619048 35.417142857142856 16.095238095238095 35.354285714285716 16.262857142857143 35.354285714285716C16.472380952380952 35.354285714285716 16.582857142857144 35.44285714285714 16.582857142857144 35.60285714285714C16.582857142857144 35.69428571428571 16.557142857142857 35.80571428571429 16.374285714285715 35.971428571428575L15.602857142857143 36.7Z"/>
  <!-- 3-4 input label - jack at y=44 -->
  <path fill="#d0d0d0" fill-rule="evenodd" d="M13.618571428571428 51.034285714285716C14.19 51.034285714285716 14.447142857142858 50.72571428571429 14.447142857142858 50.38857142857143C14.447142857142858 50.09358998857143 14.26302870349344 49.872392123254905 13.905362178257533 49.813029981340684L14.355714285714285 49.3V49.0H12.955714285714286V49.371428571428574H13.806638663155692L13.395714285714286 49.83714285714286V50.142857142857146H13.607142857142858C13.87 50.142857142857146 13.981428571428571 50.23619047619048 13.981428571428571 50.38857142857143C13.981428571428571 50.54857142857143 13.83952380952381 50.645714285714284 13.607142857142858 50.645714285714284C13.401428571428571 50.645714285714284 13.188095238095238 50.576190476190476 13.035714285714286 50.465714285714284L12.855714285714285 50.82C13.046190476190477 50.957142857142856 13.34047619047619 51.034285714285716 13.618571428571428 51.034285714285716Z"/>
  <path fill="#d0d0d0" fill-rule="evenodd" d="M14.69857142857143 50.37428571428571H15.507142857142858V50.01714285714286H14.69857142857143Z"/>
  <path fill="#d0d0d0" fill-rule="evenodd" d="M15.741428571428573 50.58H16.81857142857143V51.0H17.27V50.58H17.595714285714287V50.20285714285714H17.27V49.82857142857143H16.832857142857144V50.20285714285714H16.29494851248605L17.17 49.0H16.684285714285714L15.741428571428573 50.26857142857143Z"/>
  <!-- 5-6 input label - jack at y=58 -->
  <path fill="#d0d0d0" fill-rule="evenodd" d="M13.72 65.03428571428572C14.291428571428572 65.03428571428572 14.551428571428572 64.72571428571429 14.551428571428572 64.37142857142857C14.551428571428572 64.01714285714286 14.32 63.75142857142857 13.725714285714286 63.75142857142857H13.56166752406529L13.595475333077568 63.371428571428574H14.428571428571429V63.0H13.208571428571428L13.105714285714287 64.12571428571428H13.617142857142857C13.982857142857142 64.12571428571428 14.082857142857144 64.23142857142857 14.082857142857144 64.38571428571429C14.082857142857144 64.5495238095238 13.94095238095238 64.64571428571429 13.708571428571428 64.64571428571429C13.502857142857144 64.64571428571429 13.292380952380952 64.57619047619048 13.14 64.46571428571428L12.957142857142857 64.82C13.151428571428571 64.95714285714286 13.441904761904762 65.03428571428572 13.72 65.03428571428572Z"/>
  <path fill="#d0d0d0" fill-rule="evenodd" d="M14.777142857142856 64.37428571428572H15.585714285714285V64.01714285714286H14.777142857142856Z"/>
  <path fill="#d0d0d0" fill-rule="evenodd" d="M16.737142857142857 65.03428571428572C16.88 65.03428571428572 17.008095238095237 65.00714285714285 17.12142857142857 64.95285714285714C17.348095238095237 64.84428571428572 17.494285714285713 64.63904761904762 17.494285714285713 64.36857142857143C17.494285714285713 64.24285714285715 17.463333333333335 64.13333333333334 17.40142857142857 64.04C17.277619047619048 63.85333333333333 17.064761904761905 63.745714285714286 16.805714285714284 63.745714285714286C16.598455428571427 63.745714285714286 16.43028674424496 63.80735648130936 16.31211441040039 63.9263359941755L16.3128866141183 63.908365849086216C16.332289519782048 63.53465125920887 16.54410790095238 63.34285714285714 16.874285714285715 63.34285714285714C17.01142857142857 63.34285714285714 17.138095238095236 63.36666666666667 17.248571428571427 63.44285714285714L17.42 63.10285714285714C17.279047619047617 63.011428571428574 17.076190476190476 62.965714285714284 16.86285714285714 62.965714285714284C16.262857142857143 62.965714285714284 15.842857142857143 63.35142857142857 15.842857142857143 64.04285714285714C15.842857142857143 64.68857142857144 16.18857142857143 65.03428571428572 16.737142857142857 65.03428571428572ZM16.71142857142857 64.68857142857142C16.48857142857143 64.68857142857144 16.36 64.56285714285714 16.36 64.39142857142858C16.36 64.21428571428571 16.5 64.09142857142857 16.705714285714286 64.09142857142857C16.911428571428573 64.09142857142857 17.045714285714286 64.20857142857143 17.045714285714286 64.39142857142858C17.045714285714286 64.56857142857143 16.905714285714286 64.68857142857144 16.71142857142857 64.68857142857142Z"/>
  <!-- 7-8 input label - jack at y=72 -->
  <path fill="#d0d0d0" fill-rule="evenodd" d="M13.29142857142857 79.0H13.794285714285714L14.537142857142857 77.3V77.0H12.934285714285714V77.70285714285714H13.345714285714285V77.37714285714286H14.008741607666014Z"/>
  <path fill="#d0d0d0" fill-rule="evenodd" d="M14.780000000000001 78.37428571428572H15.588571428571429V78.01714285714286H14.780000000000001Z"/>
  <path fill="#d0d0d0" fill-rule="evenodd" d="M16.674285714285716 79.03428571428572C17.18285714285714 79.03428571428572 17.52 78.79142857142857 17.52 78.42C17.52 78.20451088571428 17.408444753251416 78.04383771164123 17.214347272600445 77.9469228036063C17.363507420589524 77.8546629478746 17.44857142857143 77.71498268 17.44857142857143 77.53714285714285C17.44857142857143 77.18285714285715 17.13714285714286 76.96571428571428 16.674285714285716 76.96571428571428C16.222857142857144 76.96571428571428 15.905714285714286 77.18285714285715 15.905714285714286 77.53714285714285C15.905714285714286 77.71493312 15.990730889411292 77.8545850933482 16.138976309640068 77.94684751238142C15.945900191933497 78.04375241647963 15.834285714285715 78.20445368571428 15.834285714285715 78.42C15.834285714285715 78.79142857142857 16.17142857142857 79.03428571428572 16.674285714285716 79.03428571428572ZM16.674285714285716 77.80285714285715C16.483809523809523 77.80285714285715 16.365714285714287 77.70952380952382 16.365714285714287 77.55714285714286C16.365714285714287 77.39714285714285 16.49142857142857 77.30571428571429 16.674285714285716 77.30571428571429C16.86095238095238 77.30571428571429 16.98857142857143 77.39714285714285 16.98857142857143 77.55714285714286C16.98857142857143 77.70952380952382 16.86857142857143 77.80285714285715 16.674285714285716 77.80285714285715ZM16.674285714285716 78.69428571428571C16.445714285714285 78.69428571428571 16.302857142857142 78.5847619047619 16.302857142857142 78.40571428571428C16.302857142857142 78.22666666666667 16.445714285714285 78.12 16.674285714285716 78.12C16.906666666666666 78.12 17.051428571428573 78.22666666666667 17.051428571428573 78.40571428571428C17.051428571428573 78.5847619047619 16.906666666666666 78.69428571428571 16.674285714285716 78.69428571428571Z"/>
  <!-- L output badge - jack at y=94 -->
  <rect x="21.5" y="92.25" width="11" height="3.5" rx="1.0" fill="#d0d0d0"/>
  <g transform="translate(21.5, 0)">
  <path fill="#1e1e1e" fill-rule="evenodd" d="M4.8742857142857146 95.0H6.34V94.62285714285714H5.337142857142857V93.0H4.8742857142857146Z"/>
  </g>
  <!-- R output badge - jack at y=106 -->
  <rect x="21.5" y="104.25" width="11" height="3.5" rx="1.0" fill="#d0d0d0"/>
  <g transform="translate(21.5, 0)">
  <path fill="#1e1e1e" fill-rule="evenodd" d="M4.687142857142858 107.0H5.15V106.44285714285714H5.5528571428571425C5.560141337142857 106.44285714285714 5.567387700423109 106.44280722694715 5.5745965794154575 106.44268792288644L5.958571428571429 107.0H6.458571428571428L6.011397530691965 106.35829282488142C6.272075046872639 106.24558558371258 6.421428571428572 106.02491961142857 6.421428571428572 105.72571428571429C6.421428571428572 105.27238095238096 6.097619047619048 105.0 5.541428571428572 105.0H4.687142857142858ZM5.527142857142858 105.37714285714286C5.812857142857143 105.37714285714286 5.952857142857143 105.5047619047619 5.952857142857143 105.72571428571429C5.952857142857143 105.94285714285715 5.812857142857142 106.07428571428571 5.527142857142858 106.07428571428571H5.15V105.37714285714286Z"/>
  </g>

  <!-- domino logo centered above bottom bar -->
  <g transform="translate(20.71,118.0) scale(0.75)">
    <rect x="0" y="0" width="12.5" height="5.5"
          rx="1.18" ry="1.2"
          fill="none" stroke="#d0d0d0" stroke-width="0.5"/>
    <rect x="6.125" y="0.5" width="0.25" height="4.5"
          fill="#d0d0d0"/>
    <circle cx="2.07"  cy="1.46" r="0.625" fill="#d0d0d0"/>
    <circle cx="4.19"  cy="4.11" r="0.625" fill="#d0d0d0"/>
    <circle cx="8.20"  cy="1.46" r="0.625" fill="#d0d0d0"/>
    <circle cx="10.32" cy="4.11" r="0.625" fill="#d0d0d0"/>
  </g>

</svg>
