<?xml version="1.0" encoding="UTF-8"?>
<svg xmlns="http://www.w3.org/2000/svg"
     width="50.8mm" height="128.5mm"
     viewBox="0 0 50.8 128.5">

  <rect width="50.8" height="128.5" fill="#1e1e1e"/>

  <!-- top accent trapezoid -->
  <polygon points="
    0,0 50.8,0 50.8,0.5
    40.64,0.5 38.16,2.0 12.64,2.0 10.16,0.5
    0,0.5
  " fill="#f26522"/>
  <rect x="0" y="127.5" width="50.8" height="1.0" fill="#f26522"/>

  <!-- title: MLR (Bold) + 64 (Light), cap-top y=7, baseline y=11.125 -->
  <g id="title">
  <path fill="#d0d0d0" fill-rule="evenodd" d="M15.429285714285713 11.125H16.325V8.702493284770421L17.533035714285713 10.688928571428571H17.963214285714283L19.177734112058367 8.649158054079328L19.18303571428571 11.125H20.07875L20.066964285714285 7.0H19.283214285714283L17.76403371810913 9.561348799296788L16.21892857142857 7.0H15.429285714285713Z"/>
  <path fill="#d0d0d0" fill-rule="evenodd" d="M21.056964285714287 11.125H24.080000000000002V10.347142857142858H22.011607142857144V7.0H21.056964285714287Z"/>
  <path fill="#d0d0d0" fill-rule="evenodd" d="M24.61625 11.125H25.57089285714286V9.975892857142856H26.401785714285715C26.416809365 9.975892857142856 26.43175498926552 9.975789905578512 26.446623302187238 9.975543840953282L27.23857142857143 11.125H28.26982142857143L27.347525264195035 9.801478951317923C27.885172641317677 9.569020266407202 28.193214285714287 9.113896698571429 28.193214285714287 8.496785714285714C28.193214285714287 7.561785714285715 27.525357142857143 7.0 26.378214285714286 7.0H24.61625ZM26.34875 7.777857142857142C26.938035714285714 7.777857142857142 27.226785714285715 8.041071428571428 27.226785714285715 8.496785714285714C27.226785714285715 8.944642857142858 26.938035714285714 9.215714285714286 26.34875 9.215714285714286H25.57089285714286V7.777857142857142Z"/>
  <path fill="#d0d0d0" fill-rule="evenodd" d="M30.43839285714286 11.154464285714285C31.228035714285713 11.154464285714285 31.81142857142857 10.665357142857145 31.81142857142857 9.911071428571429C31.81142857142857 9.168571428571429 31.2575 8.685357142857143 30.4325 8.685357142857143C29.80884172142857 8.685357142857143 29.290605822313942 8.992457117796517 29.120339219229564 9.534127110072545C29.09041422393853 9.34561871007967 29.083035714285714 9.162759602142858 29.083035714285714 9.03892857142857C29.083035714285714 7.836785714285714 29.688035714285714 7.235714285714286 30.615178571428572 7.235714285714286C30.929464285714285 7.235714285714286 31.216250000000002 7.290714285714286 31.428392857142857 7.424285714285714L31.552142857142858 7.182678571428571C31.300714285714285 7.025535714285715 30.96875 6.970535714285714 30.615178571428572 6.970535714285714C29.519107142857145 6.970535714285714 28.782500000000002 7.68357142857143 28.782500000000002 9.08607142857143C28.782500000000002 10.370714285714286 29.354107142857142 11.154464285714285 30.43839285714286 11.154464285714285ZM30.426607142857144 10.895178571428572C29.660535714285714 10.895178571428572 29.248035714285717 10.411964285714285 29.248035714285717 9.92875C29.248035714285717 9.37482142857143 29.719464285714285 8.944642857142856 30.39125 8.944642857142856C31.090535714285714 8.944642857142856 31.510892857142856 9.32767857142857 31.510892857142856 9.916964285714286C31.510892857142856 10.506250000000001 31.07482142857143 10.895178571428572 30.426607142857144 10.895178571428572Z"/>
  <path fill="#d0d0d0" fill-rule="evenodd" d="M32.25928571428572 9.981785714285714H34.61053571428572V11.125H34.90517857142858V9.981785714285714H35.77142857142857V9.716607142857143H34.90517857142858V8.708928571428572H34.61642857142858V9.716607142857143H32.63916769436428L34.83446428571429 7.0H34.49857142857143L32.25928571428572 9.76375Z"/>
  </g>

  <!-- L output badge — jack at y=84 -->
  <rect x="29.5" y="82.25" width="11" height="3.5" rx="1.0" fill="#d0d0d0"/>
  <g transform="translate(29.5, 0)">
  <path fill="#1e1e1e" fill-rule="evenodd" d="M4.8742857142857146 85.0H6.34V84.62285714285714H5.337142857142857V83.0H4.8742857142857146Z"/>
  </g>

  <!-- R output badge — jack at y=96 -->
  <rect x="29.5" y="94.25" width="11" height="3.5" rx="1.0" fill="#d0d0d0"/>
  <g transform="translate(29.5, 0)">
  <path fill="#1e1e1e" fill-rule="evenodd" d="M4.687142857142858 97.0H5.15V96.44285714285714H5.5528571428571425C5.560141337142857 96.44285714285714 5.567387700423109 96.44280722694715 5.5745965794154575 96.44268792288644L5.958571428571429 97.0H6.458571428571428L6.011397530691965 96.35829282488142C6.272075046872639 96.24558558371258 6.421428571428572 96.02491961142857 6.421428571428572 95.72571428571429C6.421428571428572 95.27238095238096 6.097619047619048 95.0 5.541428571428572 95.0H4.687142857142858ZM5.527142857142858 95.37714285714286C5.812857142857143 95.37714285714286 5.952857142857143 95.5047619047619 5.952857142857143 95.72571428571429C5.952857142857143 95.94285714285715 5.812857142857142 96.07428571428571 5.527142857142858 96.07428571428571H5.15V95.37714285714286Z"/>
  </g>

  <!-- POLY output badge — jack at y=108 -->
  <rect x="29.5" y="106.25" width="11" height="3.5" rx="1.0" fill="#d0d0d0"/>
  <g transform="translate(29.5, 0)">
  <path fill="#1e1e1e" fill-rule="evenodd" d="M1.657142857142857 109.0H2.12V108.44857142857143H2.5228571428571427C3.0599999999999987 108.44857142857143 3.3914285714285715 108.17142857142858 3.3914285714285715 107.72571428571429C3.3914285714285715 107.27428571428571 3.0599999999999987 107.0 2.5228571428571427 107.0H1.657142857142857ZM2.4971428571428573 107.37714285714286C2.782857142857143 107.37714285714286 2.9228571428571426 107.5047619047619 2.9228571428571426 107.72571428571429C2.9228571428571426 107.94285714285715 2.7828571428571425 108.07142857142857 2.4971428571428573 108.07142857142857H2.12V107.37714285714286Z"/>
  <path fill="#1e1e1e" fill-rule="evenodd" d="M4.720000000000001 109.03428571428572C5.188571428571428 109.03428571428572 5.562857142857142 108.79285714285714 5.728571428571429 108.41285714285715C5.8397557997558 108.15789987789988 5.8383484026521995 107.83508740204942 5.728571428571429 107.58714285714285C5.562857142857142 107.21285714285715 5.19142857142857 106.96571428571428 4.717142857142857 106.96571428571428C4.092380952380951 106.96571428571428 3.6228571428571428 107.40571428571428 3.6228571428571428 108.0C3.6228571428571428 108.59428571428572 4.0876190476190475 109.03428571428572 4.720000000000001 109.03428571428572ZM4.717142857142857 108.64C4.6276190476190475 108.64 4.544761904761905 108.62476190476191 4.468571428571429 108.59428571428572C4.24 108.50285714285714 4.091428571428572 108.28 4.091428571428572 108.0C4.091428571428571 107.61904761904762 4.359047619047617 107.36 4.717142857142857 107.36C5.0752380952380935 107.36 5.342857142857143 107.61904761904762 5.342857142857143 108.0C5.342857142857143 108.38095238095238 5.0752380952380935 108.64 4.717142857142857 108.64Z"/>
  <path fill="#1e1e1e" fill-rule="evenodd" d="M6.160000000000001 109.0H7.625714285714286V108.62285714285714H6.622857142857144V107.0H6.160000000000001Z"/>
  <path fill="#1e1e1e" fill-rule="evenodd" d="M8.382857142857144 109.0H8.845714285714287V108.29187384469168L9.622857142857143 107.0H9.168571428571429L8.63315614972796 107.88784053257534L8.100000000000001 107.0H7.608571428571429L8.382857142857144 108.28712430681502Z"/>
  </g>

  <!-- domino logo centered above bottom bar -->
  <g transform="translate(20.71,118.0) scale(0.75)">
    <rect x="0" y="0" width="12.5" height="5.5"
          rx="1.18" ry="1.2"
          fill="none" stroke="#d0d0d0" stroke-width="0.5"/>
    <rect x="6.125" y="0.5" width="0.25" height="4.5"
          fill="#d0d0d0"/>
    <circle cx="2.07"  cy="1.46" r="0.625" fill="#d0d0d0"/>
    <circle cx="4.19"  cy="4.11" r="0.625" fill="#d0d0d0"/>
    <circle cx="8.20"  cy="1.46" r="0.625" fill="#d0d0d0"/>
    <circle cx="10.32" cy="4.11" r="0.625" fill="#d0d0d0"/>
  </g>

</svg>
