<?xml version="1.0" encoding="UTF-8"?>
<svg xmlns="http://www.w3.org/2000/svg"
     width="50.8mm" height="128.5mm"
     viewBox="0 0 50.8 128.5">

  <rect width="50.8" height="128.5" fill="#1e1e1e"/>

  <!-- top accent trapezoid (companion blue) -->
  <polygon points="
    0,0 50.8,0 50.8,0.5
    40.64,0.5 38.16,2.0 12.64,2.0 10.16,0.5
    0,0.5
  " fill="#22aff2"/>
  <rect x="0" y="127.5" width="50.8" height="1.0" fill="#22aff2"/>

  <!-- title: 64 (Light) + NOTES (Bold), cap-top y=7, baseline y=11.125 -->
  <g id="title">
  <path fill="#d0d0d0" fill-rule="evenodd" d="M13.134017857142856 11.154464285714285C13.92366071428571 11.154464285714285 14.507053571428571 10.665357142857145 14.507053571428571 9.911071428571429C14.507053571428571 9.168571428571429 13.953124999999998 8.685357142857143 13.128124999999999 8.685357142857143C12.50446672142857 8.685357142857143 11.98623082231394 8.992457117796517 11.81596421922956 9.534127110072545C11.786039223938529 9.34561871007967 11.778660714285714 9.162759602142858 11.778660714285714 9.03892857142857C11.778660714285714 7.836785714285714 12.383660714285712 7.235714285714286 13.31080357142857 7.235714285714286C13.625089285714283 7.235714285714286 13.911874999999998 7.290714285714286 14.124017857142857 7.424285714285714L14.247767857142856 7.182678571428571C13.996339285714283 7.025535714285715 13.664374999999998 6.970535714285714 13.31080357142857 6.970535714285714C12.214732142857141 6.970535714285714 11.478124999999999 7.68357142857143 11.478124999999999 9.08607142857143C11.478124999999999 10.370714285714286 12.04973214285714 11.154464285714285 13.134017857142856 11.154464285714285ZM13.122232142857142 10.895178571428572C12.356160714285712 10.895178571428572 11.943660714285713 10.411964285714285 11.943660714285713 9.92875C11.943660714285713 9.37482142857143 12.415089285714284 8.944642857142856 13.086875 8.944642857142856C13.786160714285712 8.944642857142856 14.206517857142856 9.32767857142857 14.206517857142856 9.916964285714286C14.206517857142856 10.506250000000001 13.770446428571425 10.895178571428572 13.122232142857142 10.895178571428572Z"/>
  <path fill="#d0d0d0" fill-rule="evenodd" d="M14.954910714285715 9.981785714285714H17.306160714285713V11.125H17.60080357142857V9.981785714285714H18.467053571428572V9.716607142857143H17.60080357142857V8.708928571428572H17.31205357142857V9.716607142857143H15.334792694364275L17.530089285714286 7.0H17.19419642857143L14.954910714285715 9.76375Z"/>
  <path fill="#d0d0d0" fill-rule="evenodd" d="M19.044553571428573 11.125H19.987410714285716V8.621304332188197L22.044017857142858 11.125H22.82776785714286V7.0H21.884910714285716V9.50256656919207L19.834196428571428 7.0H19.044553571428573Z"/>
  <path fill="#d0d0d0" fill-rule="evenodd" d="M25.809553571428573 11.195714285714285C26.77598214285714 11.195714285714285 27.54794642857143 10.697767857142859 27.88973214285714 9.914017857142857C28.119049908424905 9.388168498168499 28.116147151898733 8.722367766726943 27.88973214285714 8.210982142857143C27.54794642857143 7.439017857142857 26.781874999999996 6.929285714285714 25.803660714285712 6.929285714285714C24.515089285714282 6.929285714285714 23.54669642857143 7.836785714285716 23.54669642857143 9.0625C23.54669642857143 10.288214285714286 24.505267857142854 11.195714285714285 25.809553571428573 11.195714285714285ZM25.803660714285712 10.3825C25.619017857142858 10.3825 25.448125 10.351071428571428 25.290982142857143 10.288214285714286C24.81955357142857 10.099642857142857 24.513125 9.64 24.513125 9.0625C24.513125 8.276785714285719 25.065089285714283 7.7425 25.803660714285712 7.7425C26.542232142857138 7.7425 27.09419642857143 8.276785714285715 27.09419642857143 9.0625C27.09419642857143 9.848214285714288 26.542232142857138 10.3825 25.803660714285712 10.3825Z"/>
  <path fill="#d0d0d0" fill-rule="evenodd" d="M29.634017857142858 11.125H30.588660714285716V7.777857142857142H31.908660714285716V7.0H28.314017857142858V7.777857142857142H29.634017857142858Z"/>
  <path fill="#d0d0d0" fill-rule="evenodd" d="M32.42133928571428 11.125H35.615267857142854V10.35892857142857H33.370089285714286V9.404285714285715H35.285267857142856V8.661785714285713H33.370089285714286V7.766071428571428H35.53866071428571V7.0H32.42133928571428Z"/>
  <path fill="#d0d0d0" fill-rule="evenodd" d="M37.730803571428574 11.195714285714285C38.909375 11.195714285714285 39.480982142857144 10.612321428571429 39.480982142857144 9.916964285714286C39.480982142857144 9.48482142857143 39.286517857142854 9.211785714285714 39.003660714285715 9.03892857142857C38.29651785714285 8.606785714285714 37.082589285714285 8.69714285714286 37.082589285714285 8.166785714285714C37.082589285714285 8.076428571428572 37.108125 7.996875 37.15919642857143 7.928125C37.261339285714286 7.790625 37.49705357142857 7.695357142857143 37.86633928571428 7.695357142857143C38.235625 7.695357142857143 38.62455357142857 7.799464285714286 39.00955357142857 8.019464285714285L39.30419642857143 7.294642857142857C38.919196428571425 7.051071428571428 38.39080357142857 6.929285714285714 37.87223214285714 6.929285714285714C36.70544642857143 6.929285714285714 36.13383928571429 7.506785714285715 36.13383928571429 8.213928571428571C36.13383928571429 8.873928571428571 36.566964285714285 9.145 37.07964285714286 9.31C37.763214285714284 9.530000000000001 38.53223214285714 9.547678571428571 38.53223214285714 9.987678571428571C38.53223214285714 10.246964285714286 38.30241071428571 10.429642857142857 37.73669642857143 10.429642857142857C37.24169642857143 10.429642857142857 36.72901785714286 10.250892857142857 36.37544642857143 9.999464285714286L36.051339285714285 10.718392857142858C36.420625 11.00125 37.07080357142857 11.195714285714285 37.730803571428574 11.195714285714285Z"/>
  </g>

  <!-- 1-2 input label — jack at y=30 -->
  <g transform="translate(8.5, 0)">
  <path fill="#d0d0d0" fill-rule="evenodd" d="M3.9657142857142857 37.0H4.428571428571429V35.0H3.565714285714286V35.371428571428574H3.9657142857142857Z"/>
  <path fill="#d0d0d0" fill-rule="evenodd" d="M4.814285714285714 36.37428571428571H5.622857142857143V36.01714285714286H4.814285714285714Z"/>
  <path fill="#d0d0d0" fill-rule="evenodd" d="M5.862857142857143 37.0H7.3742857142857146V36.62285714285714H6.5132430594308035L6.974285714285714 36.18857142857143C7.254285714285714 35.925714285714285 7.308571428571429 35.75142857142857 7.308571428571429 35.55714285714286C7.308571428571429 35.191428571428574 7.011428571428572 34.965714285714284 6.565714285714286 34.965714285714284C6.207619047619048 34.965714285714284 5.923809523809524 35.10857142857143 5.771428571428571 35.33714285714286L6.1085714285714285 35.55428571428571C6.207619047619048 35.417142857142856 6.355238095238095 35.354285714285716 6.522857142857143 35.354285714285716C6.732380952380952 35.354285714285716 6.842857142857143 35.44285714285714 6.842857142857143 35.60285714285714C6.842857142857143 35.69428571428571 6.817142857142857 35.80571428571429 6.634285714285714 35.971428571428575L5.862857142857143 36.7Z"/>
  </g>

  <!-- 3-4 input label — jack at y=42 -->
  <g transform="translate(8.5, 0)">
  <path fill="#d0d0d0" fill-rule="evenodd" d="M3.878571428571428 49.034285714285716C4.449999999999999 49.034285714285716 4.707142857142857 48.72571428571429 4.707142857142857 48.38857142857143C4.707142857142857 48.09358998857143 4.5230287034934396 47.872392123254905 4.165362178257533 47.813029981340684L4.615714285714286 47.3V47.0H3.2157142857142853V47.371428571428574H4.0666386631556914L3.6557142857142857 47.83714285714286V48.142857142857146H3.867142857142857C4.13 48.142857142857146 4.241428571428571 48.23619047619048 4.241428571428571 48.38857142857143C4.241428571428571 48.54857142857143 4.099523809523809 48.645714285714284 3.867142857142857 48.645714285714284C3.661428571428571 48.645714285714284 3.4480952380952377 48.576190476190476 3.2957142857142854 48.465714285714284L3.1157142857142857 48.82C3.306190476190476 48.957142857142856 3.60047619047619 49.034285714285716 3.878571428571428 49.034285714285716Z"/>
  <path fill="#d0d0d0" fill-rule="evenodd" d="M4.958571428571428 48.37428571428571H5.767142857142857V48.01714285714286H4.958571428571428Z"/>
  <path fill="#d0d0d0" fill-rule="evenodd" d="M6.001428571428571 48.58H7.078571428571427V49.0H7.529999999999999V48.58H7.855714285714285V48.20285714285714H7.529999999999999V47.82857142857143H7.092857142857142V48.20285714285714H6.554948512486048L7.429999999999999 47.0H6.944285714285713L6.001428571428571 48.26857142857143Z"/>
  </g>

  <!-- 5-6 input label — jack at y=54 -->
  <g transform="translate(8.5, 0)">
  <path fill="#d0d0d0" fill-rule="evenodd" d="M3.98 61.034285714285716C4.551428571428571 61.034285714285716 4.811428571428571 60.72571428571429 4.811428571428571 60.371428571428574C4.811428571428571 60.01714285714286 4.579999999999999 59.75142857142857 3.9857142857142858 59.75142857142857H3.8216675240652904L3.855475333077567 59.371428571428574H4.688571428571429V59.0H3.468571428571429L3.3657142857142857 60.12571428571429H3.8771428571428572C4.242857142857142 60.12571428571429 4.342857142857143 60.23142857142857 4.342857142857143 60.385714285714286C4.342857142857143 60.54952380952381 4.200952380952381 60.645714285714284 3.968571428571429 60.645714285714284C3.762857142857143 60.645714285714284 3.552380952380952 60.576190476190476 3.4 60.465714285714284L3.217142857142857 60.82C3.4114285714285715 60.957142857142856 3.701904761904762 61.034285714285716 3.98 61.034285714285716Z"/>
  <path fill="#d0d0d0" fill-rule="evenodd" d="M5.037142857142857 60.37428571428571H5.845714285714286V60.01714285714286H5.037142857142857Z"/>
  <path fill="#d0d0d0" fill-rule="evenodd" d="M6.997142857142856 61.034285714285716C7.14 61.034285714285716 7.2680952380952375 61.00714285714286 7.381428571428571 60.95285714285714C7.608095238095237 60.84428571428572 7.7542857142857144 60.639047619047616 7.7542857142857144 60.36857142857143C7.7542857142857144 60.24285714285714 7.723333333333333 60.13333333333333 7.661428571428571 60.04C7.537619047619047 59.85333333333333 7.324761904761905 59.745714285714286 7.065714285714286 59.745714285714286C6.858455428571427 59.745714285714286 6.690286744244959 59.80735648130936 6.57211441040039 59.9263359941755L6.572886614118303 59.908365849086216C6.5922895197820495 59.53465125920887 6.80410790095238 59.34285714285714 7.1342857142857135 59.34285714285714C7.2714285714285705 59.34285714285714 7.398095238095237 59.36666666666667 7.508571428571428 59.44285714285714L7.68 59.10285714285714C7.5390476190476186 59.011428571428574 7.336190476190476 58.965714285714284 7.122857142857143 58.965714285714284C6.522857142857141 58.965714285714284 6.102857142857142 59.35142857142857 6.102857142857142 60.042857142857144C6.102857142857142 60.68857142857143 6.448571428571428 61.034285714285716 6.997142857142856 61.034285714285716ZM6.9714285714285715 60.68857142857143C6.748571428571428 60.68857142857143 6.619999999999999 60.56285714285714 6.619999999999999 60.39142857142857C6.619999999999999 60.214285714285715 6.76 60.09142857142857 6.965714285714285 60.09142857142857C7.171428571428571 60.09142857142857 7.305714285714285 60.20857142857143 7.305714285714285 60.39142857142857C7.305714285714285 60.56857142857143 7.165714285714285 60.68857142857143 6.9714285714285715 60.68857142857143Z"/>
  </g>

  <!-- 7-8 input label — jack at y=66 -->
  <g transform="translate(8.5, 0)">
  <path fill="#d0d0d0" fill-rule="evenodd" d="M3.5514285714285716 73.0H4.054285714285714L4.797142857142857 71.3V71.0H3.1942857142857144V71.70285714285714H3.605714285714286V71.37714285714286H4.268741607666016Z"/>
  <path fill="#d0d0d0" fill-rule="evenodd" d="M5.04 72.37428571428572H5.848571428571429V72.01714285714286H5.04Z"/>
  <path fill="#d0d0d0" fill-rule="evenodd" d="M6.934285714285714 73.03428571428572C7.442857142857141 73.03428571428572 7.78 72.79142857142857 7.78 72.42C7.78 72.20451088571428 7.668444753251418 72.04383771164123 7.474347272600447 71.9469228036063C7.623507420589523 71.8546629478746 7.708571428571429 71.71498268 7.708571428571429 71.53714285714285C7.708571428571429 71.18285714285715 7.397142857142858 70.96571428571428 6.934285714285714 70.96571428571428C6.482857142857142 70.96571428571428 6.165714285714286 71.18285714285715 6.165714285714286 71.53714285714285C6.165714285714286 71.71493312 6.250730889411292 71.8545850933482 6.398976309640068 71.94684751238142C6.205900191933497 72.04375241647963 6.094285714285714 72.20445368571428 6.094285714285714 72.42C6.094285714285714 72.79142857142857 6.4314285714285715 73.03428571428572 6.934285714285714 73.03428571428572ZM6.934285714285714 71.80285714285715C6.743809523809524 71.80285714285715 6.625714285714286 71.70952380952382 6.625714285714286 71.55714285714286C6.625714285714286 71.39714285714285 6.751428571428572 71.30571428571429 6.934285714285714 71.30571428571429C7.120952380952382 71.30571428571429 7.248571428571429 71.39714285714285 7.248571428571429 71.55714285714286C7.248571428571429 71.70952380952382 7.128571428571428 71.80285714285715 6.934285714285714 71.80285714285715ZM6.934285714285714 72.69428571428571C6.705714285714286 72.69428571428571 6.562857142857143 72.5847619047619 6.562857142857143 72.40571428571428C6.562857142857143 72.22666666666667 6.705714285714286 72.12 6.934285714285714 72.12C7.166666666666667 72.12 7.311428571428571 72.22666666666667 7.311428571428571 72.40571428571428C7.311428571428571 72.5847619047619 7.166666666666667 72.69428571428571 6.934285714285714 72.69428571428571Z"/>
  </g>

  <!-- TRN input label — jack at y=82 -->
  <g transform="translate(8.5, 0)">
  <path fill="#d0d0d0" fill-rule="evenodd" d="M3.064285714285714 89.0H3.527142857142857V87.37714285714286H4.167142857142857V87.0H2.4242857142857144V87.37714285714286H3.064285714285714Z"/>
  <path fill="#d0d0d0" fill-rule="evenodd" d="M4.415714285714286 89.0H4.878571428571429V88.44285714285714H5.281428571428572C5.288712765714286 88.44285714285714 5.295959128994538 88.44280722694715 5.303168007986886 88.44268792288644L5.687142857142858 89.0H6.187142857142858L5.739968959263393 88.35829282488142C6.000646475444068 88.24558558371258 6.15 88.02491961142857 6.15 87.72571428571429C6.15 87.27238095238096 5.826190476190476 87.0 5.2700000000000005 87.0H4.415714285714286ZM5.255714285714286 87.37714285714286C5.541428571428572 87.37714285714286 5.6814285714285715 87.5047619047619 5.6814285714285715 87.72571428571429C5.6814285714285715 87.94285714285715 5.541428571428572 88.07428571428571 5.255714285714286 88.07428571428571H4.878571428571429V87.37714285714286Z"/>
  <path fill="#d0d0d0" fill-rule="evenodd" d="M6.515714285714286 89.0H6.972857142857142V87.78608694893973L7.97 89.0H8.35V87.0H7.892857142857142V88.21336560930524L6.898571428571429 87.0H6.515714285714286Z"/>
  </g>

  <!-- CLK input label — jack at y=94 -->
  <g transform="translate(8.5, 0)">
  <path fill="#d0d0d0" fill-rule="evenodd" d="M3.74 101.03428571428572C4.09047619047619 101.03428571428572 4.375238095238095 100.9095238095238 4.565714285714286 100.67714285714285L4.268571428571429 100.40285714285714C4.131428571428572 100.56285714285714 3.9638095238095232 100.64 3.765714285714286 100.64C3.392380952380952 100.64 3.1257142857142854 100.38095238095238 3.125714285714286 100.0C3.1257142857142854 99.61904761904762 3.392380952380951 99.36 3.765714285714286 99.36C3.9638095238095232 99.36 4.131428571428572 99.43809523809524 4.268571428571429 99.59428571428572L4.565714285714286 99.32C4.375238095238095 99.08761904761904 4.08952380952381 98.96571428571428 3.742857142857143 98.96571428571428C3.118095238095237 98.96571428571428 2.6571428571428575 99.39809523809524 2.6571428571428575 100.0C2.6571428571428575 100.60190476190476 3.1228571428571428 101.03428571428572 3.74 101.03428571428572Z"/>
  <path fill="#d0d0d0" fill-rule="evenodd" d="M4.851428571428571 101.0H6.317142857142857V100.62285714285714H5.314285714285714V99.0H4.851428571428571Z"/>
  <path fill="#d0d0d0" fill-rule="evenodd" d="M6.577142857142857 101.0H7.037142857142857V100.49513785226004L7.30515130179269 100.21537464686803L7.945714285714286 101.0H8.485714285714286L7.609132298060826 99.89107097080776L8.437142857142856 99.0H7.922857142857143L7.037142857142857 99.93330490112305V99.0H6.577142857142857Z"/>
  </g>

  <!-- V/OCT output badge — jack at y=70 -->
  <rect x="21.5" y="68.25" width="11" height="3.5" rx="1.0" fill="#d0d0d0"/>
  <g transform="translate(21.5, 0)">
  <path fill="#1e1e1e" fill-rule="evenodd" d="M1.588571428571429 71.0H2.0457142857142863L2.911428571428572 69.0H2.451428571428572L1.8339634704589847 70.42846400669643L1.225714285714286 69.0H0.7257142857142861Z"/>
  <path fill="#1e1e1e" fill-rule="evenodd" d="M2.7885714285714287 71.28571428571429H3.185714285714286L4.128571428571429 68.59428571428572H3.7314285714285713Z"/>
  <path fill="#1e1e1e" fill-rule="evenodd" d="M5.211428571428572 71.03428571428572C5.68 71.03428571428572 6.054285714285714 70.79285714285714 6.220000000000001 70.41285714285715C6.331184371184372 70.15789987789988 6.329776974080772 69.83508740204942 6.220000000000001 69.58714285714285C6.054285714285715 69.21285714285715 5.682857142857142 68.96571428571428 5.208571428571429 68.96571428571428C4.583809523809523 68.96571428571428 4.114285714285715 69.40571428571428 4.114285714285715 70.0C4.114285714285715 70.59428571428572 4.5790476190476195 71.03428571428572 5.211428571428572 71.03428571428572ZM5.208571428571429 70.64C5.1190476190476195 70.64 5.036190476190477 70.62476190476191 4.960000000000001 70.59428571428572C4.731428571428572 70.50285714285714 4.582857142857144 70.28 4.582857142857144 70.0C4.582857142857144 69.61904761904762 4.85047619047619 69.36 5.208571428571429 69.36C5.5666666666666655 69.36 5.8342857142857145 69.61904761904762 5.8342857142857145 70.0C5.8342857142857145 70.38095238095238 5.566666666666665 70.64 5.208571428571429 70.64Z"/>
  <path fill="#1e1e1e" fill-rule="evenodd" d="M7.6085714285714285 71.03428571428572C7.959047619047619 71.03428571428572 8.243809523809524 70.9095238095238 8.434285714285714 70.67714285714285L8.137142857142857 70.40285714285714C8.0 70.56285714285714 7.832380952380952 70.64 7.634285714285714 70.64C7.26095238095238 70.64 6.994285714285715 70.38095238095238 6.994285714285715 70.0C6.994285714285715 69.61904761904762 7.2609523809523795 69.36 7.634285714285714 69.36C7.832380952380952 69.36 8.0 69.43809523809524 8.137142857142857 69.59428571428572L8.434285714285714 69.32C8.243809523809524 69.08761904761904 7.958095238095238 68.96571428571428 7.611428571428572 68.96571428571428C6.986666666666666 68.96571428571428 6.525714285714286 69.39809523809524 6.525714285714286 70.0C6.525714285714286 70.60190476190476 6.991428571428571 71.03428571428572 7.6085714285714285 71.03428571428572Z"/>
  <path fill="#1e1e1e" fill-rule="evenodd" d="M9.134285714285713 71.0H9.597142857142856V69.37714285714286H10.237142857142857V69.0H8.494285714285713V69.37714285714286H9.134285714285713Z"/>
  </g>

  <!-- GATE output badge — jack at y=82 -->
  <rect x="21.5" y="80.25" width="11" height="3.5" rx="1.0" fill="#d0d0d0"/>
  <g transform="translate(21.5, 0)">
  <path fill="#1e1e1e" fill-rule="evenodd" d="M2.6657142857142855 83.03428571428572C2.9514285714285706 83.03428571428572 3.2571428571428567 82.94380952380952 3.474285714285714 82.78V81.96857142857142H3.051428571428571V82.55509676252093C2.935837028865626 82.61531263835249 2.8158370288656265 82.64 2.6914285714285713 82.64C2.310476190476189 82.64 2.0428571428571423 82.37333333333333 2.0428571428571427 82.0C2.0428571428571423 81.61904761904762 2.3085714285714274 81.36 2.6971428571428566 81.36C2.899047619047619 81.36 3.069523809523809 81.43333333333334 3.214285714285714 81.58571428571429L3.511428571428571 81.31142857142856C3.3171428571428567 81.08666666666667 3.0285714285714276 80.96571428571428 2.6742857142857144 80.96571428571428C2.0342857142857125 80.96571428571428 1.574285714285714 81.39809523809524 1.574285714285714 82.0C1.574285714285714 82.60190476190476 2.0333333333333323 83.03428571428572 2.6657142857142855 83.03428571428572Z"/>
  <path fill="#1e1e1e" fill-rule="evenodd" d="M3.6399999999999997 83.0H4.114285714285714L4.292510397774833 82.57142857142857H5.219611642020089L5.397142857142857 83.0H5.882857142857143L4.988571428571428 81.0H4.531428571428571ZM4.438654654366629 82.22 4.756964634486607 81.45456976754325 5.074036058698382 82.22Z"/>
  <path fill="#1e1e1e" fill-rule="evenodd" d="M6.505714285714285 83.0H6.968571428571428V81.37714285714286H7.6085714285714285V81.0H5.865714285714286V81.37714285714286H6.505714285714285Z"/>
  <path fill="#1e1e1e" fill-rule="evenodd" d="M7.857142857142858 83.0H9.405714285714286V82.62857142857143H8.317142857142857V82.16571428571429H9.245714285714286V81.80571428571429H8.317142857142857V81.37142857142857H9.368571428571428V81.0H7.857142857142858Z"/>
  </g>

  <!-- RTRG output badge — jack at y=94 -->
  <rect x="21.5" y="92.25" width="11" height="3.5" rx="1.0" fill="#d0d0d0"/>
  <g transform="translate(21.5, 0)">
  <path fill="#1e1e1e" fill-rule="evenodd" d="M1.6528571428571426 95.0H2.1157142857142857V94.44285714285714H2.5185714285714282C2.5258556228571427 94.44285714285714 2.5331019861373942 94.44280722694715 2.540310865129743 94.44268792288644L2.9242857142857144 95.0H3.424285714285714L2.97711181640625 94.35829282488142C3.2377893325869245 94.24558558371258 3.387142857142857 94.02491961142857 3.387142857142857 93.72571428571429C3.387142857142857 93.27238095238096 3.063333333333333 93.0 2.507142857142857 93.0H1.6528571428571426ZM2.492857142857143 93.37714285714286C2.7785714285714285 93.37714285714286 2.918571428571428 93.5047619047619 2.918571428571428 93.72571428571429C2.918571428571428 93.94285714285715 2.778571428571428 94.07428571428571 2.492857142857143 94.07428571428571H2.1157142857142857V93.37714285714286Z"/>
  <path fill="#1e1e1e" fill-rule="evenodd" d="M4.167142857142857 95.0H4.63V93.37714285714286H5.27V93.0H3.527142857142857V93.37714285714286H4.167142857142857Z"/>
  <path fill="#1e1e1e" fill-rule="evenodd" d="M5.518571428571429 95.0H5.981428571428571V94.44285714285714H6.3842857142857135C6.391569908571428 94.44285714285714 6.39881627185168 94.44280722694715 6.4060251508440285 94.44268792288644L6.79 95.0H7.289999999999999L6.842826102120536 94.35829282488142C7.10350361830121 94.24558558371258 7.252857142857143 94.02491961142857 7.252857142857143 93.72571428571429C7.252857142857143 93.27238095238096 6.929047619047619 93.0 6.372857142857143 93.0H5.518571428571429ZM6.3585714285714285 93.37714285714286C6.644285714285714 93.37714285714286 6.784285714285714 93.5047619047619 6.784285714285714 93.72571428571429C6.784285714285714 93.94285714285715 6.644285714285713 94.07428571428571 6.3585714285714285 94.07428571428571H5.981428571428571V93.37714285714286Z"/>
  <path fill="#1e1e1e" fill-rule="evenodd" d="M8.584285714285715 95.03428571428572C8.87 95.03428571428572 9.175714285714285 94.94380952380952 9.392857142857142 94.78V93.96857142857142H8.97V94.55509676252093C8.854408457437055 94.61531263835249 8.734408457437056 94.64 8.61 94.64C8.229047619047618 94.64 7.961428571428572 94.37333333333333 7.961428571428572 94.0C7.961428571428572 93.61904761904762 8.227142857142857 93.36 8.615714285714287 93.36C8.817619047619047 93.36 8.988095238095237 93.43333333333334 9.132857142857143 93.58571428571429L9.43 93.31142857142856C9.235714285714286 93.08666666666667 8.947142857142858 92.96571428571428 8.592857142857143 92.96571428571428C7.952857142857141 92.96571428571428 7.492857142857143 93.39809523809524 7.492857142857143 94.0C7.492857142857143 94.60190476190476 7.951904761904761 95.03428571428572 8.584285714285715 95.03428571428572Z"/>
  </g>

  <!-- domino logo centered above bottom bar -->
  <g transform="translate(20.71,118.0) scale(0.75)">
    <rect x="0" y="0" width="12.5" height="5.5"
          rx="1.18" ry="1.2"
          fill="none" stroke="#d0d0d0" stroke-width="0.5"/>
    <rect x="6.125" y="0.5" width="0.25" height="4.5"
          fill="#d0d0d0"/>
    <circle cx="2.07"  cy="1.46" r="0.625" fill="#d0d0d0"/>
    <circle cx="4.19"  cy="4.11" r="0.625" fill="#d0d0d0"/>
    <circle cx="8.20"  cy="1.46" r="0.625" fill="#d0d0d0"/>
    <circle cx="10.32" cy="4.11" r="0.625" fill="#d0d0d0"/>
  </g>

</svg>
