<?xml version="1.0" encoding="UTF-8"?>
<svg xmlns="http://www.w3.org/2000/svg"
     width="30.48mm" height="128.5mm"
     viewBox="0 0 30.48 128.5">

  <rect width="30.48" height="128.5" fill="#1e1e1e"/>

  <!-- top accent trapezoid (companion blue) -->
  <polygon points="
    0,0 30.48,0 30.48,0.5
    24.384,0.5 21.904,2.0 8.576,2.0 6.096,0.5
    0,0.5
  " fill="#22aff2"/>
  <rect x="0" y="127.5" width="30.48" height="1.0" fill="#22aff2"/>

  <!-- title: 8 (Light) + NOTES (Bold), cap-top y=7, baseline y=11.125 -->
  <g id="title">
  <path fill="#d0d0d0" fill-rule="evenodd" d="M4.688839285714287 11.154464285714285C5.66705357142857 11.154464285714285 6.2563392857142865 10.712500000000002 6.2563392857142865 9.993571428571428C6.2563392857142865 9.476272303214285 5.936729817561889 9.115516590829746 5.365444957188199 8.964745973859515C5.842677603694765 8.81553015966633 6.109017857142858 8.490677131428573 6.109017857142858 8.037142857142857C6.109017857142858 7.377142857142857 5.5491964285714275 6.970535714285714 4.688839285714287 6.970535714285714C3.840267857142857 6.970535714285714 3.2804464285714294 7.377142857142859 3.2804464285714294 8.037142857142857C3.2804464285714294 8.490592486428572 3.5407043345370632 8.815408897823225 4.014328655515399 8.964691573551722C3.4462749571562066 9.115443852863818 3.133125000000001 9.476220151428572 3.1331250000000006 9.993571428571428C3.1331250000000006 10.7125 3.710625 11.154464285714285 4.688839285714287 11.154464285714285ZM4.688839285714287 8.850357142857142C3.989553571428573 8.850357142857142 3.5809821428571436 8.538035714285716 3.5809821428571436 8.043035714285715C3.5809821428571436 7.540178571428573 4.013125 7.229821428571428 4.688839285714287 7.229821428571428C5.372410714285715 7.229821428571428 5.808482142857143 7.538214285714286 5.8084821428571445 8.048928571428572C5.808482142857143 8.536071428571429 5.395982142857143 8.850357142857142 4.688839285714287 8.850357142857142ZM4.688839285714287 10.895178571428572C3.8952678571428576 10.895178571428572 3.433660714285715 10.551428571428572 3.433660714285715 9.993571428571428C3.433660714285715 9.44357142857143 3.8952678571428576 9.097857142857142 4.688839285714287 9.097857142857142C5.482410714285715 9.097857142857142 5.955803571428572 9.443571428571428 5.955803571428572 9.993571428571428C5.955803571428572 10.551428571428572 5.482410714285715 10.895178571428572 4.688839285714287 10.895178571428572Z"/>
  <path fill="#d0d0d0" fill-rule="evenodd" d="M7.045982142857144 11.125H7.988839285714287V8.621304332188197L10.04544642857143 11.125H10.82919642857143V7.0H9.886339285714287V9.50256656919207L7.835625000000002 7.0H7.045982142857144Z"/>
  <path fill="#d0d0d0" fill-rule="evenodd" d="M13.810982142857144 11.195714285714285C14.777410714285713 11.195714285714285 15.549375 10.697767857142859 15.891160714285714 9.914017857142857C16.12047847985348 9.388168498168499 16.117575723327306 8.722367766726943 15.891160714285714 8.210982142857143C15.549375000000001 7.439017857142857 14.78330357142857 6.929285714285714 13.805089285714287 6.929285714285714C12.516517857142855 6.929285714285714 11.548125 7.836785714285716 11.548125 9.0625C11.548125 10.288214285714286 12.506696428571429 11.195714285714285 13.810982142857144 11.195714285714285ZM13.805089285714287 10.3825C13.62044642857143 10.3825 13.449553571428572 10.351071428571428 13.292410714285715 10.288214285714286C12.820982142857144 10.099642857142857 12.514553571428571 9.64 12.514553571428571 9.0625C12.514553571428571 8.276785714285719 13.066517857142854 7.7425 13.805089285714287 7.7425C14.54366071428571 7.7425 15.095625000000002 8.276785714285715 15.095625000000002 9.0625C15.095625000000002 9.848214285714288 14.54366071428571 10.3825 13.805089285714287 10.3825Z"/>
  <path fill="#d0d0d0" fill-rule="evenodd" d="M17.63544642857143 11.125H18.590089285714285V7.777857142857142H19.910089285714285V7.0H16.31544642857143V7.777857142857142H17.63544642857143Z"/>
  <path fill="#d0d0d0" fill-rule="evenodd" d="M20.42276785714286 11.125H23.61669642857143V10.35892857142857H21.37151785714286V9.404285714285715H23.286696428571428V8.661785714285713H21.37151785714286V7.766071428571428H23.540089285714288V7.0H20.42276785714286Z"/>
  <path fill="#d0d0d0" fill-rule="evenodd" d="M25.732232142857143 11.195714285714285C26.91080357142857 11.195714285714285 27.482410714285717 10.612321428571429 27.482410714285717 9.916964285714286C27.482410714285717 9.48482142857143 27.28794642857143 9.211785714285714 27.005089285714288 9.03892857142857C26.297946428571425 8.606785714285714 25.084017857142857 8.69714285714286 25.084017857142857 8.166785714285714C25.084017857142857 8.076428571428572 25.109553571428574 7.996875 25.160625 7.928125C25.262767857142858 7.790625 25.498482142857142 7.695357142857143 25.86776785714286 7.695357142857143C26.23705357142857 7.695357142857143 26.625982142857143 7.799464285714286 27.010982142857145 8.019464285714285L27.305625000000003 7.294642857142857C26.920625 7.051071428571428 26.392232142857143 6.929285714285714 25.873660714285716 6.929285714285714C24.706875 6.929285714285714 24.135267857142857 7.506785714285715 24.135267857142857 8.213928571428571C24.135267857142857 8.873928571428571 24.568392857142857 9.145 25.08107142857143 9.31C25.76464285714286 9.530000000000001 26.533660714285716 9.547678571428571 26.533660714285716 9.987678571428571C26.533660714285716 10.246964285714286 26.303839285714286 10.429642857142857 25.738125 10.429642857142857C25.243125000000003 10.429642857142857 24.73044642857143 10.250892857142857 24.376875000000002 9.999464285714286L24.052767857142857 10.718392857142858C24.422053571428574 11.00125 25.072232142857143 11.195714285714285 25.732232142857143 11.195714285714285Z"/>
  </g>

  <!-- GATE input label — jack at (15.24, 30) -->
  <g transform="translate(9.74, 0)">
  <path fill="#d0d0d0" fill-rule="evenodd" d="M2.6657142857142855 37.034285714285716C2.9514285714285706 37.034285714285716 3.2571428571428567 36.94380952380953 3.474285714285714 36.78V35.96857142857143H3.051428571428571V36.555096762520925C2.935837028865626 36.61531263835249 2.8158370288656265 36.64 2.6914285714285713 36.64C2.310476190476189 36.64 2.0428571428571423 36.373333333333335 2.0428571428571427 36.0C2.0428571428571423 35.61904761904762 2.3085714285714274 35.36 2.6971428571428566 35.36C2.899047619047619 35.36 3.069523809523809 35.43333333333334 3.214285714285714 35.58571428571429L3.511428571428571 35.31142857142857C3.3171428571428567 35.086666666666666 3.0285714285714276 34.965714285714284 2.6742857142857144 34.965714285714284C2.0342857142857125 34.965714285714284 1.574285714285714 35.39809523809524 1.574285714285714 36.0C1.574285714285714 36.60190476190476 2.0333333333333323 37.034285714285716 2.6657142857142855 37.034285714285716Z"/>
  <path fill="#d0d0d0" fill-rule="evenodd" d="M3.6399999999999997 37.0H4.114285714285714L4.292510397774833 36.57142857142857H5.219611642020089L5.397142857142857 37.0H5.882857142857143L4.988571428571428 35.0H4.531428571428571ZM4.438654654366629 36.22 4.756964634486607 35.45456976754325 5.074036058698382 36.22Z"/>
  <path fill="#d0d0d0" fill-rule="evenodd" d="M6.505714285714285 37.0H6.968571428571428V35.37714285714286H7.6085714285714285V35.0H5.865714285714286V35.37714285714286H6.505714285714285Z"/>
  <path fill="#d0d0d0" fill-rule="evenodd" d="M7.857142857142858 37.0H9.405714285714286V36.628571428571426H8.317142857142857V36.16571428571429H9.245714285714286V35.80571428571429H8.317142857142857V35.371428571428574H9.368571428571428V35.0H7.857142857142858Z"/>
  </g>

  <!-- TRN input label — jack at (15.24, 50) -->
  <g transform="translate(9.74, 0)">
  <path fill="#d0d0d0" fill-rule="evenodd" d="M3.064285714285714 57.0H3.527142857142857V55.37714285714286H4.167142857142857V55.0H2.4242857142857144V55.37714285714286H3.064285714285714Z"/>
  <path fill="#d0d0d0" fill-rule="evenodd" d="M4.415714285714286 57.0H4.878571428571429V56.44285714285714H5.281428571428572C5.288712765714286 56.44285714285714 5.295959128994538 56.44280722694716 5.303168007986886 56.44268792288644L5.687142857142858 57.0H6.187142857142858L5.739968959263393 56.35829282488142C6.000646475444068 56.24558558371258 6.15 56.02491961142857 6.15 55.72571428571428C6.15 55.272380952380956 5.826190476190476 55.0 5.2700000000000005 55.0H4.415714285714286ZM5.255714285714286 55.37714285714286C5.541428571428572 55.37714285714286 5.6814285714285715 55.50476190476191 5.6814285714285715 55.72571428571428C5.6814285714285715 55.94285714285714 5.541428571428572 56.074285714285715 5.255714285714286 56.074285714285715H4.878571428571429V55.37714285714286Z"/>
  <path fill="#d0d0d0" fill-rule="evenodd" d="M6.515714285714286 57.0H6.972857142857142V55.78608694893973L7.97 57.0H8.35V55.0H7.892857142857142V56.21336560930524L6.898571428571429 55.0H6.515714285714286Z"/>
  </g>

  <!-- V/OCT output badge — jack at (15.24, 74) -->
  <rect x="9.74" y="78.25" width="11" height="3.5" rx="1.0" fill="#d0d0d0"/>
  <g transform="translate(9.74, 0)">
  <path fill="#1e1e1e" fill-rule="evenodd" d="M1.588571428571429 81.0H2.0457142857142863L2.911428571428572 79.0H2.451428571428572L1.8339634704589847 80.42846400669643L1.225714285714286 79.0H0.7257142857142861Z"/>
  <path fill="#1e1e1e" fill-rule="evenodd" d="M2.7885714285714287 81.28571428571429H3.185714285714286L4.128571428571429 78.59428571428572H3.7314285714285713Z"/>
  <path fill="#1e1e1e" fill-rule="evenodd" d="M5.211428571428572 81.03428571428572C5.68 81.03428571428572 6.054285714285714 80.79285714285714 6.220000000000001 80.41285714285715C6.331184371184372 80.15789987789988 6.329776974080772 79.83508740204942 6.220000000000001 79.58714285714285C6.054285714285715 79.21285714285715 5.682857142857142 78.96571428571428 5.208571428571429 78.96571428571428C4.583809523809523 78.96571428571428 4.114285714285715 79.40571428571428 4.114285714285715 80.0C4.114285714285715 80.59428571428572 4.5790476190476195 81.03428571428572 5.211428571428572 81.03428571428572ZM5.208571428571429 80.64C5.1190476190476195 80.64 5.036190476190477 80.62476190476191 4.960000000000001 80.59428571428572C4.731428571428572 80.50285714285714 4.582857142857144 80.28 4.582857142857144 80.0C4.582857142857144 79.61904761904762 4.85047619047619 79.36 5.208571428571429 79.36C5.5666666666666655 79.36 5.8342857142857145 79.61904761904762 5.8342857142857145 80.0C5.8342857142857145 80.38095238095238 5.566666666666665 80.64 5.208571428571429 80.64Z"/>
  <path fill="#1e1e1e" fill-rule="evenodd" d="M7.6085714285714285 81.03428571428572C7.959047619047619 81.03428571428572 8.243809523809524 80.9095238095238 8.434285714285714 80.67714285714285L8.137142857142857 80.40285714285714C8.0 80.56285714285714 7.832380952380952 80.64 7.634285714285714 80.64C7.26095238095238 80.64 6.994285714285715 80.38095238095238 6.994285714285715 80.0C6.994285714285715 79.61904761904762 7.2609523809523795 79.36 7.634285714285714 79.36C7.832380952380952 79.36 8.0 79.43809523809524 8.137142857142857 79.59428571428572L8.434285714285714 79.32C8.243809523809524 79.08761904761904 7.958095238095238 78.96571428571428 7.611428571428572 78.96571428571428C6.986666666666666 78.96571428571428 6.525714285714286 79.39809523809524 6.525714285714286 80.0C6.525714285714286 80.60190476190476 6.991428571428571 81.03428571428572 7.6085714285714285 81.03428571428572Z"/>
  <path fill="#1e1e1e" fill-rule="evenodd" d="M9.134285714285713 81.0H9.597142857142856V79.37714285714286H10.237142857142857V79.0H8.494285714285713V79.37714285714286H9.134285714285713Z"/>
  </g>

  <!-- GATE output badge — jack at (15.24, 96) -->
  <rect x="9.74" y="100.25" width="11" height="3.5" rx="1.0" fill="#d0d0d0"/>
  <g transform="translate(9.74, 0)">
  <path fill="#1e1e1e" fill-rule="evenodd" d="M2.6657142857142855 103.03428571428572C2.9514285714285706 103.03428571428572 3.2571428571428567 102.94380952380952 3.474285714285714 102.78V101.96857142857142H3.051428571428571V102.55509676252093C2.935837028865626 102.61531263835249 2.8158370288656265 102.64 2.6914285714285713 102.64C2.310476190476189 102.64 2.0428571428571423 102.37333333333333 2.0428571428571427 102.0C2.0428571428571423 101.61904761904762 2.3085714285714274 101.36 2.6971428571428566 101.36C2.899047619047619 101.36 3.069523809523809 101.43333333333334 3.214285714285714 101.58571428571429L3.511428571428571 101.31142857142856C3.3171428571428567 101.08666666666667 3.0285714285714276 100.96571428571428 2.6742857142857144 100.96571428571428C2.0342857142857125 100.96571428571428 1.574285714285714 101.39809523809524 1.574285714285714 102.0C1.574285714285714 102.60190476190476 2.0333333333333323 103.03428571428572 2.6657142857142855 103.03428571428572Z"/>
  <path fill="#1e1e1e" fill-rule="evenodd" d="M3.6399999999999997 103.0H4.114285714285714L4.292510397774833 102.57142857142857H5.219611642020089L5.397142857142857 103.0H5.882857142857143L4.988571428571428 101.0H4.531428571428571ZM4.438654654366629 102.22 4.756964634486607 101.45456976754325 5.074036058698382 102.22Z"/>
  <path fill="#1e1e1e" fill-rule="evenodd" d="M6.505714285714285 103.0H6.968571428571428V101.37714285714286H7.6085714285714285V101.0H5.865714285714286V101.37714285714286H6.505714285714285Z"/>
  <path fill="#1e1e1e" fill-rule="evenodd" d="M7.857142857142858 103.0H9.405714285714286V102.62857142857143H8.317142857142857V102.16571428571429H9.245714285714286V101.80571428571429H8.317142857142857V101.37142857142857H9.368571428571428V101.0H7.857142857142858Z"/>
  </g>

  <!-- domino logo centered above bottom bar -->
  <g transform="translate(10.55,118.0) scale(0.75)">
    <rect x="0" y="0" width="12.5" height="5.5"
          rx="1.18" ry="1.2"
          fill="none" stroke="#d0d0d0" stroke-width="0.5"/>
    <rect x="6.125" y="0.5" width="0.25" height="4.5"
          fill="#d0d0d0"/>
    <circle cx="2.07"  cy="1.46" r="0.625" fill="#d0d0d0"/>
    <circle cx="4.19"  cy="4.11" r="0.625" fill="#d0d0d0"/>
    <circle cx="8.20"  cy="1.46" r="0.625" fill="#d0d0d0"/>
    <circle cx="10.32" cy="4.11" r="0.625" fill="#d0d0d0"/>
  </g>

</svg>
