<?xml version="1.0" encoding="UTF-8"?>
<svg xmlns="http://www.w3.org/2000/svg"
     width="50.8mm" height="128.5mm"
     viewBox="0 0 50.8 128.5">

  <rect width="50.8" height="128.5" fill="#1e1e1e"/>

  <!-- top accent trapezoid (companion blue) -->
  <polygon points="
    0,0 50.8,0 50.8,0.5
    40.64,0.5 38.16,2.0 12.64,2.0 10.16,0.5
    0,0.5
  " fill="#22aff2"/>
  <rect x="0" y="127.5" width="50.8" height="1.0" fill="#22aff2"/>

  <!-- title: 64 (Light) + OBJECTS (Bold), cap-top y=7, baseline y=11.125 -->
<g id="title">
  <path fill="#d0d0d0" fill-rule="evenodd" d="M9.533482142857139 11.154464285714285C10.323124999999994 11.154464285714285 10.906517857142852 10.665357142857145 10.906517857142852 9.911071428571429C10.906517857142852 9.168571428571429 10.35258928571428 8.685357142857143 9.527589285714281 8.685357142857143C8.903931007142852 8.685357142857143 8.385695108028223 8.992457117796517 8.215428504943842 9.534127110072545C8.185503509652811 9.34561871007967 8.178124999999996 9.162759602142858 8.178124999999996 9.03892857142857C8.178124999999996 7.836785714285714 8.783124999999995 7.235714285714286 9.710267857142853 7.235714285714286C10.024553571428566 7.235714285714286 10.311339285714281 7.290714285714286 10.523482142857139 7.424285714285714L10.647232142857138 7.182678571428571C10.395803571428566 7.025535714285715 10.06383928571428 6.970535714285714 9.710267857142853 6.970535714285714C8.614196428571423 6.970535714285714 7.877589285714281 7.68357142857143 7.877589285714281 9.08607142857143C7.877589285714281 10.370714285714286 8.449196428571423 11.154464285714285 9.533482142857139 11.154464285714285ZM9.521696428571424 10.895178571428572C8.755624999999995 10.895178571428572 8.343124999999995 10.411964285714285 8.343124999999995 9.92875C8.343124999999995 9.37482142857143 8.814553571428565 8.944642857142856 9.486339285714282 8.944642857142856C10.185624999999995 8.944642857142856 10.605982142857139 9.32767857142857 10.605982142857139 9.916964285714286C10.605982142857139 10.506250000000001 10.169910714285708 10.895178571428572 9.521696428571424 10.895178571428572Z"/>
  <path fill="#d0d0d0" fill-rule="evenodd" d="M11.354374999999996 9.981785714285714H13.705624999999994V11.125H14.000267857142852V9.981785714285714H14.866517857142853V9.716607142857143H14.000267857142852V8.708928571428572H13.711517857142852V9.716607142857143H11.734256980078555L13.929553571428567 7.0H13.59366071428571L11.354374999999996 9.76375Z"/>
  <path fill="#d0d0d0" fill-rule="evenodd" d="M17.44758928571428 11.195714285714285C18.41401785714285 11.195714285714285 19.185982142857135 10.697767857142859 19.52776785714285 9.914017857142857C19.75708562271062 9.388168498168499 19.754182866184443 8.722367766726943 19.52776785714285 8.210982142857143C19.18598214285714 7.439017857142857 18.419910714285706 6.929285714285714 17.441696428571426 6.929285714285714C16.153124999999992 6.929285714285714 15.184732142857138 7.836785714285716 15.184732142857138 9.0625C15.184732142857138 10.288214285714286 16.143303571428568 11.195714285714285 17.44758928571428 11.195714285714285ZM17.441696428571426 10.3825C17.257053571428568 10.3825 17.08616071428571 10.351071428571428 16.929017857142853 10.288214285714286C16.45758928571428 10.099642857142857 16.15116071428571 9.64 16.15116071428571 9.0625C16.15116071428571 8.276785714285719 16.703124999999993 7.7425 17.441696428571426 7.7425C18.180267857142848 7.7425 18.73223214285714 8.276785714285715 18.73223214285714 9.0625C18.73223214285714 9.848214285714288 18.180267857142848 10.3825 17.441696428571426 10.3825Z"/>
  <path fill="#d0d0d0" fill-rule="evenodd" d="M20.417589285714282 11.125H22.550803571428567C23.63508928571428 11.125 24.200803571428565 10.706607142857143 24.200803571428565 9.999464285714286C24.200803571428565 9.476299245357144 23.910591946493625 9.12788529098233 23.452793179920736 8.976933171408517C23.787809872081333 8.800715164873194 23.99455357142857 8.484134869642858 23.99455357142857 8.0725C23.99455357142857 7.4282142857142865 23.47008928571428 7.0 22.432946428571423 7.0H20.417589285714282ZM22.315089285714283 7.718928571428571C22.77866071428571 7.718928571428571 23.034017857142853 7.880000000000001 23.034017857142853 8.202142857142857C23.034017857142853 8.532142857142858 22.77866071428571 8.69125 22.315089285714283 8.69125H21.366339285714282V7.718928571428571ZM21.366339285714282 10.406071428571428V9.386607142857143H22.480089285714282C22.97508928571428 9.386607142857143 23.234374999999996 9.553571428571429 23.234374999999996 9.899285714285714C23.234374999999996 10.252857142857144 22.97508928571428 10.406071428571428 22.480089285714282 10.406071428571428Z"/>
  <path fill="#d0d0d0" fill-rule="evenodd" d="M25.68580357142857 11.195714285714285C26.66008928571428 11.195714285714285 27.170803571428568 10.696785714285715 27.170803571428568 9.675357142857143V7.0H24.77241071428571V7.766071428571428H26.222053571428567V9.728392857142858C26.222053571428567 10.184107142857142 26.02758928571428 10.411964285714285 25.63866071428571 10.411964285714285C25.347946428571426 10.411964285714285 25.100446428571423 10.256785714285714 24.87258928571428 9.958214285714286L24.34223214285714 10.594642857142857C24.640803571428567 10.979642857142856 25.127946428571423 11.195714285714285 25.68580357142857 11.195714285714285Z"/>
  <path fill="#d0d0d0" fill-rule="evenodd" d="M28.11366071428571 11.125H31.307589285714283V10.35892857142857H29.06241071428571V9.404285714285715H30.97758928571428V8.661785714285713H29.06241071428571V7.766071428571428H31.23098214285714V7.0H28.11366071428571Z"/>
  <path fill="#d0d0d0" fill-rule="evenodd" d="M34.041875 11.195714285714285C34.76473214285714 11.195714285714285 35.35205357142857 10.938392857142857 35.74491071428571 10.459107142857142L35.13205357142857 9.893392857142857C34.849196428571425 10.223392857142859 34.50348214285714 10.3825 34.09491071428571 10.3825C33.32491071428571 10.3825 32.77491071428571 9.848214285714286 32.77491071428571 9.0625C32.77491071428571 8.276785714285719 33.32491071428571 7.7425 34.09491071428571 7.7425C34.50348214285714 7.7425 34.849196428571425 7.903571428571429 35.13205357142857 8.225714285714286L35.74491071428571 7.66C35.35205357142857 7.180714285714286 34.762767857142855 6.929285714285714 34.04776785714285 6.929285714285714C32.75919642857142 6.929285714285714 31.80848214285714 7.821071428571431 31.80848214285714 9.0625C31.80848214285714 10.303928571428571 32.769017857142856 11.195714285714285 34.041875 11.195714285714285Z"/>
  <path fill="#d0d0d0" fill-rule="evenodd" d="M37.18866071428571 11.125H38.14330357142857V7.777857142857142H39.46330357142857V7.0H35.86866071428571V7.777857142857142H37.18866071428571Z"/>
  <path fill="#d0d0d0" fill-rule="evenodd" d="M41.331339285714286 11.195714285714285C42.50991071428571 11.195714285714285 43.081517857142856 10.612321428571429 43.081517857142856 9.916964285714286C43.081517857142856 9.48482142857143 42.88705357142857 9.211785714285714 42.60419642857143 9.03892857142857C41.897053571428565 8.606785714285714 40.683125 8.69714285714286 40.683125 8.166785714285714C40.683125 8.076428571428572 40.70866071428571 7.996875 40.75973214285714 7.928125C40.861875 7.790625 41.097589285714285 7.695357142857143 41.466874999999995 7.695357142857143C41.83616071428571 7.695357142857143 42.22508928571428 7.799464285714286 42.61008928571428 8.019464285714285L42.90473214285714 7.294642857142857C42.51973214285714 7.051071428571428 41.99133928571428 6.929285714285714 41.472767857142856 6.929285714285714C40.30598214285714 6.929285714285714 39.734375 7.506785714285715 39.734375 8.213928571428571C39.734375 8.873928571428571 40.1675 9.145 40.68017857142857 9.31C41.363749999999996 9.530000000000001 42.13276785714285 9.547678571428571 42.13276785714285 9.987678571428571C42.13276785714285 10.246964285714286 41.902946428571425 10.429642857142857 41.33723214285714 10.429642857142857C40.84223214285714 10.429642857142857 40.32955357142857 10.250892857142857 39.97598214285714 9.999464285714286L39.651875 10.718392857142858C40.02116071428571 11.00125 40.67133928571428 11.195714285714285 41.331339285714286 11.195714285714285Z"/>
</g>
  <!-- 1-2 input label - jack at y=30 -->
  <path fill="#d0d0d0" fill-rule="evenodd" d="M13.705714285714286 37.0H14.168571428571429V35.0H13.305714285714286V35.371428571428574H13.705714285714286Z"/>
  <path fill="#d0d0d0" fill-rule="evenodd" d="M14.554285714285715 36.37428571428571H15.362857142857143V36.01714285714286H14.554285714285715Z"/>
  <path fill="#d0d0d0" fill-rule="evenodd" d="M15.602857142857143 37.0H17.114285714285714V36.62285714285714H16.253243059430805L16.714285714285715 36.18857142857143C16.994285714285713 35.925714285714285 17.048571428571428 35.75142857142857 17.048571428571428 35.55714285714286C17.048571428571428 35.191428571428574 16.751428571428573 34.965714285714284 16.305714285714288 34.965714285714284C15.947619047619048 34.965714285714284 15.663809523809524 35.10857142857143 15.511428571428572 35.33714285714286L15.848571428571429 35.55428571428571C15.947619047619048 35.417142857142856 16.095238095238095 35.354285714285716 16.262857142857143 35.354285714285716C16.472380952380952 35.354285714285716 16.582857142857144 35.44285714285714 16.582857142857144 35.60285714285714C16.582857142857144 35.69428571428571 16.557142857142857 35.80571428571429 16.374285714285715 35.971428571428575L15.602857142857143 36.7Z"/>
  <!-- 3-4 input label - jack at y=44 -->
  <path fill="#d0d0d0" fill-rule="evenodd" d="M13.618571428571428 51.034285714285716C14.19 51.034285714285716 14.447142857142858 50.72571428571429 14.447142857142858 50.38857142857143C14.447142857142858 50.09358998857143 14.26302870349344 49.872392123254905 13.905362178257533 49.813029981340684L14.355714285714285 49.3V49.0H12.955714285714286V49.371428571428574H13.806638663155692L13.395714285714286 49.83714285714286V50.142857142857146H13.607142857142858C13.87 50.142857142857146 13.981428571428571 50.23619047619048 13.981428571428571 50.38857142857143C13.981428571428571 50.54857142857143 13.83952380952381 50.645714285714284 13.607142857142858 50.645714285714284C13.401428571428571 50.645714285714284 13.188095238095238 50.576190476190476 13.035714285714286 50.465714285714284L12.855714285714285 50.82C13.046190476190477 50.957142857142856 13.34047619047619 51.034285714285716 13.618571428571428 51.034285714285716Z"/>
  <path fill="#d0d0d0" fill-rule="evenodd" d="M14.69857142857143 50.37428571428571H15.507142857142858V50.01714285714286H14.69857142857143Z"/>
  <path fill="#d0d0d0" fill-rule="evenodd" d="M15.741428571428573 50.58H16.81857142857143V51.0H17.27V50.58H17.595714285714287V50.20285714285714H17.27V49.82857142857143H16.832857142857144V50.20285714285714H16.29494851248605L17.17 49.0H16.684285714285714L15.741428571428573 50.26857142857143Z"/>
  <!-- 5-6 input label - jack at y=58 -->
  <path fill="#d0d0d0" fill-rule="evenodd" d="M13.72 65.03428571428572C14.291428571428572 65.03428571428572 14.551428571428572 64.72571428571429 14.551428571428572 64.37142857142857C14.551428571428572 64.01714285714286 14.32 63.75142857142857 13.725714285714286 63.75142857142857H13.56166752406529L13.595475333077568 63.371428571428574H14.428571428571429V63.0H13.208571428571428L13.105714285714287 64.12571428571428H13.617142857142857C13.982857142857142 64.12571428571428 14.082857142857144 64.23142857142857 14.082857142857144 64.38571428571429C14.082857142857144 64.5495238095238 13.94095238095238 64.64571428571429 13.708571428571428 64.64571428571429C13.502857142857144 64.64571428571429 13.292380952380952 64.57619047619048 13.14 64.46571428571428L12.957142857142857 64.82C13.151428571428571 64.95714285714286 13.441904761904762 65.03428571428572 13.72 65.03428571428572Z"/>
  <path fill="#d0d0d0" fill-rule="evenodd" d="M14.777142857142856 64.37428571428572H15.585714285714285V64.01714285714286H14.777142857142856Z"/>
  <path fill="#d0d0d0" fill-rule="evenodd" d="M16.737142857142857 65.03428571428572C16.88 65.03428571428572 17.008095238095237 65.00714285714285 17.12142857142857 64.95285714285714C17.348095238095237 64.84428571428572 17.494285714285713 64.63904761904762 17.494285714285713 64.36857142857143C17.494285714285713 64.24285714285715 17.463333333333335 64.13333333333334 17.40142857142857 64.04C17.277619047619048 63.85333333333333 17.064761904761905 63.745714285714286 16.805714285714284 63.745714285714286C16.598455428571427 63.745714285714286 16.43028674424496 63.80735648130936 16.31211441040039 63.9263359941755L16.3128866141183 63.908365849086216C16.332289519782048 63.53465125920887 16.54410790095238 63.34285714285714 16.874285714285715 63.34285714285714C17.01142857142857 63.34285714285714 17.138095238095236 63.36666666666667 17.248571428571427 63.44285714285714L17.42 63.10285714285714C17.279047619047617 63.011428571428574 17.076190476190476 62.965714285714284 16.86285714285714 62.965714285714284C16.262857142857143 62.965714285714284 15.842857142857143 63.35142857142857 15.842857142857143 64.04285714285714C15.842857142857143 64.68857142857144 16.18857142857143 65.03428571428572 16.737142857142857 65.03428571428572ZM16.71142857142857 64.68857142857142C16.48857142857143 64.68857142857144 16.36 64.56285714285714 16.36 64.39142857142858C16.36 64.21428571428571 16.5 64.09142857142857 16.705714285714286 64.09142857142857C16.911428571428573 64.09142857142857 17.045714285714286 64.20857142857143 17.045714285714286 64.39142857142858C17.045714285714286 64.56857142857143 16.905714285714286 64.68857142857144 16.71142857142857 64.68857142857142Z"/>
  <!-- 7-8 input label - jack at y=72 -->
  <path fill="#d0d0d0" fill-rule="evenodd" d="M13.29142857142857 79.0H13.794285714285714L14.537142857142857 77.3V77.0H12.934285714285714V77.70285714285714H13.345714285714285V77.37714285714286H14.008741607666014Z"/>
  <path fill="#d0d0d0" fill-rule="evenodd" d="M14.780000000000001 78.37428571428572H15.588571428571429V78.01714285714286H14.780000000000001Z"/>
  <path fill="#d0d0d0" fill-rule="evenodd" d="M16.674285714285716 79.03428571428572C17.18285714285714 79.03428571428572 17.52 78.79142857142857 17.52 78.42C17.52 78.20451088571428 17.408444753251416 78.04383771164123 17.214347272600445 77.9469228036063C17.363507420589524 77.8546629478746 17.44857142857143 77.71498268 17.44857142857143 77.53714285714285C17.44857142857143 77.18285714285715 17.13714285714286 76.96571428571428 16.674285714285716 76.96571428571428C16.222857142857144 76.96571428571428 15.905714285714286 77.18285714285715 15.905714285714286 77.53714285714285C15.905714285714286 77.71493312 15.990730889411292 77.8545850933482 16.138976309640068 77.94684751238142C15.945900191933497 78.04375241647963 15.834285714285715 78.20445368571428 15.834285714285715 78.42C15.834285714285715 78.79142857142857 16.17142857142857 79.03428571428572 16.674285714285716 79.03428571428572ZM16.674285714285716 77.80285714285715C16.483809523809523 77.80285714285715 16.365714285714287 77.70952380952382 16.365714285714287 77.55714285714286C16.365714285714287 77.39714285714285 16.49142857142857 77.30571428571429 16.674285714285716 77.30571428571429C16.86095238095238 77.30571428571429 16.98857142857143 77.39714285714285 16.98857142857143 77.55714285714286C16.98857142857143 77.70952380952382 16.86857142857143 77.80285714285715 16.674285714285716 77.80285714285715ZM16.674285714285716 78.69428571428571C16.445714285714285 78.69428571428571 16.302857142857142 78.5847619047619 16.302857142857142 78.40571428571428C16.302857142857142 78.22666666666667 16.445714285714285 78.12 16.674285714285716 78.12C16.906666666666666 78.12 17.051428571428573 78.22666666666667 17.051428571428573 78.40571428571428C17.051428571428573 78.5847619047619 16.906666666666666 78.69428571428571 16.674285714285716 78.69428571428571Z"/>
  <!-- L output badge - jack at y=94 -->
  <rect x="21.5" y="92.25" width="11" height="3.5" rx="1.0" fill="#d0d0d0"/>
  <g transform="translate(21.5, 0)">
  <path fill="#1e1e1e" fill-rule="evenodd" d="M4.8742857142857146 95.0H6.34V94.62285714285714H5.337142857142857V93.0H4.8742857142857146Z"/>
  </g>
  <!-- R output badge - jack at y=106 -->
  <rect x="21.5" y="104.25" width="11" height="3.5" rx="1.0" fill="#d0d0d0"/>
  <g transform="translate(21.5, 0)">
  <path fill="#1e1e1e" fill-rule="evenodd" d="M4.687142857142858 107.0H5.15V106.44285714285714H5.5528571428571425C5.560141337142857 106.44285714285714 5.567387700423109 106.44280722694715 5.5745965794154575 106.44268792288644L5.958571428571429 107.0H6.458571428571428L6.011397530691965 106.35829282488142C6.272075046872639 106.24558558371258 6.421428571428572 106.02491961142857 6.421428571428572 105.72571428571429C6.421428571428572 105.27238095238096 6.097619047619048 105.0 5.541428571428572 105.0H4.687142857142858ZM5.527142857142858 105.37714285714286C5.812857142857143 105.37714285714286 5.952857142857143 105.5047619047619 5.952857142857143 105.72571428571429C5.952857142857143 105.94285714285715 5.812857142857142 106.07428571428571 5.527142857142858 106.07428571428571H5.15V105.37714285714286Z"/>
  </g>

  <!-- domino logo centered above bottom bar -->
  <g transform="translate(20.71,118.0) scale(0.75)">
    <rect x="0" y="0" width="12.5" height="5.5"
          rx="1.18" ry="1.2"
          fill="none" stroke="#d0d0d0" stroke-width="0.5"/>
    <rect x="6.125" y="0.5" width="0.25" height="4.5"
          fill="#d0d0d0"/>
    <circle cx="2.07"  cy="1.46" r="0.625" fill="#d0d0d0"/>
    <circle cx="4.19"  cy="4.11" r="0.625" fill="#d0d0d0"/>
    <circle cx="8.20"  cy="1.46" r="0.625" fill="#d0d0d0"/>
    <circle cx="10.32" cy="4.11" r="0.625" fill="#d0d0d0"/>
  </g>

</svg>
