<?xml version="1.0" encoding="UTF-8"?>
<svg xmlns="http://www.w3.org/2000/svg"
     width="66.04mm" height="128.5mm"
     viewBox="0 0 66.04 128.5">

  <rect width="66.04" height="128.5" fill="#1e1e1e"/>

  <!-- top accent trapezoid (companion blue) -->
  <polygon points="
    0,0 66.04,0 66.04,0.5
    55.88,0.5 53.4,2.0 12.64,2.0 10.16,0.5
    0,0.5
  " fill="#22aff2"/>
  <rect x="0" y="127.5" width="66.04" height="1.0" fill="#22aff2"/>

  <!-- title: 64 (Light) + PADS (Bold), cap-top y=7, baseline y=11.125 -->
<g id="title">
  <path fill="#d0d0d0" fill-rule="evenodd" d="M22.57196428571429 11.154464285714285C23.361607142857146 11.154464285714285 23.945000000000004 10.665357142857145 23.945000000000004 9.911071428571429C23.945000000000004 9.168571428571429 23.391071428571433 8.685357142857143 22.566071428571433 8.685357142857143C21.942413150000004 8.685357142857143 21.424177250885375 8.992457117796517 21.253910647800996 9.534127110072545C21.223985652509963 9.34561871007967 21.216607142857146 9.162759602142858 21.216607142857146 9.03892857142857C21.216607142857146 7.836785714285714 21.821607142857147 7.235714285714286 22.748750000000005 7.235714285714286C23.063035714285718 7.235714285714286 23.34982142857143 7.290714285714286 23.56196428571429 7.424285714285714L23.68571428571429 7.182678571428571C23.434285714285718 7.025535714285715 23.102321428571432 6.970535714285714 22.748750000000005 6.970535714285714C21.652678571428574 6.970535714285714 20.916071428571435 7.68357142857143 20.916071428571435 9.08607142857143C20.916071428571435 10.370714285714286 21.487678571428575 11.154464285714285 22.57196428571429 11.154464285714285ZM22.560178571428576 10.895178571428572C21.794107142857147 10.895178571428572 21.38160714285715 10.411964285714285 21.38160714285715 9.92875C21.38160714285715 9.37482142857143 21.853035714285717 8.944642857142856 22.524821428571432 8.944642857142856C23.224107142857147 8.944642857142856 23.644464285714292 9.32767857142857 23.644464285714292 9.916964285714286C23.644464285714292 10.506250000000001 23.20839285714286 10.895178571428572 22.560178571428576 10.895178571428572Z"/>
  <path fill="#d0d0d0" fill-rule="evenodd" d="M24.392857142857146 9.981785714285714H26.744107142857146V11.125H27.038750000000004V9.981785714285714H27.905000000000005V9.716607142857143H27.038750000000004V8.708928571428572H26.750000000000004V9.716607142857143H24.772739122935707L26.96803571428572 7.0H26.63214285714286L24.392857142857146 9.76375Z"/>
  <path fill="#d0d0d0" fill-rule="evenodd" d="M28.482500000000005 11.125H29.437142857142863V9.987678571428571H30.26803571428572C31.37589285714286 9.987678571428571 32.05946428571429 9.41607142857143 32.05946428571429 8.496785714285714C32.05946428571429 7.565714285714285 31.37589285714286 7.0 30.26803571428572 7.0H28.482500000000005ZM30.215000000000003 7.777857142857142C30.80428571428572 7.777857142857142 31.09303571428572 8.041071428571428 31.09303571428572 8.496785714285714C31.09303571428572 8.944642857142858 30.80428571428572 9.209821428571429 30.215000000000003 9.209821428571429H29.437142857142863V7.777857142857142Z"/>
  <path fill="#d0d0d0" fill-rule="evenodd" d="M32.253928571428574 11.125H33.23214285714286L33.599731266839164 10.241071428571429H35.51187758309501L35.878035714285716 11.125H36.87982142857143L35.035357142857144 7.0H34.0925ZM33.901153796059745 9.51625 34.5576681300572 7.937550145557948 35.21162794249398 9.51625Z"/>
  <path fill="#d0d0d0" fill-rule="evenodd" d="M37.31 11.125H39.183928571428574C40.5275 11.125 41.45857142857143 10.311785714285715 41.45857142857143 9.0625C41.45857142857143 8.642142857142858 41.362321428571434 8.27875 41.16982142857143 7.972321428571428C40.784821428571426 7.359464285714285 40.07964285714286 7.0 39.183928571428574 7.0H37.31ZM38.26464285714286 10.34125V7.7837499999999995H39.136785714285715C39.96178571428572 7.7837499999999995 40.49214285714286 8.272857142857145 40.49214285714286 9.0625C40.49214285714286 9.840357142857144 39.96178571428571 10.34125 39.136785714285715 10.34125Z"/>
  <path fill="#d0d0d0" fill-rule="evenodd" d="M43.53285714285715 11.195714285714285C44.71142857142857 11.195714285714285 45.28303571428572 10.612321428571429 45.28303571428572 9.916964285714286C45.28303571428572 9.48482142857143 45.08857142857143 9.211785714285714 44.80571428571429 9.03892857142857C44.098571428571425 8.606785714285714 42.88464285714286 8.69714285714286 42.88464285714286 8.166785714285714C42.88464285714286 8.076428571428572 42.910178571428574 7.996875 42.96125 7.928125C43.06339285714286 7.790625 43.299107142857146 7.695357142857143 43.668392857142855 7.695357142857143C44.03767857142857 7.695357142857143 44.426607142857144 7.799464285714286 44.81160714285714 8.019464285714285L45.10625 7.294642857142857C44.72125 7.051071428571428 44.19285714285714 6.929285714285714 43.674285714285716 6.929285714285714C42.5075 6.929285714285714 41.93589285714286 7.506785714285715 41.93589285714286 8.213928571428571C41.93589285714286 8.873928571428571 42.36901785714286 9.145 42.88169642857143 9.31C43.56526785714286 9.530000000000001 44.33428571428571 9.547678571428571 44.33428571428571 9.987678571428571C44.33428571428571 10.246964285714286 44.104464285714286 10.429642857142857 43.53875 10.429642857142857C43.04375 10.429642857142857 42.53107142857143 10.250892857142857 42.1775 9.999464285714286L41.85339285714286 10.718392857142858C42.222678571428574 11.00125 42.87285714285714 11.195714285714285 43.53285714285715 11.195714285714285Z"/>
</g>

  <!-- domino logo centered above bottom bar -->
  <g transform="translate(28.33,118.0) scale(0.75)">
    <rect x="0" y="0" width="12.5" height="5.5"
          rx="1.18" ry="1.2"
          fill="none" stroke="#d0d0d0" stroke-width="0.5"/>
    <rect x="6.125" y="0.5" width="0.25" height="4.5"
          fill="#d0d0d0"/>
    <circle cx="2.07"  cy="1.46" r="0.625" fill="#d0d0d0"/>
    <circle cx="4.19"  cy="4.11" r="0.625" fill="#d0d0d0"/>
    <circle cx="8.20"  cy="1.46" r="0.625" fill="#d0d0d0"/>
    <circle cx="10.32" cy="4.11" r="0.625" fill="#d0d0d0"/>
  </g>

</svg>
