<?xml version="1.0" encoding="UTF-8"?>
<svg xmlns="http://www.w3.org/2000/svg"
     width="20.32mm" height="128.5mm"
     viewBox="0 0 20.32 128.5">
  <!-- generated by tools/gen_panel.py; edit the spec, not this file -->
  <rect width="20.32" height="128.5" fill="#1e1e1e"/>
  <polygon points="0,0 20.32,0 20.32,0.5 12.70,0.5 10.22,2.0 10.10,2.0 7.62,0.5 0,0.5" fill="#f26522"/>
  <rect x="0" y="127.5" width="20.32" height="1.0" fill="#f26522"/>
  <g id="title">
  <path fill="#d0d0d0" fill-rule="evenodd" d="M1.4266442199775533 10.598204264870931H2.259371492704826V9.595847362514029H3.0252749719416387L3.7192143658810326 10.598204264870931H4.613625140291807L3.811739618406285 9.441638608305276C4.277792742237186 9.236026936026935 4.546801346801347 8.840224466891133 4.546801346801347 8.305634118967452C4.546801346801347 7.496894874672652 3.9642349420127205 7.0 2.963591470258137 7.0H1.4266442199775533ZM2.259371492704826 8.932749719416385V7.678518518518518H2.9378900112233444C3.4450654695099137 7.678518518518518 3.7037934904601575 7.90811821922933 3.7037934904601575 8.305634118967452C3.7037934904601575 8.696296296296296 3.4450654695099128 8.932749719416385 2.9378900112233444 8.932749719416385Z"/>
  <path fill="#d0d0d0" fill-rule="evenodd" d="M5.95010101010101 10.598204264870931H6.782828282828283V7.678518518518518H7.934253647586981V7.0H4.798675645342312V7.678518518518518H5.95010101010101Z"/>
  <path fill="#d0d0d0" fill-rule="evenodd" d="M8.38145903479237 10.598204264870931H9.162783389450057V8.48040404040404L10.216543209876544 10.217822671156004H10.591784511784512L11.65068462401796 8.444421997755331L11.655824915824917 10.598204264870931H12.437149270482605L12.426868686868687 7.0H11.743209876543212L10.417014590347925 9.236026936026935L9.070258136924805 7.0H8.38145903479237Z"/>
  <path fill="#d0d0d0" fill-rule="evenodd" d="M14.590931537598205 10.623905723905724C15.279730639730637 10.623905723905724 15.78861952861953 10.197261503928171 15.78861952861953 9.539304152637486C15.78861952861953 8.891627384960717 15.305432098765431 8.470123456790123 14.585791245791246 8.470123456790123C14.037493453049008 8.470123456790123 13.588574635241303 8.737418630751964 13.444646464646464 9.210325476992143C13.417231575009353 9.045836139169472 13.408664421997756 8.88820052375608 13.408664421997756 8.778540965207632C13.408664421997756 7.7299214365881035 13.936401047512158 7.205611672278339 14.745140291806958 7.205611672278339C15.019289188178076 7.205611672278339 15.269450056116723 7.253587729143286 15.454500561167228 7.37010101010101L15.562446689113356 7.159349046015713C15.34312757201646 7.0291283202394315 15.053557800224466 6.974298540965208 14.745140291806958 6.974298540965208C13.789046015712682 6.974298540965208 13.146509539842873 7.596273849607183 13.146509539842873 8.819663299663299C13.146509539842873 9.943673774784886 13.645117845117845 10.623905723905724 14.590931537598205 10.623905723905724ZM14.580650953984287 10.39773288439955C13.912413019079684 10.39773288439955 13.552592592592593 9.976228956228956 13.552592592592593 9.55472502805836C13.552592592592593 9.071537598204266 13.96381593714927 8.696296296296296 14.549809203142537 8.696296296296296C15.152936775158997 8.696296296296296 15.526464646464646 9.030415263748598 15.526464646464646 9.544444444444444C15.526464646464646 10.06532734754957 15.14265619154508 10.39773288439955 14.580650953984287 10.39773288439955Z"/>
  <path fill="#d0d0d0" fill-rule="evenodd" d="M16.179281705948373 9.600987654320987H18.230258136924803V10.598204264870931H18.487272727272728V9.600987654320987H19.242895622895624V9.369674523007856H18.487272727272728V8.490684624017957H18.235398428731763V9.369674523007856H16.513400673400675L18.425589225589224 7.0H18.132592592592594L16.179281705948373 9.410796857463524Z"/>
  </g>
  <!-- 1–2: out jack at (10.16, 27) -->
  <rect x="4.66" y="32.25" width="11" height="3.5" rx="1" fill="#d0d0d0"/>
  <path fill="#1e1e1e" fill-rule="evenodd" d="M8.462857142857143 35.0H8.925714285714285V33.0H8.062857142857142V33.371428571428574H8.462857142857143Z"/>
  <path fill="#1e1e1e" fill-rule="evenodd" d="M9.162857142857142 34.33428571428571H10.59142857142857V34.05714285714286H9.162857142857142Z"/>
  <path fill="#1e1e1e" fill-rule="evenodd" d="M10.685714285714285 35.0H12.197142857142856V34.62285714285714H11.337142857142856L11.797142857142857 34.18857142857143C12.077142857142857 33.93142857142857 12.131428571428572 33.75142857142857 12.131428571428572 33.55714285714286C12.131428571428572 33.191428571428574 11.834285714285715 32.965714285714284 11.388571428571428 32.965714285714284C11.026666666666666 32.965714285714284 10.75047619047619 33.10857142857143 10.594285714285714 33.33714285714286L10.93142857142857 33.55428571428571C11.026666666666666 33.417142857142856 11.174285714285713 33.354285714285716 11.345714285714285 33.354285714285716C11.555238095238094 33.354285714285716 11.665714285714285 33.446666666666665 11.665714285714285 33.60285714285714C11.665714285714285 33.698095238095235 11.636190476190475 33.80380952380953 11.457142857142856 33.971428571428575L10.685714285714285 34.7Z"/>
  <!-- 3–4: out jack at (10.16, 41) -->
  <rect x="4.66" y="46.25" width="11" height="3.5" rx="1" fill="#d0d0d0"/>
  <path fill="#1e1e1e" fill-rule="evenodd" d="M8.375714285714286 49.034285714285716C8.94142857142857 49.034285714285716 9.204285714285714 48.72571428571429 9.204285714285714 48.38857142857143C9.204285714285714 48.09142857142857 9.01952380952381 47.87238095238095 8.661428571428571 47.81142857142857L9.112857142857143 47.3V47.0H7.712857142857143V47.371428571428574H8.561428571428571L8.152857142857142 47.83714285714286V48.142857142857146H8.364285714285714C8.627142857142857 48.142857142857146 8.73857142857143 48.24 8.73857142857143 48.38857142857143C8.73857142857143 48.55238095238095 8.596666666666666 48.645714285714284 8.364285714285714 48.645714285714284C8.154761904761905 48.645714285714284 7.945238095238095 48.58 7.792857142857143 48.465714285714284L7.612857142857143 48.82C7.807142857142857 48.957142857142856 8.093809523809524 49.034285714285716 8.375714285714286 49.034285714285716Z"/>
  <path fill="#1e1e1e" fill-rule="evenodd" d="M9.307142857142857 48.33428571428571H10.735714285714286V48.05714285714286H9.307142857142857Z"/>
  <path fill="#1e1e1e" fill-rule="evenodd" d="M10.824285714285715 48.58H11.901428571428571V49.0H12.352857142857143V48.58H12.678571428571429V48.20285714285714H12.352857142857143V47.82857142857143H11.915714285714285V48.20285714285714H11.381428571428572L12.252857142857144 47.0H11.767142857142858L10.824285714285715 48.26857142857143Z"/>
  <!-- 5–6: out jack at (10.16, 55) -->
  <rect x="4.66" y="60.25" width="11" height="3.5" rx="1" fill="#d0d0d0"/>
  <path fill="#1e1e1e" fill-rule="evenodd" d="M8.477142857142857 63.034285714285716C9.048571428571428 63.034285714285716 9.30857142857143 62.72571428571429 9.30857142857143 62.371428571428574C9.30857142857143 62.01714285714286 9.071428571428571 61.75142857142857 8.482857142857142 61.75142857142857H8.32L8.351428571428572 61.371428571428574H9.185714285714287V61.0H7.965714285714286L7.862857142857143 62.12571428571429H8.374285714285715C8.734285714285715 62.12571428571429 8.84 62.23142857142857 8.84 62.385714285714286C8.84 62.54952380952381 8.698095238095238 62.645714285714284 8.465714285714286 62.645714285714284C8.26 62.645714285714284 8.04952380952381 62.58 7.897142857142858 62.465714285714284L7.714285714285714 62.82C7.908571428571429 62.957142857142856 8.199047619047619 63.034285714285716 8.477142857142857 63.034285714285716Z"/>
  <path fill="#1e1e1e" fill-rule="evenodd" d="M9.385714285714286 62.33428571428571H10.814285714285715V62.05714285714286H9.385714285714286Z"/>
  <path fill="#1e1e1e" fill-rule="evenodd" d="M11.82 63.034285714285716C12.242857142857144 63.034285714285716 12.577142857142858 62.78 12.577142857142858 62.36857142857143C12.577142857142858 61.99142857142857 12.277142857142858 61.745714285714286 11.88857142857143 61.745714285714286C11.677142857142858 61.745714285714286 11.512380952380953 61.80571428571429 11.394285714285715 61.925714285714285C11.405714285714286 61.54095238095238 11.621904761904762 61.34285714285714 11.957142857142857 61.34285714285714C12.09047619047619 61.34285714285714 12.220952380952381 61.36666666666667 12.331428571428573 61.44285714285714L12.502857142857144 61.10285714285714C12.361904761904762 61.011428571428574 12.15904761904762 60.965714285714284 11.945714285714287 60.965714285714284C11.345714285714285 60.965714285714284 10.925714285714287 61.35142857142857 10.925714285714287 62.042857142857144C10.925714285714287 62.69047619047619 11.267619047619048 63.034285714285716 11.82 63.034285714285716ZM11.794285714285715 62.68857142857143C11.573333333333334 62.68857142857143 11.442857142857143 62.56285714285714 11.442857142857143 62.39142857142857C11.442857142857143 62.21619047619048 11.582857142857144 62.09142857142857 11.78857142857143 62.09142857142857C11.994285714285715 62.09142857142857 12.12857142857143 62.20857142857143 12.12857142857143 62.39142857142857C12.12857142857143 62.574285714285715 11.98857142857143 62.68857142857143 11.794285714285715 62.68857142857143Z"/>
  <!-- 7–8: out jack at (10.16, 69) -->
  <rect x="4.66" y="74.25" width="11" height="3.5" rx="1" fill="#d0d0d0"/>
  <path fill="#1e1e1e" fill-rule="evenodd" d="M8.048571428571428 77.0H8.551428571428572L9.294285714285714 75.3V75.0H7.691428571428572V75.70285714285714H8.102857142857143V75.37714285714286H8.765714285714285Z"/>
  <path fill="#1e1e1e" fill-rule="evenodd" d="M9.388571428571428 76.33428571428571H10.817142857142857V76.05714285714286H9.388571428571428Z"/>
  <path fill="#1e1e1e" fill-rule="evenodd" d="M11.757142857142856 77.03428571428572C12.265714285714283 77.03428571428572 12.602857142857143 76.79714285714286 12.602857142857143 76.42C12.602857142857143 76.20666666666666 12.491428571428571 76.04380952380953 12.297142857142857 75.94857142857143C12.445714285714285 75.85714285714286 12.53142857142857 75.71619047619048 12.53142857142857 75.53714285714285C12.53142857142857 75.18285714285715 12.22 74.96571428571428 11.757142857142856 74.96571428571428C11.299999999999999 74.96571428571428 10.988571428571428 75.18285714285715 10.988571428571428 75.53714285714285C10.988571428571428 75.71619047619048 11.071428571428571 75.85333333333334 11.219999999999999 75.94857142857143C11.029523809523809 76.04380952380953 10.917142857142856 76.20666666666666 10.917142857142856 76.42C10.917142857142856 76.79714285714286 11.254285714285714 77.03428571428572 11.757142857142856 77.03428571428572ZM11.757142857142856 75.80285714285715C11.57047619047619 75.80285714285715 11.448571428571428 75.70952380952382 11.448571428571428 75.55714285714286C11.448571428571428 75.39714285714285 11.570476190476189 75.30571428571429 11.757142857142856 75.30571428571429C11.943809523809524 75.30571428571429 12.071428571428571 75.39714285714285 12.071428571428571 75.55714285714286C12.071428571428571 75.70952380952382 11.95142857142857 75.80285714285715 11.757142857142856 75.80285714285715ZM11.757142857142856 76.69428571428571C11.528571428571428 76.69428571428571 11.385714285714286 76.5847619047619 11.385714285714286 76.40571428571428C11.385714285714286 76.22666666666667 11.528571428571428 76.12 11.757142857142856 76.12C11.989523809523808 76.12 12.134285714285713 76.22666666666667 12.134285714285713 76.40571428571428C12.134285714285713 76.5847619047619 11.989523809523808 76.69428571428571 11.757142857142856 76.69428571428571Z"/>
  <!-- gesture legend -->
  <path fill="#d0d0d0" fill-rule="evenodd" d="M1.6897142857142857 84.75H2.06V84.30885714285715H2.3822857142857146C2.807428571428571 84.30885714285715 3.0771428571428574 84.08714285714285 3.0771428571428574 83.73057142857142C3.0771428571428574 83.36942857142857 2.807428571428571 83.15 2.3822857142857146 83.15H1.6897142857142857ZM2.06 84.00714285714285V83.45171428571429H2.3617142857142857C2.587238095238095 83.45171428571429 2.7022857142857144 83.55380952380952 2.7022857142857144 83.73057142857142C2.7022857142857144 83.90428571428572 2.587238095238095 84.00714285714285 2.3617142857142857 84.00714285714285Z"/>
  <path fill="#d0d0d0" fill-rule="evenodd" d="M3.152571428571429 84.75H3.5320000000000005L3.673714285714286 84.40714285714286H4.416571428571429L4.558285714285715 84.75H4.9468571428571435L4.231428571428571 83.15H3.865714285714286ZM3.790285714285715 84.126 4.046285714285714 83.51571428571428 4.300000000000001 84.126Z"/>
  <path fill="#d0d0d0" fill-rule="evenodd" d="M5.113714285714286 84.75H5.840571428571429C6.361714285714286 84.75 6.722857142857143 84.43457142857143 6.722857142857143 83.95C6.722857142857143 83.46542857142857 6.361714285714286 83.15 5.840571428571429 83.15H5.113714285714286ZM5.484 84.446V83.454H5.822285714285715C6.142285714285714 83.454 6.348000000000001 83.64371428571428 6.348000000000001 83.95C6.348000000000001 84.25628571428571 6.1422857142857135 84.446 5.822285714285715 84.446Z"/>
  <path fill="#d0d0d0" fill-rule="evenodd" d="M8.3 84.75914285714286C8.638285714285713 84.75914285714286 8.889714285714286 84.51457142857143 8.889714285714286 84.15342857142858C8.889714285714286 84.03457142857143 8.863809523809524 83.92942857142857 8.812000000000001 83.838C8.708380952380953 83.65514285714286 8.52552380952381 83.54771428571429 8.3 83.54771428571429C8.083619047619047 83.54771428571429 7.905333333333333 83.65514285714286 7.810857142857143 83.838V83.55685714285714H7.701142857142857V85.19342857142857H7.815428571428572V84.47571428571429C7.909904761904762 84.65552380952381 8.089714285714287 84.75914285714286 8.3 84.75914285714286ZM8.293142857142858 84.65628571428572C8.018857142857144 84.65628571428572 7.813142857142857 84.45514285714286 7.813142857142857 84.15342857142858C7.813142857142857 83.85628571428572 8.018857142857142 83.65057142857142 8.293142857142858 83.65057142857142C8.567428571428572 83.65057142857142 8.775428571428572 83.85628571428572 8.775428571428572 84.15342857142858C8.775428571428572 84.45514285714286 8.567428571428572 84.65628571428572 8.293142857142858 84.65628571428572Z"/>
  <path fill="#d0d0d0" fill-rule="evenodd" d="M9.244 84.75H9.358285714285714V83.054H9.244Z"/>
  <path fill="#d0d0d0" fill-rule="evenodd" d="M10.592571428571429 84.75H10.702285714285715V83.99342857142857C10.702285714285715 83.69780952380952 10.53847619047619 83.54771428571429 10.242857142857142 83.54771428571429C10.05695238095238 83.54771428571429 9.884 83.61019047619048 9.765142857142857 83.71685714285714L9.822285714285714 83.79914285714285C9.919809523809523 83.71076190476191 10.069142857142857 83.64828571428572 10.233714285714285 83.64828571428572C10.469904761904761 83.64828571428572 10.588 83.76180952380952 10.588 83.98885714285714V84.08485714285715H10.178857142857142C9.845142857142855 84.08485714285715 9.733142857142857 84.23571428571428 9.733142857142857 84.41857142857143C9.733142857142857 84.61971428571428 9.894666666666666 84.75914285714286 10.162857142857142 84.75914285714286C10.373142857142856 84.75914285714286 10.519428571428572 84.67457142857143 10.592571428571429 84.53742857142858ZM10.588 84.398C10.52095238095238 84.57171428571428 10.379999999999999 84.66542857142858 10.178857142857142 84.66542857142858C9.968571428571428 84.66542857142858 9.847428571428571 84.56942857142857 9.847428571428571 84.414C9.847428571428571 84.27685714285714 9.934285714285714 84.174 10.181142857142857 84.174H10.588Z"/>
  <path fill="#d0d0d0" fill-rule="evenodd" d="M11.145714285714286 85.20257142857143C11.304190476190476 85.20257142857143 11.423809523809524 85.13171428571428 11.518285714285714 84.91228571428572L12.130857142857142 83.55685714285714H12.014285714285714L11.536571428571428 84.62428571428572L11.058857142857143 83.55685714285714H10.937714285714286L11.477142857142857 84.74542857142858L11.410857142857143 84.88942857142857C11.337714285714286 85.05095238095238 11.257714285714286 85.102 11.148 85.102C11.061142857142856 85.102 10.987238095238094 85.07076190476191 10.926285714285713 85.00828571428572L10.869142857142856 85.09514285714286C10.936190476190475 85.1652380952381 11.039047619047619 85.20257142857143 11.145714285714286 85.20257142857143Z"/>
  <path fill="#d0d0d0" fill-rule="evenodd" d="M1.4794285714285715 88.15H1.858857142857143L2.0005714285714284 87.80714285714286H2.7434285714285718L2.8851428571428572 88.15H3.273714285714286L2.5582857142857143 86.55000000000001H2.1925714285714286ZM2.1171428571428574 87.52600000000001 2.373142857142857 86.91571428571429 2.6268571428571432 87.52600000000001Z"/>
  <path fill="#d0d0d0" fill-rule="evenodd" d="M4.14 88.15H4.2542857142857144V86.45400000000001H4.14Z"/>
  <path fill="#d0d0d0" fill-rule="evenodd" d="M5.488571428571429 88.15H5.598285714285715V87.39342857142857C5.598285714285715 87.09780952380953 5.4344761904761905 86.9477142857143 5.138857142857143 86.9477142857143C4.952952380952381 86.9477142857143 4.78 87.01019047619049 4.661142857142858 87.11685714285714L4.718285714285715 87.19914285714286C4.815809523809524 87.11076190476192 4.965142857142857 87.04828571428573 5.129714285714286 87.04828571428573C5.365904761904762 87.04828571428573 5.484 87.16180952380952 5.484 87.38885714285715V87.48485714285715H5.074857142857144C4.741142857142857 87.48485714285715 4.629142857142858 87.63571428571429 4.629142857142858 87.81857142857143C4.629142857142858 88.01971428571429 4.790666666666667 88.15914285714287 5.058857142857144 88.15914285714287C5.269142857142858 88.15914285714287 5.415428571428572 88.07457142857143 5.488571428571429 87.93742857142858ZM5.484 87.798C5.416952380952381 87.97171428571428 5.276000000000001 88.06542857142858 5.074857142857144 88.06542857142858C4.864571428571429 88.06542857142858 4.743428571428572 87.96942857142858 4.743428571428572 87.81400000000001C4.743428571428572 87.67685714285714 4.830285714285715 87.57400000000001 5.077142857142857 87.57400000000001H5.484Z"/>
  <path fill="#d0d0d0" fill-rule="evenodd" d="M6.416571428571429 88.15914285714287C6.508000000000001 88.15914285714287 6.600190476190477 88.1324761904762 6.661142857142858 88.07457142857143L6.613142857142858 87.99457142857143C6.564380952380953 88.03876190476191 6.502666666666667 88.06085714285715 6.428000000000001 88.06085714285715C6.281714285714286 88.06085714285715 6.206285714285714 87.97552380952382 6.206285714285714 87.82314285714287V87.05514285714287H6.585714285714286V86.95685714285715H6.206285714285714V86.69628571428572H6.0920000000000005V86.95685714285715H5.872571428571429V87.05514285714287H6.0920000000000005V87.83457142857144C6.0920000000000005 88.03571428571429 6.206285714285714 88.15914285714287 6.416571428571429 88.15914285714287Z"/>
  <path fill="#d0d0d0" fill-rule="evenodd" d="M7.452000000000001 88.15914285714287C7.640952380952382 88.15914285714287 7.80704761904762 88.08600000000001 7.90457142857143 87.93971428571429L7.820000000000001 87.878C7.7346666666666675 87.99990476190477 7.598285714285716 88.05628571428572 7.452000000000001 88.05628571428572C7.1731428571428575 88.05628571428572 6.965142857142858 87.85514285714287 6.965142857142858 87.55342857142858C6.965142857142858 87.25171428571429 7.1731428571428575 87.05057142857143 7.452000000000001 87.05057142857143C7.598285714285716 87.05057142857143 7.7346666666666675 87.1069523809524 7.820000000000001 87.22885714285715L7.90457142857143 87.16714285714286C7.80704761904762 87.02085714285715 7.640952380952382 86.9477142857143 7.452000000000001 86.9477142857143C7.104571428571429 86.9477142857143 6.84857142857143 87.19685714285716 6.84857142857143 87.55342857142858C6.84857142857143 87.90542857142857 7.104571428571429 88.15914285714287 7.452000000000001 88.15914285714287Z"/>
  <path fill="#d0d0d0" fill-rule="evenodd" d="M8.247428571428571 88.15H8.361714285714285V87.51457142857143C8.361714285714285 87.23114285714286 8.533904761904761 87.05057142857143 8.814285714285715 87.05057142857143C9.058095238095238 87.05057142857143 9.200571428571429 87.19380952380953 9.200571428571429 87.462V88.15H9.314857142857143V87.45285714285716C9.314857142857143 87.11761904761906 9.119809523809524 86.9477142857143 8.830285714285715 86.9477142857143C8.607809523809523 86.9477142857143 8.444 87.0444761904762 8.361714285714285 87.206V86.45400000000001H8.247428571428571Z"/>
  <path fill="#d0d0d0" fill-rule="evenodd" d="M1.6897142857142857 91.55000000000001H2.517142857142857C2.9377142857142853 91.55000000000001 3.1571428571428575 91.3877142857143 3.1571428571428575 91.11342857142859C3.1571428571428575 90.91228571428573 3.043619047619048 90.77590476190477 2.866857142857143 90.71800000000002C2.9979047619047616 90.64790476190477 3.0771428571428574 90.52752380952383 3.0771428571428574 90.36600000000001C3.0771428571428574 90.11609523809526 2.8737142857142857 89.95000000000002 2.4714285714285715 89.95000000000002H1.6897142857142857ZM2.057714285714286 90.60600000000001V90.22885714285715H2.4257142857142857C2.6116190476190475 90.22885714285715 2.7045714285714286 90.29133333333334 2.7045714285714286 90.41628571428572C2.7045714285714286 90.54276190476192 2.6116190476190475 90.60600000000001 2.4257142857142857 90.60600000000001ZM2.057714285714286 91.27114285714286V90.8757142857143H2.4897142857142858C2.6862857142857144 90.8757142857143 2.7845714285714287 90.94200000000001 2.7845714285714287 91.07457142857145C2.7845714285714287 91.2117142857143 2.6817142857142855 91.27114285714286 2.4897142857142858 91.27114285714286Z"/>
  <path fill="#d0d0d0" fill-rule="evenodd" d="M4.736571428571429 91.55914285714287C5.074857142857142 91.55914285714287 5.3262857142857145 91.31457142857144 5.3262857142857145 90.95342857142859C5.3262857142857145 90.83457142857144 5.300380952380952 90.72942857142858 5.248571428571429 90.638C5.144952380952381 90.45514285714287 4.9620952380952374 90.3477142857143 4.736571428571429 90.3477142857143C4.520190476190476 90.3477142857143 4.341904761904762 90.45514285714287 4.247428571428571 90.638V90.35685714285715H4.137714285714286V91.99342857142858H4.252V91.2757142857143C4.34647619047619 91.45552380952383 4.526285714285715 91.55914285714287 4.736571428571429 91.55914285714287ZM4.7297142857142855 91.45628571428573C4.4554285714285715 91.45628571428573 4.249714285714286 91.25514285714287 4.249714285714286 90.95342857142859C4.249714285714286 90.65628571428573 4.455428571428571 90.45057142857144 4.7297142857142855 90.45057142857144C5.0040000000000004 90.45057142857144 5.212 90.65628571428573 5.212 90.95342857142859C5.212 91.25514285714287 5.004 91.45628571428573 4.7297142857142855 91.45628571428573Z"/>
  <path fill="#d0d0d0" fill-rule="evenodd" d="M6.1651428571428575 91.55914285714287C6.3754285714285714 91.55914285714287 6.536190476190477 91.46085714285715 6.615428571428572 91.29628571428573V91.55000000000001H6.725142857142858V90.35685714285715H6.610857142857143V90.99228571428573C6.610857142857143 91.2757142857143 6.445523809523809 91.45628571428573 6.174285714285714 91.45628571428573C5.924380952380953 91.45628571428573 5.781142857142857 91.31304761904764 5.781142857142857 91.04485714285715V90.35685714285715H5.666857142857143V91.05400000000002C5.666857142857143 91.38923809523811 5.860380952380953 91.55914285714287 6.1651428571428575 91.55914285714287Z"/>
  <path fill="#d0d0d0" fill-rule="evenodd" d="M7.209714285714286 91.55000000000001H7.324000000000001V90.91457142857143C7.324000000000001 90.63114285714286 7.496190476190477 90.45057142857144 7.77657142857143 90.45057142857144C8.020380952380952 90.45057142857144 8.162857142857144 90.59380952380954 8.162857142857144 90.86200000000001V91.55000000000001H8.277142857142858V90.85285714285716C8.277142857142858 90.51761904761906 8.082095238095238 90.3477142857143 7.79257142857143 90.3477142857143C7.567047619047619 90.3477142857143 7.401714285714286 90.44828571428573 7.319428571428572 90.61285714285715V90.35685714285715H7.209714285714286Z"/>
  <path fill="#d0d0d0" fill-rule="evenodd" d="M9.221142857142858 91.55914285714287C9.41009523809524 91.55914285714287 9.576190476190478 91.48600000000002 9.673714285714286 91.3397142857143L9.589142857142859 91.278C9.503809523809526 91.39990476190478 9.367428571428572 91.45628571428573 9.221142857142858 91.45628571428573C8.942285714285715 91.45628571428573 8.734285714285715 91.25514285714287 8.734285714285715 90.95342857142859C8.734285714285715 90.65171428571429 8.942285714285715 90.45057142857144 9.221142857142858 90.45057142857144C9.367428571428572 90.45057142857144 9.503809523809526 90.5069523809524 9.589142857142859 90.62885714285716L9.673714285714286 90.56714285714287C9.576190476190478 90.42085714285716 9.41009523809524 90.3477142857143 9.221142857142858 90.3477142857143C8.873714285714286 90.3477142857143 8.617714285714287 90.59685714285716 8.617714285714287 90.95342857142859C8.617714285714287 91.30542857142858 8.873714285714287 91.55914285714287 9.221142857142858 91.55914285714287Z"/>
  <path fill="#d0d0d0" fill-rule="evenodd" d="M10.01657142857143 91.55000000000001H10.130857142857144V90.91457142857143C10.130857142857144 90.63114285714286 10.30304761904762 90.45057142857144 10.583428571428573 90.45057142857144C10.827238095238096 90.45057142857144 10.969714285714288 90.59380952380954 10.969714285714288 90.86200000000001V91.55000000000001H11.084000000000001V90.85285714285716C11.084000000000001 90.51761904761906 10.888952380952382 90.3477142857143 10.599428571428573 90.3477142857143C10.376952380952382 90.3477142857143 10.21314285714286 90.44447619047621 10.130857142857144 90.60600000000001V89.85400000000001H10.01657142857143Z"/>
  <path fill="#d0d0d0" fill-rule="evenodd" d="M11.454285714285717 90.9877142857143H12.041714285714288V90.88485714285716H11.454285714285717Z"/>
  <path fill="#d0d0d0" fill-rule="evenodd" d="M12.482857142857144 90.06657142857144C12.537714285714287 90.06657142857144 12.57657142857143 90.02466666666668 12.57657142857143 89.97285714285715C12.57657142857143 89.92104761904763 12.534666666666668 89.88142857142859 12.482857142857144 89.88142857142859C12.43104761904762 89.88142857142859 12.38914285714286 89.92333333333335 12.38914285714286 89.97514285714287C12.38914285714286 90.02390476190477 12.43104761904762 90.06657142857144 12.482857142857144 90.06657142857144ZM12.425714285714287 91.55000000000001H12.540000000000001V90.35685714285715H12.425714285714287Z"/>
  <path fill="#d0d0d0" fill-rule="evenodd" d="M13.022285714285715 91.55000000000001H13.136571428571429V90.91457142857143C13.136571428571429 90.63114285714286 13.308761904761905 90.45057142857144 13.589142857142859 90.45057142857144C13.832952380952381 90.45057142857144 13.975428571428573 90.59380952380954 13.975428571428573 90.86200000000001V91.55000000000001H14.089714285714287V90.85285714285716C14.089714285714287 90.51761904761906 13.894666666666668 90.3477142857143 13.605142857142859 90.3477142857143C13.379619047619048 90.3477142857143 13.214285714285715 90.44828571428573 13.132000000000001 90.61285714285715V90.35685714285715H13.022285714285715Z"/>
  <g transform="translate(5.47,118.0) scale(0.75)">
    <rect x="0" y="0" width="12.5" height="5.5" rx="1.18" ry="1.2" fill="none" stroke="#d0d0d0" stroke-width="0.5"/>
    <rect x="6.125" y="0.5" width="0.25" height="4.5" fill="#d0d0d0"/>
    <circle cx="2.07" cy="1.46" r="0.625" fill="#d0d0d0"/>
    <circle cx="4.19" cy="4.11" r="0.625" fill="#d0d0d0"/>
    <circle cx="8.20" cy="1.46" r="0.625" fill="#d0d0d0"/>
    <circle cx="10.32" cy="4.11" r="0.625" fill="#d0d0d0"/>
  </g>
</svg>
