<?xml version="1.0" encoding="UTF-8"?>
<svg xmlns="http://www.w3.org/2000/svg"
     width="50.8mm" height="128.5mm"
     viewBox="0 0 50.8 128.5">

  <rect width="50.8" height="128.5" fill="#1e1e1e"/>

  <!-- top accent: slants start just inside screw inner edges (10.16 / 40.64 mm) -->
  <polygon points="
    0,0 50.8,0 50.8,0.5
    40.64,0.5 38.16,2.0 12.64,2.0 10.16,0.5
    0,0.5
  " fill="#f26522"/>
  <rect x="0" y="127.5" width="50.8" height="1.0" fill="#f26522"/>

  <!-- title: RTM (Bold) + 64 (Light), cap-top y=7, baseline y=11.125 -->
<g id="title">
  <path fill="#d0d0d0" fill-rule="evenodd" d="M15.388035714285714 11.125H16.34267857142857V9.975892857142856H17.173571428571428C17.18859507928571 9.975892857142856 17.203540703551234 9.975789905578512 17.21840901647295 9.975543840953282L18.010357142857142 11.125H19.041607142857142L18.119310978480748 9.801478951317923C18.65695835560339 9.569020266407202 18.965 9.113896698571429 18.965 8.496785714285714C18.965 7.561785714285715 18.297142857142855 7.0 17.15 7.0H15.388035714285714ZM17.12053571428571 7.777857142857142C17.709821428571427 7.777857142857142 17.998571428571427 8.041071428571428 17.998571428571427 8.496785714285714C17.998571428571427 8.944642857142858 17.709821428571427 9.215714285714286 17.12053571428571 9.215714285714286H16.34267857142857V7.777857142857142Z"/>
  <path fill="#d0d0d0" fill-rule="evenodd" d="M20.57375 11.125H21.528392857142855V7.777857142857142H22.848392857142855V7.0H19.25375V7.777857142857142H20.57375Z"/>
  <path fill="#d0d0d0" fill-rule="evenodd" d="M23.361071428571428 11.125H24.256785714285712V8.702493284770421L25.464821428571426 10.688928571428571H25.895L27.10951982634408 8.649158054079328L27.114821428571428 11.125H28.010535714285712L27.99875 7.0H27.215L25.695819432394845 9.561348799296788L24.150714285714283 7.0H23.361071428571428Z"/>
  <path fill="#d0d0d0" fill-rule="evenodd" d="M30.479642857142856 11.154464285714285C31.26928571428571 11.154464285714285 31.85267857142857 10.665357142857145 31.85267857142857 9.911071428571429C31.85267857142857 9.168571428571429 31.29875 8.685357142857143 30.47375 8.685357142857143C29.85009172142857 8.685357142857143 29.33185582231394 8.992457117796517 29.161589219229562 9.534127110072545C29.13166422393853 9.34561871007967 29.124285714285712 9.162759602142858 29.124285714285712 9.03892857142857C29.124285714285712 7.836785714285714 29.729285714285712 7.235714285714286 30.65642857142857 7.235714285714286C30.970714285714283 7.235714285714286 31.2575 7.290714285714286 31.469642857142855 7.424285714285714L31.593392857142856 7.182678571428571C31.341964285714283 7.025535714285715 31.009999999999998 6.970535714285714 30.65642857142857 6.970535714285714C29.560357142857143 6.970535714285714 28.82375 7.68357142857143 28.82375 9.08607142857143C28.82375 10.370714285714286 29.39535714285714 11.154464285714285 30.479642857142856 11.154464285714285ZM30.46785714285714 10.895178571428572C29.701785714285712 10.895178571428572 29.289285714285715 10.411964285714285 29.289285714285715 9.92875C29.289285714285715 9.37482142857143 29.760714285714283 8.944642857142856 30.432499999999997 8.944642857142856C31.131785714285712 8.944642857142856 31.552142857142854 9.32767857142857 31.552142857142854 9.916964285714286C31.552142857142854 10.506250000000001 31.116071428571427 10.895178571428572 30.46785714285714 10.895178571428572Z"/>
  <path fill="#d0d0d0" fill-rule="evenodd" d="M32.300535714285715 9.981785714285714H34.651785714285715V11.125H34.94642857142858V9.981785714285714H35.81267857142857V9.716607142857143H34.94642857142858V8.708928571428572H34.657678571428576V9.716607142857143H32.68041769436428L34.87571428571429 7.0H34.53982142857143L32.300535714285715 9.76375Z"/>
</g>
  <!-- 1-2 output badge - jack at y=45 -->
  <rect x="29.5" y="43.25" width="11" height="3.5" rx="1.0" fill="#d0d0d0"/>
  <g transform="translate(29.5, 0)">
  <path fill="#1e1e1e" fill-rule="evenodd" d="M3.9657142857142857 46.0H4.428571428571429V44.0H3.565714285714286V44.371428571428574H3.9657142857142857Z"/>
  <path fill="#1e1e1e" fill-rule="evenodd" d="M4.814285714285714 45.37428571428571H5.622857142857143V45.01714285714286H4.814285714285714Z"/>
  <path fill="#1e1e1e" fill-rule="evenodd" d="M5.862857142857143 46.0H7.3742857142857146V45.62285714285714H6.5132430594308035L6.974285714285714 45.18857142857143C7.254285714285714 44.925714285714285 7.308571428571429 44.75142857142857 7.308571428571429 44.55714285714286C7.308571428571429 44.191428571428574 7.011428571428572 43.965714285714284 6.565714285714286 43.965714285714284C6.207619047619048 43.965714285714284 5.923809523809524 44.10857142857143 5.771428571428571 44.33714285714286L6.1085714285714285 44.55428571428571C6.207619047619048 44.417142857142856 6.355238095238095 44.354285714285716 6.522857142857143 44.354285714285716C6.732380952380952 44.354285714285716 6.842857142857143 44.44285714285714 6.842857142857143 44.60285714285714C6.842857142857143 44.69428571428571 6.817142857142857 44.80571428571429 6.634285714285714 44.971428571428575L5.862857142857143 45.7Z"/>
  </g>
  <!-- 3-4 output badge - jack at y=60 -->
  <rect x="29.5" y="58.25" width="11" height="3.5" rx="1.0" fill="#d0d0d0"/>
  <g transform="translate(29.5, 0)">
  <path fill="#1e1e1e" fill-rule="evenodd" d="M3.878571428571428 61.034285714285716C4.449999999999999 61.034285714285716 4.707142857142857 60.72571428571429 4.707142857142857 60.38857142857143C4.707142857142857 60.09358998857143 4.5230287034934396 59.872392123254905 4.165362178257533 59.813029981340684L4.615714285714286 59.3V59.0H3.2157142857142853V59.371428571428574H4.0666386631556914L3.6557142857142857 59.83714285714286V60.142857142857146H3.867142857142857C4.13 60.142857142857146 4.241428571428571 60.23619047619048 4.241428571428571 60.38857142857143C4.241428571428571 60.54857142857143 4.099523809523809 60.645714285714284 3.867142857142857 60.645714285714284C3.661428571428571 60.645714285714284 3.4480952380952377 60.576190476190476 3.2957142857142854 60.465714285714284L3.1157142857142857 60.82C3.306190476190476 60.957142857142856 3.60047619047619 61.034285714285716 3.878571428571428 61.034285714285716Z"/>
  <path fill="#1e1e1e" fill-rule="evenodd" d="M4.958571428571428 60.37428571428571H5.767142857142857V60.01714285714286H4.958571428571428Z"/>
  <path fill="#1e1e1e" fill-rule="evenodd" d="M6.001428571428571 60.58H7.078571428571427V61.0H7.529999999999999V60.58H7.855714285714285V60.20285714285714H7.529999999999999V59.82857142857143H7.092857142857142V60.20285714285714H6.554948512486048L7.429999999999999 59.0H6.944285714285713L6.001428571428571 60.26857142857143Z"/>
  </g>
  <!-- 5-6 output badge - jack at y=75 -->
  <rect x="29.5" y="73.25" width="11" height="3.5" rx="1.0" fill="#d0d0d0"/>
  <g transform="translate(29.5, 0)">
  <path fill="#1e1e1e" fill-rule="evenodd" d="M3.98 76.03428571428572C4.551428571428571 76.03428571428572 4.811428571428571 75.72571428571429 4.811428571428571 75.37142857142857C4.811428571428571 75.01714285714286 4.579999999999999 74.75142857142858 3.9857142857142858 74.75142857142858H3.8216675240652904L3.855475333077567 74.37142857142857H4.688571428571429V74.0H3.468571428571429L3.3657142857142857 75.12571428571428H3.8771428571428572C4.242857142857142 75.12571428571428 4.342857142857143 75.23142857142857 4.342857142857143 75.38571428571429C4.342857142857143 75.5495238095238 4.200952380952381 75.64571428571429 3.968571428571429 75.64571428571429C3.762857142857143 75.64571428571429 3.552380952380952 75.57619047619048 3.4 75.46571428571428L3.217142857142857 75.82C3.4114285714285715 75.95714285714286 3.701904761904762 76.03428571428572 3.98 76.03428571428572Z"/>
  <path fill="#1e1e1e" fill-rule="evenodd" d="M5.037142857142857 75.37428571428572H5.845714285714286V75.01714285714286H5.037142857142857Z"/>
  <path fill="#1e1e1e" fill-rule="evenodd" d="M6.997142857142856 76.03428571428572C7.14 76.03428571428572 7.2680952380952375 76.00714285714285 7.381428571428571 75.95285714285714C7.608095238095237 75.84428571428572 7.7542857142857144 75.63904761904762 7.7542857142857144 75.36857142857143C7.7542857142857144 75.24285714285715 7.723333333333333 75.13333333333334 7.661428571428571 75.04C7.537619047619047 74.85333333333334 7.324761904761905 74.74571428571429 7.065714285714286 74.74571428571429C6.858455428571427 74.74571428571429 6.690286744244959 74.80735648130936 6.57211441040039 74.9263359941755L6.572886614118303 74.90836584908622C6.5922895197820495 74.53465125920887 6.80410790095238 74.34285714285714 7.1342857142857135 74.34285714285714C7.2714285714285705 74.34285714285714 7.398095238095237 74.36666666666666 7.508571428571428 74.44285714285714L7.68 74.10285714285715C7.5390476190476186 74.01142857142857 7.336190476190476 73.96571428571428 7.122857142857143 73.96571428571428C6.522857142857141 73.96571428571428 6.102857142857142 74.35142857142857 6.102857142857142 75.04285714285714C6.102857142857142 75.68857142857144 6.448571428571428 76.03428571428572 6.997142857142856 76.03428571428572ZM6.9714285714285715 75.68857142857142C6.748571428571428 75.68857142857144 6.619999999999999 75.56285714285714 6.619999999999999 75.39142857142858C6.619999999999999 75.21428571428571 6.76 75.09142857142857 6.965714285714285 75.09142857142857C7.171428571428571 75.09142857142857 7.305714285714285 75.20857142857143 7.305714285714285 75.39142857142858C7.305714285714285 75.56857142857143 7.165714285714285 75.68857142857144 6.9714285714285715 75.68857142857142Z"/>
  </g>
  <!-- 7-8 output badge - jack at y=90 -->
  <rect x="29.5" y="88.25" width="11" height="3.5" rx="1.0" fill="#d0d0d0"/>
  <g transform="translate(29.5, 0)">
  <path fill="#1e1e1e" fill-rule="evenodd" d="M3.5514285714285716 91.0H4.054285714285714L4.797142857142857 89.3V89.0H3.1942857142857144V89.70285714285714H3.605714285714286V89.37714285714286H4.268741607666016Z"/>
  <path fill="#1e1e1e" fill-rule="evenodd" d="M5.04 90.37428571428572H5.848571428571429V90.01714285714286H5.04Z"/>
  <path fill="#1e1e1e" fill-rule="evenodd" d="M6.934285714285714 91.03428571428572C7.442857142857141 91.03428571428572 7.78 90.79142857142857 7.78 90.42C7.78 90.20451088571428 7.668444753251418 90.04383771164123 7.474347272600447 89.9469228036063C7.623507420589523 89.8546629478746 7.708571428571429 89.71498268 7.708571428571429 89.53714285714285C7.708571428571429 89.18285714285715 7.397142857142858 88.96571428571428 6.934285714285714 88.96571428571428C6.482857142857142 88.96571428571428 6.165714285714286 89.18285714285715 6.165714285714286 89.53714285714285C6.165714285714286 89.71493312 6.250730889411292 89.8545850933482 6.398976309640068 89.94684751238142C6.205900191933497 90.04375241647963 6.094285714285714 90.20445368571428 6.094285714285714 90.42C6.094285714285714 90.79142857142857 6.4314285714285715 91.03428571428572 6.934285714285714 91.03428571428572ZM6.934285714285714 89.80285714285715C6.743809523809524 89.80285714285715 6.625714285714286 89.70952380952382 6.625714285714286 89.55714285714286C6.625714285714286 89.39714285714285 6.751428571428572 89.30571428571429 6.934285714285714 89.30571428571429C7.120952380952382 89.30571428571429 7.248571428571429 89.39714285714285 7.248571428571429 89.55714285714286C7.248571428571429 89.70952380952382 7.128571428571428 89.80285714285715 6.934285714285714 89.80285714285715ZM6.934285714285714 90.69428571428571C6.705714285714286 90.69428571428571 6.562857142857143 90.5847619047619 6.562857142857143 90.40571428571428C6.562857142857143 90.22666666666667 6.705714285714286 90.12 6.934285714285714 90.12C7.166666666666667 90.12 7.311428571428571 90.22666666666667 7.311428571428571 90.40571428571428C7.311428571428571 90.5847619047619 7.166666666666667 90.69428571428571 6.934285714285714 90.69428571428571Z"/>
  </g>

  <!-- domino logo centered above bottom bar -->
  <g transform="translate(20.71,118.0) scale(0.75)">
    <rect x="0" y="0" width="12.5" height="5.5"
          rx="1.18" ry="1.2"
          fill="none" stroke="#d0d0d0" stroke-width="0.5"/>
    <rect x="6.125" y="0.5" width="0.25" height="4.5"
          fill="#d0d0d0"/>
    <circle cx="2.07"  cy="1.46" r="0.625" fill="#d0d0d0"/>
    <circle cx="4.19"  cy="4.11" r="0.625" fill="#d0d0d0"/>
    <circle cx="8.20"  cy="1.46" r="0.625" fill="#d0d0d0"/>
    <circle cx="10.32" cy="4.11" r="0.625" fill="#d0d0d0"/>
  </g>

</svg>
