<?xml version="1.0" encoding="UTF-8"?>
<svg xmlns="http://www.w3.org/2000/svg"
     width="50.8mm" height="128.5mm"
     viewBox="0 0 50.8 128.5">

  <rect width="50.8" height="128.5" fill="#1e1e1e"/>

  <!-- top accent trapezoid -->
  <polygon points="
    0,0 50.8,0 50.8,0.5
    40.64,0.5 38.16,2.0 12.64,2.0 10.16,0.5
    0,0.5
  " fill="#f26522"/>
  <rect x="0" y="127.5" width="50.8" height="1.0" fill="#f26522"/>

  <!-- title: SEQ (Bold) + 64 (Light), cap-top y=7, baseline y=11.125 -->
  <g id="title">
  <path fill="#d0d0d0" fill-rule="evenodd" d="M17.200089285714284 11.195714285714285C18.37866071428571 11.195714285714285 18.950267857142855 10.612321428571429 18.950267857142855 9.916964285714286C18.950267857142855 9.48482142857143 18.75580357142857 9.211785714285714 18.472946428571426 9.03892857142857C17.765803571428567 8.606785714285714 16.551874999999995 8.69714285714286 16.551875 8.166785714285714C16.551875 8.076428571428572 16.577410714285712 7.996875 16.62848214285714 7.928125C16.730624999999996 7.790625 16.966339285714284 7.695357142857143 17.335624999999997 7.695357142857143C17.704910714285713 7.695357142857143 18.09383928571428 7.799464285714286 18.478839285714283 8.019464285714285L18.77348214285714 7.294642857142857C18.38848214285714 7.051071428571428 17.86008928571428 6.929285714285714 17.341517857142854 6.929285714285714C16.17473214285714 6.929285714285714 15.603124999999999 7.506785714285715 15.603124999999999 8.213928571428571C15.603124999999999 8.873928571428571 16.03625 9.145 16.54892857142857 9.31C17.232499999999998 9.530000000000001 18.001517857142854 9.547678571428571 18.001517857142854 9.987678571428571C18.001517857142854 10.246964285714286 17.771696428571424 10.429642857142857 17.205982142857142 10.429642857142857C16.71098214285714 10.429642857142857 16.19830357142857 10.250892857142857 15.844732142857142 9.999464285714286L15.520624999999997 10.718392857142858C15.889910714285712 11.00125 16.540089285714284 11.195714285714285 17.200089285714284 11.195714285714285Z"/>
  <path fill="#d0d0d0" fill-rule="evenodd" d="M19.604374999999997 11.125H22.79830357142857V10.35892857142857H20.553124999999998V9.404285714285715H22.468303571428567V8.661785714285713H20.553124999999998V7.766071428571428H22.721696428571427V7.0H19.604374999999997Z"/>
  <path fill="#d0d0d0" fill-rule="evenodd" d="M26.905624999999997 12.07375C27.369196428571428 12.07375 27.740446428571424 11.904821428571429 28.019374999999997 11.566964285714286L27.595089285714284 11.06017857142857C27.39866071428571 11.264464285714286 27.17473214285714 11.366607142857143 26.92330357142857 11.366607142857143C26.717426565714284 11.366607142857143 26.542767719761482 11.288561743453428 26.34024956975664 11.077865550177439C26.938784723723103 10.886682242195427 27.39844151964285 10.47305497589286 27.64223214285714 9.914017857142857C27.871549908424903 9.388168498168499 27.86864715189873 8.723325045207957 27.64223214285714 8.208035714285714C27.300446428571426 7.43017857142857 26.534374999999994 6.929285714285714 25.55616071428571 6.929285714285714C24.26758928571428 6.929285714285714 23.299196428571427 7.836785714285716 23.299196428571427 9.0625C23.299196428571427 9.675357142857143 23.533928571428568 10.20375 23.938571428571425 10.58875C24.272152121071425 10.906137455 24.71720055164961 11.112724643407311 25.22419326645987 11.175486857550485C25.86063188601236 11.852281547026946 26.300942884285707 12.07375 26.905624999999997 12.07375ZM25.55616071428571 10.3825C25.371517857142855 10.3825 25.200625 10.351071428571428 25.04348214285714 10.288214285714286C24.57205357142857 10.099642857142857 24.265624999999996 9.64 24.265624999999996 9.0625C24.265624999999996 8.276785714285719 24.81758928571428 7.7425 25.55616071428571 7.7425C26.11008928571428 7.7425 26.554999999999996 8.043035714285715 26.749464285714282 8.52625C26.87781071428571 8.84517142857143 26.880430029154518 9.266404883381925 26.749464285714282 9.595803571428572C26.554999999999996 10.084910714285716 26.11008928571428 10.3825 25.55616071428571 10.3825Z"/>
  <path fill="#d0d0d0" fill-rule="evenodd" d="M30.022946428571426 11.154464285714285C30.81258928571428 11.154464285714285 31.39598214285714 10.665357142857145 31.39598214285714 9.911071428571429C31.39598214285714 9.168571428571429 30.84205357142857 8.685357142857143 30.01705357142857 8.685357142857143C29.39339529285714 8.685357142857143 28.87515939374251 8.992457117796517 28.704892790658132 9.534127110072545C28.6749677953671 9.34561871007967 28.667589285714282 9.162759602142858 28.667589285714282 9.03892857142857C28.667589285714282 7.836785714285714 29.272589285714282 7.235714285714286 30.19973214285714 7.235714285714286C30.514017857142854 7.235714285714286 30.800803571428567 7.290714285714286 31.012946428571425 7.424285714285714L31.136696428571426 7.182678571428571C30.885267857142853 7.025535714285715 30.553303571428568 6.970535714285714 30.19973214285714 6.970535714285714C29.10366071428571 6.970535714285714 28.36705357142857 7.68357142857143 28.36705357142857 9.08607142857143C28.36705357142857 10.370714285714286 28.93866071428571 11.154464285714285 30.022946428571426 11.154464285714285ZM30.01116071428571 10.895178571428572C29.245089285714283 10.895178571428572 28.832589285714285 10.411964285714285 28.832589285714285 9.92875C28.832589285714285 9.37482142857143 29.304017857142853 8.944642857142856 29.975803571428568 8.944642857142856C30.675089285714282 8.944642857142856 31.095446428571428 9.32767857142857 31.095446428571428 9.916964285714286C31.095446428571428 10.506250000000001 30.659374999999997 10.895178571428572 30.01116071428571 10.895178571428572Z"/>
  <path fill="#d0d0d0" fill-rule="evenodd" d="M31.84383928571428 9.981785714285714H34.19508928571428V11.125H34.48973214285714V9.981785714285714H35.35598214285714V9.716607142857143H34.48973214285714V8.708928571428572H34.20098214285714V9.716607142857143H32.22372126579285L34.419017857142855 7.0H34.083124999999995L31.84383928571428 9.76375Z"/>
  </g>

  <!-- output badge CV — jack at y=80 -->
  <rect x="29.5" y="78.25" width="11" height="3.5" rx="1.0" fill="#d0d0d0"/>
  <g transform="translate(29.5, 0)">
  <path fill="#1e1e1e" fill-rule="evenodd" d="M4.594285714285714 81.03428571428572C4.944761904761905 81.03428571428572 5.22952380952381 80.9095238095238 5.42 80.67714285714285L5.122857142857143 80.40285714285714C4.985714285714286 80.56285714285714 4.818095238095238 80.64 4.62 80.64C4.246666666666666 80.64 3.98 80.38095238095238 3.9800000000000004 80.0C3.98 79.61904761904762 4.246666666666665 79.36 4.62 79.36C4.818095238095238 79.36 4.985714285714286 79.43809523809524 5.122857142857143 79.59428571428572L5.42 79.32C5.22952380952381 79.08761904761904 4.943809523809524 78.96571428571428 4.597142857142858 78.96571428571428C3.9723809523809517 78.96571428571428 3.5114285714285716 79.39809523809524 3.5114285714285716 80.0C3.5114285714285716 80.60190476190476 3.9771428571428573 81.03428571428572 4.594285714285714 81.03428571428572Z"/>
  <path fill="#1e1e1e" fill-rule="evenodd" d="M6.305714285714286 81.0H6.762857142857143L7.628571428571429 79.0H7.168571428571429L6.5511063276018415 80.42846400669643L5.942857142857143 79.0H5.442857142857143Z"/>
  </g>
  <!-- output badge TRIG — jack at y=92 -->
  <rect x="29.5" y="90.25" width="11" height="3.5" rx="1.0" fill="#d0d0d0"/>
  <g transform="translate(29.5, 0)">
  <path fill="#1e1e1e" fill-rule="evenodd" d="M2.6485714285714286 93.0H3.111428571428571V91.37714285714286H3.751428571428571V91.0H2.0085714285714285V91.37714285714286H2.6485714285714286Z"/>
  <path fill="#1e1e1e" fill-rule="evenodd" d="M3.9999999999999996 93.0H4.462857142857143V92.44285714285714H4.865714285714285C4.87299848 92.44285714285714 4.880244843280251 92.44280722694715 4.8874537222726 92.44268792288644L5.271428571428571 93.0H5.7714285714285705L5.324254673549107 92.35829282488142C5.5849321897297814 92.24558558371258 5.734285714285714 92.02491961142857 5.734285714285714 91.72571428571429C5.734285714285714 91.27238095238096 5.41047619047619 91.0 4.854285714285714 91.0H3.9999999999999996ZM4.84 91.37714285714286C5.1257142857142854 91.37714285714286 5.265714285714285 91.5047619047619 5.265714285714285 91.72571428571429C5.265714285714285 91.94285714285715 5.125714285714285 92.07428571428571 4.84 92.07428571428571H4.462857142857143V91.37714285714286Z"/>
  <path fill="#1e1e1e" fill-rule="evenodd" d="M6.1000000000000005 93.0H6.562857142857143V91.0H6.1000000000000005Z"/>
  <path fill="#1e1e1e" fill-rule="evenodd" d="M8.002857142857142 93.03428571428572C8.288571428571428 93.03428571428572 8.594285714285714 92.94380952380952 8.811428571428571 92.78V91.96857142857142H8.388571428571428V92.55509676252093C8.272979886008484 92.61531263835249 8.152979886008483 92.64 8.028571428571428 92.64C7.647619047619046 92.64 7.379999999999999 92.37333333333333 7.38 92.0C7.379999999999999 91.61904761904762 7.645714285714284 91.36 8.034285714285714 91.36C8.236190476190476 91.36 8.406666666666666 91.43333333333334 8.551428571428572 91.58571428571429L8.848571428571429 91.31142857142856C8.654285714285715 91.08666666666667 8.365714285714285 90.96571428571428 8.01142857142857 90.96571428571428C7.371428571428569 90.96571428571428 6.911428571428571 91.39809523809524 6.911428571428571 92.0C6.911428571428571 92.60190476190476 7.3704761904761895 93.03428571428572 8.002857142857142 93.03428571428572Z"/>
  </g>
  <!-- output badge POLY — jack at y=104 -->
  <rect x="29.5" y="102.25" width="11" height="3.5" rx="1.0" fill="#d0d0d0"/>
  <g transform="translate(29.5, 0)">
  <path fill="#1e1e1e" fill-rule="evenodd" d="M1.657142857142857 105.0H2.12V104.44857142857143H2.5228571428571427C3.0599999999999987 104.44857142857143 3.3914285714285715 104.17142857142858 3.3914285714285715 103.72571428571429C3.3914285714285715 103.27428571428571 3.0599999999999987 103.0 2.5228571428571427 103.0H1.657142857142857ZM2.4971428571428573 103.37714285714286C2.782857142857143 103.37714285714286 2.9228571428571426 103.5047619047619 2.9228571428571426 103.72571428571429C2.9228571428571426 103.94285714285715 2.7828571428571425 104.07142857142857 2.4971428571428573 104.07142857142857H2.12V103.37714285714286Z"/>
  <path fill="#1e1e1e" fill-rule="evenodd" d="M4.720000000000001 105.03428571428572C5.188571428571428 105.03428571428572 5.562857142857142 104.79285714285714 5.728571428571429 104.41285714285715C5.8397557997558 104.15789987789988 5.8383484026521995 103.83508740204942 5.728571428571429 103.58714285714285C5.562857142857142 103.21285714285715 5.19142857142857 102.96571428571428 4.717142857142857 102.96571428571428C4.092380952380951 102.96571428571428 3.6228571428571428 103.40571428571428 3.6228571428571428 104.0C3.6228571428571428 104.59428571428572 4.0876190476190475 105.03428571428572 4.720000000000001 105.03428571428572ZM4.717142857142857 104.64C4.6276190476190475 104.64 4.544761904761905 104.62476190476191 4.468571428571429 104.59428571428572C4.24 104.50285714285714 4.091428571428572 104.28 4.091428571428572 104.0C4.091428571428571 103.61904761904762 4.359047619047617 103.36 4.717142857142857 103.36C5.0752380952380935 103.36 5.342857142857143 103.61904761904762 5.342857142857143 104.0C5.342857142857143 104.38095238095238 5.0752380952380935 104.64 4.717142857142857 104.64Z"/>
  <path fill="#1e1e1e" fill-rule="evenodd" d="M6.160000000000001 105.0H7.625714285714286V104.62285714285714H6.622857142857144V103.0H6.160000000000001Z"/>
  <path fill="#1e1e1e" fill-rule="evenodd" d="M8.382857142857144 105.0H8.845714285714287V104.29187384469168L9.622857142857143 103.0H9.168571428571429L8.63315614972796 103.88784053257534L8.100000000000001 103.0H7.608571428571429L8.382857142857144 104.28712430681502Z"/>
  </g>

  <!-- domino logo centered above bottom bar -->
  <g transform="translate(20.71,118.0) scale(0.75)">
    <rect x="0" y="0" width="12.5" height="5.5"
          rx="1.18" ry="1.2"
          fill="none" stroke="#d0d0d0" stroke-width="0.5"/>
    <rect x="6.125" y="0.5" width="0.25" height="4.5"
          fill="#d0d0d0"/>
    <circle cx="2.07"  cy="1.46" r="0.625" fill="#d0d0d0"/>
    <circle cx="4.19"  cy="4.11" r="0.625" fill="#d0d0d0"/>
    <circle cx="8.20"  cy="1.46" r="0.625" fill="#d0d0d0"/>
    <circle cx="10.32" cy="4.11" r="0.625" fill="#d0d0d0"/>
  </g>

</svg>
