<?xml version="1.0" encoding="UTF-8"?>
<svg xmlns="http://www.w3.org/2000/svg"
     width="50.8mm" height="128.5mm"
     viewBox="0 0 50.8 128.5">

  <rect width="50.8" height="128.5" fill="#1e1e1e"/>

  <!-- top accent: slants start just inside screw inner edges (10.16 / 40.64 mm) -->
  <polygon points="
    0,0 50.8,0 50.8,0.5
    40.64,0.5 38.16,2.0 12.64,2.0 10.16,0.5
    0,0.5
  " fill="#f26522"/>
  <rect x="0" y="127.5" width="50.8" height="1.0" fill="#f26522"/>

  <!-- title: SLDR (Bold) + 64 (Light), cap-top y=7, baseline y=11.125, cap-height=4.125 -->
  <g id="title">
    <path fill="#d0d0d0" fill-rule="evenodd" d="M15.284910714285713 11.195714285714285C16.46348214285714 11.195714285714285 17.035089285714285 10.612321428571429 17.035089285714285 9.916964285714286C17.035089285714285 9.48482142857143 16.840625 9.211785714285714 16.557767857142856 9.03892857142857C15.850624999999994 8.606785714285714 14.636696428571426 8.69714285714286 14.636696428571426 8.166785714285714C14.636696428571426 8.076428571428572 14.66223214285714 7.996875 14.71330357142857 7.928125C14.815446428571427 7.790625 15.051160714285713 7.695357142857143 15.420446428571427 7.695357142857143C15.78973214285714 7.695357142857143 16.178660714285712 7.799464285714286 16.563660714285714 8.019464285714285L16.85830357142857 7.294642857142857C16.47330357142857 7.051071428571428 15.944910714285712 6.929285714285714 15.426339285714285 6.929285714285714C14.259553571428569 6.929285714285714 13.687946428571427 7.506785714285715 13.687946428571427 8.213928571428571C13.687946428571427 8.873928571428571 14.121071428571428 9.145 14.63375 9.31C15.317321428571427 9.530000000000001 16.086339285714285 9.547678571428571 16.086339285714285 9.987678571428571C16.086339285714285 10.246964285714286 15.856517857142855 10.429642857142857 15.29080357142857 10.429642857142857C14.79580357142857 10.429642857142857 14.283124999999998 10.250892857142857 13.92955357142857 9.999464285714286L13.605446428571426 10.718392857142858C13.97473214285714 11.00125 14.624910714285713 11.195714285714285 15.284910714285713 11.195714285714285Z"/>
    <path fill="#d0d0d0" fill-rule="evenodd" d="M17.689196428571428 11.125H20.712232142857143V10.347142857142858H18.643839285714286V7.0H17.689196428571428Z"/>
    <path fill="#d0d0d0" fill-rule="evenodd" d="M21.248482142857142 11.125H23.122410714285714C24.46598214285714 11.125 25.39705357142857 10.311785714285715 25.39705357142857 9.0625C25.39705357142857 8.642142857142858 25.30080357142857 8.27875 25.10830357142857 7.972321428571428C24.72330357142857 7.359464285714285 24.018124999999998 7.0 23.122410714285714 7.0H21.248482142857142ZM22.203125 10.34125V7.7837499999999995H23.075267857142855C23.900267857142854 7.7837499999999995 24.430625 8.272857142857145 24.430625 9.0625C24.430625 9.840357142857144 23.900267857142854 10.34125 23.075267857142855 10.34125Z"/>
    <path fill="#d0d0d0" fill-rule="evenodd" d="M26.115982142857142 11.125H27.070625V9.975892857142856H27.901517857142856C27.91654150785714 9.975892857142856 27.931487132122662 9.975789905578512 27.94635544504438 9.975543840953282L28.73830357142857 11.125H29.76955357142857L28.847257407052176 9.801478951317923C29.384904784174818 9.569020266407202 29.692946428571428 9.113896698571429 29.692946428571428 8.496785714285714C29.692946428571428 7.561785714285715 29.025089285714284 7.0 27.877946428571427 7.0H26.115982142857142ZM27.84848214285714 7.777857142857142C28.437767857142855 7.777857142857142 28.726517857142856 8.041071428571428 28.726517857142856 8.496785714285714C28.726517857142856 8.944642857142858 28.437767857142855 9.215714285714286 27.84848214285714 9.215714285714286H27.070625V7.777857142857142Z"/>
    <path fill="#d0d0d0" fill-rule="evenodd" d="M31.938125 11.154464285714285C32.72776785714285 11.154464285714285 33.31116071428571 10.665357142857145 33.31116071428571 9.911071428571429C33.31116071428571 9.168571428571429 32.75723214285714 8.685357142857143 31.932232142857142 8.685357142857143C31.308573864285712 8.685357142857143 30.790337965171084 8.992457117796517 30.620071362086705 9.534127110072545C30.590146366795672 9.34561871007967 30.582767857142855 9.162759602142858 30.582767857142855 9.03892857142857C30.582767857142855 7.836785714285714 31.187767857142855 7.235714285714286 32.11491071428571 7.235714285714286C32.42919642857143 7.235714285714286 32.71598214285714 7.290714285714286 32.928125 7.424285714285714L33.051874999999995 7.182678571428571C32.800446428571426 7.025535714285715 32.46848214285714 6.970535714285714 32.11491071428571 6.970535714285714C31.018839285714286 6.970535714285714 30.282232142857143 7.68357142857143 30.282232142857143 9.08607142857143C30.282232142857143 10.370714285714286 30.853839285714283 11.154464285714285 31.938125 11.154464285714285ZM31.926339285714285 10.895178571428572C31.160267857142856 10.895178571428572 30.747767857142858 10.411964285714285 30.747767857142858 9.92875C30.747767857142858 9.37482142857143 31.219196428571426 8.944642857142856 31.89098214285714 8.944642857142856C32.590267857142855 8.944642857142856 33.010625 9.32767857142857 33.010625 9.916964285714286C33.010625 10.506250000000001 32.57455357142857 10.895178571428572 31.926339285714285 10.895178571428572Z"/>
    <path fill="#d0d0d0" fill-rule="evenodd" d="M33.75901785714286 9.981785714285714H36.11026785714286V11.125H36.40491071428572V9.981785714285714H37.27116071428571V9.716607142857143H36.40491071428572V8.708928571428572H36.11616071428572V9.716607142857143H34.13889983722142L36.33419642857143 7.0H35.99830357142857L33.75901785714286 9.76375Z"/>
  </g>

  <!-- COL 1 — center y=25, badge y=23.25 -->
  <rect x="29.5" y="23.25" width="11" height="3.5" rx="1.0" fill="#d0d0d0"/>
  <g transform="translate(29.5, 0)">
    <path fill="#1e1e1e" fill-rule="evenodd" d="M2.627142857142857 26.034285714285716C2.977619047619047 26.034285714285716 3.2623809523809517 25.909523809523808 3.4528571428571424 25.677142857142858L3.1557142857142852 25.402857142857144C3.018571428571428 25.562857142857144 2.8509523809523802 25.64 2.652857142857142 25.64C2.2795238095238086 25.64 2.012857142857142 25.380952380952383 2.0128571428571425 25.0C2.012857142857142 24.61904761904762 2.2795238095238073 24.36 2.652857142857142 24.36C2.8509523809523802 24.36 3.018571428571428 24.43809523809524 3.1557142857142852 24.594285714285714L3.4528571428571424 24.32C3.2623809523809517 24.087619047619047 2.9766666666666657 23.965714285714284 2.6299999999999994 23.965714285714284C2.0052380952380937 23.965714285714284 1.5442857142857138 24.398095238095237 1.5442857142857138 25.0C1.5442857142857138 25.601904761904763 2.0099999999999993 26.034285714285716 2.627142857142857 26.034285714285716Z"/>
    <path fill="#1e1e1e" fill-rule="evenodd" d="M4.709999999999999 26.034285714285716C5.178571428571427 26.034285714285716 5.552857142857142 25.792857142857144 5.718571428571428 25.412857142857142C5.829755799755799 25.15789987789988 5.8283484026522 24.835087402049428 5.718571428571428 24.587142857142858C5.5528571428571425 24.212857142857143 5.18142857142857 23.965714285714284 4.707142857142856 23.965714285714284C4.082380952380951 23.965714285714284 3.612857142857142 24.405714285714286 3.612857142857142 25.0C3.612857142857142 25.594285714285714 4.077619047619047 26.034285714285716 4.709999999999999 26.034285714285716ZM4.707142857142856 25.64C4.617619047619047 25.64 4.534761904761904 25.624761904761904 4.458571428571428 25.594285714285714C4.2299999999999995 25.502857142857142 4.081428571428571 25.28 4.081428571428571 25.0C4.081428571428571 24.61904761904762 4.349047619047617 24.36 4.707142857142856 24.36C5.065238095238093 24.36 5.332857142857142 24.61904761904762 5.332857142857142 25.0C5.332857142857142 25.380952380952383 5.065238095238092 25.64 4.707142857142856 25.64Z"/>
    <path fill="#1e1e1e" fill-rule="evenodd" d="M6.1499999999999995 26.0H7.615714285714285V25.622857142857143H6.612857142857142V24.0H6.1499999999999995Z"/>
    <path fill="#1e1e1e" fill-rule="evenodd" d="M8.867142857142856 26.0H9.329999999999998V24.0H8.467142857142855V24.37142857142857H8.867142857142856Z"/>
  </g>

  <!-- COL 2 — center y=35, badge y=33.25 -->
  <rect x="29.5" y="33.25" width="11" height="3.5" rx="1.0" fill="#d0d0d0"/>
  <g transform="translate(29.5, 0)">
    <path fill="#1e1e1e" fill-rule="evenodd" d="M2.3442857142857148 36.034285714285716C2.694761904761905 36.034285714285716 2.9795238095238097 35.90952380952381 3.1700000000000004 35.677142857142854L2.872857142857143 35.402857142857144C2.7357142857142858 35.56285714285714 2.568095238095238 35.64 2.37 35.64C1.9966666666666666 35.64 1.73 35.38095238095238 1.7300000000000004 35.0C1.73 34.61904761904762 1.9966666666666655 34.36 2.37 34.36C2.568095238095238 34.36 2.7357142857142858 34.43809523809524 2.872857142857143 34.59428571428572L3.1700000000000004 34.32C2.9795238095238097 34.08761904761905 2.6938095238095237 33.965714285714284 2.3471428571428574 33.965714285714284C1.7223809523809517 33.965714285714284 1.2614285714285718 34.39809523809524 1.2614285714285718 35.0C1.2614285714285718 35.60190476190476 1.7271428571428573 36.034285714285716 2.3442857142857148 36.034285714285716Z"/>
    <path fill="#1e1e1e" fill-rule="evenodd" d="M4.427142857142858 36.034285714285716C4.895714285714285 36.034285714285716 5.27 35.792857142857144 5.435714285714286 35.41285714285714C5.546898656898657 35.15789987789988 5.545491259795057 34.835087402049425 5.435714285714286 34.58714285714286C5.27 34.212857142857146 4.898571428571428 33.965714285714284 4.424285714285714 33.965714285714284C3.7995238095238086 33.965714285714284 3.33 34.40571428571429 3.33 35.0C3.33 35.59428571428572 3.794761904761905 36.034285714285716 4.427142857142858 36.034285714285716ZM4.424285714285714 35.64C4.334761904761905 35.64 4.251904761904762 35.624761904761904 4.175714285714286 35.59428571428572C3.9471428571428575 35.502857142857145 3.7985714285714285 35.28 3.798571428571429 35.0C3.7985714285714285 34.61904761904762 4.066190476190474 34.36 4.424285714285714 34.36C4.782380952380951 34.36 5.050000000000001 34.61904761904762 5.050000000000001 35.0C5.050000000000001 35.38095238095238 4.782380952380951 35.64 4.424285714285714 35.64Z"/>
    <path fill="#1e1e1e" fill-rule="evenodd" d="M5.867142857142858 36.0H7.332857142857144V35.62285714285714H6.330000000000001V34.0H5.867142857142858Z"/>
    <path fill="#1e1e1e" fill-rule="evenodd" d="M8.258571428571429 36.0H9.77V35.62285714285714H8.90895734514509L9.370000000000001 35.18857142857143C9.649999999999999 34.925714285714285 9.704285714285714 34.75142857142857 9.704285714285714 34.55714285714286C9.704285714285714 34.191428571428574 9.407142857142858 33.965714285714284 8.961428571428572 33.965714285714284C8.603333333333333 33.965714285714284 8.31952380952381 34.10857142857143 8.167142857142858 34.33714285714286L8.504285714285714 34.55428571428571C8.603333333333333 34.417142857142856 8.75095238095238 34.354285714285716 8.918571428571429 34.354285714285716C9.128095238095238 34.354285714285716 9.23857142857143 34.44285714285714 9.23857142857143 34.60285714285714C9.23857142857143 34.69428571428571 9.212857142857143 34.80571428571429 9.030000000000001 34.971428571428575L8.258571428571429 35.7Z"/>
  </g>

  <!-- COL 3 — center y=45, badge y=43.25 -->
  <rect x="29.5" y="43.25" width="11" height="3.5" rx="1.0" fill="#d0d0d0"/>
  <g transform="translate(29.5, 0)">
    <path fill="#1e1e1e" fill-rule="evenodd" d="M2.341428571428571 46.034285714285716C2.6919047619047616 46.034285714285716 2.976666666666666 45.90952380952381 3.167142857142857 45.677142857142854L2.8699999999999997 45.402857142857144C2.732857142857142 45.56285714285714 2.5652380952380947 45.64 2.3671428571428565 45.64C1.993809523809523 45.64 1.7271428571428564 45.38095238095238 1.7271428571428569 45.0C1.7271428571428564 44.61904761904762 1.993809523809522 44.36 2.3671428571428565 44.36C2.5652380952380947 44.36 2.732857142857142 44.43809523809524 2.8699999999999997 44.59428571428572L3.167142857142857 44.32C2.976666666666666 44.08761904761905 2.69095238095238 43.965714285714284 2.344285714285714 43.965714285714284C1.7195238095238081 43.965714285714284 1.2585714285714282 44.39809523809524 1.2585714285714282 45.0C1.2585714285714282 45.60190476190476 1.7242857142857138 46.034285714285716 2.341428571428571 46.034285714285716Z"/>
    <path fill="#1e1e1e" fill-rule="evenodd" d="M4.424285714285714 46.034285714285716C4.8928571428571415 46.034285714285716 5.267142857142856 45.792857142857144 5.432857142857142 45.41285714285714C5.544041514041513 45.15789987789988 5.542634116937913 44.835087402049425 5.432857142857142 44.58714285714286C5.267142857142856 44.212857142857146 4.895714285714284 43.965714285714284 4.421428571428571 43.965714285714284C3.796666666666665 43.965714285714284 3.3271428571428565 44.40571428571429 3.3271428571428565 45.0C3.3271428571428565 45.59428571428572 3.7919047619047612 46.034285714285716 4.424285714285714 46.034285714285716ZM4.421428571428571 45.64C4.331904761904761 45.64 4.2490476190476185 45.624761904761904 4.172857142857143 45.59428571428572C3.944285714285714 45.502857142857145 3.795714285714285 45.28 3.7957142857142854 45.0C3.795714285714285 44.61904761904762 4.063333333333331 44.36 4.421428571428571 44.36C4.779523809523807 44.36 5.047142857142857 44.61904761904762 5.047142857142857 45.0C5.047142857142857 45.38095238095238 4.779523809523807 45.64 4.421428571428571 45.64Z"/>
    <path fill="#1e1e1e" fill-rule="evenodd" d="M5.864285714285715 46.0H7.33V45.62285714285714H6.327142857142857V44.0H5.864285714285715Z"/>
    <path fill="#1e1e1e" fill-rule="evenodd" d="M8.92142857142857 46.034285714285716C9.492857142857142 46.034285714285716 9.75 45.72571428571429 9.75 45.38857142857143C9.75 45.09358998857143 9.565885846350582 44.872392123254905 9.208219321114676 44.813029981340684L9.658571428571427 44.3V44.0H8.258571428571429V44.371428571428574H9.109495806012834L8.698571428571428 44.83714285714286V45.142857142857146H8.91C9.172857142857142 45.142857142857146 9.284285714285714 45.23619047619048 9.284285714285714 45.38857142857143C9.284285714285714 45.54857142857143 9.142380952380952 45.645714285714284 8.91 45.645714285714284C8.704285714285714 45.645714285714284 8.49095238095238 45.576190476190476 8.338571428571429 45.465714285714284L8.158571428571427 45.82C8.349047619047619 45.957142857142856 8.643333333333333 46.034285714285716 8.92142857142857 46.034285714285716Z"/>
  </g>

  <!-- COL 4 — center y=55, badge y=53.25 -->
  <rect x="29.5" y="53.25" width="11" height="3.5" rx="1.0" fill="#d0d0d0"/>
  <g transform="translate(29.5, 0)">
    <path fill="#1e1e1e" fill-rule="evenodd" d="M2.2028571428571433 56.034285714285716C2.5533333333333337 56.034285714285716 2.8380952380952382 55.90952380952381 3.028571428571429 55.677142857142854L2.7314285714285718 55.402857142857144C2.5942857142857143 55.56285714285714 2.4266666666666667 55.64 2.2285714285714286 55.64C1.8552380952380951 55.64 1.5885714285714285 55.38095238095238 1.588571428571429 55.0C1.5885714285714285 54.61904761904762 1.855238095238094 54.36 2.2285714285714286 54.36C2.4266666666666667 54.36 2.5942857142857143 54.43809523809524 2.7314285714285718 54.59428571428572L3.028571428571429 54.32C2.8380952380952382 54.08761904761905 2.552380952380952 53.965714285714284 2.205714285714286 53.965714285714284C1.5809523809523802 53.965714285714284 1.1200000000000003 54.39809523809524 1.1200000000000003 55.0C1.1200000000000003 55.60190476190476 1.5857142857142859 56.034285714285716 2.2028571428571433 56.034285714285716Z"/>
    <path fill="#1e1e1e" fill-rule="evenodd" d="M4.2857142857142865 56.034285714285716C4.754285714285714 56.034285714285716 5.128571428571428 55.792857142857144 5.2942857142857145 55.41285714285714C5.4054700854700855 55.15789987789988 5.404062688366485 54.835087402049425 5.2942857142857145 54.58714285714286C5.128571428571428 54.212857142857146 4.757142857142856 53.965714285714284 4.282857142857143 53.965714285714284C3.658095238095237 53.965714285714284 3.1885714285714286 54.40571428571429 3.1885714285714286 55.0C3.1885714285714286 55.59428571428572 3.6533333333333333 56.034285714285716 4.2857142857142865 56.034285714285716ZM4.282857142857143 55.64C4.193333333333333 55.64 4.110476190476191 55.624761904761904 4.034285714285715 55.59428571428572C3.805714285714286 55.502857142857145 3.657142857142857 55.28 3.6571428571428575 55.0C3.657142857142857 54.61904761904762 3.9247619047619033 54.36 4.282857142857143 54.36C4.640952380952379 54.36 4.908571428571429 54.61904761904762 4.908571428571429 55.0C4.908571428571429 55.38095238095238 4.640952380952379 55.64 4.282857142857143 55.64Z"/>
    <path fill="#1e1e1e" fill-rule="evenodd" d="M5.725714285714287 56.0H7.191428571428572V55.62285714285714H6.1885714285714295V54.0H5.725714285714287Z"/>
    <path fill="#1e1e1e" fill-rule="evenodd" d="M8.111428571428572 55.58H9.188571428571429V56.0H9.64V55.58H9.965714285714286V55.20285714285714H9.64V54.82857142857143H9.202857142857143V55.20285714285714H8.664948512486049L9.540000000000001 54.0H9.054285714285715L8.111428571428572 55.26857142857143Z"/>
  </g>

  <!-- COL 5 — center y=65, badge y=63.25 -->
  <rect x="29.5" y="63.25" width="11" height="3.5" rx="1.0" fill="#d0d0d0"/>
  <g transform="translate(29.5, 0)">
    <path fill="#1e1e1e" fill-rule="evenodd" d="M2.3371428571428576 66.03428571428572C2.687619047619048 66.03428571428572 2.9723809523809526 65.9095238095238 3.1628571428571433 65.67714285714285L2.865714285714286 65.40285714285714C2.7285714285714286 65.56285714285714 2.560952380952381 65.64 2.362857142857143 65.64C1.9895238095238095 65.64 1.7228571428571429 65.38095238095238 1.7228571428571433 65.0C1.7228571428571429 64.61904761904762 1.9895238095238084 64.36 2.362857142857143 64.36C2.560952380952381 64.36 2.7285714285714286 64.43809523809524 2.865714285714286 64.59428571428572L3.1628571428571433 64.32C2.9723809523809526 64.08761904761904 2.6866666666666665 63.965714285714284 2.3400000000000003 63.965714285714284C1.7152380952380946 63.965714285714284 1.2542857142857147 64.39809523809524 1.2542857142857147 65.0C1.2542857142857147 65.60190476190476 1.7200000000000002 66.03428571428572 2.3371428571428576 66.03428571428572Z"/>
    <path fill="#1e1e1e" fill-rule="evenodd" d="M4.42 66.03428571428572C4.888571428571428 66.03428571428572 5.2628571428571425 65.79285714285714 5.428571428571429 65.41285714285715C5.5397557997558 65.15789987789988 5.5383484026522005 64.83508740204942 5.428571428571429 64.58714285714285C5.262857142857143 64.21285714285715 4.891428571428571 63.965714285714284 4.417142857142857 63.965714285714284C3.7923809523809515 63.965714285714284 3.322857142857143 64.40571428571428 3.322857142857143 65.0C3.322857142857143 65.59428571428572 3.7876190476190477 66.03428571428572 4.42 66.03428571428572ZM4.417142857142857 65.64C4.327619047619048 65.64 4.244761904761905 65.62476190476191 4.168571428571429 65.59428571428572C3.9400000000000004 65.50285714285714 3.7914285714285714 65.28 3.791428571428572 65.0C3.7914285714285714 64.61904761904762 4.059047619047618 64.36 4.417142857142857 64.36C4.775238095238094 64.36 5.042857142857143 64.61904761904762 5.042857142857143 65.0C5.042857142857143 65.38095238095238 4.775238095238093 65.64 4.417142857142857 65.64Z"/>
    <path fill="#1e1e1e" fill-rule="evenodd" d="M5.86 66.0H7.325714285714286V65.62285714285714H6.322857142857143V64.0H5.86Z"/>
    <path fill="#1e1e1e" fill-rule="evenodd" d="M8.948571428571428 66.03428571428572C9.52 66.03428571428572 9.78 65.72571428571429 9.78 65.37142857142857C9.78 65.01714285714286 9.548571428571428 64.75142857142858 8.954285714285714 64.75142857142858H8.790238952636718L8.824046761648995 64.37142857142857H9.657142857142857V64.0H8.437142857142856L8.334285714285715 65.12571428571428H8.845714285714285C9.21142857142857 65.12571428571428 9.311428571428571 65.23142857142857 9.311428571428571 65.38571428571429C9.311428571428571 65.5495238095238 9.169523809523808 65.64571428571429 8.937142857142856 65.64571428571429C8.731428571428571 65.64571428571429 8.52095238095238 65.57619047619048 8.368571428571428 65.46571428571428L8.185714285714285 65.82C8.379999999999999 65.95714285714286 8.67047619047619 66.03428571428572 8.948571428571428 66.03428571428572Z"/>
  </g>

  <!-- COL 6 — center y=75, badge y=73.25 -->
  <rect x="29.5" y="73.25" width="11" height="3.5" rx="1.0" fill="#d0d0d0"/>
  <g transform="translate(29.5, 0)">
    <path fill="#1e1e1e" fill-rule="evenodd" d="M2.277142857142857 76.03428571428572C2.6276190476190475 76.03428571428572 2.912380952380952 75.9095238095238 3.1028571428571428 75.67714285714285L2.8057142857142856 75.40285714285714C2.668571428571428 75.56285714285714 2.5009523809523806 75.64 2.3028571428571425 75.64C1.929523809523809 75.64 1.6628571428571424 75.38095238095238 1.6628571428571428 75.0C1.6628571428571424 74.61904761904762 1.9295238095238079 74.36 2.3028571428571425 74.36C2.5009523809523806 74.36 2.668571428571428 74.43809523809524 2.8057142857142856 74.59428571428572L3.1028571428571428 74.32C2.912380952380952 74.08761904761904 2.626666666666666 73.96571428571428 2.28 73.96571428571428C1.655238095238094 73.96571428571428 1.1942857142857142 74.39809523809524 1.1942857142857142 75.0C1.1942857142857142 75.60190476190476 1.6599999999999997 76.03428571428572 2.277142857142857 76.03428571428572Z"/>
    <path fill="#1e1e1e" fill-rule="evenodd" d="M4.359999999999999 76.03428571428572C4.828571428571427 76.03428571428572 5.202857142857142 75.79285714285714 5.368571428571428 75.41285714285715C5.479755799755799 75.15789987789988 5.4783484026522 74.83508740204942 5.368571428571428 74.58714285714285C5.202857142857143 74.21285714285715 4.83142857142857 73.96571428571428 4.357142857142857 73.96571428571428C3.732380952380951 73.96571428571428 3.2628571428571425 74.40571428571428 3.2628571428571425 75.0C3.2628571428571425 75.59428571428572 3.727619047619047 76.03428571428572 4.359999999999999 76.03428571428572ZM4.357142857142857 75.64C4.267619047619047 75.64 4.1847619047619045 75.62476190476191 4.1085714285714285 75.59428571428572C3.88 75.50285714285714 3.731428571428571 75.28 3.7314285714285713 75.0C3.731428571428571 74.61904761904762 3.999047619047617 74.36 4.357142857142857 74.36C4.715238095238093 74.36 4.982857142857142 74.61904761904762 4.982857142857142 75.0C4.982857142857142 75.38095238095238 4.715238095238092 75.64 4.357142857142857 75.64Z"/>
    <path fill="#1e1e1e" fill-rule="evenodd" d="M5.8 76.0H7.265714285714285V75.62285714285714H6.2628571428571425V74.0H5.8Z"/>
    <path fill="#1e1e1e" fill-rule="evenodd" d="M9.102857142857141 76.03428571428572C9.245714285714284 76.03428571428572 9.373809523809523 76.00714285714285 9.487142857142857 75.95285714285714C9.713809523809521 75.84428571428572 9.86 75.63904761904762 9.86 75.36857142857143C9.86 75.24285714285715 9.829047619047618 75.13333333333334 9.767142857142856 75.04C9.64333333333333 74.85333333333334 9.43047619047619 74.74571428571429 9.17142857142857 74.74571428571429C8.964169714285713 74.74571428571429 8.796001029959244 74.80735648130936 8.677828696114675 74.9263359941755L8.678600899832588 74.90836584908622C8.698003805496334 74.53465125920887 8.909822186666664 74.34285714285714 9.239999999999998 74.34285714285714C9.377142857142855 74.34285714285714 9.503809523809522 74.36666666666666 9.614285714285714 74.44285714285714L9.785714285714285 74.10285714285715C9.644761904761904 74.01142857142857 9.44190476190476 73.96571428571428 9.228571428571428 73.96571428571428C8.628571428571426 73.96571428571428 8.208571428571428 74.35142857142857 8.208571428571428 75.04285714285714C8.208571428571428 75.68857142857144 8.554285714285713 76.03428571428572 9.102857142857141 76.03428571428572ZM9.077142857142857 75.68857142857142C8.854285714285714 75.68857142857144 8.725714285714284 75.56285714285714 8.725714285714284 75.39142857142858C8.725714285714284 75.21428571428571 8.865714285714285 75.09142857142857 9.071428571428571 75.09142857142857C9.277142857142856 75.09142857142857 9.41142857142857 75.20857142857143 9.411428571428571 75.39142857142858C9.41142857142857 75.56857142857143 9.271428571428569 75.68857142857144 9.077142857142857 75.68857142857142Z"/>
  </g>

  <!-- COL 7 — center y=85, badge y=83.25 -->
  <rect x="29.5" y="83.25" width="11" height="3.5" rx="1.0" fill="#d0d0d0"/>
  <g transform="translate(29.5, 0)">
    <path fill="#1e1e1e" fill-rule="evenodd" d="M2.301428571428571 86.03428571428572C2.6519047619047615 86.03428571428572 2.936666666666666 85.9095238095238 3.127142857142857 85.67714285714285L2.8299999999999996 85.40285714285714C2.692857142857142 85.56285714285714 2.5252380952380946 85.64 2.3271428571428565 85.64C1.953809523809523 85.64 1.6871428571428564 85.38095238095238 1.6871428571428568 85.0C1.6871428571428564 84.61904761904762 1.9538095238095219 84.36 2.3271428571428565 84.36C2.5252380952380946 84.36 2.692857142857142 84.43809523809524 2.8299999999999996 84.59428571428572L3.127142857142857 84.32C2.936666666666666 84.08761904761904 2.65095238095238 83.96571428571428 2.304285714285714 83.96571428571428C1.679523809523808 83.96571428571428 1.2185714285714282 84.39809523809524 1.2185714285714282 85.0C1.2185714285714282 85.60190476190476 1.6842857142857137 86.03428571428572 2.301428571428571 86.03428571428572Z"/>
    <path fill="#1e1e1e" fill-rule="evenodd" d="M4.3842857142857135 86.03428571428572C4.852857142857141 86.03428571428572 5.227142857142856 85.79285714285714 5.392857142857142 85.41285714285715C5.504041514041513 85.15789987789988 5.502634116937914 84.83508740204942 5.392857142857142 84.58714285714285C5.227142857142857 84.21285714285715 4.855714285714284 83.96571428571428 4.381428571428571 83.96571428571428C3.756666666666665 83.96571428571428 3.2871428571428565 84.40571428571428 3.2871428571428565 85.0C3.2871428571428565 85.59428571428572 3.751904761904761 86.03428571428572 4.3842857142857135 86.03428571428572ZM4.381428571428571 85.64C4.291904761904761 85.64 4.2090476190476185 85.62476190476191 4.132857142857143 85.59428571428572C3.904285714285714 85.50285714285714 3.755714285714285 85.28 3.7557142857142853 85.0C3.755714285714285 84.61904761904762 4.023333333333332 84.36 4.381428571428571 84.36C4.739523809523807 84.36 5.007142857142856 84.61904761904762 5.007142857142856 85.0C5.007142857142856 85.38095238095238 4.739523809523806 85.64 4.381428571428571 85.64Z"/>
    <path fill="#1e1e1e" fill-rule="evenodd" d="M5.824285714285714 86.0H7.289999999999999V85.62285714285714H6.2871428571428565V84.0H5.824285714285714Z"/>
    <path fill="#1e1e1e" fill-rule="evenodd" d="M8.55285714285714 86.0H9.055714285714284L9.798571428571428 84.3V84.0H8.195714285714285V84.70285714285714H8.607142857142856V84.37714285714286H9.270170179094585Z"/>
  </g>

  <!-- COL 8 — center y=95, badge y=93.25 -->
  <rect x="29.5" y="93.25" width="11" height="3.5" rx="1.0" fill="#d0d0d0"/>
  <g transform="translate(29.5, 0)">
    <path fill="#1e1e1e" fill-rule="evenodd" d="M2.244285714285714 96.03428571428572C2.5947619047619046 96.03428571428572 2.879523809523809 95.9095238095238 3.07 95.67714285714285L2.7728571428571427 95.40285714285714C2.6357142857142852 95.56285714285714 2.4680952380952377 95.64 2.2699999999999996 95.64C1.896666666666666 95.64 1.6299999999999994 95.38095238095238 1.63 95.0C1.6299999999999994 94.61904761904762 1.896666666666665 94.36 2.2699999999999996 94.36C2.4680952380952377 94.36 2.6357142857142852 94.43809523809524 2.7728571428571427 94.59428571428572L3.07 94.32C2.879523809523809 94.08761904761904 2.593809523809523 93.96571428571428 2.247142857142857 93.96571428571428C1.6223809523809511 93.96571428571428 1.1614285714285713 94.39809523809524 1.1614285714285713 95.0C1.1614285714285713 95.60190476190476 1.6271428571428568 96.03428571428572 2.244285714285714 96.03428571428572Z"/>
    <path fill="#1e1e1e" fill-rule="evenodd" d="M4.3271428571428565 96.03428571428572C4.7957142857142845 96.03428571428572 5.169999999999999 95.79285714285714 5.335714285714285 95.41285714285715C5.446898656898656 95.15789987789988 5.445491259795057 94.83508740204942 5.335714285714285 94.58714285714285C5.17 94.21285714285715 4.798571428571427 93.96571428571428 4.324285714285714 93.96571428571428C3.699523809523808 93.96571428571428 3.2299999999999995 94.40571428571428 3.2299999999999995 95.0C3.2299999999999995 95.59428571428572 3.6947619047619042 96.03428571428572 4.3271428571428565 96.03428571428572ZM4.324285714285714 95.64C4.234761904761904 95.64 4.1519047619047615 95.62476190476191 4.075714285714286 95.59428571428572C3.847142857142857 95.50285714285714 3.698571428571428 95.28 3.6985714285714284 95.0C3.698571428571428 94.61904761904762 3.9661904761904743 94.36 4.324285714285714 94.36C4.68238095238095 94.36 4.949999999999999 94.61904761904762 4.949999999999999 95.0C4.949999999999999 95.38095238095238 4.682380952380949 95.64 4.324285714285714 95.64Z"/>
    <path fill="#1e1e1e" fill-rule="evenodd" d="M5.767142857142857 96.0H7.232857142857142V95.62285714285714H6.2299999999999995V94.0H5.767142857142857Z"/>
    <path fill="#1e1e1e" fill-rule="evenodd" d="M9.004285714285713 96.03428571428572C9.51285714285714 96.03428571428572 9.85 95.79142857142857 9.85 95.42C9.85 95.20451088571428 9.738444753251416 95.04383771164123 9.544347272600445 94.9469228036063C9.69350742058952 94.8546629478746 9.778571428571427 94.71498268 9.778571428571427 94.53714285714285C9.778571428571427 94.18285714285715 9.467142857142857 93.96571428571428 9.004285714285713 93.96571428571428C8.55285714285714 93.96571428571428 8.235714285714284 94.18285714285715 8.235714285714284 94.53714285714285C8.235714285714284 94.71493312 8.32073088941129 94.8545850933482 8.468976309640066 94.94684751238142C8.275900191933495 95.04375241647963 8.164285714285713 95.20445368571428 8.164285714285713 95.42C8.164285714285713 95.79142857142857 8.501428571428571 96.03428571428572 9.004285714285713 96.03428571428572ZM9.004285714285713 94.80285714285715C8.813809523809523 94.80285714285715 8.695714285714285 94.70952380952382 8.695714285714285 94.55714285714286C8.695714285714285 94.39714285714285 8.82142857142857 94.30571428571429 9.004285714285713 94.30571428571429C9.19095238095238 94.30571428571429 9.318571428571428 94.39714285714285 9.318571428571428 94.55714285714286C9.318571428571428 94.70952380952382 9.198571428571427 94.80285714285715 9.004285714285713 94.80285714285715ZM9.004285714285713 95.69428571428571C8.775714285714285 95.69428571428571 8.632857142857143 95.5847619047619 8.632857142857143 95.40571428571428C8.632857142857143 95.22666666666667 8.775714285714285 95.12 9.004285714285713 95.12C9.236666666666665 95.12 9.38142857142857 95.22666666666667 9.38142857142857 95.40571428571428C9.38142857142857 95.5847619047619 9.236666666666665 95.69428571428571 9.004285714285713 95.69428571428571Z"/>
  </g>

  <!-- separator between COL 8 and POLY -->
  <line x1="4" y1="101" x2="46.8" y2="101" stroke="#f26522" stroke-width="0.4"/>

  <!-- POLY output badge — center y=108, badge y=106.25 -->
  <rect x="29.5" y="106.25" width="11" height="3.5" rx="1.0" fill="#d0d0d0"/>
  <g transform="translate(29.5, 0)">
    <path fill="#1e1e1e" fill-rule="evenodd" d="M1.657142857142857 109.0H2.12V108.44857142857143H2.5228571428571427C3.0599999999999987 108.44857142857143 3.3914285714285715 108.17142857142858 3.3914285714285715 107.72571428571429C3.3914285714285715 107.27428571428571 3.0599999999999987 107.0 2.5228571428571427 107.0H1.657142857142857ZM2.4971428571428573 107.37714285714286C2.782857142857143 107.37714285714286 2.9228571428571426 107.5047619047619 2.9228571428571426 107.72571428571429C2.9228571428571426 107.94285714285715 2.7828571428571425 108.07142857142857 2.4971428571428573 108.07142857142857H2.12V107.37714285714286Z"/>
    <path fill="#1e1e1e" fill-rule="evenodd" d="M4.720000000000001 109.03428571428572C5.188571428571428 109.03428571428572 5.562857142857142 108.79285714285714 5.728571428571429 108.41285714285715C5.8397557997558 108.15789987789988 5.8383484026521995 107.83508740204942 5.728571428571429 107.58714285714285C5.562857142857142 107.21285714285715 5.19142857142857 106.96571428571428 4.717142857142857 106.96571428571428C4.092380952380951 106.96571428571428 3.6228571428571428 107.40571428571428 3.6228571428571428 108.0C3.6228571428571428 108.59428571428572 4.0876190476190475 109.03428571428572 4.720000000000001 109.03428571428572ZM4.717142857142857 108.64C4.6276190476190475 108.64 4.544761904761905 108.62476190476191 4.468571428571429 108.59428571428572C4.24 108.50285714285714 4.091428571428572 108.28 4.091428571428572 108.0C4.091428571428571 107.61904761904762 4.359047619047617 107.36 4.717142857142857 107.36C5.0752380952380935 107.36 5.342857142857143 107.61904761904762 5.342857142857143 108.0C5.342857142857143 108.38095238095238 5.0752380952380935 108.64 4.717142857142857 108.64Z"/>
    <path fill="#1e1e1e" fill-rule="evenodd" d="M6.160000000000001 109.0H7.625714285714286V108.62285714285714H6.622857142857144V107.0H6.160000000000001Z"/>
    <path fill="#1e1e1e" fill-rule="evenodd" d="M8.382857142857144 109.0H8.845714285714287V108.29187384469168L9.622857142857143 107.0H9.168571428571429L8.63315614972796 107.88784053257534L8.100000000000001 107.0H7.608571428571429L8.382857142857144 108.28712430681502Z"/>
  </g>

  <!-- domino logo centered above bottom bar -->
  <g transform="translate(20.71,118.0) scale(0.75)">
    <rect x="0" y="0" width="12.5" height="5.5"
          rx="1.18" ry="1.2"
          fill="none" stroke="#d0d0d0" stroke-width="0.5"/>
    <rect x="6.125" y="0.5" width="0.25" height="4.5"
          fill="#d0d0d0"/>
    <circle cx="2.07"  cy="1.46" r="0.625" fill="#d0d0d0"/>
    <circle cx="4.19"  cy="4.11" r="0.625" fill="#d0d0d0"/>
    <circle cx="8.20"  cy="1.46" r="0.625" fill="#d0d0d0"/>
    <circle cx="10.32" cy="4.11" r="0.625" fill="#d0d0d0"/>
  </g>

</svg>
