<?xml version="1.0" encoding="UTF-8"?>
<svg xmlns="http://www.w3.org/2000/svg"
     width="50.8mm" height="128.5mm"
     viewBox="0 0 50.8 128.5">

  <rect width="50.8" height="128.5" fill="#1e1e1e"/>

  <!-- top accent: slants start just inside screw inner edges (10.16 / 40.64 mm) -->
  <polygon points="
    0,0 50.8,0 50.8,0.5
    40.64,0.5 38.16,2.0 12.64,2.0 10.16,0.5
    0,0.5
  " fill="#f26522"/>
  <rect x="0" y="127.5" width="50.8" height="1.0" fill="#f26522"/>

  <!-- title: SLDR (Bold) + 64 (Light), cap-top y=7, baseline y=11.125, cap-height=4.125 -->
  <g id="title">
    <path fill="#d0d0d0" fill-rule="evenodd" d="M15.284910714285713 11.195714285714285C16.46348214285714 11.195714285714285 17.035089285714285 10.612321428571429 17.035089285714285 9.916964285714286C17.035089285714285 9.48482142857143 16.840625 9.211785714285714 16.557767857142856 9.03892857142857C15.850624999999994 8.606785714285714 14.636696428571426 8.69714285714286 14.636696428571426 8.166785714285714C14.636696428571426 8.076428571428572 14.66223214285714 7.996875 14.71330357142857 7.928125C14.815446428571427 7.790625 15.051160714285713 7.695357142857143 15.420446428571427 7.695357142857143C15.78973214285714 7.695357142857143 16.178660714285712 7.799464285714286 16.563660714285714 8.019464285714285L16.85830357142857 7.294642857142857C16.47330357142857 7.051071428571428 15.944910714285712 6.929285714285714 15.426339285714285 6.929285714285714C14.259553571428569 6.929285714285714 13.687946428571427 7.506785714285715 13.687946428571427 8.213928571428571C13.687946428571427 8.873928571428571 14.121071428571428 9.145 14.63375 9.31C15.317321428571427 9.530000000000001 16.086339285714285 9.547678571428571 16.086339285714285 9.987678571428571C16.086339285714285 10.246964285714286 15.856517857142855 10.429642857142857 15.29080357142857 10.429642857142857C14.79580357142857 10.429642857142857 14.283124999999998 10.250892857142857 13.92955357142857 9.999464285714286L13.605446428571426 10.718392857142858C13.97473214285714 11.00125 14.624910714285713 11.195714285714285 15.284910714285713 11.195714285714285Z"/>
    <path fill="#d0d0d0" fill-rule="evenodd" d="M17.689196428571428 11.125H20.712232142857143V10.347142857142858H18.643839285714286V7.0H17.689196428571428Z"/>
    <path fill="#d0d0d0" fill-rule="evenodd" d="M21.248482142857142 11.125H23.122410714285714C24.46598214285714 11.125 25.39705357142857 10.311785714285715 25.39705357142857 9.0625C25.39705357142857 8.642142857142858 25.30080357142857 8.27875 25.10830357142857 7.972321428571428C24.72330357142857 7.359464285714285 24.018124999999998 7.0 23.122410714285714 7.0H21.248482142857142ZM22.203125 10.34125V7.7837499999999995H23.075267857142855C23.900267857142854 7.7837499999999995 24.430625 8.272857142857145 24.430625 9.0625C24.430625 9.840357142857144 23.900267857142854 10.34125 23.075267857142855 10.34125Z"/>
    <path fill="#d0d0d0" fill-rule="evenodd" d="M26.115982142857142 11.125H27.070625V9.975892857142856H27.901517857142856C27.91654150785714 9.975892857142856 27.931487132122662 9.975789905578512 27.94635544504438 9.975543840953282L28.73830357142857 11.125H29.76955357142857L28.847257407052176 9.801478951317923C29.384904784174818 9.569020266407202 29.692946428571428 9.113896698571429 29.692946428571428 8.496785714285714C29.692946428571428 7.561785714285715 29.025089285714284 7.0 27.877946428571427 7.0H26.115982142857142ZM27.84848214285714 7.777857142857142C28.437767857142855 7.777857142857142 28.726517857142856 8.041071428571428 28.726517857142856 8.496785714285714C28.726517857142856 8.944642857142858 28.437767857142855 9.215714285714286 27.84848214285714 9.215714285714286H27.070625V7.777857142857142Z"/>
    <path fill="#d0d0d0" fill-rule="evenodd" d="M31.938125 11.154464285714285C32.72776785714285 11.154464285714285 33.31116071428571 10.665357142857145 33.31116071428571 9.911071428571429C33.31116071428571 9.168571428571429 32.75723214285714 8.685357142857143 31.932232142857142 8.685357142857143C31.308573864285712 8.685357142857143 30.790337965171084 8.992457117796517 30.620071362086705 9.534127110072545C30.590146366795672 9.34561871007967 30.582767857142855 9.162759602142858 30.582767857142855 9.03892857142857C30.582767857142855 7.836785714285714 31.187767857142855 7.235714285714286 32.11491071428571 7.235714285714286C32.42919642857143 7.235714285714286 32.71598214285714 7.290714285714286 32.928125 7.424285714285714L33.051874999999995 7.182678571428571C32.800446428571426 7.025535714285715 32.46848214285714 6.970535714285714 32.11491071428571 6.970535714285714C31.018839285714286 6.970535714285714 30.282232142857143 7.68357142857143 30.282232142857143 9.08607142857143C30.282232142857143 10.370714285714286 30.853839285714283 11.154464285714285 31.938125 11.154464285714285ZM31.926339285714285 10.895178571428572C31.160267857142856 10.895178571428572 30.747767857142858 10.411964285714285 30.747767857142858 9.92875C30.747767857142858 9.37482142857143 31.219196428571426 8.944642857142856 31.89098214285714 8.944642857142856C32.590267857142855 8.944642857142856 33.010625 9.32767857142857 33.010625 9.916964285714286C33.010625 10.506250000000001 32.57455357142857 10.895178571428572 31.926339285714285 10.895178571428572Z"/>
    <path fill="#d0d0d0" fill-rule="evenodd" d="M33.75901785714286 9.981785714285714H36.11026785714286V11.125H36.40491071428572V9.981785714285714H37.27116071428571V9.716607142857143H36.40491071428572V8.708928571428572H36.11616071428572V9.716607142857143H34.13889983722142L36.33419642857143 7.0H35.99830357142857L33.75901785714286 9.76375Z"/>
  </g>

  <!-- COL labels: white badge (11mm, rx 1mm, x=29.5), black text centered at x=35mm -->
  <!-- COL 1 — y=25 -->
  <rect x="29.5" y="23.25" width="11" height="3.5" rx="1.0" fill="#d0d0d0"/>
  <g>
    <path fill="#1e1e1e" fill-rule="evenodd" d="M32.598571428571425 26.02285714285714C32.91095238095238 26.02285714285714 33.17857142857143 25.914285714285715 33.36142857142857 25.708571428571428L33.175714285714285 25.52857142857143C33.02333333333333 25.69238095238095 32.83 25.768571428571427 32.612857142857145 25.768571428571427C32.163333333333334 25.768571428571427 31.827142857142857 25.441904761904762 31.827142857142857 25.0C31.827142857142857 24.55809523809524 32.16333333333333 24.231428571428573 32.612857142857145 24.231428571428573C32.83 24.231428571428573 33.02333333333333 24.30857142857143 33.175714285714285 24.46857142857143L33.36142857142857 24.28857142857143C33.17857142857143 24.082857142857144 32.91 23.97714285714286 32.60142857142857 23.97714285714286C31.99190476190476 23.97714285714286 31.541428571428572 24.40571428571429 31.541428571428572 25.0C31.541428571428572 25.594285714285714 31.989047619047618 26.02285714285714 32.598571428571425 26.02285714285714Z"/>
    <path fill="#1e1e1e" fill-rule="evenodd" d="M34.64428571428571 26.02285714285714C35.253809523809515 26.02285714285714 35.70428571428571 25.594285714285714 35.70428571428571 25.0C35.70428571428571 24.405714285714286 35.25380952380952 23.97714285714286 34.64428571428571 23.97714285714286C34.02714285714285 23.97714285714286 33.57857142857142 24.413333333333338 33.57857142857142 25.0C33.57857142857142 25.586666666666666 34.0347619047619 26.02285714285714 34.64428571428571 26.02285714285714ZM34.64428571428571 25.768571428571427C34.1947619047619 25.768571428571427 33.86428571428571 25.441904761904762 33.86428571428571 25.0C33.86428571428571 24.55809523809524 34.1947619047619 24.231428571428573 34.64428571428571 24.231428571428573C35.086190476190474 24.231428571428573 35.418571428571425 24.558095238095238 35.418571428571425 25.0C35.418571428571425 25.441904761904762 35.08619047619047 25.768571428571427 34.64428571428571 25.768571428571427Z"/>
    <path fill="#1e1e1e" fill-rule="evenodd" d="M36.14142857142856 26.0H37.50999999999999V25.751428571428573H36.427142857142854V24.0H36.14142857142856Z"/>
    <path fill="#1e1e1e" fill-rule="evenodd" d="M38.012857142857136 26.0H38.29571428571428V24.0H37.561428571428564V24.248571428571427H38.012857142857136Z"/>
  </g>
  <!-- COL 2 — y=37 -->
  <rect x="29.5" y="35.25" width="11" height="3.5" rx="1.0" fill="#d0d0d0"/>
  <g>
    <path fill="#1e1e1e" fill-rule="evenodd" d="M32.30714285714286 38.02285714285714C32.61952380952381 38.02285714285714 32.88714285714286 37.91428571428571 33.07 37.70857142857143L32.88428571428572 37.52857142857143C32.731904761904765 37.69238095238095 32.53857142857143 37.76857142857143 32.32142857142858 37.76857142857143C31.871904761904762 37.76857142857143 31.53571428571429 37.44190476190476 31.53571428571429 37.0C31.53571428571429 36.55809523809524 31.871904761904762 36.23142857142857 32.32142857142858 36.23142857142857C32.53857142857143 36.23142857142857 32.731904761904765 36.308571428571426 32.88428571428572 36.46857142857143L33.07 36.28857142857143C32.88714285714286 36.082857142857144 32.61857142857143 35.97714285714286 32.31 35.97714285714286C31.70047619047619 35.97714285714286 31.250000000000004 36.40571428571429 31.250000000000004 37.0C31.250000000000004 37.59428571428572 31.69761904761905 38.02285714285714 32.30714285714286 38.02285714285714Z"/>
    <path fill="#1e1e1e" fill-rule="evenodd" d="M34.35285714285714 38.02285714285714C34.96238095238095 38.02285714285714 35.41285714285714 37.59428571428572 35.41285714285714 37.0C35.41285714285714 36.40571428571429 34.962380952380954 35.97714285714286 34.35285714285714 35.97714285714286C33.73571428571428 35.97714285714286 33.287142857142854 36.413333333333334 33.287142857142854 37.0C33.287142857142854 37.586666666666666 33.74333333333333 38.02285714285714 34.35285714285714 38.02285714285714ZM34.35285714285714 37.76857142857143C33.90333333333333 37.76857142857143 33.57285714285714 37.44190476190476 33.57285714285714 37.0C33.57285714285714 36.55809523809524 33.90333333333333 36.23142857142857 34.35285714285714 36.23142857142857C34.794761904761906 36.23142857142857 35.12714285714286 36.55809523809524 35.12714285714286 37.0C35.12714285714286 37.441904761904766 34.7947619047619 37.76857142857143 34.35285714285714 37.76857142857143Z"/>
    <path fill="#1e1e1e" fill-rule="evenodd" d="M35.849999999999994 38.0H37.21857142857142V37.75142857142857H36.135714285714286V36.0H35.849999999999994Z"/>
    <path fill="#1e1e1e" fill-rule="evenodd" d="M37.35285714285714 38.0H38.79V37.75142857142857H37.765521872384205L38.37571428571428 37.16285714285714C38.64428571428571 36.9 38.70428571428571 36.72857142857143 38.70428571428571 36.534285714285716C38.70428571428571 36.191428571428574 38.43571428571428 35.97714285714286 38.01857142857143 35.97714285714286C37.71 35.97714285714286 37.439523809523806 36.08571428571429 37.287142857142854 36.28L37.481428571428566 36.44857142857143C37.607142857142854 36.3 37.77952380952381 36.23142857142857 37.99285714285714 36.23142857142857C38.27095238095238 36.23142857142857 38.418571428571425 36.357142857142854 38.418571428571425 36.56285714285714C38.418571428571425 36.68857142857143 38.38428571428571 36.81428571428572 38.167142857142856 37.02L37.35285714285714 37.80571428571429Z"/>
  </g>
  <!-- COL 3 — y=49 -->
  <rect x="29.5" y="47.25" width="11" height="3.5" rx="1.0" fill="#d0d0d0"/>
  <g>
    <path fill="#1e1e1e" fill-rule="evenodd" d="M32.31 50.02285714285714C32.62238095238095 50.02285714285714 32.89 49.91428571428571 33.072857142857146 49.70857142857143L32.887142857142855 49.52857142857143C32.7347619047619 49.69238095238095 32.541428571428575 49.76857142857143 32.324285714285715 49.76857142857143C31.874761904761904 49.76857142857143 31.53857142857143 49.44190476190476 31.53857142857143 49.0C31.53857142857143 48.55809523809524 31.874761904761904 48.23142857142857 32.324285714285715 48.23142857142857C32.541428571428575 48.23142857142857 32.7347619047619 48.308571428571426 32.887142857142855 48.46857142857143L33.072857142857146 48.28857142857143C32.89 48.082857142857144 32.621428571428574 47.97714285714286 32.31285714285714 47.97714285714286C31.703333333333333 47.97714285714286 31.252857142857145 48.40571428571429 31.252857142857145 49.0C31.252857142857145 49.59428571428572 31.70047619047619 50.02285714285714 32.31 50.02285714285714Z"/>
    <path fill="#1e1e1e" fill-rule="evenodd" d="M34.355714285714285 50.02285714285714C34.96523809523809 50.02285714285714 35.41571428571429 49.59428571428572 35.41571428571429 49.0C35.41571428571429 48.40571428571429 34.9652380952381 47.97714285714286 34.355714285714285 47.97714285714286C33.738571428571426 47.97714285714286 33.29 48.413333333333334 33.29 49.0C33.29 49.586666666666666 33.74619047619048 50.02285714285714 34.355714285714285 50.02285714285714ZM34.355714285714285 49.76857142857143C33.906190476190474 49.76857142857143 33.575714285714284 49.44190476190476 33.575714285714284 49.0C33.575714285714284 48.55809523809524 33.906190476190474 48.23142857142857 34.355714285714285 48.23142857142857C34.79761904761905 48.23142857142857 35.13 48.55809523809524 35.13 49.0C35.13 49.441904761904766 34.797619047619044 49.76857142857143 34.355714285714285 49.76857142857143Z"/>
    <path fill="#1e1e1e" fill-rule="evenodd" d="M35.85285714285714 50.0H37.22142857142857V49.75142857142857H36.13857142857143V48.0H35.85285714285714Z"/>
    <path fill="#1e1e1e" fill-rule="evenodd" d="M37.99857142857143 50.02285714285714C38.51285714285714 50.02285714285714 38.755714285714284 49.74857142857143 38.755714285714284 49.41142857142857C38.755714285714284 49.105595395405196 38.55438503447033 48.8774404344287 38.15172653198242 48.83977787562779L38.675714285714285 48.19428571428571V48.0H37.355714285714285V48.24857142857143H38.317142857142855L37.815714285714286 48.86571428571428V49.065714285714286H37.97571428571428C38.31857142857143 49.065714285714286 38.47 49.2047619047619 38.47 49.41428571428571C38.47 49.63142857142857 38.29571428571428 49.76857142857143 37.99857142857143 49.76857142857143C37.75476190476191 49.76857142857143 37.52904761904762 49.68 37.395714285714284 49.55428571428571L37.26428571428571 49.78C37.43190476190476 49.92857142857143 37.71666666666667 50.02285714285714 37.99857142857143 50.02285714285714Z"/>
  </g>
  <!-- COL 4 — y=61 -->
  <rect x="29.5" y="59.25" width="11" height="3.5" rx="1.0" fill="#d0d0d0"/>
  <g>
    <path fill="#1e1e1e" fill-rule="evenodd" d="M32.17142857142857 62.02285714285714C32.483809523809526 62.02285714285714 32.751428571428576 61.91428571428571 32.934285714285714 61.70857142857143L32.74857142857143 61.52857142857143C32.59619047619048 61.69238095238095 32.402857142857144 61.76857142857143 32.18571428571429 61.76857142857143C31.736190476190476 61.76857142857143 31.400000000000002 61.44190476190476 31.400000000000002 61.0C31.400000000000002 60.55809523809524 31.736190476190476 60.23142857142857 32.18571428571429 60.23142857142857C32.402857142857144 60.23142857142857 32.59619047619048 60.308571428571426 32.74857142857143 60.46857142857143L32.934285714285714 60.28857142857143C32.751428571428576 60.082857142857144 32.48285714285714 59.97714285714286 32.174285714285716 59.97714285714286C31.564761904761905 59.97714285714286 31.114285714285717 60.40571428571429 31.114285714285717 61.0C31.114285714285717 61.59428571428572 31.561904761904763 62.02285714285714 32.17142857142857 62.02285714285714Z"/>
    <path fill="#1e1e1e" fill-rule="evenodd" d="M34.21714285714285 62.02285714285714C34.82666666666666 62.02285714285714 35.277142857142856 61.59428571428572 35.277142857142856 61.0C35.277142857142856 60.40571428571429 34.82666666666667 59.97714285714286 34.21714285714285 59.97714285714286C33.599999999999994 59.97714285714286 33.15142857142857 60.413333333333334 33.15142857142857 61.0C33.15142857142857 61.586666666666666 33.607619047619046 62.02285714285714 34.21714285714285 62.02285714285714ZM34.21714285714285 61.76857142857143C33.76761904761904 61.76857142857143 33.43714285714285 61.44190476190476 33.43714285714285 61.0C33.43714285714285 60.55809523809524 33.76761904761904 60.23142857142857 34.21714285714285 60.23142857142857C34.65904761904762 60.23142857142857 34.99142857142857 60.55809523809524 34.99142857142857 61.0C34.99142857142857 61.441904761904766 34.65904761904761 61.76857142857143 34.21714285714285 61.76857142857143Z"/>
    <path fill="#1e1e1e" fill-rule="evenodd" d="M35.71428571428571 62.0H37.08285714285714V61.75142857142857H36.0V60.0H35.71428571428571Z"/>
    <path fill="#1e1e1e" fill-rule="evenodd" d="M37.22 61.50857142857143H38.33142857142857V62.0H38.60857142857142V61.50857142857143H38.988571428571426V61.26285714285714H38.60857142857142V60.82857142857143H38.339999999999996V61.26285714285714H37.57257642473493L38.551428571428566 60.0H38.24285714285714L37.22 61.308571428571426Z"/>
  </g>
  <!-- COL 5 — y=73 -->
  <rect x="29.5" y="71.25" width="11" height="3.5" rx="1.0" fill="#d0d0d0"/>
  <g>
    <path fill="#1e1e1e" fill-rule="evenodd" d="M32.30714285714286 74.02285714285715C32.61952380952381 74.02285714285715 32.88714285714286 73.91428571428571 33.07 73.70857142857143L32.88428571428572 73.52857142857142C32.731904761904765 73.69238095238096 32.53857142857143 73.76857142857143 32.32142857142858 73.76857142857143C31.871904761904762 73.76857142857143 31.53571428571429 73.44190476190477 31.53571428571429 73.0C31.53571428571429 72.55809523809523 31.871904761904762 72.23142857142857 32.32142857142858 72.23142857142857C32.53857142857143 72.23142857142857 32.731904761904765 72.30857142857143 32.88428571428572 72.46857142857142L33.07 72.28857142857143C32.88714285714286 72.08285714285714 32.61857142857143 71.97714285714285 32.31 71.97714285714285C31.70047619047619 71.97714285714285 31.250000000000004 72.40571428571428 31.250000000000004 73.0C31.250000000000004 73.59428571428572 31.69761904761905 74.02285714285715 32.30714285714286 74.02285714285715Z"/>
    <path fill="#1e1e1e" fill-rule="evenodd" d="M34.35285714285714 74.02285714285715C34.96238095238095 74.02285714285715 35.41285714285714 73.59428571428572 35.41285714285714 73.0C35.41285714285714 72.40571428571428 34.962380952380954 71.97714285714285 34.35285714285714 71.97714285714285C33.73571428571428 71.97714285714285 33.287142857142854 72.41333333333334 33.287142857142854 73.0C33.287142857142854 73.58666666666667 33.74333333333333 74.02285714285715 34.35285714285714 74.02285714285715ZM34.35285714285714 73.76857142857143C33.90333333333333 73.76857142857143 33.57285714285714 73.44190476190477 33.57285714285714 73.0C33.57285714285714 72.55809523809523 33.90333333333333 72.23142857142857 34.35285714285714 72.23142857142857C34.794761904761906 72.23142857142857 35.12714285714286 72.55809523809523 35.12714285714286 73.0C35.12714285714286 73.44190476190477 34.7947619047619 73.76857142857143 34.35285714285714 73.76857142857143Z"/>
    <path fill="#1e1e1e" fill-rule="evenodd" d="M35.849999999999994 74.0H37.21857142857142V73.75142857142858H36.135714285714286V72.0H35.849999999999994Z"/>
    <path fill="#1e1e1e" fill-rule="evenodd" d="M38.029999999999994 74.02285714285715C38.544285714285714 74.02285714285715 38.787142857142854 73.74285714285715 38.787142857142854 73.4C38.787142857142854 73.04571428571428 38.55571428571428 72.79714285714286 37.955714285714286 72.79714285714286H37.732333177839L37.78738013131278 72.24857142857142H38.675714285714285V72.0H37.54714285714285L37.44142857142857 73.04571428571428H37.895714285714284C38.35857142857142 73.04571428571428 38.50142857142857 73.18857142857144 38.50142857142857 73.41142857142857C38.50142857142857 73.62857142857143 38.33190476190476 73.76857142857143 38.027142857142856 73.76857142857143C37.787142857142854 73.76857142857143 37.56047619047619 73.68 37.427142857142854 73.55428571428571L37.29571428571428 73.78C37.46333333333333 73.92857142857143 37.74809523809523 74.02285714285715 38.029999999999994 74.02285714285715Z"/>
  </g>
  <!-- COL 6 — y=85 -->
  <rect x="29.5" y="83.25" width="11" height="3.5" rx="1.0" fill="#d0d0d0"/>
  <g>
    <path fill="#1e1e1e" fill-rule="evenodd" d="M32.245714285714286 86.02285714285715C32.55809523809524 86.02285714285715 32.825714285714284 85.91428571428571 33.00857142857143 85.70857142857143L32.822857142857146 85.52857142857142C32.670476190476194 85.69238095238096 32.47714285714286 85.76857142857143 32.260000000000005 85.76857142857143C31.81047619047619 85.76857142857143 31.474285714285717 85.44190476190477 31.474285714285717 85.0C31.474285714285717 84.55809523809523 31.81047619047619 84.23142857142857 32.260000000000005 84.23142857142857C32.47714285714286 84.23142857142857 32.670476190476194 84.30857142857143 32.822857142857146 84.46857142857142L33.00857142857143 84.28857142857143C32.82571428571429 84.08285714285714 32.55714285714286 83.97714285714285 32.24857142857143 83.97714285714285C31.63904761904762 83.97714285714285 31.188571428571432 84.40571428571428 31.188571428571432 85.0C31.188571428571432 85.59428571428572 31.636190476190478 86.02285714285715 32.245714285714286 86.02285714285715Z"/>
    <path fill="#1e1e1e" fill-rule="evenodd" d="M34.29142857142857 86.02285714285715C34.900952380952376 86.02285714285715 35.35142857142857 85.59428571428572 35.35142857142857 85.0C35.35142857142857 84.40571428571428 34.90095238095238 83.97714285714285 34.29142857142857 83.97714285714285C33.67428571428571 83.97714285714285 33.22571428571428 84.41333333333334 33.22571428571428 85.0C33.22571428571428 85.58666666666667 33.68190476190476 86.02285714285715 34.29142857142857 86.02285714285715ZM34.29142857142857 85.76857142857143C33.84190476190476 85.76857142857143 33.51142857142857 85.44190476190477 33.51142857142857 85.0C33.51142857142857 84.55809523809523 33.84190476190476 84.23142857142857 34.29142857142857 84.23142857142857C34.733333333333334 84.23142857142857 35.065714285714286 84.55809523809523 35.065714285714286 85.0C35.065714285714286 85.44190476190477 34.73333333333333 85.76857142857143 34.29142857142857 85.76857142857143Z"/>
    <path fill="#1e1e1e" fill-rule="evenodd" d="M35.78857142857142 86.0H37.15714285714285V85.75142857142858H36.074285714285715V84.0H35.78857142857142Z"/>
    <path fill="#1e1e1e" fill-rule="evenodd" d="M38.16285714285714 86.02285714285715C38.56285714285714 86.02285714285715 38.87142857142857 85.77428571428571 38.87142857142857 85.39142857142858C38.87142857142857 85.02 38.58571428571428 84.78571428571429 38.18571428571428 84.78571428571429C37.93916737142857 84.78571428571429 37.72670268390914 84.87660022375772 37.60997634887695 85.05222869873047L37.609596993582585 85.04231944492885C37.60880075277677 85.01874975024768 37.60857142857142 84.99677101714286 37.60857142857142 84.97714285714285C37.60857142857142 84.47809523809524 37.86666666666667 84.22285714285714 38.27428571428571 84.22285714285714C38.41904761904762 84.22285714285714 38.55428571428571 84.2447619047619 38.65714285714286 84.31714285714285L38.76571428571428 84.09428571428572C38.64 84.01428571428572 38.45904761904762 83.97714285714285 38.26857142857143 83.97714285714285C37.71428571428571 83.97714285714285 37.32285714285714 84.34571428571428 37.32285714285714 85.02571428571429C37.32285714285714 85.66571428571429 37.63142857142857 86.02285714285715 38.16285714285714 86.02285714285715ZM38.15142857142857 85.79142857142857C37.84285714285714 85.79142857142857 37.677142857142854 85.61142857142858 37.677142857142854 85.40571428571428C37.677142857142854 85.18285714285715 37.86285714285714 85.01714285714286 38.137142857142855 85.01714285714286C38.41904761904762 85.01714285714286 38.59428571428571 85.16666666666667 38.59428571428571 85.40285714285714C38.59428571428571 85.63714285714286 38.41428571428571 85.79142857142857 38.15142857142857 85.79142857142857Z"/>
  </g>
  <!-- COL 7 — y=97 -->
  <rect x="29.5" y="95.25" width="11" height="3.5" rx="1.0" fill="#d0d0d0"/>
  <g>
    <path fill="#1e1e1e" fill-rule="evenodd" d="M32.27285714285714 98.02285714285715C32.5852380952381 98.02285714285715 32.85285714285715 97.91428571428571 33.035714285714285 97.70857142857143L32.85 97.52857142857142C32.69761904761905 97.69238095238096 32.504285714285714 97.76857142857143 32.28714285714286 97.76857142857143C31.837619047619047 97.76857142857143 31.501428571428573 97.44190476190477 31.501428571428573 97.0C31.501428571428573 96.55809523809523 31.837619047619047 96.23142857142857 32.28714285714286 96.23142857142857C32.504285714285714 96.23142857142857 32.69761904761905 96.30857142857143 32.85 96.46857142857142L33.035714285714285 96.28857142857143C32.85285714285715 96.08285714285714 32.58428571428571 95.97714285714285 32.27571428571429 95.97714285714285C31.666190476190476 95.97714285714285 31.215714285714288 96.40571428571428 31.215714285714288 97.0C31.215714285714288 97.59428571428572 31.663333333333334 98.02285714285715 32.27285714285714 98.02285714285715Z"/>
    <path fill="#1e1e1e" fill-rule="evenodd" d="M34.318571428571424 98.02285714285715C34.92809523809523 98.02285714285715 35.378571428571426 97.59428571428572 35.378571428571426 97.0C35.378571428571426 96.40571428571428 34.92809523809524 95.97714285714285 34.318571428571424 95.97714285714285C33.701428571428565 95.97714285714285 33.25285714285714 96.41333333333334 33.25285714285714 97.0C33.25285714285714 97.58666666666667 33.70904761904762 98.02285714285715 34.318571428571424 98.02285714285715ZM34.318571428571424 97.76857142857143C33.86904761904761 97.76857142857143 33.53857142857142 97.44190476190477 33.53857142857142 97.0C33.53857142857142 96.55809523809523 33.86904761904761 96.23142857142857 34.318571428571424 96.23142857142857C34.76047619047619 96.23142857142857 35.09285714285714 96.55809523809523 35.09285714285714 97.0C35.09285714285714 97.44190476190477 34.76047619047618 97.76857142857143 34.318571428571424 97.76857142857143Z"/>
    <path fill="#1e1e1e" fill-rule="evenodd" d="M35.81571428571428 98.0H37.18428571428571V97.75142857142858H36.10142857142857V96.0H35.81571428571428Z"/>
    <path fill="#1e1e1e" fill-rule="evenodd" d="M37.69571428571428 98.0H37.998571428571424L38.80714285714285 96.19428571428571V96.0H37.29857142857143V96.60571428571428H37.57285714285714V96.24857142857142H38.48625270298549Z"/>
  </g>
  <!-- COL 8 — y=109 -->
  <rect x="29.5" y="107.25" width="11" height="3.5" rx="1.0" fill="#d0d0d0"/>
  <g>
    <path fill="#1e1e1e" fill-rule="evenodd" d="M32.207142857142856 110.02285714285715C32.51952380952381 110.02285714285715 32.787142857142854 109.91428571428571 32.97 109.70857142857143L32.784285714285716 109.52857142857142C32.631904761904764 109.69238095238096 32.43857142857143 109.76857142857143 32.221428571428575 109.76857142857143C31.77190476190476 109.76857142857143 31.435714285714287 109.44190476190477 31.435714285714287 109.0C31.435714285714287 108.55809523809523 31.77190476190476 108.23142857142857 32.221428571428575 108.23142857142857C32.43857142857143 108.23142857142857 32.631904761904764 108.30857142857143 32.784285714285716 108.46857142857142L32.97 108.28857142857143C32.78714285714286 108.08285714285714 32.51857142857143 107.97714285714285 32.21 107.97714285714285C31.60047619047619 107.97714285714285 31.150000000000002 108.40571428571428 31.150000000000002 109.0C31.150000000000002 109.59428571428572 31.597619047619048 110.02285714285715 32.207142857142856 110.02285714285715Z"/>
    <path fill="#1e1e1e" fill-rule="evenodd" d="M34.25285714285714 110.02285714285715C34.862380952380946 110.02285714285715 35.31285714285714 109.59428571428572 35.31285714285714 109.0C35.31285714285714 108.40571428571428 34.86238095238095 107.97714285714285 34.25285714285714 107.97714285714285C33.63571428571428 107.97714285714285 33.18714285714285 108.41333333333334 33.18714285714285 109.0C33.18714285714285 109.58666666666667 33.64333333333333 110.02285714285715 34.25285714285714 110.02285714285715ZM34.25285714285714 109.76857142857143C33.80333333333333 109.76857142857143 33.47285714285714 109.44190476190477 33.47285714285714 109.0C33.47285714285714 108.55809523809523 33.80333333333333 108.23142857142857 34.25285714285714 108.23142857142857C34.694761904761904 108.23142857142857 35.027142857142856 108.55809523809523 35.027142857142856 109.0C35.027142857142856 109.44190476190477 34.6947619047619 109.76857142857143 34.25285714285714 109.76857142857143Z"/>
    <path fill="#1e1e1e" fill-rule="evenodd" d="M35.74999999999999 110.0H37.11857142857142V109.75142857142858H36.035714285714285V108.0H35.74999999999999Z"/>
    <path fill="#1e1e1e" fill-rule="evenodd" d="M38.06428571428571 110.02285714285715C38.55 110.02285714285715 38.86142857142857 109.79428571428572 38.86142857142857 109.43428571428572C38.86142857142857 109.20578285142857 38.73496399349673 109.038670560383 38.506181161063054 108.95067868913922C38.68926842348928 108.86480104929285 38.79 108.715976 38.79 108.52C38.79 108.18285714285715 38.498571428571424 107.97714285714285 38.06428571428571 107.97714285714285C37.63571428571428 107.97714285714285 37.34428571428571 108.18285714285715 37.34428571428571 108.52C37.34428571428571 108.7153536 37.442248846847995 108.86385526703543 37.62257393973214 108.94985879080636C37.39636265995365 109.0367645612765 37.27285714285714 109.20250881142857 37.27285714285714 109.43428571428572C37.27285714285714 109.79428571428572 37.57857142857142 110.02285714285715 38.06428571428571 110.02285714285715ZM38.06428571428571 108.85142857142857C37.79 108.85142857142857 37.62714285714285 108.72952380952381 37.62714285714285 108.53142857142858C37.62714285714285 108.3295238095238 37.797619047619044 108.20857142857143 38.06428571428571 108.20857142857143C38.330952380952375 108.20857142857143 38.51 108.3295238095238 38.51 108.53142857142858C38.51 108.72952380952381 38.34238095238095 108.85142857142857 38.06428571428571 108.85142857142857ZM38.06428571428571 109.79142857142857C37.74809523809523 109.79142857142857 37.558571428571426 109.65047619047618 37.558571428571426 109.42571428571429C37.558571428571426 109.20476190476191 37.74809523809523 109.06857142857143 38.06428571428571 109.06857142857143C38.38428571428571 109.06857142857143 38.575714285714284 109.20476190476191 38.575714285714284 109.42571428571429C38.575714285714284 109.6504761904762 38.38428571428571 109.79142857142857 38.06428571428571 109.79142857142857Z"/>
  </g>

  <!-- domino logo centered above bottom bar -->
  <g transform="translate(20.71,118.0) scale(0.75)">
    <rect x="0" y="0" width="12.5" height="5.5"
          rx="1.18" ry="1.2"
          fill="none" stroke="#d0d0d0" stroke-width="0.5"/>
    <rect x="6.125" y="0.5" width="0.25" height="4.5"
          fill="#d0d0d0"/>
    <circle cx="2.07"  cy="1.46" r="0.625" fill="#d0d0d0"/>
    <circle cx="4.19"  cy="4.11" r="0.625" fill="#d0d0d0"/>
    <circle cx="8.20"  cy="1.46" r="0.625" fill="#d0d0d0"/>
    <circle cx="10.32" cy="4.11" r="0.625" fill="#d0d0d0"/>
  </g>

</svg>
