<?xml version="1.0" encoding="UTF-8"?>
<svg xmlns="http://www.w3.org/2000/svg"
     width="50.8mm" height="128.5mm"
     viewBox="0 0 50.8 128.5">

  <rect width="50.8" height="128.5" fill="#1e1e1e"/>

  <!-- top accent: slants start just inside screw inner edges (10.16 / 40.64 mm) -->
  <polygon points="
    0,0 50.8,0 50.8,0.5
    40.64,0.5 38.16,2.0 12.64,2.0 10.16,0.5
    0,0.5
  " fill="#f26522"/>
  <rect x="0" y="127.5" width="50.8" height="1.0" fill="#f26522"/>

  <!-- title: SLDR (Bold) + 64 (Light), cap-top y=7, baseline y=11.125, cap-height=4.125 -->
  <g id="title">
    <path fill="#d0d0d0" fill-rule="evenodd" d="M15.284910714285713 11.195714285714285C16.46348214285714 11.195714285714285 17.035089285714285 10.612321428571429 17.035089285714285 9.916964285714286C17.035089285714285 9.48482142857143 16.840625 9.211785714285714 16.557767857142856 9.03892857142857C15.850624999999994 8.606785714285714 14.636696428571426 8.69714285714286 14.636696428571426 8.166785714285714C14.636696428571426 8.076428571428572 14.66223214285714 7.996875 14.71330357142857 7.928125C14.815446428571427 7.790625 15.051160714285713 7.695357142857143 15.420446428571427 7.695357142857143C15.78973214285714 7.695357142857143 16.178660714285712 7.799464285714286 16.563660714285714 8.019464285714285L16.85830357142857 7.294642857142857C16.47330357142857 7.051071428571428 15.944910714285712 6.929285714285714 15.426339285714285 6.929285714285714C14.259553571428569 6.929285714285714 13.687946428571427 7.506785714285715 13.687946428571427 8.213928571428571C13.687946428571427 8.873928571428571 14.121071428571428 9.145 14.63375 9.31C15.317321428571427 9.530000000000001 16.086339285714285 9.547678571428571 16.086339285714285 9.987678571428571C16.086339285714285 10.246964285714286 15.856517857142855 10.429642857142857 15.29080357142857 10.429642857142857C14.79580357142857 10.429642857142857 14.283124999999998 10.250892857142857 13.92955357142857 9.999464285714286L13.605446428571426 10.718392857142858C13.97473214285714 11.00125 14.624910714285713 11.195714285714285 15.284910714285713 11.195714285714285Z"/>
    <path fill="#d0d0d0" fill-rule="evenodd" d="M17.689196428571428 11.125H20.712232142857143V10.347142857142858H18.643839285714286V7.0H17.689196428571428Z"/>
    <path fill="#d0d0d0" fill-rule="evenodd" d="M21.248482142857142 11.125H23.122410714285714C24.46598214285714 11.125 25.39705357142857 10.311785714285715 25.39705357142857 9.0625C25.39705357142857 8.642142857142858 25.30080357142857 8.27875 25.10830357142857 7.972321428571428C24.72330357142857 7.359464285714285 24.018124999999998 7.0 23.122410714285714 7.0H21.248482142857142ZM22.203125 10.34125V7.7837499999999995H23.075267857142855C23.900267857142854 7.7837499999999995 24.430625 8.272857142857145 24.430625 9.0625C24.430625 9.840357142857144 23.900267857142854 10.34125 23.075267857142855 10.34125Z"/>
    <path fill="#d0d0d0" fill-rule="evenodd" d="M26.115982142857142 11.125H27.070625V9.975892857142856H27.901517857142856C27.91654150785714 9.975892857142856 27.931487132122662 9.975789905578512 27.94635544504438 9.975543840953282L28.73830357142857 11.125H29.76955357142857L28.847257407052176 9.801478951317923C29.384904784174818 9.569020266407202 29.692946428571428 9.113896698571429 29.692946428571428 8.496785714285714C29.692946428571428 7.561785714285715 29.025089285714284 7.0 27.877946428571427 7.0H26.115982142857142ZM27.84848214285714 7.777857142857142C28.437767857142855 7.777857142857142 28.726517857142856 8.041071428571428 28.726517857142856 8.496785714285714C28.726517857142856 8.944642857142858 28.437767857142855 9.215714285714286 27.84848214285714 9.215714285714286H27.070625V7.777857142857142Z"/>
    <path fill="#d0d0d0" fill-rule="evenodd" d="M31.938125 11.154464285714285C32.72776785714285 11.154464285714285 33.31116071428571 10.665357142857145 33.31116071428571 9.911071428571429C33.31116071428571 9.168571428571429 32.75723214285714 8.685357142857143 31.932232142857142 8.685357142857143C31.308573864285712 8.685357142857143 30.790337965171084 8.992457117796517 30.620071362086705 9.534127110072545C30.590146366795672 9.34561871007967 30.582767857142855 9.162759602142858 30.582767857142855 9.03892857142857C30.582767857142855 7.836785714285714 31.187767857142855 7.235714285714286 32.11491071428571 7.235714285714286C32.42919642857143 7.235714285714286 32.71598214285714 7.290714285714286 32.928125 7.424285714285714L33.051874999999995 7.182678571428571C32.800446428571426 7.025535714285715 32.46848214285714 6.970535714285714 32.11491071428571 6.970535714285714C31.018839285714286 6.970535714285714 30.282232142857143 7.68357142857143 30.282232142857143 9.08607142857143C30.282232142857143 10.370714285714286 30.853839285714283 11.154464285714285 31.938125 11.154464285714285ZM31.926339285714285 10.895178571428572C31.160267857142856 10.895178571428572 30.747767857142858 10.411964285714285 30.747767857142858 9.92875C30.747767857142858 9.37482142857143 31.219196428571426 8.944642857142856 31.89098214285714 8.944642857142856C32.590267857142855 8.944642857142856 33.010625 9.32767857142857 33.010625 9.916964285714286C33.010625 10.506250000000001 32.57455357142857 10.895178571428572 31.926339285714285 10.895178571428572Z"/>
    <path fill="#d0d0d0" fill-rule="evenodd" d="M33.75901785714286 9.981785714285714H36.11026785714286V11.125H36.40491071428572V9.981785714285714H37.27116071428571V9.716607142857143H36.40491071428572V8.708928571428572H36.11616071428572V9.716607142857143H34.13889983722142L36.33419642857143 7.0H35.99830357142857L33.75901785714286 9.76375Z"/>
  </g>

  <!-- COL labels: white badge (11mm, rx 1mm, x=29.5), black text, centered x=35mm with proper space -->
  <!-- COL 1 — y=25 -->
  <rect x="29.5" y="23.25" width="11" height="3.5" rx="1.0" fill="#d0d0d0"/>
  <g>
    <path fill="#1e1e1e" fill-rule="evenodd" d="M32.214285714285715 26.02285714285714C32.526666666666664 26.02285714285714 32.794285714285714 25.914285714285715 32.97714285714286 25.708571428571428L32.79142857142857 25.52857142857143C32.639047619047616 25.69238095238095 32.44571428571429 25.768571428571427 32.22857142857143 25.768571428571427C31.779047619047617 25.768571428571427 31.442857142857143 25.441904761904762 31.442857142857143 25.0C31.442857142857143 24.55809523809524 31.779047619047617 24.231428571428573 32.22857142857143 24.231428571428573C32.44571428571429 24.231428571428573 32.639047619047616 24.30857142857143 32.79142857142857 24.46857142857143L32.97714285714286 24.28857142857143C32.794285714285714 24.082857142857144 32.52571428571429 23.97714285714286 32.21714285714285 23.97714285714286C31.607619047619046 23.97714285714286 31.15714285714286 24.40571428571429 31.15714285714286 25.0C31.15714285714286 25.594285714285714 31.604761904761904 26.02285714285714 32.214285714285715 26.02285714285714Z"/>
    <path fill="#1e1e1e" fill-rule="evenodd" d="M34.26 26.02285714285714C34.869523809523805 26.02285714285714 35.32 25.594285714285714 35.32 25.0C35.32 24.405714285714286 34.86952380952381 23.97714285714286 34.26 23.97714285714286C33.64285714285714 23.97714285714286 33.19428571428571 24.413333333333338 33.19428571428571 25.0C33.19428571428571 25.586666666666666 33.65047619047619 26.02285714285714 34.26 26.02285714285714ZM34.26 25.768571428571427C33.81047619047619 25.768571428571427 33.48 25.441904761904762 33.48 25.0C33.48 24.55809523809524 33.81047619047619 24.231428571428573 34.26 24.231428571428573C34.701904761904764 24.231428571428573 35.034285714285716 24.558095238095238 35.034285714285716 25.0C35.034285714285716 25.441904761904762 34.70190476190476 25.768571428571427 34.26 25.768571428571427Z"/>
    <path fill="#1e1e1e" fill-rule="evenodd" d="M35.75714285714285 26.0H37.12571428571428V25.751428571428573H36.042857142857144V24.0H35.75714285714285Z"/>
    <path fill="#1e1e1e" fill-rule="evenodd" d="M38.39714285714285 26.0H38.68V24.0H37.94571428571428V24.248571428571427H38.39714285714285Z"/>
  </g>
  <!-- COL 2 — y=37 -->
  <rect x="29.5" y="35.25" width="11" height="3.5" rx="1.0" fill="#d0d0d0"/>
  <g>
    <path fill="#1e1e1e" fill-rule="evenodd" d="M31.922857142857143 38.02285714285714C32.235238095238095 38.02285714285714 32.50285714285714 37.91428571428571 32.68571428571428 37.70857142857143L32.5 37.52857142857143C32.34761904761905 37.69238095238095 32.15428571428571 37.76857142857143 31.937142857142856 37.76857142857143C31.487619047619045 37.76857142857143 31.15142857142857 37.44190476190476 31.15142857142857 37.0C31.15142857142857 36.55809523809524 31.487619047619045 36.23142857142857 31.937142857142856 36.23142857142857C32.15428571428571 36.23142857142857 32.34761904761905 36.308571428571426 32.5 36.46857142857143L32.68571428571428 36.28857142857143C32.502857142857145 36.082857142857144 32.23428571428571 35.97714285714286 31.925714285714285 35.97714285714286C31.316190476190474 35.97714285714286 30.865714285714287 36.40571428571429 30.865714285714287 37.0C30.865714285714287 37.59428571428572 31.313333333333333 38.02285714285714 31.922857142857143 38.02285714285714Z"/>
    <path fill="#1e1e1e" fill-rule="evenodd" d="M33.96857142857142 38.02285714285714C34.57809523809523 38.02285714285714 35.028571428571425 37.59428571428572 35.028571428571425 37.0C35.028571428571425 36.40571428571429 34.57809523809524 35.97714285714286 33.96857142857142 35.97714285714286C33.35142857142856 35.97714285714286 32.90285714285714 36.413333333333334 32.90285714285714 37.0C32.90285714285714 37.586666666666666 33.359047619047615 38.02285714285714 33.96857142857142 38.02285714285714ZM33.96857142857142 37.76857142857143C33.51904761904761 37.76857142857143 33.18857142857142 37.44190476190476 33.18857142857142 37.0C33.18857142857142 36.55809523809524 33.51904761904761 36.23142857142857 33.96857142857142 36.23142857142857C34.41047619047619 36.23142857142857 34.74285714285714 36.55809523809524 34.74285714285714 37.0C34.74285714285714 37.441904761904766 34.41047619047618 37.76857142857143 33.96857142857142 37.76857142857143Z"/>
    <path fill="#1e1e1e" fill-rule="evenodd" d="M35.46571428571428 38.0H36.834285714285706V37.75142857142857H35.75142857142857V36.0H35.46571428571428Z"/>
    <path fill="#1e1e1e" fill-rule="evenodd" d="M37.73714285714285 38.0H39.17428571428571V37.75142857142857H38.149807586669915L38.75999999999999 37.16285714285714C39.02857142857142 36.9 39.08857142857142 36.72857142857143 39.08857142857142 36.534285714285716C39.08857142857142 36.191428571428574 38.81999999999999 35.97714285714286 38.40285714285714 35.97714285714286C38.09428571428571 35.97714285714286 37.823809523809516 36.08571428571429 37.671428571428564 36.28L37.865714285714276 36.44857142857143C37.991428571428564 36.3 38.16380952380952 36.23142857142857 38.37714285714285 36.23142857142857C38.65523809523809 36.23142857142857 38.802857142857135 36.357142857142854 38.802857142857135 36.56285714285714C38.802857142857135 36.68857142857143 38.76857142857142 36.81428571428572 38.551428571428566 37.02L37.73714285714285 37.80571428571429Z"/>
  </g>
  <!-- COL 3 — y=49 -->
  <rect x="29.5" y="47.25" width="11" height="3.5" rx="1.0" fill="#d0d0d0"/>
  <g>
    <path fill="#1e1e1e" fill-rule="evenodd" d="M31.92571428571429 50.02285714285714C32.23809523809524 50.02285714285714 32.50571428571429 49.91428571428571 32.68857142857143 49.70857142857143L32.502857142857145 49.52857142857143C32.35047619047619 49.69238095238095 32.15714285714286 49.76857142857143 31.94 49.76857142857143C31.49047619047619 49.76857142857143 31.154285714285717 49.44190476190476 31.154285714285717 49.0C31.154285714285717 48.55809523809524 31.49047619047619 48.23142857142857 31.94 48.23142857142857C32.15714285714286 48.23142857142857 32.35047619047619 48.308571428571426 32.502857142857145 48.46857142857143L32.68857142857143 48.28857142857143C32.50571428571429 48.082857142857144 32.23714285714286 47.97714285714286 31.92857142857143 47.97714285714286C31.31904761904762 47.97714285714286 30.868571428571432 48.40571428571429 30.868571428571432 49.0C30.868571428571432 49.59428571428572 31.316190476190478 50.02285714285714 31.92571428571429 50.02285714285714Z"/>
    <path fill="#1e1e1e" fill-rule="evenodd" d="M33.97142857142857 50.02285714285714C34.580952380952375 50.02285714285714 35.03142857142857 49.59428571428572 35.03142857142857 49.0C35.03142857142857 48.40571428571429 34.58095238095238 47.97714285714286 33.97142857142857 47.97714285714286C33.35428571428571 47.97714285714286 32.90571428571428 48.413333333333334 32.90571428571428 49.0C32.90571428571428 49.586666666666666 33.36190476190476 50.02285714285714 33.97142857142857 50.02285714285714ZM33.97142857142857 49.76857142857143C33.52190476190476 49.76857142857143 33.19142857142857 49.44190476190476 33.19142857142857 49.0C33.19142857142857 48.55809523809524 33.52190476190476 48.23142857142857 33.97142857142857 48.23142857142857C34.413333333333334 48.23142857142857 34.745714285714286 48.55809523809524 34.745714285714286 49.0C34.745714285714286 49.441904761904766 34.41333333333333 49.76857142857143 33.97142857142857 49.76857142857143Z"/>
    <path fill="#1e1e1e" fill-rule="evenodd" d="M35.46857142857142 50.0H36.83714285714285V49.75142857142857H35.754285714285714V48.0H35.46857142857142Z"/>
    <path fill="#1e1e1e" fill-rule="evenodd" d="M38.38285714285714 50.02285714285714C38.89714285714285 50.02285714285714 39.13999999999999 49.74857142857143 39.13999999999999 49.41142857142857C39.13999999999999 49.105595395405196 38.93867074875604 48.8774404344287 38.53601224626813 48.83977787562779L39.059999999999995 48.19428571428571V48.0H37.739999999999995V48.24857142857143H38.701428571428565L38.199999999999996 48.86571428571428V49.065714285714286H38.35999999999999C38.70285714285714 49.065714285714286 38.85428571428571 49.2047619047619 38.85428571428571 49.41428571428571C38.85428571428571 49.63142857142857 38.67999999999999 49.76857142857143 38.38285714285714 49.76857142857143C38.139047619047616 49.76857142857143 37.91333333333333 49.68 37.779999999999994 49.55428571428571L37.64857142857142 49.78C37.81619047619047 49.92857142857143 38.10095238095238 50.02285714285714 38.38285714285714 50.02285714285714Z"/>
  </g>
  <!-- COL 4 — y=61 -->
  <rect x="29.5" y="59.25" width="11" height="3.5" rx="1.0" fill="#d0d0d0"/>
  <g>
    <path fill="#1e1e1e" fill-rule="evenodd" d="M31.787142857142857 62.02285714285714C32.09952380952381 62.02285714285714 32.36714285714285 61.91428571428571 32.55 61.70857142857143L32.364285714285714 61.52857142857143C32.21190476190476 61.69238095238095 32.01857142857143 61.76857142857143 31.80142857142857 61.76857142857143C31.35190476190476 61.76857142857143 31.015714285714285 61.44190476190476 31.015714285714285 61.0C31.015714285714285 60.55809523809524 31.35190476190476 60.23142857142857 31.80142857142857 60.23142857142857C32.01857142857143 60.23142857142857 32.21190476190476 60.308571428571426 32.364285714285714 60.46857142857143L32.55 60.28857142857143C32.36714285714286 60.082857142857144 32.098571428571425 59.97714285714286 31.79 59.97714285714286C31.18047619047619 59.97714285714286 30.73 60.40571428571429 30.73 61.0C30.73 61.59428571428572 31.177619047619046 62.02285714285714 31.787142857142857 62.02285714285714Z"/>
    <path fill="#1e1e1e" fill-rule="evenodd" d="M33.83285714285714 62.02285714285714C34.442380952380944 62.02285714285714 34.89285714285714 61.59428571428572 34.89285714285714 61.0C34.89285714285714 60.40571428571429 34.44238095238095 59.97714285714286 33.83285714285714 59.97714285714286C33.21571428571428 59.97714285714286 32.76714285714285 60.413333333333334 32.76714285714285 61.0C32.76714285714285 61.586666666666666 33.22333333333333 62.02285714285714 33.83285714285714 62.02285714285714ZM33.83285714285714 61.76857142857143C33.383333333333326 61.76857142857143 33.052857142857135 61.44190476190476 33.052857142857135 61.0C33.052857142857135 60.55809523809524 33.383333333333326 60.23142857142857 33.83285714285714 60.23142857142857C34.2747619047619 60.23142857142857 34.607142857142854 60.55809523809524 34.607142857142854 61.0C34.607142857142854 61.441904761904766 34.274761904761895 61.76857142857143 33.83285714285714 61.76857142857143Z"/>
    <path fill="#1e1e1e" fill-rule="evenodd" d="M35.32999999999999 62.0H36.69857142857142V61.75142857142857H35.61571428571428V60.0H35.32999999999999Z"/>
    <path fill="#1e1e1e" fill-rule="evenodd" d="M37.60428571428571 61.50857142857143H38.71571428571428V62.0H38.99285714285713V61.50857142857143H39.372857142857136V61.26285714285714H38.99285714285713V60.82857142857143H38.724285714285706V61.26285714285714H37.95686213902064L38.935714285714276 60.0H38.62714285714285L37.60428571428571 61.308571428571426Z"/>
  </g>
  <!-- COL 5 — y=73 -->
  <rect x="29.5" y="71.25" width="11" height="3.5" rx="1.0" fill="#d0d0d0"/>
  <g>
    <path fill="#1e1e1e" fill-rule="evenodd" d="M31.922857142857143 74.02285714285715C32.235238095238095 74.02285714285715 32.50285714285714 73.91428571428571 32.68571428571428 73.70857142857143L32.5 73.52857142857142C32.34761904761905 73.69238095238096 32.15428571428571 73.76857142857143 31.937142857142856 73.76857142857143C31.487619047619045 73.76857142857143 31.15142857142857 73.44190476190477 31.15142857142857 73.0C31.15142857142857 72.55809523809523 31.487619047619045 72.23142857142857 31.937142857142856 72.23142857142857C32.15428571428571 72.23142857142857 32.34761904761905 72.30857142857143 32.5 72.46857142857142L32.68571428571428 72.28857142857143C32.502857142857145 72.08285714285714 32.23428571428571 71.97714285714285 31.925714285714285 71.97714285714285C31.316190476190474 71.97714285714285 30.865714285714287 72.40571428571428 30.865714285714287 73.0C30.865714285714287 73.59428571428572 31.313333333333333 74.02285714285715 31.922857142857143 74.02285714285715Z"/>
    <path fill="#1e1e1e" fill-rule="evenodd" d="M33.96857142857142 74.02285714285715C34.57809523809523 74.02285714285715 35.028571428571425 73.59428571428572 35.028571428571425 73.0C35.028571428571425 72.40571428571428 34.57809523809524 71.97714285714285 33.96857142857142 71.97714285714285C33.35142857142856 71.97714285714285 32.90285714285714 72.41333333333334 32.90285714285714 73.0C32.90285714285714 73.58666666666667 33.359047619047615 74.02285714285715 33.96857142857142 74.02285714285715ZM33.96857142857142 73.76857142857143C33.51904761904761 73.76857142857143 33.18857142857142 73.44190476190477 33.18857142857142 73.0C33.18857142857142 72.55809523809523 33.51904761904761 72.23142857142857 33.96857142857142 72.23142857142857C34.41047619047619 72.23142857142857 34.74285714285714 72.55809523809523 34.74285714285714 73.0C34.74285714285714 73.44190476190477 34.41047619047618 73.76857142857143 33.96857142857142 73.76857142857143Z"/>
    <path fill="#1e1e1e" fill-rule="evenodd" d="M35.46571428571428 74.0H36.834285714285706V73.75142857142858H35.75142857142857V72.0H35.46571428571428Z"/>
    <path fill="#1e1e1e" fill-rule="evenodd" d="M38.414285714285704 74.02285714285715C38.92857142857142 74.02285714285715 39.171428571428564 73.74285714285715 39.171428571428564 73.4C39.171428571428564 73.04571428571428 38.93999999999999 72.79714285714286 38.339999999999996 72.79714285714286H38.11661889212471L38.17166584559849 72.24857142857142H39.059999999999995V72.0H37.93142857142856L37.82571428571428 73.04571428571428H38.279999999999994C38.74285714285713 73.04571428571428 38.88571428571428 73.18857142857144 38.88571428571428 73.41142857142857C38.88571428571428 73.62857142857143 38.71619047619047 73.76857142857143 38.411428571428566 73.76857142857143C38.171428571428564 73.76857142857143 37.9447619047619 73.68 37.811428571428564 73.55428571428571L37.67999999999999 73.78C37.84761904761904 73.92857142857143 38.13238095238094 74.02285714285715 38.414285714285704 74.02285714285715Z"/>
  </g>
  <!-- COL 6 — y=85 -->
  <rect x="29.5" y="83.25" width="11" height="3.5" rx="1.0" fill="#d0d0d0"/>
  <g>
    <path fill="#1e1e1e" fill-rule="evenodd" d="M31.861428571428572 86.02285714285715C32.173809523809524 86.02285714285715 32.441428571428574 85.91428571428571 32.62428571428571 85.70857142857143L32.43857142857143 85.52857142857142C32.28619047619048 85.69238095238096 32.09285714285714 85.76857142857143 31.875714285714285 85.76857142857143C31.426190476190474 85.76857142857143 31.09 85.44190476190477 31.09 85.0C31.09 84.55809523809523 31.426190476190474 84.23142857142857 31.875714285714285 84.23142857142857C32.09285714285714 84.23142857142857 32.28619047619048 84.30857142857143 32.43857142857143 84.46857142857142L32.62428571428571 84.28857142857143C32.441428571428574 84.08285714285714 32.17285714285714 83.97714285714285 31.864285714285714 83.97714285714285C31.254761904761903 83.97714285714285 30.804285714285715 84.40571428571428 30.804285714285715 85.0C30.804285714285715 85.59428571428572 31.25190476190476 86.02285714285715 31.861428571428572 86.02285714285715Z"/>
    <path fill="#1e1e1e" fill-rule="evenodd" d="M33.90714285714285 86.02285714285715C34.51666666666666 86.02285714285715 34.96714285714285 85.59428571428572 34.96714285714285 85.0C34.96714285714285 84.40571428571428 34.516666666666666 83.97714285714285 33.90714285714285 83.97714285714285C33.28999999999999 83.97714285714285 32.841428571428565 84.41333333333334 32.841428571428565 85.0C32.841428571428565 85.58666666666667 33.297619047619044 86.02285714285715 33.90714285714285 86.02285714285715ZM33.90714285714285 85.76857142857143C33.45761904761904 85.76857142857143 33.12714285714285 85.44190476190477 33.12714285714285 85.0C33.12714285714285 84.55809523809523 33.45761904761904 84.23142857142857 33.90714285714285 84.23142857142857C34.34904761904762 84.23142857142857 34.68142857142857 84.55809523809523 34.68142857142857 85.0C34.68142857142857 85.44190476190477 34.34904761904761 85.76857142857143 33.90714285714285 85.76857142857143Z"/>
    <path fill="#1e1e1e" fill-rule="evenodd" d="M35.404285714285706 86.0H36.772857142857134V85.75142857142858H35.69V84.0H35.404285714285706Z"/>
    <path fill="#1e1e1e" fill-rule="evenodd" d="M38.54714285714285 86.02285714285715C38.94714285714285 86.02285714285715 39.25571428571428 85.77428571428571 39.25571428571428 85.39142857142858C39.25571428571428 85.02 38.96999999999999 84.78571428571429 38.56999999999999 84.78571428571429C38.32345308571428 84.78571428571429 38.11098839819485 84.87660022375772 37.99426206316266 85.05222869873047L37.993882707868295 85.04231944492885C37.99308646706248 85.01874975024768 37.99285714285713 84.99677101714286 37.99285714285713 84.97714285714285C37.99285714285713 84.47809523809524 38.25095238095238 84.22285714285714 38.65857142857142 84.22285714285714C38.80333333333333 84.22285714285714 38.93857142857142 84.2447619047619 39.04142857142857 84.31714285714285L39.14999999999999 84.09428571428572C39.02428571428571 84.01428571428572 38.84333333333333 83.97714285714285 38.65285714285714 83.97714285714285C38.09857142857142 83.97714285714285 37.70714285714285 84.34571428571428 37.70714285714285 85.02571428571429C37.70714285714285 85.66571428571429 38.01571428571428 86.02285714285715 38.54714285714285 86.02285714285715ZM38.53571428571428 85.79142857142857C38.22714285714285 85.79142857142857 38.061428571428564 85.61142857142858 38.061428571428564 85.40571428571428C38.061428571428564 85.18285714285715 38.24714285714285 85.01714285714286 38.521428571428565 85.01714285714286C38.80333333333333 85.01714285714286 38.97857142857142 85.16666666666667 38.97857142857142 85.40285714285714C38.97857142857142 85.63714285714286 38.79857142857142 85.79142857142857 38.53571428571428 85.79142857142857Z"/>
  </g>
  <!-- COL 7 — y=97 -->
  <rect x="29.5" y="95.25" width="11" height="3.5" rx="1.0" fill="#d0d0d0"/>
  <g>
    <path fill="#1e1e1e" fill-rule="evenodd" d="M31.88857142857143 98.02285714285715C32.20095238095238 98.02285714285715 32.46857142857143 97.91428571428571 32.651428571428575 97.70857142857143L32.465714285714284 97.52857142857142C32.31333333333333 97.69238095238096 32.120000000000005 97.76857142857143 31.902857142857144 97.76857142857143C31.453333333333333 97.76857142857143 31.11714285714286 97.44190476190477 31.11714285714286 97.0C31.11714285714286 96.55809523809523 31.453333333333333 96.23142857142857 31.902857142857144 96.23142857142857C32.120000000000005 96.23142857142857 32.31333333333333 96.30857142857143 32.465714285714284 96.46857142857142L32.651428571428575 96.28857142857143C32.46857142857143 96.08285714285714 32.2 95.97714285714285 31.891428571428573 95.97714285714285C31.281904761904762 95.97714285714285 30.831428571428575 96.40571428571428 30.831428571428575 97.0C30.831428571428575 97.59428571428572 31.27904761904762 98.02285714285715 31.88857142857143 98.02285714285715Z"/>
    <path fill="#1e1e1e" fill-rule="evenodd" d="M33.934285714285714 98.02285714285715C34.54380952380952 98.02285714285715 34.994285714285716 97.59428571428572 34.994285714285716 97.0C34.994285714285716 96.40571428571428 34.54380952380953 95.97714285714285 33.934285714285714 95.97714285714285C33.317142857142855 95.97714285714285 32.86857142857143 96.41333333333334 32.86857142857143 97.0C32.86857142857143 97.58666666666667 33.32476190476191 98.02285714285715 33.934285714285714 98.02285714285715ZM33.934285714285714 97.76857142857143C33.4847619047619 97.76857142857143 33.15428571428571 97.44190476190477 33.15428571428571 97.0C33.15428571428571 96.55809523809523 33.4847619047619 96.23142857142857 33.934285714285714 96.23142857142857C34.37619047619048 96.23142857142857 34.70857142857143 96.55809523809523 34.70857142857143 97.0C34.70857142857143 97.44190476190477 34.37619047619047 97.76857142857143 33.934285714285714 97.76857142857143Z"/>
    <path fill="#1e1e1e" fill-rule="evenodd" d="M35.43142857142857 98.0H36.8V97.75142857142858H35.71714285714286V96.0H35.43142857142857Z"/>
    <path fill="#1e1e1e" fill-rule="evenodd" d="M38.08 98.0H38.38285714285714L39.191428571428574 96.19428571428571V96.0H37.682857142857145V96.60571428571428H37.957142857142856V96.24857142857142H38.870538417271206Z"/>
  </g>
  <!-- COL 8 — y=109 -->
  <rect x="29.5" y="107.25" width="11" height="3.5" rx="1.0" fill="#d0d0d0"/>
  <g>
    <path fill="#1e1e1e" fill-rule="evenodd" d="M31.822857142857146 110.02285714285715C32.135238095238094 110.02285714285715 32.402857142857144 109.91428571428571 32.58571428571429 109.70857142857143L32.4 109.52857142857142C32.24761904761905 109.69238095238096 32.05428571428572 109.76857142857143 31.837142857142858 109.76857142857143C31.387619047619047 109.76857142857143 31.051428571428573 109.44190476190477 31.051428571428573 109.0C31.051428571428573 108.55809523809523 31.387619047619047 108.23142857142857 31.837142857142858 108.23142857142857C32.05428571428572 108.23142857142857 32.24761904761905 108.30857142857143 32.4 108.46857142857142L32.58571428571429 108.28857142857143C32.402857142857144 108.08285714285714 32.13428571428572 107.97714285714285 31.825714285714287 107.97714285714285C31.216190476190476 107.97714285714285 30.76571428571429 108.40571428571428 30.76571428571429 109.0C30.76571428571429 109.59428571428572 31.213333333333335 110.02285714285715 31.822857142857146 110.02285714285715Z"/>
    <path fill="#1e1e1e" fill-rule="evenodd" d="M33.86857142857143 110.02285714285715C34.478095238095236 110.02285714285715 34.92857142857143 109.59428571428572 34.92857142857143 109.0C34.92857142857143 108.40571428571428 34.47809523809524 107.97714285714285 33.86857142857143 107.97714285714285C33.25142857142857 107.97714285714285 32.80285714285714 108.41333333333334 32.80285714285714 109.0C32.80285714285714 109.58666666666667 33.25904761904762 110.02285714285715 33.86857142857143 110.02285714285715ZM33.86857142857143 109.76857142857143C33.41904761904762 109.76857142857143 33.08857142857143 109.44190476190477 33.08857142857143 109.0C33.08857142857143 108.55809523809523 33.41904761904762 108.23142857142857 33.86857142857143 108.23142857142857C34.310476190476194 108.23142857142857 34.642857142857146 108.55809523809523 34.642857142857146 109.0C34.642857142857146 109.44190476190477 34.31047619047619 109.76857142857143 33.86857142857143 109.76857142857143Z"/>
    <path fill="#1e1e1e" fill-rule="evenodd" d="M35.36571428571428 110.0H36.73428571428571V109.75142857142858H35.651428571428575V108.0H35.36571428571428Z"/>
    <path fill="#1e1e1e" fill-rule="evenodd" d="M38.44857142857143 110.02285714285715C38.934285714285714 110.02285714285715 39.245714285714286 109.79428571428572 39.245714285714286 109.43428571428572C39.245714285714286 109.20578285142857 39.119249707782444 109.038670560383 38.89046687534877 108.95067868913922C39.073554137775 108.86480104929285 39.174285714285716 108.715976 39.174285714285716 108.52C39.174285714285716 108.18285714285715 38.88285714285714 107.97714285714285 38.44857142857143 107.97714285714285C38.019999999999996 107.97714285714285 37.72857142857143 108.18285714285715 37.72857142857143 108.52C37.72857142857143 108.7153536 37.82653456113371 108.86385526703543 38.00685965401786 108.94985879080636C37.78064837423937 109.0367645612765 37.65714285714286 109.20250881142857 37.65714285714286 109.43428571428572C37.65714285714286 109.79428571428572 37.96285714285714 110.02285714285715 38.44857142857143 110.02285714285715ZM38.44857142857143 108.85142857142857C38.174285714285716 108.85142857142857 38.01142857142857 108.72952380952381 38.01142857142857 108.53142857142858C38.01142857142857 108.3295238095238 38.18190476190476 108.20857142857143 38.44857142857143 108.20857142857143C38.71523809523809 108.20857142857143 38.894285714285715 108.3295238095238 38.894285714285715 108.53142857142858C38.894285714285715 108.72952380952381 38.72666666666667 108.85142857142857 38.44857142857143 108.85142857142857ZM38.44857142857143 109.79142857142857C38.13238095238095 109.79142857142857 37.94285714285714 109.65047619047618 37.94285714285714 109.42571428571429C37.94285714285714 109.20476190476191 38.13238095238095 109.06857142857143 38.44857142857143 109.06857142857143C38.76857142857143 109.06857142857143 38.96 109.20476190476191 38.96 109.42571428571429C38.96 109.6504761904762 38.76857142857143 109.79142857142857 38.44857142857143 109.79142857142857Z"/>
  </g>

  <!-- domino logo centered above bottom bar -->
  <g transform="translate(20.71,118.0) scale(0.75)">
    <rect x="0" y="0" width="12.5" height="5.5"
          rx="1.18" ry="1.2"
          fill="none" stroke="#d0d0d0" stroke-width="0.5"/>
    <rect x="6.125" y="0.5" width="0.25" height="4.5"
          fill="#d0d0d0"/>
    <circle cx="2.07"  cy="1.46" r="0.625" fill="#d0d0d0"/>
    <circle cx="4.19"  cy="4.11" r="0.625" fill="#d0d0d0"/>
    <circle cx="8.20"  cy="1.46" r="0.625" fill="#d0d0d0"/>
    <circle cx="10.32" cy="4.11" r="0.625" fill="#d0d0d0"/>
  </g>

</svg>
