<?xml version="1.0" encoding="UTF-8"?>
<svg xmlns="http://www.w3.org/2000/svg"
     width="50.8mm" height="128.5mm"
     viewBox="0 0 50.8 128.5">

  <rect width="50.8" height="128.5" fill="#1e1e1e"/>

  <!-- top accent: slants start just inside screw inner edges (10.16 / 40.64 mm) -->
  <polygon points="
    0,0 50.8,0 50.8,0.5
    40.64,0.5 38.16,2.0 12.64,2.0 10.16,0.5
    0,0.5
  " fill="#f26522"/>
  <rect x="0" y="127.5" width="50.8" height="1.0" fill="#f26522"/>

  <!-- title: SLDR (Bold) + 64 (Light), cap-top y=7, baseline y=11.125, cap-height=4.125 -->
  <g id="title">
    <path fill="#d0d0d0" fill-rule="evenodd" d="M15.284910714285713 11.195714285714285C16.46348214285714 11.195714285714285 17.035089285714285 10.612321428571429 17.035089285714285 9.916964285714286C17.035089285714285 9.48482142857143 16.840625 9.211785714285714 16.557767857142856 9.03892857142857C15.850624999999994 8.606785714285714 14.636696428571426 8.69714285714286 14.636696428571426 8.166785714285714C14.636696428571426 8.076428571428572 14.66223214285714 7.996875 14.71330357142857 7.928125C14.815446428571427 7.790625 15.051160714285713 7.695357142857143 15.420446428571427 7.695357142857143C15.78973214285714 7.695357142857143 16.178660714285712 7.799464285714286 16.563660714285714 8.019464285714285L16.85830357142857 7.294642857142857C16.47330357142857 7.051071428571428 15.944910714285712 6.929285714285714 15.426339285714285 6.929285714285714C14.259553571428569 6.929285714285714 13.687946428571427 7.506785714285715 13.687946428571427 8.213928571428571C13.687946428571427 8.873928571428571 14.121071428571428 9.145 14.63375 9.31C15.317321428571427 9.530000000000001 16.086339285714285 9.547678571428571 16.086339285714285 9.987678571428571C16.086339285714285 10.246964285714286 15.856517857142855 10.429642857142857 15.29080357142857 10.429642857142857C14.79580357142857 10.429642857142857 14.283124999999998 10.250892857142857 13.92955357142857 9.999464285714286L13.605446428571426 10.718392857142858C13.97473214285714 11.00125 14.624910714285713 11.195714285714285 15.284910714285713 11.195714285714285Z"/>
    <path fill="#d0d0d0" fill-rule="evenodd" d="M17.689196428571428 11.125H20.712232142857143V10.347142857142858H18.643839285714286V7.0H17.689196428571428Z"/>
    <path fill="#d0d0d0" fill-rule="evenodd" d="M21.248482142857142 11.125H23.122410714285714C24.46598214285714 11.125 25.39705357142857 10.311785714285715 25.39705357142857 9.0625C25.39705357142857 8.642142857142858 25.30080357142857 8.27875 25.10830357142857 7.972321428571428C24.72330357142857 7.359464285714285 24.018124999999998 7.0 23.122410714285714 7.0H21.248482142857142ZM22.203125 10.34125V7.7837499999999995H23.075267857142855C23.900267857142854 7.7837499999999995 24.430625 8.272857142857145 24.430625 9.0625C24.430625 9.840357142857144 23.900267857142854 10.34125 23.075267857142855 10.34125Z"/>
    <path fill="#d0d0d0" fill-rule="evenodd" d="M26.115982142857142 11.125H27.070625V9.975892857142856H27.901517857142856C27.91654150785714 9.975892857142856 27.931487132122662 9.975789905578512 27.94635544504438 9.975543840953282L28.73830357142857 11.125H29.76955357142857L28.847257407052176 9.801478951317923C29.384904784174818 9.569020266407202 29.692946428571428 9.113896698571429 29.692946428571428 8.496785714285714C29.692946428571428 7.561785714285715 29.025089285714284 7.0 27.877946428571427 7.0H26.115982142857142ZM27.84848214285714 7.777857142857142C28.437767857142855 7.777857142857142 28.726517857142856 8.041071428571428 28.726517857142856 8.496785714285714C28.726517857142856 8.944642857142858 28.437767857142855 9.215714285714286 27.84848214285714 9.215714285714286H27.070625V7.777857142857142Z"/>
    <path fill="#d0d0d0" fill-rule="evenodd" d="M31.938125 11.154464285714285C32.72776785714285 11.154464285714285 33.31116071428571 10.665357142857145 33.31116071428571 9.911071428571429C33.31116071428571 9.168571428571429 32.75723214285714 8.685357142857143 31.932232142857142 8.685357142857143C31.308573864285712 8.685357142857143 30.790337965171084 8.992457117796517 30.620071362086705 9.534127110072545C30.590146366795672 9.34561871007967 30.582767857142855 9.162759602142858 30.582767857142855 9.03892857142857C30.582767857142855 7.836785714285714 31.187767857142855 7.235714285714286 32.11491071428571 7.235714285714286C32.42919642857143 7.235714285714286 32.71598214285714 7.290714285714286 32.928125 7.424285714285714L33.051874999999995 7.182678571428571C32.800446428571426 7.025535714285715 32.46848214285714 6.970535714285714 32.11491071428571 6.970535714285714C31.018839285714286 6.970535714285714 30.282232142857143 7.68357142857143 30.282232142857143 9.08607142857143C30.282232142857143 10.370714285714286 30.853839285714283 11.154464285714285 31.938125 11.154464285714285ZM31.926339285714285 10.895178571428572C31.160267857142856 10.895178571428572 30.747767857142858 10.411964285714285 30.747767857142858 9.92875C30.747767857142858 9.37482142857143 31.219196428571426 8.944642857142856 31.89098214285714 8.944642857142856C32.590267857142855 8.944642857142856 33.010625 9.32767857142857 33.010625 9.916964285714286C33.010625 10.506250000000001 32.57455357142857 10.895178571428572 31.926339285714285 10.895178571428572Z"/>
    <path fill="#d0d0d0" fill-rule="evenodd" d="M33.75901785714286 9.981785714285714H36.11026785714286V11.125H36.40491071428572V9.981785714285714H37.27116071428571V9.716607142857143H36.40491071428572V8.708928571428572H36.11616071428572V9.716607142857143H34.13889983722142L36.33419642857143 7.0H35.99830357142857L33.75901785714286 9.76375Z"/>
  </g>

  <!-- COL labels (Montserrat Medium, cap-height 2mm, centered at x=36mm) -->
  <!-- COL 1 — row y=25 -->
  <g>
    <path fill="#d0d0d0" fill-rule="evenodd" d="M33.598571428571425 26.02285714285714C33.91095238095238 26.02285714285714 34.17857142857143 25.914285714285715 34.36142857142857 25.708571428571428L34.175714285714285 25.52857142857143C34.02333333333333 25.69238095238095 33.83 25.768571428571427 33.612857142857145 25.768571428571427C33.163333333333334 25.768571428571427 32.82714285714285 25.441904761904762 32.82714285714285 25.0C32.82714285714285 24.55809523809524 33.16333333333333 24.231428571428573 33.612857142857145 24.231428571428573C33.83 24.231428571428573 34.02333333333333 24.30857142857143 34.175714285714285 24.46857142857143L34.36142857142857 24.28857142857143C34.17857142857143 24.082857142857144 33.91 23.97714285714286 33.60142857142857 23.97714285714286C32.991904761904756 23.97714285714286 32.54142857142857 24.40571428571429 32.54142857142857 25.0C32.54142857142857 25.594285714285714 32.98904761904762 26.02285714285714 33.598571428571425 26.02285714285714Z"/>
    <path fill="#d0d0d0" fill-rule="evenodd" d="M35.64428571428571 26.02285714285714C36.253809523809515 26.02285714285714 36.70428571428571 25.594285714285714 36.70428571428571 25.0C36.70428571428571 24.405714285714286 36.25380952380952 23.97714285714286 35.64428571428571 23.97714285714286C35.02714285714285 23.97714285714286 34.57857142857142 24.413333333333338 34.57857142857142 25.0C34.57857142857142 25.586666666666666 35.0347619047619 26.02285714285714 35.64428571428571 26.02285714285714ZM35.64428571428571 25.768571428571427C35.1947619047619 25.768571428571427 34.86428571428571 25.441904761904762 34.86428571428571 25.0C34.86428571428571 24.55809523809524 35.1947619047619 24.231428571428573 35.64428571428571 24.231428571428573C36.086190476190474 24.231428571428573 36.418571428571425 24.558095238095238 36.418571428571425 25.0C36.418571428571425 25.441904761904762 36.08619047619047 25.768571428571427 35.64428571428571 25.768571428571427Z"/>
    <path fill="#d0d0d0" fill-rule="evenodd" d="M37.14142857142856 26.0H38.50999999999999V25.751428571428573H37.427142857142854V24.0H37.14142857142856Z"/>
    <path fill="#d0d0d0" fill-rule="evenodd" d="M39.012857142857136 26.0H39.29571428571428V24.0H38.561428571428564V24.248571428571427H39.012857142857136Z"/>
  </g>
  <!-- COL 2 — row y=37 -->
  <g>
    <path fill="#d0d0d0" fill-rule="evenodd" d="M33.30714285714286 38.02285714285714C33.61952380952381 38.02285714285714 33.88714285714286 37.91428571428571 34.07 37.70857142857143L33.88428571428572 37.52857142857143C33.731904761904765 37.69238095238095 33.53857142857143 37.76857142857143 33.32142857142858 37.76857142857143C32.871904761904766 37.76857142857143 32.535714285714285 37.44190476190476 32.535714285714285 37.0C32.535714285714285 36.55809523809524 32.87190476190476 36.23142857142857 33.32142857142858 36.23142857142857C33.53857142857143 36.23142857142857 33.731904761904765 36.308571428571426 33.88428571428572 36.46857142857143L34.07 36.28857142857143C33.88714285714286 36.082857142857144 33.61857142857143 35.97714285714286 33.31 35.97714285714286C32.70047619047619 35.97714285714286 32.25 36.40571428571429 32.25 37.0C32.25 37.59428571428572 32.69761904761905 38.02285714285714 33.30714285714286 38.02285714285714Z"/>
    <path fill="#d0d0d0" fill-rule="evenodd" d="M35.35285714285714 38.02285714285714C35.96238095238095 38.02285714285714 36.41285714285714 37.59428571428572 36.41285714285714 37.0C36.41285714285714 36.40571428571429 35.962380952380954 35.97714285714286 35.35285714285714 35.97714285714286C34.73571428571428 35.97714285714286 34.287142857142854 36.413333333333334 34.287142857142854 37.0C34.287142857142854 37.586666666666666 34.74333333333333 38.02285714285714 35.35285714285714 38.02285714285714ZM35.35285714285714 37.76857142857143C34.90333333333333 37.76857142857143 34.57285714285714 37.44190476190476 34.57285714285714 37.0C34.57285714285714 36.55809523809524 34.90333333333333 36.23142857142857 35.35285714285714 36.23142857142857C35.794761904761906 36.23142857142857 36.12714285714286 36.55809523809524 36.12714285714286 37.0C36.12714285714286 37.441904761904766 35.7947619047619 37.76857142857143 35.35285714285714 37.76857142857143Z"/>
    <path fill="#d0d0d0" fill-rule="evenodd" d="M36.849999999999994 38.0H38.21857142857142V37.75142857142857H37.135714285714286V36.0H36.849999999999994Z"/>
    <path fill="#d0d0d0" fill-rule="evenodd" d="M38.35285714285714 38.0H39.79V37.75142857142857H38.765521872384205L39.37571428571428 37.16285714285714C39.64428571428571 36.9 39.70428571428571 36.72857142857143 39.70428571428571 36.534285714285716C39.70428571428571 36.191428571428574 39.43571428571428 35.97714285714286 39.01857142857143 35.97714285714286C38.71 35.97714285714286 38.439523809523806 36.08571428571429 38.287142857142854 36.28L38.481428571428566 36.44857142857143C38.607142857142854 36.3 38.77952380952381 36.23142857142857 38.99285714285714 36.23142857142857C39.27095238095238 36.23142857142857 39.418571428571425 36.357142857142854 39.418571428571425 36.56285714285714C39.418571428571425 36.68857142857143 39.38428571428571 36.81428571428572 39.167142857142856 37.02L38.35285714285714 37.80571428571429Z"/>
  </g>
  <!-- COL 3 — row y=49 -->
  <g>
    <path fill="#d0d0d0" fill-rule="evenodd" d="M33.309999999999995 50.02285714285714C33.62238095238095 50.02285714285714 33.89 49.91428571428571 34.07285714285714 49.70857142857143L33.887142857142855 49.52857142857143C33.7347619047619 49.69238095238095 33.54142857142857 49.76857142857143 33.324285714285715 49.76857142857143C32.874761904761904 49.76857142857143 32.53857142857142 49.44190476190476 32.53857142857142 49.0C32.53857142857142 48.55809523809524 32.8747619047619 48.23142857142857 33.324285714285715 48.23142857142857C33.54142857142857 48.23142857142857 33.7347619047619 48.308571428571426 33.887142857142855 48.46857142857143L34.07285714285714 48.28857142857143C33.89 48.082857142857144 33.62142857142857 47.97714285714286 33.31285714285714 47.97714285714286C32.703333333333326 47.97714285714286 32.25285714285714 48.40571428571429 32.25285714285714 49.0C32.25285714285714 49.59428571428572 32.70047619047619 50.02285714285714 33.309999999999995 50.02285714285714Z"/>
    <path fill="#d0d0d0" fill-rule="evenodd" d="M35.35571428571428 50.02285714285714C35.965238095238085 50.02285714285714 36.41571428571428 49.59428571428572 36.41571428571428 49.0C36.41571428571428 48.40571428571429 35.96523809523809 47.97714285714286 35.35571428571428 47.97714285714286C34.73857142857142 47.97714285714286 34.28999999999999 48.413333333333334 34.28999999999999 49.0C34.28999999999999 49.586666666666666 34.74619047619047 50.02285714285714 35.35571428571428 50.02285714285714ZM35.35571428571428 49.76857142857143C34.90619047619047 49.76857142857143 34.57571428571428 49.44190476190476 34.57571428571428 49.0C34.57571428571428 48.55809523809524 34.90619047619047 48.23142857142857 35.35571428571428 48.23142857142857C35.797619047619044 48.23142857142857 36.129999999999995 48.55809523809524 36.129999999999995 49.0C36.129999999999995 49.441904761904766 35.79761904761904 49.76857142857143 35.35571428571428 49.76857142857143Z"/>
    <path fill="#d0d0d0" fill-rule="evenodd" d="M36.85285714285713 50.0H38.22142857142856V49.75142857142857H37.138571428571424V48.0H36.85285714285713Z"/>
    <path fill="#d0d0d0" fill-rule="evenodd" d="M38.998571428571424 50.02285714285714C39.512857142857136 50.02285714285714 39.75571428571428 49.74857142857143 39.75571428571428 49.41142857142857C39.75571428571428 49.105595395405196 39.55438503447032 48.8774404344287 39.15172653198241 48.83977787562779L39.67571428571428 48.19428571428571V48.0H38.35571428571428V48.24857142857143H39.31714285714285L38.81571428571428 48.86571428571428V49.065714285714286H38.975714285714275C39.318571428571424 49.065714285714286 39.46999999999999 49.2047619047619 39.46999999999999 49.41428571428571C39.46999999999999 49.63142857142857 39.295714285714276 49.76857142857143 38.998571428571424 49.76857142857143C38.7547619047619 49.76857142857143 38.52904761904761 49.68 38.39571428571428 49.55428571428571L38.264285714285705 49.78C38.431904761904754 49.92857142857143 38.71666666666666 50.02285714285714 38.998571428571424 50.02285714285714Z"/>
  </g>
  <!-- COL 4 — row y=61 -->
  <g>
    <path fill="#d0d0d0" fill-rule="evenodd" d="M33.17142857142857 62.02285714285714C33.483809523809526 62.02285714285714 33.751428571428576 61.91428571428571 33.934285714285714 61.70857142857143L33.74857142857143 61.52857142857143C33.59619047619048 61.69238095238095 33.402857142857144 61.76857142857143 33.18571428571429 61.76857142857143C32.73619047619048 61.76857142857143 32.4 61.44190476190476 32.4 61.0C32.4 60.55809523809524 32.73619047619047 60.23142857142857 33.18571428571429 60.23142857142857C33.402857142857144 60.23142857142857 33.59619047619048 60.308571428571426 33.74857142857143 60.46857142857143L33.934285714285714 60.28857142857143C33.751428571428576 60.082857142857144 33.48285714285714 59.97714285714286 33.174285714285716 59.97714285714286C32.5647619047619 59.97714285714286 32.114285714285714 60.40571428571429 32.114285714285714 61.0C32.114285714285714 61.59428571428572 32.56190476190476 62.02285714285714 33.17142857142857 62.02285714285714Z"/>
    <path fill="#d0d0d0" fill-rule="evenodd" d="M35.21714285714285 62.02285714285714C35.82666666666666 62.02285714285714 36.277142857142856 61.59428571428572 36.277142857142856 61.0C36.277142857142856 60.40571428571429 35.82666666666667 59.97714285714286 35.21714285714285 59.97714285714286C34.599999999999994 59.97714285714286 34.15142857142857 60.413333333333334 34.15142857142857 61.0C34.15142857142857 61.586666666666666 34.607619047619046 62.02285714285714 35.21714285714285 62.02285714285714ZM35.21714285714285 61.76857142857143C34.76761904761904 61.76857142857143 34.43714285714285 61.44190476190476 34.43714285714285 61.0C34.43714285714285 60.55809523809524 34.76761904761904 60.23142857142857 35.21714285714285 60.23142857142857C35.65904761904762 60.23142857142857 35.99142857142857 60.55809523809524 35.99142857142857 61.0C35.99142857142857 61.441904761904766 35.65904761904761 61.76857142857143 35.21714285714285 61.76857142857143Z"/>
    <path fill="#d0d0d0" fill-rule="evenodd" d="M36.71428571428571 62.0H38.08285714285714V61.75142857142857H37.0V60.0H36.71428571428571Z"/>
    <path fill="#d0d0d0" fill-rule="evenodd" d="M38.22 61.50857142857143H39.33142857142857V62.0H39.60857142857142V61.50857142857143H39.988571428571426V61.26285714285714H39.60857142857142V60.82857142857143H39.339999999999996V61.26285714285714H38.57257642473493L39.551428571428566 60.0H39.24285714285714L38.22 61.308571428571426Z"/>
  </g>
  <!-- COL 5 — row y=73 -->
  <g>
    <path fill="#d0d0d0" fill-rule="evenodd" d="M33.30714285714286 74.02285714285715C33.61952380952381 74.02285714285715 33.88714285714286 73.91428571428571 34.07 73.70857142857143L33.88428571428572 73.52857142857142C33.731904761904765 73.69238095238096 33.53857142857143 73.76857142857143 33.32142857142858 73.76857142857143C32.871904761904766 73.76857142857143 32.535714285714285 73.44190476190477 32.535714285714285 73.0C32.535714285714285 72.55809523809523 32.87190476190476 72.23142857142857 33.32142857142858 72.23142857142857C33.53857142857143 72.23142857142857 33.731904761904765 72.30857142857143 33.88428571428572 72.46857142857142L34.07 72.28857142857143C33.88714285714286 72.08285714285714 33.61857142857143 71.97714285714285 33.31 71.97714285714285C32.70047619047619 71.97714285714285 32.25 72.40571428571428 32.25 73.0C32.25 73.59428571428572 32.69761904761905 74.02285714285715 33.30714285714286 74.02285714285715Z"/>
    <path fill="#d0d0d0" fill-rule="evenodd" d="M35.35285714285714 74.02285714285715C35.96238095238095 74.02285714285715 36.41285714285714 73.59428571428572 36.41285714285714 73.0C36.41285714285714 72.40571428571428 35.962380952380954 71.97714285714285 35.35285714285714 71.97714285714285C34.73571428571428 71.97714285714285 34.287142857142854 72.41333333333334 34.287142857142854 73.0C34.287142857142854 73.58666666666667 34.74333333333333 74.02285714285715 35.35285714285714 74.02285714285715ZM35.35285714285714 73.76857142857143C34.90333333333333 73.76857142857143 34.57285714285714 73.44190476190477 34.57285714285714 73.0C34.57285714285714 72.55809523809523 34.90333333333333 72.23142857142857 35.35285714285714 72.23142857142857C35.794761904761906 72.23142857142857 36.12714285714286 72.55809523809523 36.12714285714286 73.0C36.12714285714286 73.44190476190477 35.7947619047619 73.76857142857143 35.35285714285714 73.76857142857143Z"/>
    <path fill="#d0d0d0" fill-rule="evenodd" d="M36.849999999999994 74.0H38.21857142857142V73.75142857142858H37.135714285714286V72.0H36.849999999999994Z"/>
    <path fill="#d0d0d0" fill-rule="evenodd" d="M39.029999999999994 74.02285714285715C39.544285714285714 74.02285714285715 39.787142857142854 73.74285714285715 39.787142857142854 73.4C39.787142857142854 73.04571428571428 39.55571428571428 72.79714285714286 38.955714285714286 72.79714285714286H38.732333177839L38.78738013131278 72.24857142857142H39.675714285714285V72.0H38.54714285714285L38.44142857142857 73.04571428571428H38.895714285714284C39.35857142857142 73.04571428571428 39.50142857142857 73.18857142857144 39.50142857142857 73.41142857142857C39.50142857142857 73.62857142857143 39.33190476190476 73.76857142857143 39.027142857142856 73.76857142857143C38.787142857142854 73.76857142857143 38.56047619047619 73.68 38.427142857142854 73.55428571428571L38.29571428571428 73.78C38.46333333333333 73.92857142857143 38.74809523809523 74.02285714285715 39.029999999999994 74.02285714285715Z"/>
  </g>
  <!-- COL 6 — row y=85 -->
  <g>
    <path fill="#d0d0d0" fill-rule="evenodd" d="M33.245714285714286 86.02285714285715C33.55809523809524 86.02285714285715 33.825714285714284 85.91428571428571 34.00857142857143 85.70857142857143L33.822857142857146 85.52857142857142C33.670476190476194 85.69238095238096 33.47714285714286 85.76857142857143 33.260000000000005 85.76857142857143C32.810476190476194 85.76857142857143 32.47428571428571 85.44190476190477 32.47428571428571 85.0C32.47428571428571 84.55809523809523 32.81047619047619 84.23142857142857 33.260000000000005 84.23142857142857C33.47714285714286 84.23142857142857 33.670476190476194 84.30857142857143 33.822857142857146 84.46857142857142L34.00857142857143 84.28857142857143C33.82571428571429 84.08285714285714 33.55714285714286 83.97714285714285 33.24857142857143 83.97714285714285C32.639047619047616 83.97714285714285 32.18857142857143 84.40571428571428 32.18857142857143 85.0C32.18857142857143 85.59428571428572 32.63619047619048 86.02285714285715 33.245714285714286 86.02285714285715Z"/>
    <path fill="#d0d0d0" fill-rule="evenodd" d="M35.29142857142857 86.02285714285715C35.900952380952376 86.02285714285715 36.35142857142857 85.59428571428572 36.35142857142857 85.0C36.35142857142857 84.40571428571428 35.90095238095238 83.97714285714285 35.29142857142857 83.97714285714285C34.67428571428571 83.97714285714285 34.22571428571428 84.41333333333334 34.22571428571428 85.0C34.22571428571428 85.58666666666667 34.68190476190476 86.02285714285715 35.29142857142857 86.02285714285715ZM35.29142857142857 85.76857142857143C34.84190476190476 85.76857142857143 34.51142857142857 85.44190476190477 34.51142857142857 85.0C34.51142857142857 84.55809523809523 34.84190476190476 84.23142857142857 35.29142857142857 84.23142857142857C35.733333333333334 84.23142857142857 36.065714285714286 84.55809523809523 36.065714285714286 85.0C36.065714285714286 85.44190476190477 35.73333333333333 85.76857142857143 35.29142857142857 85.76857142857143Z"/>
    <path fill="#d0d0d0" fill-rule="evenodd" d="M36.78857142857142 86.0H38.15714285714285V85.75142857142858H37.074285714285715V84.0H36.78857142857142Z"/>
    <path fill="#d0d0d0" fill-rule="evenodd" d="M39.16285714285714 86.02285714285715C39.56285714285714 86.02285714285715 39.87142857142857 85.77428571428571 39.87142857142857 85.39142857142858C39.87142857142857 85.02 39.58571428571428 84.78571428571429 39.18571428571428 84.78571428571429C38.93916737142857 84.78571428571429 38.72670268390914 84.87660022375772 38.60997634887695 85.05222869873047L38.609596993582585 85.04231944492885C38.60880075277677 85.01874975024768 38.60857142857142 84.99677101714286 38.60857142857142 84.97714285714285C38.60857142857142 84.47809523809524 38.86666666666667 84.22285714285714 39.27428571428571 84.22285714285714C39.41904761904762 84.22285714285714 39.55428571428571 84.2447619047619 39.65714285714286 84.31714285714285L39.76571428571428 84.09428571428572C39.64 84.01428571428572 39.45904761904762 83.97714285714285 39.26857142857143 83.97714285714285C38.71428571428571 83.97714285714285 38.32285714285714 84.34571428571428 38.32285714285714 85.02571428571429C38.32285714285714 85.66571428571429 38.63142857142857 86.02285714285715 39.16285714285714 86.02285714285715ZM39.15142857142857 85.79142857142857C38.84285714285714 85.79142857142857 38.677142857142854 85.61142857142858 38.677142857142854 85.40571428571428C38.677142857142854 85.18285714285715 38.86285714285714 85.01714285714286 39.137142857142855 85.01714285714286C39.41904761904762 85.01714285714286 39.59428571428571 85.16666666666667 39.59428571428571 85.40285714285714C39.59428571428571 85.63714285714286 39.41428571428571 85.79142857142857 39.15142857142857 85.79142857142857Z"/>
  </g>
  <!-- COL 7 — row y=97 -->
  <g>
    <path fill="#d0d0d0" fill-rule="evenodd" d="M33.27285714285714 98.02285714285715C33.5852380952381 98.02285714285715 33.85285714285715 97.91428571428571 34.035714285714285 97.70857142857143L33.85 97.52857142857142C33.69761904761905 97.69238095238096 33.504285714285714 97.76857142857143 33.28714285714286 97.76857142857143C32.83761904761905 97.76857142857143 32.50142857142857 97.44190476190477 32.50142857142857 97.0C32.50142857142857 96.55809523809523 32.83761904761904 96.23142857142857 33.28714285714286 96.23142857142857C33.504285714285714 96.23142857142857 33.69761904761905 96.30857142857143 33.85 96.46857142857142L34.035714285714285 96.28857142857143C33.85285714285715 96.08285714285714 33.58428571428571 95.97714285714285 33.27571428571429 95.97714285714285C32.66619047619047 95.97714285714285 32.215714285714284 96.40571428571428 32.215714285714284 97.0C32.215714285714284 97.59428571428572 32.663333333333334 98.02285714285715 33.27285714285714 98.02285714285715Z"/>
    <path fill="#d0d0d0" fill-rule="evenodd" d="M35.318571428571424 98.02285714285715C35.92809523809523 98.02285714285715 36.378571428571426 97.59428571428572 36.378571428571426 97.0C36.378571428571426 96.40571428571428 35.92809523809524 95.97714285714285 35.318571428571424 95.97714285714285C34.701428571428565 95.97714285714285 34.25285714285714 96.41333333333334 34.25285714285714 97.0C34.25285714285714 97.58666666666667 34.70904761904762 98.02285714285715 35.318571428571424 98.02285714285715ZM35.318571428571424 97.76857142857143C34.86904761904761 97.76857142857143 34.53857142857142 97.44190476190477 34.53857142857142 97.0C34.53857142857142 96.55809523809523 34.86904761904761 96.23142857142857 35.318571428571424 96.23142857142857C35.76047619047619 96.23142857142857 36.09285714285714 96.55809523809523 36.09285714285714 97.0C36.09285714285714 97.44190476190477 35.76047619047618 97.76857142857143 35.318571428571424 97.76857142857143Z"/>
    <path fill="#d0d0d0" fill-rule="evenodd" d="M36.81571428571428 98.0H38.18428571428571V97.75142857142858H37.10142857142857V96.0H36.81571428571428Z"/>
    <path fill="#d0d0d0" fill-rule="evenodd" d="M38.69571428571428 98.0H38.998571428571424L39.80714285714285 96.19428571428571V96.0H38.29857142857143V96.60571428571428H38.57285714285714V96.24857142857142H39.48625270298549Z"/>
  </g>
  <!-- COL 8 — row y=109 -->
  <g>
    <path fill="#d0d0d0" fill-rule="evenodd" d="M33.207142857142856 110.02285714285715C33.51952380952381 110.02285714285715 33.787142857142854 109.91428571428571 33.97 109.70857142857143L33.784285714285716 109.52857142857142C33.631904761904764 109.69238095238096 33.43857142857143 109.76857142857143 33.221428571428575 109.76857142857143C32.771904761904764 109.76857142857143 32.43571428571428 109.44190476190477 32.43571428571428 109.0C32.43571428571428 108.55809523809523 32.77190476190476 108.23142857142857 33.221428571428575 108.23142857142857C33.43857142857143 108.23142857142857 33.631904761904764 108.30857142857143 33.784285714285716 108.46857142857142L33.97 108.28857142857143C33.78714285714286 108.08285714285714 33.51857142857143 107.97714285714285 33.21 107.97714285714285C32.600476190476186 107.97714285714285 32.15 108.40571428571428 32.15 109.0C32.15 109.59428571428572 32.59761904761905 110.02285714285715 33.207142857142856 110.02285714285715Z"/>
    <path fill="#d0d0d0" fill-rule="evenodd" d="M35.25285714285714 110.02285714285715C35.862380952380946 110.02285714285715 36.31285714285714 109.59428571428572 36.31285714285714 109.0C36.31285714285714 108.40571428571428 35.86238095238095 107.97714285714285 35.25285714285714 107.97714285714285C34.63571428571428 107.97714285714285 34.18714285714285 108.41333333333334 34.18714285714285 109.0C34.18714285714285 109.58666666666667 34.64333333333333 110.02285714285715 35.25285714285714 110.02285714285715ZM35.25285714285714 109.76857142857143C34.80333333333333 109.76857142857143 34.47285714285714 109.44190476190477 34.47285714285714 109.0C34.47285714285714 108.55809523809523 34.80333333333333 108.23142857142857 35.25285714285714 108.23142857142857C35.694761904761904 108.23142857142857 36.027142857142856 108.55809523809523 36.027142857142856 109.0C36.027142857142856 109.44190476190477 35.6947619047619 109.76857142857143 35.25285714285714 109.76857142857143Z"/>
    <path fill="#d0d0d0" fill-rule="evenodd" d="M36.74999999999999 110.0H38.11857142857142V109.75142857142858H37.035714285714285V108.0H36.74999999999999Z"/>
    <path fill="#d0d0d0" fill-rule="evenodd" d="M39.06428571428571 110.02285714285715C39.55 110.02285714285715 39.86142857142857 109.79428571428572 39.86142857142857 109.43428571428572C39.86142857142857 109.20578285142857 39.73496399349673 109.038670560383 39.506181161063054 108.95067868913922C39.68926842348928 108.86480104929285 39.79 108.715976 39.79 108.52C39.79 108.18285714285715 39.498571428571424 107.97714285714285 39.06428571428571 107.97714285714285C38.63571428571428 107.97714285714285 38.34428571428571 108.18285714285715 38.34428571428571 108.52C38.34428571428571 108.7153536 38.442248846847995 108.86385526703543 38.62257393973214 108.94985879080636C38.39636265995365 109.0367645612765 38.27285714285714 109.20250881142857 38.27285714285714 109.43428571428572C38.27285714285714 109.79428571428572 38.57857142857142 110.02285714285715 39.06428571428571 110.02285714285715ZM39.06428571428571 108.85142857142857C38.79 108.85142857142857 38.62714285714285 108.72952380952381 38.62714285714285 108.53142857142858C38.62714285714285 108.3295238095238 38.797619047619044 108.20857142857143 39.06428571428571 108.20857142857143C39.330952380952375 108.20857142857143 39.51 108.3295238095238 39.51 108.53142857142858C39.51 108.72952380952381 39.34238095238095 108.85142857142857 39.06428571428571 108.85142857142857ZM39.06428571428571 109.79142857142857C38.74809523809523 109.79142857142857 38.558571428571426 109.65047619047618 38.558571428571426 109.42571428571429C38.558571428571426 109.20476190476191 38.74809523809523 109.06857142857143 39.06428571428571 109.06857142857143C39.38428571428571 109.06857142857143 39.575714285714284 109.20476190476191 39.575714285714284 109.42571428571429C39.575714285714284 109.6504761904762 39.38428571428571 109.79142857142857 39.06428571428571 109.79142857142857Z"/>
  </g>

  <!-- domino logo centered above bottom bar -->
  <g transform="translate(20.71,118.0) scale(0.75)">
    <rect x="0" y="0" width="12.5" height="5.5"
          rx="1.18" ry="1.2"
          fill="none" stroke="#d0d0d0" stroke-width="0.5"/>
    <rect x="6.125" y="0.5" width="0.25" height="4.5"
          fill="#d0d0d0"/>
    <circle cx="2.07"  cy="1.46" r="0.625" fill="#d0d0d0"/>
    <circle cx="4.19"  cy="4.11" r="0.625" fill="#d0d0d0"/>
    <circle cx="8.20"  cy="1.46" r="0.625" fill="#d0d0d0"/>
    <circle cx="10.32" cy="4.11" r="0.625" fill="#d0d0d0"/>
  </g>

</svg>
