<?xml version="1.0" encoding="UTF-8"?>
<svg xmlns="http://www.w3.org/2000/svg"
     width="81.28mm" height="128.5mm"
     viewBox="0 0 81.28 128.5">

  <rect width="81.28" height="128.5" fill="#1e1e1e"/>

  <!-- top accent: slants start just inside screw inner edges (10.16 / 71.12 mm) -->
  <polygon points="
    0,0 81.28,0 81.28,0.5
    71.12,0.5 68.64,2.0 12.64,2.0 10.16,0.5
    0,0.5
  " fill="#f26522"/>
  <rect x="0" y="127.5" width="81.28" height="1.0" fill="#f26522"/>

  <!-- title: SLDR (Bold) + 64 (Light), cap-top y=7, baseline y=11.125, cap-height=4.125 -->
  <g id="title">
    <path fill="#d0d0d0" fill-rule="evenodd" d="M30.524910714285713 11.195714285714285C31.70348214285714 11.195714285714285 32.27508928571429 10.612321428571429 32.27508928571429 9.916964285714286C32.27508928571429 9.48482142857143 32.080625 9.211785714285714 31.79776785714286 9.03892857142857C31.090624999999996 8.606785714285714 29.876696428571428 8.69714285714286 29.876696428571428 8.166785714285714C29.876696428571428 8.076428571428572 29.902232142857144 7.996875 29.95330357142857 7.928125C30.05544642857143 7.790625 30.291160714285713 7.695357142857143 30.66044642857143 7.695357142857143C31.029732142857142 7.695357142857143 31.418660714285714 7.799464285714286 31.803660714285716 8.019464285714285L32.09830357142857 7.294642857142857C31.713303571428572 7.051071428571428 31.184910714285714 6.929285714285714 30.666339285714287 6.929285714285714C29.49955357142857 6.929285714285714 28.927946428571428 7.506785714285715 28.927946428571428 8.213928571428571C28.927946428571428 8.873928571428571 29.361071428571428 9.145 29.87375 9.31C30.55732142857143 9.530000000000001 31.326339285714287 9.547678571428571 31.326339285714287 9.987678571428571C31.326339285714287 10.246964285714286 31.096517857142857 10.429642857142857 30.53080357142857 10.429642857142857C30.035803571428573 10.429642857142857 29.523125 10.250892857142857 29.169553571428573 9.999464285714286L28.845446428571428 10.718392857142858C29.214732142857144 11.00125 29.864910714285713 11.195714285714285 30.524910714285713 11.195714285714285Z"/>
    <path fill="#d0d0d0" fill-rule="evenodd" d="M32.92919642857143 11.125H35.95223214285714V10.347142857142858H33.88383928571429V7.0H32.92919642857143Z"/>
    <path fill="#d0d0d0" fill-rule="evenodd" d="M36.488482142857144 11.125H38.362410714285716C39.705982142857145 11.125 40.637053571428574 10.311785714285715 40.637053571428574 9.0625C40.637053571428574 8.642142857142858 40.54080357142857 8.27875 40.34830357142857 7.972321428571428C39.96330357142857 7.359464285714285 39.258125 7.0 38.362410714285716 7.0H36.488482142857144ZM37.443125 10.34125V7.7837499999999995H38.31526785714286C39.14026785714286 7.7837499999999995 39.670625 8.272857142857145 39.670625 9.0625C39.670625 9.840357142857144 39.14026785714285 10.34125 38.31526785714286 10.34125Z"/>
    <path fill="#d0d0d0" fill-rule="evenodd" d="M41.355982142857144 11.125H42.310625V9.975892857142856H43.14151785714286C43.15654150785714 9.975892857142856 43.171487132122664 9.975789905578512 43.186355445044384 9.975543840953282L43.97830357142857 11.125H45.00955357142857L44.08725740705218 9.801478951317923C44.62490478417482 9.569020266407202 44.93294642857143 9.113896698571429 44.93294642857143 8.496785714285714C44.93294642857143 7.561785714285715 44.26508928571429 7.0 43.11794642857143 7.0H41.355982142857144ZM43.088482142857146 7.777857142857142C43.67776785714286 7.777857142857142 43.96651785714286 8.041071428571428 43.96651785714286 8.496785714285714C43.96651785714286 8.944642857142858 43.677767857142854 9.215714285714286 43.088482142857146 9.215714285714286H42.310625V7.777857142857142Z"/>
    <path fill="#d0d0d0" fill-rule="evenodd" d="M47.178125 11.154464285714285C47.96776785714286 11.154464285714285 48.55116071428572 10.665357142857145 48.55116071428572 9.911071428571429C48.55116071428572 9.168571428571429 47.99723214285714 8.685357142857143 47.17223214285715 8.685357142857143C46.548573864285714 8.685357142857143 46.03033796517109 8.992457117796517 45.86007136208671 9.534127110072545C45.830146366795674 9.34561871007967 45.822767857142864 9.162759602142858 45.822767857142864 9.03892857142857C45.822767857142864 7.836785714285714 46.42776785714286 7.235714285714286 47.35491071428572 7.235714285714286C47.66919642857143 7.235714285714286 47.955982142857145 7.290714285714286 48.168125 7.424285714285714L48.291875000000005 7.182678571428571C48.040446428571435 7.025535714285715 47.70848214285715 6.970535714285714 47.35491071428572 6.970535714285714C46.25883928571429 6.970535714285714 45.52223214285715 7.68357142857143 45.52223214285715 9.08607142857143C45.52223214285715 10.370714285714286 46.09383928571429 11.154464285714285 47.178125 11.154464285714285ZM47.166339285714294 10.895178571428572C46.40026785714286 10.895178571428572 45.98776785714286 10.411964285714285 45.98776785714286 9.92875C45.98776785714286 9.37482142857143 46.45919642857143 8.944642857142856 47.13098214285715 8.944642857142856C47.830267857142864 8.944642857142856 48.25062500000001 9.32767857142857 48.25062500000001 9.916964285714286C48.25062500000001 10.506250000000001 47.814553571428576 10.895178571428572 47.166339285714294 10.895178571428572Z"/>
    <path fill="#d0d0d0" fill-rule="evenodd" d="M48.99901785714286 9.981785714285714H51.35026785714286V11.125H51.64491071428572V9.981785714285714H52.511160714285715V9.716607142857143H51.64491071428572V8.708928571428572H51.35616071428572V9.716607142857143H49.378899837221425L51.57419642857143 7.0H51.238303571428574L48.99901785714286 9.76375Z"/>
  </g>

  <!-- domino logo centered above bottom bar -->
  <g transform="translate(35.95,110.0) scale(0.75)">
    <rect x="0" y="0" width="12.5" height="5.5"
          rx="1.18" ry="1.2"
          fill="none" stroke="#d0d0d0" stroke-width="0.5"/>
    <rect x="6.125" y="0.5" width="0.25" height="4.5"
          fill="#d0d0d0"/>
    <circle cx="2.07"  cy="1.46" r="0.625" fill="#d0d0d0"/>
    <circle cx="4.19"  cy="4.11" r="0.625" fill="#d0d0d0"/>
    <circle cx="8.20"  cy="1.46" r="0.625" fill="#d0d0d0"/>
    <circle cx="10.32" cy="4.11" r="0.625" fill="#d0d0d0"/>
  </g>

</svg>
