<?xml version="1.0" encoding="UTF-8"?>
<svg xmlns="http://www.w3.org/2000/svg"
     width="50.8mm" height="128.5mm"
     viewBox="0 0 50.8 128.5">

  <rect width="50.8" height="128.5" fill="#1e1e1e"/>

  <!-- top accent trapezoid -->
  <polygon points="
    0,0 50.8,0 50.8,0.5
    40.64,0.5 38.16,2.0 12.64,2.0 10.16,0.5
    0,0.5
  " fill="#f26522"/>
  <rect x="0" y="127.5" width="50.8" height="1.0" fill="#f26522"/>

  <!-- title: STEP (Bold) + 64 (Light) -->
  <g id="title">
    <path fill="#d0d0d0" fill-rule="evenodd" d="M15.709196428571428 11.195714285714285C16.887767857142855 11.195714285714285 17.459374999999998 10.612321428571429 17.459374999999998 9.916964285714286C17.459374999999998 9.48482142857143 17.264910714285712 9.211785714285714 16.98205357142857 9.03892857142857C16.27491071428571 8.606785714285714 15.06098214285714 8.69714285714286 15.060982142857142 8.166785714285714C15.06098214285714 8.076428571428572 15.086517857142855 7.996875 15.137589285714284 7.928125C15.239732142857141 7.790625 15.475446428571427 7.695357142857143 15.844732142857142 7.695357142857143C16.214017857142856 7.695357142857143 16.602946428571425 7.799464285714286 16.987946428571426 8.019464285714285L17.282589285714284 7.294642857142857C16.897589285714282 7.051071428571428 16.369196428571428 6.929285714285714 15.850624999999999 6.929285714285714C14.683839285714283 6.929285714285714 14.112232142857142 7.506785714285715 14.112232142857142 8.213928571428571C14.112232142857142 8.873928571428571 14.545357142857142 9.145 15.058035714285714 9.31C15.741607142857141 9.530000000000001 16.510624999999997 9.547678571428571 16.510624999999997 9.987678571428571C16.510624999999997 10.246964285714286 16.280803571428567 10.429642857142857 15.715089285714285 10.429642857142857C15.220089285714284 10.429642857142857 14.707410714285713 10.250892857142857 14.353839285714285 9.999464285714286L14.02973214285714 10.718392857142858C14.399017857142855 11.00125 15.049196428571427 11.195714285714285 15.709196428571428 11.195714285714285Z"/>
    <path fill="#d0d0d0" fill-rule="evenodd" d="M18.96794642857143 11.125H19.922589285714288V7.777857142857142H21.24258928571429V7.0H17.64794642857143V7.777857142857142H18.96794642857143Z"/>
    <path fill="#d0d0d0" fill-rule="evenodd" d="M21.755267857142858 11.125H24.94919642857143V10.35892857142857H22.70401785714286V9.404285714285715H24.619196428571428V8.661785714285713H22.70401785714286V7.766071428571428H24.872589285714287V7.0H21.755267857142858Z"/>
    <path fill="#d0d0d0" fill-rule="evenodd" d="M25.709375 11.125H26.66401785714286V9.987678571428571H27.494910714285716C28.602767857142855 9.987678571428571 29.286339285714288 9.41607142857143 29.286339285714288 8.496785714285714C29.286339285714288 7.565714285714285 28.602767857142855 7.0 27.494910714285716 7.0H25.709375ZM27.441875 7.777857142857142C28.031160714285715 7.777857142857142 28.319910714285715 8.041071428571428 28.319910714285715 8.496785714285714C28.319910714285715 8.944642857142858 28.031160714285715 9.209821428571429 27.441875 9.209821428571429H26.66401785714286V7.777857142857142Z"/>
    <path fill="#d0d0d0" fill-rule="evenodd" d="M31.513839285714287 11.154464285714285C32.30348214285714 11.154464285714285 32.886875 10.665357142857145 32.886875 9.911071428571429C32.886875 9.168571428571429 32.33294642857143 8.685357142857143 31.50794642857143 8.685357142857143C30.88428815 8.685357142857143 30.36605225088537 8.992457117796517 30.195785647800992 9.534127110072545C30.16586065250996 9.34561871007967 30.158482142857142 9.162759602142858 30.158482142857142 9.03892857142857C30.158482142857142 7.836785714285714 30.763482142857143 7.235714285714286 31.690625 7.235714285714286C32.004910714285714 7.235714285714286 32.29169642857143 7.290714285714286 32.503839285714285 7.424285714285714L32.627589285714286 7.182678571428571C32.37616071428572 7.025535714285715 32.04419642857143 6.970535714285714 31.690625 6.970535714285714C30.59455357142857 6.970535714285714 29.85794642857143 7.68357142857143 29.85794642857143 9.08607142857143C29.85794642857143 10.370714285714286 30.42955357142857 11.154464285714285 31.513839285714287 11.154464285714285ZM31.502053571428572 10.895178571428572C30.735982142857143 10.895178571428572 30.323482142857145 10.411964285714285 30.323482142857145 9.92875C30.323482142857145 9.37482142857143 30.794910714285713 8.944642857142856 31.466696428571428 8.944642857142856C32.165982142857146 8.944642857142856 32.58633928571429 9.32767857142857 32.58633928571429 9.916964285714286C32.58633928571429 10.506250000000001 32.15026785714286 10.895178571428572 31.502053571428572 10.895178571428572Z"/>
    <path fill="#d0d0d0" fill-rule="evenodd" d="M33.33473214285714 9.981785714285714H35.68598214285714V11.125H35.980625V9.981785714285714H36.846875V9.716607142857143H35.980625V8.708928571428572H35.691875V9.716607142857143H33.71461412293571L35.909910714285715 7.0H35.574017857142856L33.33473214285714 9.76375Z"/>
  </g>

  <!-- T1 — jack at y=25 -->
  <rect x="29.5" y="22.25" width="11" height="3.5" rx="1.0" fill="#d0d0d0"/>
  <g transform="translate(29.5, 0)">
    <path fill="#1e1e1e" fill-rule="evenodd" d="M4.708571428571428 26.0H5.171428571428571V24.377142857142857H5.811428571428571V24.0H4.0685714285714285V24.377142857142857H4.708571428571428Z"/>
    <path fill="#1e1e1e" fill-rule="evenodd" d="M6.242857142857143 26.0H6.7057142857142855V24.0H5.8428571428571425V24.37142857142857H6.242857142857143Z"/>
  </g>

  <!-- T2 — jack at y=35 -->
  <rect x="29.5" y="32.25" width="11" height="3.5" rx="1.0" fill="#d0d0d0"/>
  <g transform="translate(29.5, 0)">
    <path fill="#1e1e1e" fill-rule="evenodd" d="M4.425714285714285 36.0H4.888571428571428V34.37714285714286H5.5285714285714285V34.0H3.7857142857142856V34.37714285714286H4.425714285714285Z"/>
    <path fill="#1e1e1e" fill-rule="evenodd" d="M5.634285714285714 36.0H7.145714285714286V35.62285714285714H6.284671630859375L6.7457142857142856 35.18857142857143C7.025714285714285 34.925714285714285 7.08 34.75142857142857 7.08 34.55714285714286C7.08 34.191428571428574 6.782857142857143 33.965714285714284 6.337142857142857 33.965714285714284C5.979047619047619 33.965714285714284 5.695238095238095 34.10857142857143 5.542857142857143 34.33714285714286L5.88 34.55428571428571C5.979047619047619 34.417142857142856 6.126666666666667 34.354285714285716 6.2942857142857145 34.354285714285716C6.503809523809523 34.354285714285716 6.614285714285714 34.44285714285714 6.614285714285714 34.60285714285714C6.614285714285714 34.69428571428571 6.588571428571428 34.80571428571429 6.405714285714286 34.971428571428575L5.634285714285714 35.7Z"/>
  </g>

  <!-- T3 — jack at y=45 -->
  <rect x="29.5" y="42.25" width="11" height="3.5" rx="1.0" fill="#d0d0d0"/>
  <g transform="translate(29.5, 0)">
    <path fill="#1e1e1e" fill-rule="evenodd" d="M4.422857142857143 46.0H4.885714285714286V44.37714285714286H5.525714285714286V44.0H3.782857142857143V44.37714285714286H4.422857142857143Z"/>
    <path fill="#1e1e1e" fill-rule="evenodd" d="M6.297142857142857 46.034285714285716C6.868571428571428 46.034285714285716 7.125714285714286 45.72571428571429 7.125714285714286 45.38857142857143C7.125714285714286 45.09358998857143 6.941600132064869 44.872392123254905 6.583933606828962 44.813029981340684L7.034285714285715 44.3V44.0H5.634285714285714V44.371428571428574H6.4852100917271205L6.074285714285715 44.83714285714286V45.142857142857146H6.285714285714286C6.548571428571429 45.142857142857146 6.66 45.23619047619048 6.66 45.38857142857143C6.66 45.54857142857143 6.518095238095238 45.645714285714284 6.285714285714286 45.645714285714284C6.08 45.645714285714284 5.866666666666667 45.576190476190476 5.714285714285714 45.465714285714284L5.534285714285715 45.82C5.724761904761905 45.957142857142856 6.019047619047619 46.034285714285716 6.297142857142857 46.034285714285716Z"/>
  </g>

  <!-- T4 — jack at y=55 -->
  <rect x="29.5" y="52.25" width="11" height="3.5" rx="1.0" fill="#d0d0d0"/>
  <g transform="translate(29.5, 0)">
    <path fill="#1e1e1e" fill-rule="evenodd" d="M4.284285714285714 56.0H4.747142857142856V54.37714285714286H5.387142857142857V54.0H3.644285714285714V54.37714285714286H4.284285714285714Z"/>
    <path fill="#1e1e1e" fill-rule="evenodd" d="M5.4871428571428575 55.58H6.564285714285714V56.0H7.015714285714286V55.58H7.341428571428572V55.20285714285714H7.015714285714286V54.82857142857143H6.578571428571428V55.20285714285714H6.0406627982003345L6.9157142857142855 54.0H6.43L5.4871428571428575 55.26857142857143Z"/>
  </g>

  <!-- T5 — jack at y=65 -->
  <rect x="29.5" y="62.25" width="11" height="3.5" rx="1.0" fill="#d0d0d0"/>
  <g transform="translate(29.5, 0)">
    <path fill="#1e1e1e" fill-rule="evenodd" d="M4.418571428571428 66.0H4.881428571428572V64.37714285714286H5.521428571428571V64.0H3.7785714285714285V64.37714285714286H4.418571428571428Z"/>
    <path fill="#1e1e1e" fill-rule="evenodd" d="M6.324285714285715 66.03428571428572C6.895714285714285 66.03428571428572 7.155714285714286 65.72571428571429 7.155714285714286 65.37142857142857C7.155714285714286 65.01714285714286 6.9242857142857135 64.75142857142858 6.33 64.75142857142858H6.165953238351005L6.199761047363281 64.37142857142857H7.032857142857143V64.0H5.812857142857143L5.71 65.12571428571428H6.2214285714285715C6.587142857142856 65.12571428571428 6.687142857142858 65.23142857142857 6.687142857142858 65.38571428571429C6.687142857142858 65.5495238095238 6.545238095238095 65.64571428571429 6.312857142857143 65.64571428571429C6.107142857142858 65.64571428571429 5.8966666666666665 65.57619047619048 5.744285714285715 65.46571428571428L5.561428571428571 65.82C5.755714285714285 65.95714285714286 6.046190476190477 66.03428571428572 6.324285714285715 66.03428571428572Z"/>
  </g>

  <!-- T6 — jack at y=75 -->
  <rect x="29.5" y="72.25" width="11" height="3.5" rx="1.0" fill="#d0d0d0"/>
  <g transform="translate(29.5, 0)">
    <path fill="#1e1e1e" fill-rule="evenodd" d="M4.3585714285714285 76.0H4.821428571428571V74.37714285714286H5.461428571428572V74.0H3.718571428571429V74.37714285714286H4.3585714285714285Z"/>
    <path fill="#1e1e1e" fill-rule="evenodd" d="M6.4785714285714295 76.03428571428572C6.621428571428572 76.03428571428572 6.74952380952381 76.00714285714285 6.862857142857143 75.95285714285714C7.08952380952381 75.84428571428572 7.235714285714286 75.63904761904762 7.235714285714286 75.36857142857143C7.235714285714286 75.24285714285715 7.204761904761905 75.13333333333334 7.142857142857143 75.04C7.019047619047619 74.85333333333334 6.806190476190476 74.74571428571429 6.547142857142857 74.74571428571429C6.339884 74.74571428571429 6.171715315673532 74.80735648130936 6.053542981828962 74.9263359941755L6.0543151855468755 74.90836584908622C6.073718091210621 74.53465125920887 6.285536472380953 74.34285714285714 6.6157142857142865 74.34285714285714C6.752857142857143 74.34285714285714 6.87952380952381 74.36666666666666 6.99 74.44285714285714L7.161428571428572 74.10285714285715C7.020476190476191 74.01142857142857 6.817619047619048 73.96571428571428 6.604285714285715 73.96571428571428C6.0042857142857144 73.96571428571428 5.5842857142857145 74.35142857142857 5.5842857142857145 75.04285714285714C5.5842857142857145 75.68857142857144 5.930000000000001 76.03428571428572 6.4785714285714295 76.03428571428572ZM6.452857142857143 75.68857142857142C6.23 75.68857142857144 6.101428571428572 75.56285714285714 6.101428571428572 75.39142857142858C6.101428571428572 75.21428571428571 6.241428571428571 75.09142857142857 6.4471428571428575 75.09142857142857C6.652857142857143 75.09142857142857 6.787142857142857 75.20857142857143 6.787142857142857 75.39142857142858C6.787142857142857 75.56857142857143 6.647142857142857 75.68857142857144 6.452857142857143 75.68857142857142Z"/>
  </g>

  <!-- T7 — jack at y=85 -->
  <rect x="29.5" y="82.25" width="11" height="3.5" rx="1.0" fill="#d0d0d0"/>
  <g transform="translate(29.5, 0)">
    <path fill="#1e1e1e" fill-rule="evenodd" d="M4.382857142857143 86.0H4.845714285714285V84.37714285714286H5.485714285714286V84.0H3.742857142857143V84.37714285714286H4.382857142857143Z"/>
    <path fill="#1e1e1e" fill-rule="evenodd" d="M5.928571428571429 86.0H6.4314285714285715L7.174285714285714 84.3V84.0H5.571428571428571V84.70285714285714H5.982857142857143V84.37714285714286H6.645884464808873Z"/>
  </g>

  <!-- separator between trigger outputs and STEP/POLY -->
  <rect x="5.0" y="91.0" width="40.8" height="0.2" fill="#d0d0d0" opacity="0.35"/>

  <!-- STEP — jack at y=96 -->
  <rect x="29.5" y="94.25" width="11" height="3.5" rx="1.0" fill="#d0d0d0"/>
  <g transform="translate(29.5, 0)">
    <path fill="#1e1e1e" fill-rule="evenodd" d="M2.595714285714285 97.03428571428572C3.1671428571428564 97.03428571428572 3.444285714285714 96.75142857142858 3.444285714285714 96.41428571428571C3.444285714285714 96.20476190476191 3.3499999999999996 96.07238095238095 3.2128571428571426 95.98857142857143C2.869999999999998 95.77904761904762 2.2814285714285707 95.82285714285715 2.281428571428571 95.56571428571428C2.281428571428571 95.52190476190476 2.2938095238095233 95.48333333333333 2.318571428571428 95.45C2.3680952380952376 95.38333333333334 2.482380952380952 95.33714285714285 2.661428571428571 95.33714285714285C2.84047619047619 95.33714285714285 3.029047619047618 95.38761904761905 3.2157142857142853 95.49428571428571L3.3585714285714285 95.14285714285714C3.171904761904761 95.0247619047619 2.9157142857142846 94.96571428571428 2.6642857142857137 94.96571428571428C2.0985714285714274 94.96571428571428 1.8214285714285712 95.24571428571429 1.8214285714285712 95.58857142857143C1.8214285714285712 95.90857142857143 2.031428571428571 96.04 2.28 96.12C2.611428571428571 96.22666666666667 2.984285714285714 96.2352380952381 2.984285714285714 96.44857142857143C2.984285714285714 96.57428571428572 2.8728571428571414 96.66285714285715 2.5985714285714283 96.66285714285715C2.358571428571428 96.66285714285715 2.1099999999999994 96.57619047619048 1.9385714285714282 96.45428571428572L1.7814285714285711 96.80285714285715C1.96047619047619 96.94 2.2757142857142854 97.03428571428572 2.595714285714285 97.03428571428572Z"/>
    <path fill="#1e1e1e" fill-rule="evenodd" d="M4.175714285714285 97.0H4.638571428571428V95.37714285714286H5.2785714285714285V95.0H3.5357142857142856V95.37714285714286H4.175714285714285Z"/>
    <path fill="#1e1e1e" fill-rule="evenodd" d="M5.527142857142858 97.0H7.075714285714286V96.62857142857143H5.9871428571428575V96.16571428571429H6.9157142857142855V95.80571428571429H5.9871428571428575V95.37142857142857H7.038571428571428V95.0H5.527142857142858Z"/>
    <path fill="#1e1e1e" fill-rule="evenodd" d="M7.444285714285715 97.0H7.9071428571428575V96.44857142857143H8.31C8.847142857142856 96.44857142857143 9.178571428571429 96.17142857142858 9.178571428571429 95.72571428571429C9.178571428571429 95.27428571428571 8.847142857142856 95.0 8.31 95.0H7.444285714285715ZM8.284285714285714 95.37714285714286C8.57 95.37714285714286 8.71 95.5047619047619 8.71 95.72571428571429C8.71 95.94285714285715 8.57 96.07142857142857 8.284285714285714 96.07142857142857H7.9071428571428575V95.37714285714286Z"/>
  </g>

  <!-- separator between STEP and POLY -->
  <rect x="5.0" y="101.0" width="40.8" height="0.2" fill="#d0d0d0" opacity="0.35"/>

  <!-- POLY — jack at y=106 -->
  <rect x="29.5" y="104.25" width="11" height="3.5" rx="1.0" fill="#d0d0d0"/>
  <g transform="translate(29.5, 0)">
    <path fill="#1e1e1e" fill-rule="evenodd" d="M1.657142857142857 107.0H2.12V106.44857142857143H2.5228571428571427C3.0599999999999987 106.44857142857143 3.3914285714285715 106.17142857142858 3.3914285714285715 105.72571428571429C3.3914285714285715 105.27428571428571 3.0599999999999987 105.0 2.5228571428571427 105.0H1.657142857142857ZM2.4971428571428573 105.37714285714286C2.782857142857143 105.37714285714286 2.9228571428571426 105.5047619047619 2.9228571428571426 105.72571428571429C2.9228571428571426 105.94285714285715 2.7828571428571425 106.07142857142857 2.4971428571428573 106.07142857142857H2.12V105.37714285714286Z"/>
    <path fill="#1e1e1e" fill-rule="evenodd" d="M4.720000000000001 107.03428571428572C5.188571428571428 107.03428571428572 5.562857142857142 106.79285714285714 5.728571428571429 106.41285714285715C5.8397557997558 106.15789987789988 5.8383484026521995 105.83508740204942 5.728571428571429 105.58714285714285C5.562857142857142 105.21285714285715 5.19142857142857 104.96571428571428 4.717142857142857 104.96571428571428C4.092380952380951 104.96571428571428 3.6228571428571428 105.40571428571428 3.6228571428571428 106.0C3.6228571428571428 106.59428571428572 4.0876190476190475 107.03428571428572 4.720000000000001 107.03428571428572ZM4.717142857142857 106.64C4.6276190476190475 106.64 4.544761904761905 106.62476190476191 4.468571428571429 106.59428571428572C4.24 106.50285714285714 4.091428571428572 106.28 4.091428571428572 106.0C4.091428571428571 105.61904761904762 4.359047619047617 105.36 4.717142857142857 105.36C5.0752380952380935 105.36 5.342857142857143 105.61904761904762 5.342857142857143 106.0C5.342857142857143 106.38095238095238 5.0752380952380935 106.64 4.717142857142857 106.64Z"/>
    <path fill="#1e1e1e" fill-rule="evenodd" d="M6.160000000000001 107.0H7.625714285714286V106.62285714285714H6.622857142857144V105.0H6.160000000000001Z"/>
    <path fill="#1e1e1e" fill-rule="evenodd" d="M8.382857142857144 107.0H8.845714285714287V106.29187384469168L9.622857142857143 105.0H9.168571428571429L8.63315614972796 105.88784053257534L8.100000000000001 105.0H7.608571428571429L8.382857142857144 106.28712430681502Z"/>
  </g>

  <!-- domino logo centered above bottom bar -->
  <g transform="translate(20.71,118.0) scale(0.75)">
    <rect x="0" y="0" width="12.5" height="5.5"
          rx="1.18" ry="1.2"
          fill="none" stroke="#d0d0d0" stroke-width="0.5"/>
    <rect x="6.125" y="0.5" width="0.25" height="4.5"
          fill="#d0d0d0"/>
    <circle cx="2.07"  cy="1.46" r="0.625" fill="#d0d0d0"/>
    <circle cx="4.19"  cy="4.11" r="0.625" fill="#d0d0d0"/>
    <circle cx="8.20"  cy="1.46" r="0.625" fill="#d0d0d0"/>
    <circle cx="10.32" cy="4.11" r="0.625" fill="#d0d0d0"/>
  </g>

</svg>
