<?xml version="1.0" encoding="UTF-8"?>
<svg xmlns="http://www.w3.org/2000/svg"
     width="50.8mm" height="128.5mm"
     viewBox="0 0 50.8 128.5">

  <rect width="50.8" height="128.5" fill="#1e1e1e"/>

  <!-- top accent trapezoid -->
  <polygon points="
    0,0 50.8,0 50.8,0.5
    40.64,0.5 38.16,2.0 12.64,2.0 10.16,0.5
    0,0.5
  " fill="#f26522"/>
  <rect x="0" y="127.5" width="50.8" height="1.0" fill="#f26522"/>

  <!-- title: STEP (Bold) + 64 (Light), cap-top y=7, baseline y=11.125 -->
  <g id="title">
    <path fill="#d0d0d0" fill-rule="evenodd" d="M15.709196428571428 11.195714285714285C16.887767857142855 11.195714285714285 17.459374999999998 10.612321428571429 17.459374999999998 9.916964285714286C17.459374999999998 9.48482142857143 17.264910714285712 9.211785714285714 16.98205357142857 9.03892857142857C16.27491071428571 8.606785714285714 15.06098214285714 8.69714285714286 15.060982142857142 8.166785714285714C15.06098214285714 8.076428571428572 15.086517857142855 7.996875 15.137589285714284 7.928125C15.239732142857141 7.790625 15.475446428571427 7.695357142857143 15.844732142857142 7.695357142857143C16.214017857142856 7.695357142857143 16.602946428571425 7.799464285714286 16.987946428571426 8.019464285714285L17.282589285714284 7.294642857142857C16.897589285714282 7.051071428571428 16.369196428571428 6.929285714285714 15.850624999999999 6.929285714285714C14.683839285714283 6.929285714285714 14.112232142857142 7.506785714285715 14.112232142857142 8.213928571428571C14.112232142857142 8.873928571428571 14.545357142857142 9.145 15.058035714285714 9.31C15.741607142857141 9.530000000000001 16.510624999999997 9.547678571428571 16.510624999999997 9.987678571428571C16.510624999999997 10.246964285714286 16.280803571428567 10.429642857142857 15.715089285714285 10.429642857142857C15.220089285714284 10.429642857142857 14.707410714285713 10.250892857142857 14.353839285714285 9.999464285714286L14.02973214285714 10.718392857142858C14.399017857142855 11.00125 15.049196428571427 11.195714285714285 15.709196428571428 11.195714285714285Z"/>
    <path fill="#d0d0d0" fill-rule="evenodd" d="M18.96794642857143 11.125H19.922589285714288V7.777857142857142H21.24258928571429V7.0H17.64794642857143V7.777857142857142H18.96794642857143Z"/>
    <path fill="#d0d0d0" fill-rule="evenodd" d="M21.755267857142858 11.125H24.94919642857143V10.35892857142857H22.70401785714286V9.404285714285715H24.619196428571428V8.661785714285713H22.70401785714286V7.766071428571428H24.872589285714287V7.0H21.755267857142858Z"/>
    <path fill="#d0d0d0" fill-rule="evenodd" d="M25.709375 11.125H26.66401785714286V9.987678571428571H27.494910714285716C28.602767857142855 9.987678571428571 29.286339285714288 9.41607142857143 29.286339285714288 8.496785714285714C29.286339285714288 7.565714285714285 28.602767857142855 7.0 27.494910714285716 7.0H25.709375ZM27.441875 7.777857142857142C28.031160714285715 7.777857142857142 28.319910714285715 8.041071428571428 28.319910714285715 8.496785714285714C28.319910714285715 8.944642857142858 28.031160714285715 9.209821428571429 27.441875 9.209821428571429H26.66401785714286V7.777857142857142Z"/>
    <path fill="#d0d0d0" fill-rule="evenodd" d="M31.513839285714287 11.154464285714285C32.30348214285714 11.154464285714285 32.886875 10.665357142857145 32.886875 9.911071428571429C32.886875 9.168571428571429 32.33294642857143 8.685357142857143 31.50794642857143 8.685357142857143C30.88428815 8.685357142857143 30.36605225088537 8.992457117796517 30.195785647800992 9.534127110072545C30.16586065250996 9.34561871007967 30.158482142857142 9.162759602142858 30.158482142857142 9.03892857142857C30.158482142857142 7.836785714285714 30.763482142857143 7.235714285714286 31.690625 7.235714285714286C32.004910714285714 7.235714285714286 32.29169642857143 7.290714285714286 32.503839285714285 7.424285714285714L32.627589285714286 7.182678571428571C32.37616071428572 7.025535714285715 32.04419642857143 6.970535714285714 31.690625 6.970535714285714C30.59455357142857 6.970535714285714 29.85794642857143 7.68357142857143 29.85794642857143 9.08607142857143C29.85794642857143 10.370714285714286 30.42955357142857 11.154464285714285 31.513839285714287 11.154464285714285ZM31.502053571428572 10.895178571428572C30.735982142857143 10.895178571428572 30.323482142857145 10.411964285714285 30.323482142857145 9.92875C30.323482142857145 9.37482142857143 30.794910714285713 8.944642857142856 31.466696428571428 8.944642857142856C32.165982142857146 8.944642857142856 32.58633928571429 9.32767857142857 32.58633928571429 9.916964285714286C32.58633928571429 10.506250000000001 32.15026785714286 10.895178571428572 31.502053571428572 10.895178571428572Z"/>
    <path fill="#d0d0d0" fill-rule="evenodd" d="M33.33473214285714 9.981785714285714H35.68598214285714V11.125H35.980625V9.981785714285714H36.846875V9.716607142857143H35.980625V8.708928571428572H35.691875V9.716607142857143H33.71461412293571L35.909910714285715 7.0H35.574017857142856L33.33473214285714 9.76375Z"/>
  </g>

  <!-- G1 — jack at y=25 -->
  <rect x="29.5" y="22.25" width="11" height="3.5" rx="1.0" fill="#d0d0d0"/>
  <g transform="translate(29.5, 0)">
    <path fill="#1e1e1e" fill-rule="evenodd" d="M5.041428571428572 25.034285714285716C5.3271428571428565 25.034285714285716 5.632857142857143 24.943809523809524 5.85 24.78V23.96857142857143H5.427142857142857V24.555096762520925C5.311551314579912 24.61531263835249 5.191551314579912 24.64 5.067142857142857 24.64C4.686190476190475 24.64 4.418571428571428 24.373333333333335 4.418571428571428 24.0C4.418571428571428 23.61904761904762 4.684285714285713 23.36 5.072857142857143 23.36C5.274761904761904 23.36 5.4452380952380945 23.433333333333334 5.59 23.585714285714285L5.887142857142857 23.31142857142857C5.692857142857143 23.086666666666666 5.404285714285714 22.965714285714284 5.05 22.965714285714284C4.409999999999998 22.965714285714284 3.95 23.39809523809524 3.95 24.0C3.95 24.601904761904763 4.409047619047618 25.034285714285716 5.041428571428572 25.034285714285716Z"/>
    <path fill="#1e1e1e" fill-rule="evenodd" d="M6.461428571428572 25.0H6.924285714285714V23.0H6.061428571428571V23.37142857142857H6.461428571428572Z"/>
  </g>

  <!-- G2 — jack at y=35 -->
  <rect x="29.5" y="32.25" width="11" height="3.5" rx="1.0" fill="#d0d0d0"/>
  <g transform="translate(29.5, 0)">
    <path fill="#1e1e1e" fill-rule="evenodd" d="M4.758571428571429 35.034285714285716C5.044285714285714 35.034285714285716 5.35 34.94380952380953 5.567142857142857 34.78V33.96857142857143H5.144285714285714V34.555096762520925C5.028694171722769 34.61531263835249 4.908694171722769 34.64 4.784285714285714 34.64C4.403333333333332 34.64 4.135714285714285 34.373333333333335 4.135714285714285 34.0C4.135714285714285 33.61904761904762 4.40142857142857 33.36 4.79 33.36C4.991904761904761 33.36 5.162380952380952 33.43333333333334 5.307142857142857 33.58571428571429L5.604285714285714 33.31142857142857C5.41 33.086666666666666 5.121428571428571 32.965714285714284 4.767142857142857 32.965714285714284C4.1271428571428554 32.965714285714284 3.6671428571428573 33.39809523809524 3.6671428571428573 34.0C3.6671428571428573 34.60190476190476 4.126190476190475 35.034285714285716 4.758571428571429 35.034285714285716Z"/>
    <path fill="#1e1e1e" fill-rule="evenodd" d="M5.852857142857143 35.0H7.364285714285715V34.62285714285714H6.503243059430804L6.964285714285714 34.18857142857143C7.244285714285714 33.925714285714285 7.298571428571429 33.75142857142857 7.298571428571429 33.55714285714286C7.298571428571429 33.191428571428574 7.001428571428572 32.965714285714284 6.555714285714286 32.965714285714284C6.197619047619048 32.965714285714284 5.913809523809524 33.10857142857143 5.761428571428572 33.33714285714286L6.098571428571429 33.55428571428571C6.197619047619048 33.417142857142856 6.345238095238095 33.354285714285716 6.512857142857143 33.354285714285716C6.722380952380952 33.354285714285716 6.832857142857144 33.44285714285714 6.832857142857144 33.60285714285714C6.832857142857144 33.69428571428571 6.807142857142857 33.80571428571429 6.6242857142857146 33.971428571428575L5.852857142857143 34.7Z"/>
  </g>

  <!-- G3 — jack at y=45 -->
  <rect x="29.5" y="42.25" width="11" height="3.5" rx="1.0" fill="#d0d0d0"/>
  <g transform="translate(29.5, 0)">
    <path fill="#1e1e1e" fill-rule="evenodd" d="M4.755714285714285 45.034285714285716C5.041428571428571 45.034285714285716 5.347142857142857 44.94380952380953 5.564285714285715 44.78V43.96857142857143H5.1414285714285715V44.555096762520925C5.025837028865626 44.61531263835249 4.905837028865626 44.64 4.781428571428572 44.64C4.40047619047619 44.64 4.132857142857143 44.373333333333335 4.132857142857143 44.0C4.132857142857143 43.61904761904762 4.398571428571428 43.36 4.787142857142857 43.36C4.989047619047619 43.36 5.15952380952381 43.43333333333334 5.304285714285714 43.58571428571429L5.601428571428571 43.31142857142857C5.4071428571428575 43.086666666666666 5.118571428571428 42.965714285714284 4.764285714285714 42.965714285714284C4.124285714285713 42.965714285714284 3.6642857142857146 43.39809523809524 3.6642857142857146 44.0C3.6642857142857146 44.60190476190476 4.123333333333332 45.034285714285716 4.755714285714285 45.034285714285716Z"/>
    <path fill="#1e1e1e" fill-rule="evenodd" d="M6.515714285714285 45.034285714285716C7.087142857142856 45.034285714285716 7.344285714285714 44.72571428571429 7.344285714285714 44.38857142857143C7.344285714285714 44.09358998857143 7.160171560636297 43.872392123254905 6.80250503540039 43.813029981340684L7.252857142857143 43.3V43.0H5.852857142857142V43.371428571428574H6.7037815202985485L6.292857142857143 43.83714285714286V44.142857142857146H6.504285714285714C6.767142857142857 44.142857142857146 6.878571428571428 44.23619047619048 6.878571428571428 44.38857142857143C6.878571428571428 44.54857142857143 6.736666666666666 44.645714285714284 6.504285714285714 44.645714285714284C6.298571428571428 44.645714285714284 6.085238095238095 44.576190476190476 5.932857142857142 44.465714285714284L5.752857142857143 44.82C5.943333333333333 44.957142857142856 6.237619047619047 45.034285714285716 6.515714285714285 45.034285714285716Z"/>
  </g>

  <!-- G4 — jack at y=55 -->
  <rect x="29.5" y="52.25" width="11" height="3.5" rx="1.0" fill="#d0d0d0"/>
  <g transform="translate(29.5, 0)">
    <path fill="#1e1e1e" fill-rule="evenodd" d="M4.617142857142857 55.034285714285716C4.902857142857142 55.034285714285716 5.208571428571428 54.94380952380953 5.425714285714285 54.78V53.96857142857143H5.002857142857143V54.555096762520925C4.887265600294198 54.61531263835249 4.7672656002941975 54.64 4.642857142857142 54.64C4.261904761904761 54.64 3.9942857142857138 54.373333333333335 3.994285714285714 54.0C3.9942857142857138 53.61904761904762 4.259999999999999 53.36 4.648571428571429 53.36C4.85047619047619 53.36 5.02095238095238 53.43333333333334 5.1657142857142855 53.58571428571429L5.462857142857143 53.31142857142857C5.268571428571429 53.086666666666666 4.9799999999999995 52.965714285714284 4.6257142857142854 52.965714285714284C3.985714285714284 52.965714285714284 3.525714285714286 53.39809523809524 3.525714285714286 54.0C3.525714285714286 54.60190476190476 3.984761904761904 55.034285714285716 4.617142857142857 55.034285714285716Z"/>
    <path fill="#1e1e1e" fill-rule="evenodd" d="M5.705714285714286 54.58H6.782857142857143V55.0H7.234285714285715V54.58H7.5600000000000005V54.20285714285714H7.234285714285715V53.82857142857143H6.797142857142857V54.20285714285714H6.259234226771763L7.134285714285714 53.0H6.648571428571429L5.705714285714286 54.26857142857143Z"/>
  </g>

  <!-- G5 — jack at y=65 -->
  <rect x="29.5" y="62.25" width="11" height="3.5" rx="1.0" fill="#d0d0d0"/>
  <g transform="translate(29.5, 0)">
    <path fill="#1e1e1e" fill-rule="evenodd" d="M4.751428571428571 65.03428571428572C5.0371428571428565 65.03428571428572 5.3428571428571425 64.94380952380952 5.5600000000000005 64.78V63.96857142857143H5.137142857142857V64.55509676252093C5.021551314579912 64.61531263835249 4.901551314579912 64.64 4.777142857142858 64.64C4.396190476190475 64.64 4.128571428571428 64.37333333333333 4.128571428571428 64.0C4.128571428571428 63.61904761904762 4.394285714285713 63.36 4.782857142857143 63.36C4.984761904761904 63.36 5.155238095238095 63.43333333333334 5.3 63.58571428571429L5.597142857142857 63.31142857142857C5.402857142857143 63.086666666666666 5.114285714285714 62.965714285714284 4.76 62.965714285714284C4.119999999999998 62.965714285714284 3.66 63.39809523809524 3.66 64.0C3.66 64.60190476190476 4.119047619047618 65.03428571428572 4.751428571428571 65.03428571428572Z"/>
    <path fill="#1e1e1e" fill-rule="evenodd" d="M6.542857142857143 65.03428571428572C7.114285714285713 65.03428571428572 7.374285714285714 64.72571428571429 7.374285714285714 64.37142857142857C7.374285714285714 64.01714285714286 7.1428571428571415 63.75142857142857 6.548571428571428 63.75142857142857H6.384524666922433L6.418332475934709 63.371428571428574H7.251428571428571V63.0H6.031428571428571L5.928571428571428 64.12571428571428H6.4399999999999995C6.805714285714284 64.12571428571428 6.905714285714286 64.23142857142857 6.905714285714286 64.38571428571429C6.905714285714286 64.5495238095238 6.763809523809523 64.64571428571429 6.531428571428571 64.64571428571429C6.325714285714286 64.64571428571429 6.1152380952380945 64.57619047619048 5.962857142857143 64.46571428571428L5.779999999999999 64.82C5.974285714285713 64.95714285714286 6.2647619047619045 65.03428571428572 6.542857142857143 65.03428571428572Z"/>
  </g>

  <!-- G6 — jack at y=75 -->
  <rect x="29.5" y="72.25" width="11" height="3.5" rx="1.0" fill="#d0d0d0"/>
  <g transform="translate(29.5, 0)">
    <path fill="#1e1e1e" fill-rule="evenodd" d="M4.691428571428571 75.03428571428572C4.977142857142857 75.03428571428572 5.282857142857143 74.94380952380952 5.5 74.78V73.96857142857142H5.0771428571428565V74.55509676252093C4.961551314579912 74.61531263835249 4.841551314579912 74.64 4.717142857142857 74.64C4.336190476190475 74.64 4.068571428571428 74.37333333333333 4.0685714285714285 74.0C4.068571428571428 73.61904761904762 4.334285714285713 73.36 4.722857142857142 73.36C4.924761904761905 73.36 5.095238095238095 73.43333333333334 5.24 73.58571428571429L5.537142857142857 73.31142857142856C5.3428571428571425 73.08666666666667 5.054285714285713 72.96571428571428 4.7 72.96571428571428C4.059999999999998 72.96571428571428 3.5999999999999996 73.39809523809524 3.5999999999999996 74.0C3.5999999999999996 74.60190476190476 4.059047619047618 75.03428571428572 4.691428571428571 75.03428571428572Z"/>
    <path fill="#1e1e1e" fill-rule="evenodd" d="M6.6971428571428575 75.03428571428572C6.84 75.03428571428572 6.968095238095238 75.00714285714285 7.081428571428571 74.95285714285714C7.3080952380952375 74.84428571428572 7.454285714285714 74.63904761904762 7.454285714285714 74.36857142857143C7.454285714285714 74.24285714285715 7.423333333333333 74.13333333333334 7.361428571428571 74.04C7.237619047619047 73.85333333333334 7.024761904761904 73.74571428571429 6.765714285714285 73.74571428571429C6.558455428571428 73.74571428571429 6.39028674424496 73.80735648130936 6.27211441040039 73.9263359941755L6.2728866141183035 73.90836584908622C6.292289519782049 73.53465125920887 6.504107900952381 73.34285714285714 6.8342857142857145 73.34285714285714C6.971428571428571 73.34285714285714 7.098095238095238 73.36666666666666 7.208571428571428 73.44285714285714L7.38 73.10285714285715C7.239047619047619 73.01142857142857 7.036190476190476 72.96571428571428 6.822857142857143 72.96571428571428C6.222857142857142 72.96571428571428 5.8028571428571425 73.35142857142857 5.8028571428571425 74.04285714285714C5.8028571428571425 74.68857142857144 6.148571428571429 75.03428571428572 6.6971428571428575 75.03428571428572ZM6.671428571428571 74.68857142857142C6.448571428571428 74.68857142857144 6.32 74.56285714285714 6.32 74.39142857142858C6.32 74.21428571428571 6.459999999999999 74.09142857142857 6.6657142857142855 74.09142857142857C6.871428571428571 74.09142857142857 7.005714285714285 74.20857142857143 7.005714285714285 74.39142857142858C7.005714285714285 74.56857142857143 6.865714285714285 74.68857142857144 6.671428571428571 74.68857142857142Z"/>
  </g>

  <!-- G7 — jack at y=85 -->
  <rect x="29.5" y="82.25" width="11" height="3.5" rx="1.0" fill="#d0d0d0"/>
  <g transform="translate(29.5, 0)">
    <path fill="#1e1e1e" fill-rule="evenodd" d="M4.715714285714286 85.03428571428572C5.001428571428571 85.03428571428572 5.307142857142857 84.94380952380952 5.524285714285714 84.78V83.96857142857142H5.101428571428571V84.55509676252093C4.985837028865626 84.61531263835249 4.865837028865626 84.64 4.741428571428571 84.64C4.36047619047619 84.64 4.0928571428571425 84.37333333333333 4.0928571428571425 84.0C4.0928571428571425 83.61904761904762 4.358571428571428 83.36 4.747142857142857 83.36C4.949047619047619 83.36 5.119523809523809 83.43333333333334 5.264285714285714 83.58571428571429L5.561428571428571 83.31142857142856C5.367142857142857 83.08666666666667 5.078571428571428 82.96571428571428 4.724285714285714 82.96571428571428C4.084285714285713 82.96571428571428 3.6242857142857146 83.39809523809524 3.6242857142857146 84.0C3.6242857142857146 84.60190476190476 4.083333333333332 85.03428571428572 4.715714285714286 85.03428571428572Z"/>
    <path fill="#1e1e1e" fill-rule="evenodd" d="M6.147142857142858 85.0H6.65L7.392857142857143 83.3V83.0H5.790000000000001V83.70285714285714H6.201428571428572V83.37714285714286H6.864455893380302Z"/>
  </g>

  <!-- separator between gate outputs and STEP/POLY -->
  <rect x="5.0" y="91.0" width="40.8" height="0.2" fill="#d0d0d0" opacity="0.35"/>

  <!-- STEP — jack at y=96 -->
  <rect x="29.5" y="94.25" width="11" height="3.5" rx="1.0" fill="#d0d0d0"/>
  <g transform="translate(29.5, 0)">
    <path fill="#1e1e1e" fill-rule="evenodd" d="M2.595714285714285 97.03428571428572C3.1671428571428564 97.03428571428572 3.444285714285714 96.75142857142858 3.444285714285714 96.41428571428571C3.444285714285714 96.20476190476191 3.3499999999999996 96.07238095238095 3.2128571428571426 95.98857142857143C2.869999999999998 95.77904761904762 2.2814285714285707 95.82285714285715 2.281428571428571 95.56571428571428C2.281428571428571 95.52190476190476 2.2938095238095233 95.48333333333333 2.318571428571428 95.45C2.3680952380952376 95.38333333333334 2.482380952380952 95.33714285714285 2.661428571428571 95.33714285714285C2.84047619047619 95.33714285714285 3.029047619047618 95.38761904761905 3.2157142857142853 95.49428571428571L3.3585714285714285 95.14285714285714C3.171904761904761 95.0247619047619 2.9157142857142846 94.96571428571428 2.6642857142857137 94.96571428571428C2.0985714285714274 94.96571428571428 1.8214285714285712 95.24571428571429 1.8214285714285712 95.58857142857143C1.8214285714285712 95.90857142857143 2.031428571428571 96.04 2.28 96.12C2.611428571428571 96.22666666666667 2.984285714285714 96.2352380952381 2.984285714285714 96.44857142857143C2.984285714285714 96.57428571428572 2.8728571428571414 96.66285714285715 2.5985714285714283 96.66285714285715C2.358571428571428 96.66285714285715 2.1099999999999994 96.57619047619048 1.9385714285714282 96.45428571428572L1.7814285714285711 96.80285714285715C1.96047619047619 96.94 2.2757142857142854 97.03428571428572 2.595714285714285 97.03428571428572Z"/>
    <path fill="#1e1e1e" fill-rule="evenodd" d="M4.175714285714285 97.0H4.638571428571428V95.37714285714286H5.2785714285714285V95.0H3.5357142857142856V95.37714285714286H4.175714285714285Z"/>
    <path fill="#1e1e1e" fill-rule="evenodd" d="M5.527142857142858 97.0H7.075714285714286V96.62857142857143H5.9871428571428575V96.16571428571429H6.9157142857142855V95.80571428571429H5.9871428571428575V95.37142857142857H7.038571428571428V95.0H5.527142857142858Z"/>
    <path fill="#1e1e1e" fill-rule="evenodd" d="M7.444285714285715 97.0H7.9071428571428575V96.44857142857143H8.31C8.847142857142856 96.44857142857143 9.178571428571429 96.17142857142858 9.178571428571429 95.72571428571429C9.178571428571429 95.27428571428571 8.847142857142856 95.0 8.31 95.0H7.444285714285715ZM8.284285714285714 95.37714285714286C8.57 95.37714285714286 8.71 95.5047619047619 8.71 95.72571428571429C8.71 95.94285714285715 8.57 96.07142857142857 8.284285714285714 96.07142857142857H7.9071428571428575V95.37714285714286Z"/>
  </g>

  <!-- separator between STEP and POLY -->
  <rect x="5.0" y="101.0" width="40.8" height="0.2" fill="#d0d0d0" opacity="0.35"/>

  <!-- POLY — jack at y=106 -->
  <rect x="29.5" y="104.25" width="11" height="3.5" rx="1.0" fill="#d0d0d0"/>
  <g transform="translate(29.5, 0)">
    <path fill="#1e1e1e" fill-rule="evenodd" d="M1.657142857142857 107.0H2.12V106.44857142857143H2.5228571428571427C3.0599999999999987 106.44857142857143 3.3914285714285715 106.17142857142858 3.3914285714285715 105.72571428571429C3.3914285714285715 105.27428571428571 3.0599999999999987 105.0 2.5228571428571427 105.0H1.657142857142857ZM2.4971428571428573 105.37714285714286C2.782857142857143 105.37714285714286 2.9228571428571426 105.5047619047619 2.9228571428571426 105.72571428571429C2.9228571428571426 105.94285714285715 2.7828571428571425 106.07142857142857 2.4971428571428573 106.07142857142857H2.12V105.37714285714286Z"/>
    <path fill="#1e1e1e" fill-rule="evenodd" d="M4.720000000000001 107.03428571428572C5.188571428571428 107.03428571428572 5.562857142857142 106.79285714285714 5.728571428571429 106.41285714285715C5.8397557997558 106.15789987789988 5.8383484026521995 105.83508740204942 5.728571428571429 105.58714285714285C5.562857142857142 105.21285714285715 5.19142857142857 104.96571428571428 4.717142857142857 104.96571428571428C4.092380952380951 104.96571428571428 3.6228571428571428 105.40571428571428 3.6228571428571428 106.0C3.6228571428571428 106.59428571428572 4.0876190476190475 107.03428571428572 4.720000000000001 107.03428571428572ZM4.717142857142857 106.64C4.6276190476190475 106.64 4.544761904761905 106.62476190476191 4.468571428571429 106.59428571428572C4.24 106.50285714285714 4.091428571428572 106.28 4.091428571428572 106.0C4.091428571428571 105.61904761904762 4.359047619047617 105.36 4.717142857142857 105.36C5.0752380952380935 105.36 5.342857142857143 105.61904761904762 5.342857142857143 106.0C5.342857142857143 106.38095238095238 5.0752380952380935 106.64 4.717142857142857 106.64Z"/>
    <path fill="#1e1e1e" fill-rule="evenodd" d="M6.160000000000001 107.0H7.625714285714286V106.62285714285714H6.622857142857144V105.0H6.160000000000001Z"/>
    <path fill="#1e1e1e" fill-rule="evenodd" d="M8.382857142857144 107.0H8.845714285714287V106.29187384469168L9.622857142857143 105.0H9.168571428571429L8.63315614972796 105.88784053257534L8.100000000000001 105.0H7.608571428571429L8.382857142857144 106.28712430681502Z"/>
  </g>

  <!-- domino logo centered above bottom bar -->
  <g transform="translate(20.71,118.0) scale(0.75)">
    <rect x="0" y="0" width="12.5" height="5.5"
          rx="1.18" ry="1.2"
          fill="none" stroke="#d0d0d0" stroke-width="0.5"/>
    <rect x="6.125" y="0.5" width="0.25" height="4.5"
          fill="#d0d0d0"/>
    <circle cx="2.07"  cy="1.46" r="0.625" fill="#d0d0d0"/>
    <circle cx="4.19"  cy="4.11" r="0.625" fill="#d0d0d0"/>
    <circle cx="8.20"  cy="1.46" r="0.625" fill="#d0d0d0"/>
    <circle cx="10.32" cy="4.11" r="0.625" fill="#d0d0d0"/>
  </g>

</svg>
