<?xml version="1.0" encoding="UTF-8"?>
<svg xmlns="http://www.w3.org/2000/svg"
     width="50.8mm" height="128.5mm"
     viewBox="0 0 50.8 128.5">

  <rect width="50.8" height="128.5" fill="#1e1e1e"/>

  <!-- top accent: slants start just inside screw inner edges (10.16 / 40.64 mm) -->
  <polygon points="
    0,0 50.8,0 50.8,0.5
    40.64,0.5 38.16,2.0 12.64,2.0 10.16,0.5
    0,0.5
  " fill="#f26522"/>
  <rect x="0" y="127.5" width="50.8" height="1.0" fill="#f26522"/>

  <!-- title: XY (Bold) + 64 (Light), cap-top y=7, baseline y=11.125 -->
<g id="title">
  <path fill="#d0d0d0" fill-rule="evenodd" d="M17.62142857142857 11.125H18.717499999999998L19.69731356484549 9.691479640688215L20.69160714285714 11.125H21.793571428571425L20.25474524634225 8.991973597662788L21.693392857142854 7.0H20.65625L19.728066013881136 8.335448383603778L18.782321428571425 7.0H17.698035714285712L19.144873898369923 9.024568733487811Z"/>
  <path fill="#d0d0d0" fill-rule="evenodd" d="M23.325714285714284 11.125H24.28035714285714V9.6644898046766L25.883214285714285 7.0H24.94625L23.84195598738534 8.831171098436627L22.742321428571426 7.0H21.728749999999998L23.325714285714284 9.65469388280596Z"/>
  <path fill="#d0d0d0" fill-rule="evenodd" d="M27.77482142857143 11.154464285714285C28.564464285714283 11.154464285714285 29.14785714285714 10.665357142857145 29.14785714285714 9.911071428571429C29.14785714285714 9.168571428571429 28.59392857142857 8.685357142857143 27.76892857142857 8.685357142857143C27.14527029285714 8.685357142857143 26.627034393742512 8.992457117796517 26.456767790658134 9.534127110072545C26.4268427953671 9.34561871007967 26.419464285714284 9.162759602142858 26.419464285714284 9.03892857142857C26.419464285714284 7.836785714285714 27.024464285714284 7.235714285714286 27.951607142857142 7.235714285714286C28.265892857142855 7.235714285714286 28.552678571428572 7.290714285714286 28.764821428571427 7.424285714285714L28.888571428571428 7.182678571428571C28.637142857142855 7.025535714285715 28.30517857142857 6.970535714285714 27.951607142857142 6.970535714285714C26.855535714285715 6.970535714285714 26.118928571428572 7.68357142857143 26.118928571428572 9.08607142857143C26.118928571428572 10.370714285714286 26.690535714285712 11.154464285714285 27.77482142857143 11.154464285714285ZM27.763035714285714 10.895178571428572C26.996964285714284 10.895178571428572 26.584464285714287 10.411964285714285 26.584464285714287 9.92875C26.584464285714287 9.37482142857143 27.055892857142855 8.944642857142856 27.72767857142857 8.944642857142856C28.426964285714284 8.944642857142856 28.847321428571426 9.32767857142857 28.847321428571426 9.916964285714286C28.847321428571426 10.506250000000001 28.41125 10.895178571428572 27.763035714285714 10.895178571428572Z"/>
  <path fill="#d0d0d0" fill-rule="evenodd" d="M29.595714285714283 9.981785714285714H31.946964285714284V11.125H32.24160714285714V9.981785714285714H33.10785714285714V9.716607142857143H32.24160714285714V8.708928571428572H31.95285714285714V9.716607142857143H29.975596265792845L32.17089285714285 7.0H31.835L29.595714285714283 9.76375Z"/>
</g>
  <!-- X output badge - jack at y=45 -->
  <rect x="29.5" y="43.25" width="11" height="3.5" rx="1.0" fill="#d0d0d0"/>
  <g transform="translate(29.5, 0)">
  <path fill="#1e1e1e" fill-rule="evenodd" d="M4.488571428571429 46.0H5.0200000000000005L5.49506112234933 45.304959825788224L5.977142857142858 46.0H6.5114285714285725L5.765331028529577 44.96580538068499L6.4628571428571435 44.0H5.960000000000001L5.509971400669643 44.64749012538365L5.051428571428572 44.0H4.525714285714286L5.2272115870884495 44.981609082903184Z"/>
  </g>
  <!-- Y output badge - jack at y=60 -->
  <rect x="29.5" y="58.25" width="11" height="3.5" rx="1.0" fill="#d0d0d0"/>
  <g transform="translate(29.5, 0)">
  <path fill="#1e1e1e" fill-rule="evenodd" d="M5.268571428571428 61.0H5.731428571428571V60.291873844691686L6.508571428571428 59.0H6.054285714285713L5.518870435442243 59.88784053257533L4.985714285714285 59.0H4.494285714285714L5.268571428571428 60.28712430681501Z"/>
  </g>
  <!-- TRIG output badge - jack at y=75 -->
  <rect x="29.5" y="73.25" width="11" height="3.5" rx="1.0" fill="#d0d0d0"/>
  <g transform="translate(29.5, 0)">
  <path fill="#1e1e1e" fill-rule="evenodd" d="M2.6485714285714286 76.0H3.111428571428571V74.37714285714286H3.751428571428571V74.0H2.0085714285714285V74.37714285714286H2.6485714285714286Z"/>
  <path fill="#1e1e1e" fill-rule="evenodd" d="M3.9999999999999996 76.0H4.462857142857143V75.44285714285714H4.865714285714285C4.87299848 75.44285714285714 4.880244843280251 75.44280722694715 4.8874537222726 75.44268792288644L5.271428571428571 76.0H5.7714285714285705L5.324254673549107 75.35829282488142C5.5849321897297814 75.24558558371258 5.734285714285714 75.02491961142857 5.734285714285714 74.72571428571429C5.734285714285714 74.27238095238096 5.41047619047619 74.0 4.854285714285714 74.0H3.9999999999999996ZM4.84 74.37714285714286C5.1257142857142854 74.37714285714286 5.265714285714285 74.5047619047619 5.265714285714285 74.72571428571429C5.265714285714285 74.94285714285715 5.125714285714285 75.07428571428571 4.84 75.07428571428571H4.462857142857143V74.37714285714286Z"/>
  <path fill="#1e1e1e" fill-rule="evenodd" d="M6.1000000000000005 76.0H6.562857142857143V74.0H6.1000000000000005Z"/>
  <path fill="#1e1e1e" fill-rule="evenodd" d="M8.002857142857142 76.03428571428572C8.288571428571428 76.03428571428572 8.594285714285714 75.94380952380952 8.811428571428571 75.78V74.96857142857142H8.388571428571428V75.55509676252093C8.272979886008484 75.61531263835249 8.152979886008483 75.64 8.028571428571428 75.64C7.647619047619046 75.64 7.379999999999999 75.37333333333333 7.38 75.0C7.379999999999999 74.61904761904762 7.645714285714284 74.36 8.034285714285714 74.36C8.236190476190476 74.36 8.406666666666666 74.43333333333334 8.551428571428572 74.58571428571429L8.848571428571429 74.31142857142856C8.654285714285715 74.08666666666667 8.365714285714285 73.96571428571428 8.01142857142857 73.96571428571428C7.371428571428569 73.96571428571428 6.911428571428571 74.39809523809524 6.911428571428571 75.0C6.911428571428571 75.60190476190476 7.3704761904761895 76.03428571428572 8.002857142857142 76.03428571428572Z"/>
  </g>

  <!-- domino logo centered above bottom bar -->
  <g transform="translate(20.71,118.0) scale(0.75)">
    <rect x="0" y="0" width="12.5" height="5.5"
          rx="1.18" ry="1.2"
          fill="none" stroke="#d0d0d0" stroke-width="0.5"/>
    <rect x="6.125" y="0.5" width="0.25" height="4.5"
          fill="#d0d0d0"/>
    <circle cx="2.07"  cy="1.46" r="0.625" fill="#d0d0d0"/>
    <circle cx="4.19"  cy="4.11" r="0.625" fill="#d0d0d0"/>
    <circle cx="8.20"  cy="1.46" r="0.625" fill="#d0d0d0"/>
    <circle cx="10.32" cy="4.11" r="0.625" fill="#d0d0d0"/>
  </g>

</svg>
